<?xml version="1.0" encoding="utf-8"?>
<!-- Generator: Adobe Illustrator 21.0.2, SVG Export Plug-In . SVG Version: 6.00 Build 0)  -->
<svg version="1.1" id="Camada_1" xmlns="http://www.w3.org/2000/svg" xmlns:xlink="http://www.w3.org/1999/xlink" x="0px" y="0px"
	 viewBox="0 0 293.6 111.6" style="enable-background:new 0 0 293.6 111.6;" xml:space="preserve">
<style type="text/css">
	.st0{opacity:0.51;fill:#231F20;}
	.st1{opacity:0.5;fill:#231F20;}
	.st2{fill:#FFFFFF;}
	.st3{fill:#003D72;}
	.st4{fill:#FF7406;}
	.st5{font-family:'MyriadPro-Regular';}
	.st6{font-size:14.7167px;}
	.st7{font-family:'Stencil';}
	.st8{font-family:'PerpetuaTitlingMT-Light';}
</style>
<path class="st0" d="M77.2,102.8c-23.1,8.7-49-3-57.6-26.2c-6.3-16.8-2-35.7,11-48.1c2.1-2,5.4-1.9,7.4,0.2c2,2.1,1.9,5.4-0.2,7.4
	c-9.9,9.5-13.2,24-8.4,36.8c6.6,17.7,26.4,26.6,44.1,20c17.7-6.6,26.6-26.4,20-44.1c-4.9-13-17-21.7-30.8-22.2
	c-2.9-0.1-5.2-2.5-5.1-5.5c0.1-2.9,2.5-5.2,5.5-5.1c18.1,0.6,33.9,12,40.3,29C112.1,68.2,100.3,94.1,77.2,102.8z"/>
<path class="st1" d="M60.3,56.5c-2.7,1-5.8-0.4-6.8-3.1L37.6,11.1c-1-2.7,0.4-5.8,3.1-6.8c2.7-1,5.8,0.4,6.8,3.1l15.9,42.3
	C64.4,52.4,63,55.5,60.3,56.5z"/>
<path class="st2" d="M54,53.6c-2.7,1-5.8-0.4-6.8-3.1L31.3,8.3c-1-2.7,0.4-5.8,3.1-6.8c2.7-1,5.8,0.4,6.8,3.1l15.9,42.3
	C58.1,49.6,56.7,52.6,54,53.6z"/>
<path class="st3" d="M59.8,14.3c-2.9-0.1-5.3,2.2-5.5,5.1c-0.1,2.9,2.2,5.3,5.1,5.5c13.9,0.5,26,9.2,30.8,22.2
	c6.6,17.7-2.3,37.4-20,44.1c-17.7,6.6-37.4-2.3-44.1-20c-4.8-12.9-1.5-27.3,8.4-36.8c2.1-2,2.2-5.3,0.2-7.4c-2-2.1-5.3-2.2-7.4-0.2
	c-13,12.4-17.3,31.3-11,48.1c8.7,23.1,34.5,34.8,57.6,26.2c23.1-8.7,34.8-34.6,26.2-57.7C93.7,26.3,77.9,14.9,59.8,14.3z"/>
<path class="st4" d="M57,54.7c2.7-1,4.1-4.1,3.1-6.8L44.2,5.6c-1-2.7-4.1-4.1-6.8-3.1c-2.7,1-4.1,4.1-3.1,6.8l15.9,42.3
	C51.2,54.3,54.3,55.7,57,54.7z"/>
<text transform="matrix(1 0 0 1 88.8882 69.8058)"><tspan x="0" y="0" class="st5 st6">          </tspan><tspan x="31.2" y="0" class="st7 st6">JMRC </tspan><tspan x="73.2" y="0" class="st8 st6">Informática</tspan></text>
</svg>
