<?xml version="1.0" encoding="utf-8"?>
<!-- Generator: Adobe Illustrator 21.0.2, SVG Export Plug-In . SVG Version: 6.00 Build 0)  -->
<svg version="1.1" id="Camada_1" xmlns="http://www.w3.org/2000/svg" xmlns:xlink="http://www.w3.org/1999/xlink" x="0px" y="0px"
	 viewBox="0 0 107.8 27.3" style="enable-background:new 0 0 107.8 27.3;" xml:space="preserve">
<style type="text/css">
	.st0{fill:#E2E2E2;}
	.st1{fill:#862529;}
	.st2{fill:#EFEFEF;}
	.st3{fill:#2B2948;}
	.st4{fill:#E17449;}
	.st5{fill:#F3D35D;}
	.st6{fill:#2D5080;}
	.st7{fill:#37619D;}
	.st8{fill:#70C6D1;}
	.st9{fill:#1C244B;}
</style>
<g>
	<g>
		<g>
			<rect x="35" y="16.9" class="st0" width="2.4" height="2.8"/>
		</g>
		<g>
			<rect x="34.4" y="18.7" class="st0" width="3.7" height="4.1"/>
		</g>
		<g>
			<polygon class="st1" points="35.8,19.6 36.2,19.7 36.6,19.6 36.8,22 36.2,23.2 35.6,22 			"/>
		</g>
		<g>
			<path class="st1" d="M36.2,18.7c0.2-0.1,0.8,0,0.8,0V19l-0.4,0.6l-0.4,0.2l-0.4-0.2L35.4,19v-0.3C35.4,18.7,36,18.6,36.2,18.7z"
				/>
		</g>
		<g>
			<path class="st2" d="M33.8,14.8c0.2-0.2,0.5,0.1,0.5,0.1c0-2.3,1.9-2,1.9-2s1.9-0.3,1.9,2c0,0,0.3-0.3,0.5-0.1
				c0.2,0.2-0.1,1.7-0.5,1.4c0,0-0.4,2-1.9,2c-1.5,0-1.9-2-1.9-2C33.9,16.4,33.6,15,33.8,14.8z"/>
		</g>
		<g>
			<path class="st3" d="M34.6,18.3l1.6,4.2l1.6-4.2c3.8,0,3.2,5.5,3.2,5.5h-4.9h-4.9C31.3,23.8,30.7,18.3,34.6,18.3z"/>
		</g>
		<g>
			<path class="st2" d="M36.2,18.7c0,0,0.8-0.2,1.6,1l0.2-1.3c0,0-0.4-0.6-0.6-0.6C37.4,17.8,36.7,18.5,36.2,18.7z"/>
		</g>
		<g>
			<path class="st2" d="M36.2,18.7c0,0-0.8-0.2-1.6,1l-0.2-1.3c0,0,0.4-0.6,0.6-0.6C35,17.8,35.7,18.5,36.2,18.7z"/>
		</g>
		<g>
			<path class="st4" d="M34.9,13.8c0,0,1.5,1.4,3.3,1c0,0,0.2-0.2,0.3-0.2c0,0,0.3-1.8-0.9-2.3c-1.3-0.5-2.5-0.3-2.9,0.3
				c0,0-0.4,0-0.6,0.4c-0.1,0.4-0.1,1.7-0.1,1.7s0.1,0,0.4,0.2C34.3,14.8,34.5,14.5,34.9,13.8z"/>
		</g>
	</g>
	<g>
		<g>
			<path class="st5" d="M23.5,19c0,1.5-1.2,2.6-2.6,2.6l0,0c-1.5,0-2.6-1.2-2.6-2.6v-4.3c0-1.5,1.2-2.6,2.6-2.6l0,0
				c1.5,0,2.6,1.2,2.6,2.6V19z"/>
		</g>
		<g>
			<rect x="19.7" y="17" class="st0" width="2.4" height="2.8"/>
		</g>
		<g>
			<rect x="19" y="18.7" class="st6" width="3.7" height="4.1"/>
		</g>
		<g>
			<path class="st2" d="M23.2,14.8c-0.2-0.2-0.5,0.1-0.5,0.1c0-2.3-1.9-2-1.9-2s-1.9-0.3-1.9,2c0,0-0.3-0.3-0.5-0.1
				c-0.2,0.2,0.1,1.7,0.5,1.4c0,0,0.4,2,1.9,2c1.5,0,1.9-2,1.9-2C23.2,16.4,23.4,15,23.2,14.8z"/>
		</g>
		<g>
			<path class="st3" d="M22.5,18.4c0,0-0.5,2.7-1.6,2.7c-1.1,0-1.6-2.7-1.6-2.7c-0.9,0-2,0.7-2,0.7L16,23.8h4.9h4.9l-1.1-4.6
				C24.6,19.2,23.4,18.4,22.5,18.4z"/>
		</g>
		<g>
			<path class="st7" d="M20.9,18.7c0,0-0.8-0.2-1.6,1L19,18.4c0,0,0.4-0.6,0.6-0.6C19.6,17.8,20.4,18.5,20.9,18.7z"/>
		</g>
		<g>
			<path class="st7" d="M20.9,18.7c0,0,0.8-0.2,1.6,1l0.2-1.3c0,0-0.4-0.6-0.6-0.6C22.1,17.8,21.3,18.5,20.9,18.7z"/>
		</g>
		<g>
			<path class="st5" d="M22.2,13.6c0,0-2.3,1.8-3.2,1.3c0,0-0.6-2.2,2.1-2.2c1.6,0,2,1.8,1.8,2.2C22.8,14.8,22.2,14.3,22.2,13.6z"/>
		</g>
	</g>
	<g>
		<g>
			<rect x="27.1" y="18.4" class="st0" width="2.9" height="3.4"/>
		</g>
		<g>
			<rect x="26.3" y="20.5" class="st0" width="4.5" height="5"/>
		</g>
		<g>
			<polygon class="st1" points="29,21.6 28.5,21.8 28.1,21.6 27.8,24.5 28.5,26 29.2,24.5 			"/>
		</g>
		<g>
			<path class="st1" d="M28.5,20.6c-0.2-0.1-0.9,0-0.9,0v0.3l0.5,0.7l0.5,0.2l0.5-0.2l0.5-0.7v-0.3C29.5,20.6,28.8,20.5,28.5,20.6z"
				/>
		</g>
		<g>
			<path class="st2" d="M31.4,15.8c-0.2-0.3-0.6,0.1-0.6,0.1c0-2.8-2.3-2.4-2.3-2.4s-2.3-0.3-2.3,2.4c0,0-0.3-0.4-0.6-0.1
				c-0.2,0.3,0.1,2,0.6,1.7c0,0,0.4,2.4,2.3,2.4c1.9,0,2.3-2.4,2.3-2.4C31.3,17.8,31.7,16.1,31.4,15.8z"/>
		</g>
		<g>
			<path class="st3" d="M30.5,20.1l-2,5l-2-5c-4.6,0-3.9,6.6-3.9,6.6h5.9h5.9C34.4,26.7,35.2,20.1,30.5,20.1z"/>
		</g>
		<g>
			<path class="st2" d="M28.5,20.6c0,0-0.9-0.2-2,1.2l-0.2-1.6c0,0,0.4-0.7,0.7-0.7C27.1,19.4,28,20.3,28.5,20.6z"/>
		</g>
		<g>
			<path class="st2" d="M28.5,20.6c0,0,0.9-0.2,2,1.2l0.2-1.6c0,0-0.4-0.7-0.7-0.7C30,19.4,29.1,20.3,28.5,20.6z"/>
		</g>
		<g>
			<path class="st8" d="M30.2,14.6c0,0-1.8,1.8-3.9,1.2c0,0-0.2-0.2-0.4-0.2c0,0-0.4-2.1,1.1-2.8c1.6-0.7,3-0.3,3.5,0.3
				c0,0,0.5,0,0.7,0.4c0.2,0.4,0.1,2,0.1,2s-0.1,0-0.4,0.2C30.9,15.9,30.6,15.5,30.2,14.6z"/>
		</g>
	</g>
</g>
<g>
	<g>
		<path class="st2" d="M22.2,3.1c-1.7,0-3,1-3,2.3c0,1.2,1.4,2.3,3,2.3c0.2,0,0.4,0,0.6,0c0.2,0.6-0.2,1.3-0.2,1.3
			c1.1-0.3,1.2-1.2,1.2-1.6c0.9-0.4,1.5-1.1,1.5-1.9C25.3,4.2,23.9,3.1,22.2,3.1L22.2,3.1z"/>
	</g>
	<g>
		<g>
			<circle class="st9" cx="20.9" cy="5.6" r="0.3"/>
		</g>
		<g>
			<circle class="st9" cx="22.2" cy="5.6" r="0.3"/>
		</g>
		<g>
			<circle class="st9" cx="23.5" cy="5.6" r="0.3"/>
		</g>
	</g>
	<g>
		<path class="st9" d="M19.1,5.3c-1.5,0-2.6,0.9-2.6,2C16.5,8,17,8.6,17.7,9c0,0.3,0.1,1.1,1.1,1.4c0,0-0.4-0.6-0.2-1.1
			c0.2,0,0.3,0,0.5,0c1.5,0,2.6-0.9,2.6-2C21.7,6.2,20.6,5.3,19.1,5.3z"/>
	</g>
	<g>
		<circle class="st2" cx="17.8" cy="7.8" r="0.3"/>
	</g>
	<g>
		<circle class="st2" cx="19.1" cy="7.8" r="0.3"/>
	</g>
	<g>
		<circle class="st2" cx="20.4" cy="7.8" r="0.3"/>
	</g>
</g>
<g>
	<g>
		<path class="st8" d="M34.3,7.2l-0.2-0.1c0-0.1,0-0.3,0-0.4l0.2-0.1c0.1-0.1,0.2-0.2,0.1-0.3l-0.1-0.2C34.2,6,34.1,5.9,34,6
			l-0.2,0.1c-0.1-0.1-0.2-0.2-0.3-0.3l0.1-0.2c0-0.1,0-0.2-0.1-0.3l-0.2-0.1c-0.1,0-0.2,0-0.3,0.1l-0.1,0.2c-0.1,0-0.3,0-0.4,0
			l-0.1-0.2c-0.1-0.1-0.2-0.2-0.3-0.1l-0.2,0.1c-0.1,0.1-0.2,0.2-0.1,0.3l0.1,0.2c-0.1,0.1-0.2,0.2-0.3,0.3l-0.2-0.1
			c-0.1,0-0.2,0-0.3,0.1l-0.1,0.2c0,0.1,0,0.1,0,0.2c0,0.1,0.1,0.1,0.1,0.1l0.2,0.1c0,0.1,0,0.3,0,0.4l-0.2,0.1
			C31,7.3,30.9,7.5,31,7.6l0.1,0.2c0.1,0.1,0.2,0.2,0.3,0.1l0.2-0.1c0.1,0.1,0.2,0.2,0.3,0.3l-0.1,0.2c0,0.1,0,0.1,0,0.2
			c0,0.1,0.1,0.1,0.1,0.1l0.2,0.1c0.1,0,0.1,0,0.2,0c0.1,0,0.1-0.1,0.1-0.1l0.1-0.2c0.1,0,0.3,0,0.4,0L33,8.5
			c0.1,0.1,0.2,0.2,0.3,0.1l0.2-0.1c0.1-0.1,0.2-0.2,0.1-0.3l-0.1-0.2c0.1-0.1,0.2-0.2,0.3-0.3L34,7.8c0.1,0,0.1,0,0.2,0
			c0.1,0,0.1-0.1,0.1-0.1l0.1-0.2C34.4,7.3,34.4,7.2,34.3,7.2L34.3,7.2z M33,7.7c-0.1,0.1-0.2,0.1-0.4,0.1c-0.3,0-0.7-0.2-0.8-0.5
			c-0.2-0.4,0-1,0.4-1.2c0.1-0.1,0.2-0.1,0.4-0.1c0.3,0,0.7,0.2,0.8,0.5C33.7,7,33.5,7.5,33,7.7L33,7.7z M33,7.7"/>
	</g>
	<g>
		<path class="st9" d="M38.8,3.9l-0.3-0.1c0-0.2,0-0.5,0-0.7l0.3-0.1c0.2-0.1,0.3-0.3,0.2-0.5l-0.2-0.4c-0.1-0.2-0.3-0.3-0.5-0.2
			L38,2c-0.1-0.2-0.3-0.3-0.5-0.5l0.1-0.3c0.1-0.2,0-0.4-0.2-0.5L37,0.6c-0.2-0.1-0.4,0-0.5,0.2l-0.1,0.3c-0.2,0-0.5,0-0.7,0
			l-0.1-0.3c-0.1-0.2-0.3-0.3-0.5-0.2l-0.4,0.2c-0.2,0.1-0.3,0.3-0.2,0.5l0.1,0.3c-0.2,0.1-0.3,0.3-0.5,0.5l-0.3-0.1
			c-0.2-0.1-0.4,0-0.5,0.2l-0.1,0.4c0,0.1,0,0.2,0,0.3c0,0.1,0.1,0.2,0.2,0.2l0.3,0.1c0,0.2,0,0.5,0,0.7l-0.3,0.1
			c-0.2,0.1-0.3,0.3-0.2,0.5L33.5,5c0.1,0.2,0.3,0.3,0.5,0.2L34.3,5c0.1,0.2,0.3,0.3,0.5,0.5l-0.1,0.3c0,0.1,0,0.2,0,0.3
			c0,0.1,0.1,0.2,0.2,0.2l0.4,0.1c0.1,0,0.2,0,0.3,0c0.1,0,0.2-0.1,0.2-0.2l0.1-0.3c0.2,0,0.5,0,0.7,0l0.1,0.3
			c0.1,0.2,0.3,0.3,0.5,0.2l0.4-0.2c0.2-0.1,0.3-0.3,0.2-0.5l-0.1-0.3c0.2-0.1,0.3-0.3,0.5-0.5L38.4,5c0.1,0,0.2,0,0.3,0
			c0.1,0,0.2-0.1,0.2-0.2L39,4.4C39.1,4.2,39,4,38.8,3.9L38.8,3.9z M36.7,4.9C36.5,5,36.3,5,36.1,5c-0.6,0-1.1-0.3-1.3-0.9
			c-0.3-0.7,0-1.6,0.7-2C35.7,2.1,35.9,2,36.1,2c0.6,0,1.1,0.3,1.3,0.9C37.8,3.6,37.5,4.5,36.7,4.9L36.7,4.9z M36.7,4.9"/>
	</g>
</g>
</svg>
