<?xml version="1.0" encoding="utf-8"?>
<!-- Generator: Adobe Illustrator 21.0.2, SVG Export Plug-In . SVG Version: 6.00 Build 0)  -->
<svg version="1.1" id="Camada_1" xmlns="http://www.w3.org/2000/svg" xmlns:xlink="http://www.w3.org/1999/xlink" x="0px" y="0px"
	 viewBox="0 0 171 36" style="enable-background:new 0 0 171 36;" xml:space="preserve">
<style type="text/css">
	.st0{fill:#232323;}
	.st1{fill:#444444;}
	.st2{fill:#63D0E7;}
	.st3{fill:#41403C;}
	.st4{fill:none;stroke:#EAEAEA;stroke-width:2;stroke-miterlimit:10;}
	.st5{fill:url(#XMLID_145_);}
	.st6{fill:url(#XMLID_152_);}
	.st7{fill:#3B3C3F;}
	.st8{fill:#253B7D;}
	.st9{fill:#3048A9;}
	.st10{fill:url(#XMLID_153_);}
	.st11{fill:#939393;}
	.st12{fill:#AAAAAA;}
	.st13{fill:#F2F2F2;}
	.st14{fill:url(#XMLID_154_);}
	.st15{fill:url(#XMLID_159_);}
	.st16{fill:#94BC69;}
	.st17{fill:none;stroke:#FFFFFF;stroke-width:3;stroke-miterlimit:10;}
	.st18{fill:#ABCACE;}
	.st19{fill:#D7F9F6;}
	.st20{fill:#C3DDDC;}
	.st21{fill:#666666;}
	.st22{fill:#A2BCBA;}
	.st23{fill:#A8A8A8;}
	.st24{fill:#8E8E8E;}
	.st25{fill:#5BAAA4;}
	.st26{fill:#3D7F79;}
	.st27{fill:#EA8A2A;}
	.st28{fill:#C1C1C1;}
	.st29{fill:#8E7049;}
	.st30{fill:#59BAC6;}
	.st31{fill:#647F40;}
	.st32{fill:#E5E5E5;}
	.st33{fill:#EDEDED;}
	.st34{fill:#C8CCCC;}
	.st35{fill:#E1E2AA;}
	.st36{fill:#418899;}
	.st37{fill:#7C6645;}
	.st38{fill:#5BC0CE;}
	.st39{fill:#937A51;}
	.st40{fill:#B29262;}
	.st41{fill:#C4C4C4;}
	.st42{fill:#F7F7F7;}
	.st43{fill:#5E4C35;}
	.st44{fill:#98DD4E;}
	.st45{fill:#BC5E2F;}
	.st46{fill:#D8D8D8;}
	.st47{fill:#E57435;}
	.st48{fill:#C6C6C6;}
	.st49{fill:#FFFFFF;}
</style>
<g id="XMLID_4_">
	<g id="XMLID_110_">
		<g id="XMLID_1052_">
			<g id="XMLID_1786_">
				<g>
					<path id="XMLID_199_" class="st0" d="M122.6,33.5c-0.5,0.3-1.1,0.5-1.7,0.5c-0.6,0-1.2-0.2-1.7-0.5l-13-7.5
						c-0.4-0.2-0.7-0.7-0.7-1.2c0-0.5,0.3-1,0.7-1.2l27.3-15.7c0.4-0.2,0.9-0.4,1.4-0.4c0.5,0,1,0.1,1.4,0.4l13.3,7.6
						c0.4,0.2,0.7,0.7,0.7,1.2c0,0.5-0.3,1-0.7,1.2L122.6,33.5z"/>
					<rect id="XMLID_198_" x="105.4" y="23.1" class="st0" width="1.3" height="1.7"/>
					<rect id="XMLID_197_" x="148.8" y="14.9" class="st0" width="1.3" height="1.8"/>
				</g>
			</g>
			<path id="XMLID_1778_" class="st1" d="M122.6,31.7c-0.5,0.3-1.1,0.5-1.7,0.5c-0.6,0-1.2-0.2-1.7-0.5l-13-7.5
				c-0.4-0.2-0.7-0.7-0.7-1.2c0-0.5,0.3-1,0.7-1.2l27.3-15.7c0.4-0.2,0.9-0.4,1.4-0.4c0.5,0,1,0.1,1.4,0.4l13.3,7.6
				c0.4,0.2,0.7,0.7,0.7,1.2c0,0.5-0.3,1-0.7,1.2L122.6,31.7z"/>
			<polygon id="XMLID_1775_" class="st2" points="108.8,21.4 131.9,8 146.7,16.6 123.6,29.9 			"/>
			<g id="XMLID_1767_">
				<path id="XMLID_1772_" class="st3" d="M111.9,25.4c0.8-0.4,1.7-0.4,2.4,0c0.7,0.4,0.7,0.9,0,1.4c-0.7,0.4-1.6,0.4-2.4,0
					C111.1,26.3,111.1,25.8,111.9,25.4z"/>
				<path id="XMLID_1769_" class="st4" d="M112.4,25.7c0.4-0.2,0.9-0.2,1.3,0c0.4,0.2,0.4,0.5,0,0.8c-0.4,0.2-0.9,0.2-1.3,0
					C112,26.2,112,25.9,112.4,25.7z"/>
				
					<radialGradient id="XMLID_145_" cx="114.2122" cy="26.8004" r="2.0703" gradientTransform="matrix(-0.4385 -0.8987 1.2749 -0.6221 130.1289 146.1171)" gradientUnits="userSpaceOnUse">
					<stop  offset="0" style="stop-color:#FFFFFF;stop-opacity:0"/>
					<stop  offset="0.1342" style="stop-color:#EFEFEF;stop-opacity:0.1342"/>
					<stop  offset="0.5165" style="stop-color:#C6C6C6;stop-opacity:0.5165"/>
					<stop  offset="0.8182" style="stop-color:#ADADAD;stop-opacity:0.8182"/>
					<stop  offset="1" style="stop-color:#A3A3A3"/>
				</radialGradient>
				<path id="XMLID_1768_" class="st5" d="M111.9,25.4c0.8-0.4,1.7-0.4,2.4,0c0.7,0.4,0.7,0.9,0,1.4c-0.7,0.4-1.6,0.4-2.4,0
					C111.1,26.3,111.1,25.8,111.9,25.4z"/>
			</g>
			<g id="XMLID_1764_">
				<path id="XMLID_1766_" class="st0" d="M137.5,8.7c0,0,0.1,0,0.1,0c0.1,0,0.1,0,0.1,0l5.3,3c0,0,0.1,0.1,0.1,0.1s0,0.1-0.1,0.1
					l-0.4,0.2c-0.1,0-0.1,0.1-0.2,0.1s-0.1,0-0.2-0.1l-5.1-3c0,0-0.1-0.1-0.1-0.1c0-0.1,0-0.1,0.1-0.1L137.5,8.7z"/>
				<linearGradient id="XMLID_152_" gradientUnits="userSpaceOnUse" x1="139.0647" y1="8.2594" x2="140.47" y2="11.261">
					<stop  offset="0" style="stop-color:#A3A3A3"/>
					<stop  offset="0.1818" style="stop-color:#ADADAD;stop-opacity:0.8182"/>
					<stop  offset="0.4835" style="stop-color:#C6C6C6;stop-opacity:0.5165"/>
					<stop  offset="0.8658" style="stop-color:#EFEFEF;stop-opacity:0.1342"/>
					<stop  offset="1" style="stop-color:#FFFFFF;stop-opacity:0"/>
				</linearGradient>
				<path id="XMLID_1765_" class="st6" d="M137.5,8.7c0,0,0.1,0,0.1,0c0.1,0,0.1,0,0.1,0l5.3,3c0,0,0.1,0.1,0.1,0.1s0,0.1-0.1,0.1
					l-0.4,0.2c-0.1,0-0.1,0.1-0.2,0.1s-0.1,0-0.2-0.1l-5.1-3c0,0-0.1-0.1-0.1-0.1c0-0.1,0-0.1,0.1-0.1L137.5,8.7z"/>
			</g>
			<g id="XMLID_1053_">
				<g id="XMLID_1715_">
					<g id="XMLID_1717_">
						<g id="XMLID_1758_">
							<path id="XMLID_1759_" class="st7" d="M135.7,8c0.3-0.2,0.7-0.2,0.9,0c0.3,0.2,0.3,0.4,0,0.5c-0.3,0.2-0.6,0.2-0.9,0
								S135.4,8.2,135.7,8z"/>
						</g>
						<g id="XMLID_1748_">
							<g>
								<g id="XMLID_171_">
									<path class="st8" d="M135.9,8.1c0.1-0.1,0.3-0.1,0.5,0s0.1,0.2,0,0.3c-0.1,0.1-0.3,0.1-0.5,0S135.8,8.2,135.9,8.1z"/>
								</g>
							</g>
						</g>
						<g id="XMLID_1718_">
							<g>
								<g id="XMLID_169_">
									<path class="st9" d="M136,8.2c0.1,0,0.2,0,0.3,0c0.1,0,0.1,0.1,0,0.2c-0.1,0-0.2,0-0.3,0C136,8.3,136,8.2,136,8.2z"/>
								</g>
							</g>
						</g>
					</g>
					
						<radialGradient id="XMLID_153_" cx="172.1918" cy="-230.6263" r="0.7858" gradientTransform="matrix(-1 0 0 -1 308.8756 -222.1091)" gradientUnits="userSpaceOnUse">
						<stop  offset="0" style="stop-color:#FFFFFF;stop-opacity:0"/>
						<stop  offset="1" style="stop-color:#A3A3A3"/>
					</radialGradient>
					<path id="XMLID_1716_" class="st10" d="M135.7,8.5c0.3,0.2,0.6,0.2,0.9,0c0.3-0.2,0.3-0.4,0-0.5c-0.3-0.2-0.6-0.2-0.9,0
						C135.4,8.2,135.4,8.4,135.7,8.5z"/>
				</g>
				<g id="XMLID_1057_">
					<g id="XMLID_1059_">
						<g id="XMLID_1060_">
							<g id="XMLID_1711_">
								<path id="XMLID_1712_" class="st11" d="M134.9,7.6c0.1-0.1,0.3-0.1,0.5,0s0.1,0.2,0,0.3c-0.1,0.1-0.3,0.1-0.5,0
									C134.8,7.7,134.8,7.6,134.9,7.6z"/>
							</g>
							<g id="XMLID_1703_">
								<g>
									<g id="XMLID_167_">
										<path class="st12" d="M135,7.6c0.1,0,0.2,0,0.2,0c0.1,0,0.1,0.1,0,0.1c-0.1,0-0.2,0-0.2,0C135,7.7,135,7.7,135,7.6z"/>
									</g>
								</g>
							</g>
							<g id="XMLID_1061_">
								<g>
									<g id="XMLID_166_">
										<path class="st13" d="M135.1,7.6c0,0,0.1,0,0.1,0c0,0,0,0.1,0,0.1C135.2,7.7,135.1,7.7,135.1,7.6
											C135.1,7.7,135.1,7.7,135.1,7.6z"/>
									</g>
								</g>
							</g>
						</g>
					</g>
					<radialGradient id="XMLID_154_" cx="135.3265" cy="7.8415" r="0.4928" gradientUnits="userSpaceOnUse">
						<stop  offset="0.1314" style="stop-color:#FFFFFF;stop-opacity:0"/>
						<stop  offset="0.2953" style="stop-color:#FAFAFA;stop-opacity:0.1887"/>
						<stop  offset="0.487" style="stop-color:#ECECEC;stop-opacity:0.4094"/>
						<stop  offset="0.6926" style="stop-color:#D4D4D4;stop-opacity:0.6462"/>
						<stop  offset="0.9066" style="stop-color:#B4B4B4;stop-opacity:0.8925"/>
						<stop  offset="1" style="stop-color:#A3A3A3"/>
					</radialGradient>
					<path id="XMLID_1058_" class="st14" d="M135.4,7.6c-0.1-0.1-0.3-0.1-0.5,0c-0.1,0.1-0.1,0.2,0,0.3c0.1,0.1,0.3,0.1,0.5,0
						C135.5,7.7,135.5,7.6,135.4,7.6z"/>
				</g>
				<g id="XMLID_1054_">
					<path id="XMLID_1056_" class="st0" d="M144.2,12.6C144.2,12.6,144.2,12.6,144.2,12.6C144.2,12.6,144.2,12.6,144.2,12.6
						C144.1,12.6,144.1,12.6,144.2,12.6c-0.1-0.1-0.1-0.1-0.1-0.1c0,0-0.1,0-0.1,0c0,0-0.1,0-0.1,0c0,0,0,0-0.1,0c0,0-0.1,0-0.1,0
						c0,0,0,0-0.1,0c-0.1,0.1-0.1,0.1-0.1,0.2c0,0,0,0.1,0.1,0.1c0,0,0.1,0,0.1,0c0,0,0,0,0.1,0c0.1,0,0.2,0,0.3-0.1
						C144.1,12.8,144.2,12.7,144.2,12.6C144.2,12.7,144.2,12.7,144.2,12.6z"/>
					<linearGradient id="XMLID_159_" gradientUnits="userSpaceOnUse" x1="143.5088" y1="12.6672" x2="144.1799" y2="12.6672">
						<stop  offset="0" style="stop-color:#A3A3A3"/>
						<stop  offset="0.1818" style="stop-color:#ADADAD;stop-opacity:0.8182"/>
						<stop  offset="0.4835" style="stop-color:#C6C6C6;stop-opacity:0.5165"/>
						<stop  offset="0.8658" style="stop-color:#EFEFEF;stop-opacity:0.1342"/>
						<stop  offset="1" style="stop-color:#FFFFFF;stop-opacity:0"/>
					</linearGradient>
					<path id="XMLID_1055_" class="st15" d="M144.2,12.6C144.2,12.6,144.2,12.6,144.2,12.6C144.2,12.6,144.2,12.6,144.2,12.6
						C144.1,12.6,144.1,12.6,144.2,12.6c-0.1-0.1-0.1-0.1-0.1-0.1c0,0-0.1,0-0.1,0c0,0-0.1,0-0.1,0c0,0,0,0-0.1,0c0,0-0.1,0-0.1,0
						c0,0,0,0-0.1,0c-0.1,0.1-0.1,0.1-0.1,0.2c0,0,0,0.1,0.1,0.1c0,0,0.1,0,0.1,0c0,0,0,0,0.1,0c0.1,0,0.2,0,0.3-0.1
						C144.1,12.8,144.2,12.7,144.2,12.6C144.2,12.7,144.2,12.7,144.2,12.6z"/>
				</g>
			</g>
		</g>
		<polygon id="XMLID_1051_" class="st16" points="120.3,24.1 113.8,20.3 121.9,15.9 128.3,19.4 		"/>
		<polygon id="XMLID_1050_" class="st16" points="134.7,22.2 128.2,18.5 136.4,14.1 142.8,17.6 		"/>
		<polygon id="XMLID_1047_" class="st1" points="126.4,27 120.3,23.5 127.9,19.3 133.9,22.7 		"/>
		<g id="XMLID_973_">
			<g>
				<line class="st17" x1="120" y1="24.1" x2="125.2" y2="21.1"/>
				<line class="st17" x1="130.4" y1="18.1" x2="135.6" y2="15.1"/>
			</g>
		</g>
		<polygon id="XMLID_965_" class="st1" points="128.9,19.1 122.4,15.3 130.6,10.9 137,14.4 		"/>
		<g id="XMLID_807_">
			<g id="XMLID_898_">
				<polygon id="XMLID_964_" class="st18" points="131.4,13.3 129.5,14.4 131.4,15.5 133.2,14.4 				"/>
				<polygon id="XMLID_963_" class="st19" points="131.4,9.7 129.5,10.7 131.4,11.8 133.2,10.7 				"/>
				<polygon id="XMLID_962_" class="st20" points="131.4,15.5 129.5,14.4 129.5,10.7 131.4,11.8 				"/>
				<g id="XMLID_940_">
					<g id="XMLID_955_">
						<polygon id="XMLID_959_" class="st21" points="130.3,12.2 129.9,12 129.9,11.4 130.3,11.6 						"/>
						<polygon id="XMLID_956_" class="st21" points="130.9,12.6 130.6,12.4 130.6,11.7 130.9,11.9 						"/>
					</g>
					<g id="XMLID_948_">
						<polygon id="XMLID_952_" class="st21" points="130.3,13 129.9,12.8 129.9,12.1 130.3,12.3 						"/>
						<polygon id="XMLID_949_" class="st21" points="130.9,13.3 130.6,13.1 130.6,12.5 130.9,12.7 						"/>
					</g>
					<g id="XMLID_941_">
						<polygon id="XMLID_945_" class="st21" points="130.3,13.7 129.9,13.5 129.9,12.9 130.3,13.1 						"/>
						<polygon id="XMLID_942_" class="st21" points="130.9,14.1 130.6,13.9 130.6,13.2 130.9,13.4 						"/>
					</g>
				</g>
				<polygon id="XMLID_939_" class="st22" points="131.4,15.5 133.2,14.4 133.2,10.7 131.4,11.8 				"/>
				<g id="XMLID_910_">
					<g id="XMLID_932_">
						<polygon id="XMLID_936_" class="st1" points="132.1,14 131.8,14.2 131.8,14.8 132.1,14.6 						"/>
						<polygon id="XMLID_933_" class="st1" points="132.8,13.6 132.4,13.8 132.4,14.5 132.8,14.3 						"/>
					</g>
					<g id="XMLID_925_">
						<polygon id="XMLID_929_" class="st1" points="132.1,13.2 131.8,13.4 131.8,14 132.1,13.9 						"/>
						<polygon id="XMLID_926_" class="st1" points="132.8,12.9 132.4,13.1 132.4,13.7 132.8,13.5 						"/>
					</g>
					<g id="XMLID_918_">
						<polygon id="XMLID_922_" class="st1" points="132.1,12.5 131.8,12.7 131.8,13.3 132.1,13.1 						"/>
						<polygon id="XMLID_919_" class="st1" points="132.8,12.1 132.4,12.3 132.4,13 132.8,12.8 						"/>
					</g>
					<g id="XMLID_911_">
						<polygon id="XMLID_915_" class="st1" points="132.1,11.7 131.8,11.9 131.8,12.5 132.1,12.4 						"/>
						<polygon id="XMLID_912_" class="st1" points="132.8,11.4 132.4,11.6 132.4,12.2 132.8,12 						"/>
					</g>
				</g>
				<g id="XMLID_903_">
					<polygon id="XMLID_907_" class="st21" points="130.8,15.1 130.4,14.8 130.4,14.1 130.8,14.3 					"/>
					<polygon id="XMLID_904_" class="st21" points="130.4,14.8 130,14.6 130,13.8 130.4,14.1 					"/>
				</g>
				<g id="XMLID_899_">
					<polygon id="XMLID_902_" class="st23" points="131,14.3 130.8,14.4 129.9,13.9 130,13.8 					"/>
					<polygon id="XMLID_901_" class="st24" points="129.9,13.9 129.9,13.9 130.8,14.5 130.8,14.4 					"/>
					<polygon id="XMLID_900_" class="st21" points="130.8,14.5 131,14.4 131,14.3 130.8,14.4 					"/>
				</g>
			</g>
			<g id="XMLID_809_">
				<polygon id="XMLID_897_" class="st18" points="128.1,14.3 125.6,15.8 128.1,17.2 130.6,15.8 				"/>
				<polygon id="XMLID_896_" class="st19" points="128.1,9.4 125.6,10.9 128.1,12.3 130.6,10.9 				"/>
				<polygon id="XMLID_895_" class="st20" points="128.1,17.2 125.6,15.8 125.6,10.9 128.1,12.3 				"/>
				<g id="XMLID_873_">
					<g id="XMLID_888_">
						<polygon id="XMLID_892_" class="st25" points="126.6,12.9 126.2,12.6 126.2,11.8 126.6,12 						"/>
						<polygon id="XMLID_889_" class="st25" points="127.5,13.3 127.1,13.1 127.1,12.2 127.5,12.5 						"/>
					</g>
					<g id="XMLID_881_">
						<polygon id="XMLID_885_" class="st25" points="126.6,13.9 126.2,13.6 126.2,12.8 126.6,13 						"/>
						<polygon id="XMLID_882_" class="st25" points="127.5,14.3 127.1,14.1 127.1,13.2 127.5,13.5 						"/>
					</g>
					<g id="XMLID_874_">
						<polygon id="XMLID_878_" class="st25" points="126.6,14.9 126.2,14.6 126.2,13.8 126.6,14 						"/>
						<polygon id="XMLID_875_" class="st25" points="127.5,15.3 127.1,15.1 127.1,14.2 127.5,14.5 						"/>
					</g>
				</g>
				<polygon id="XMLID_872_" class="st22" points="128.1,17.2 130.6,15.8 130.6,10.9 128.1,12.3 				"/>
				<g id="XMLID_833_">
					<g>
						<g id="XMLID_279_">
							<g id="XMLID_282_">
								<polygon class="st26" points="129.1,14.2 128.7,14.5 128.7,15.3 129.1,15.1 								"/>
							</g>
							<g id="XMLID_281_">
								<polygon class="st26" points="130,13.8 129.6,14 129.6,14.9 130,14.6 								"/>
							</g>
						</g>
						<g id="XMLID_274_">
							<g id="XMLID_278_">
								<polygon class="st26" points="129.1,13.2 128.7,13.5 128.7,14.3 129.1,14.1 								"/>
							</g>
							<g id="XMLID_277_">
								<polygon class="st26" points="130,12.8 129.6,13 129.6,13.9 130,13.6 								"/>
							</g>
						</g>
						<g id="XMLID_270_">
							<g id="XMLID_273_">
								<polygon class="st26" points="129.1,12.2 128.7,12.5 128.7,13.3 129.1,13.1 								"/>
							</g>
							<g id="XMLID_271_">
								<polygon class="st26" points="130,11.7 129.6,12 129.6,12.8 130,12.6 								"/>
							</g>
						</g>
					</g>
				</g>
				<g id="XMLID_826_">
					<polygon id="XMLID_830_" class="st21" points="127.4,16.7 126.9,16.4 126.9,15.4 127.4,15.7 					"/>
					<polygon id="XMLID_827_" class="st21" points="126.9,16.4 126.3,16.1 126.3,15 126.9,15.4 					"/>
				</g>
				<g id="XMLID_822_">
					<polygon id="XMLID_825_" class="st23" points="127.6,15.7 127.4,15.8 126.1,15.1 126.3,15 					"/>
					<polygon id="XMLID_824_" class="st24" points="126.1,15.1 126.1,15.1 127.4,15.9 127.4,15.8 					"/>
					<polygon id="XMLID_823_" class="st21" points="127.4,15.9 127.6,15.8 127.6,15.7 127.4,15.8 					"/>
				</g>
				<g id="XMLID_815_">
					<polygon id="XMLID_819_" class="st21" points="129,16.6 129.5,16.3 129.5,15.3 129,15.6 					"/>
					<polygon id="XMLID_816_" class="st21" points="129.5,16.3 130,16 130,14.9 129.5,15.3 					"/>
				</g>
				<g id="XMLID_811_">
					<polygon id="XMLID_814_" class="st23" points="128.8,15.6 129,15.7 130.2,15 130,14.9 					"/>
					<polygon id="XMLID_813_" class="st24" points="130.2,15 130.2,15 129,15.8 129,15.7 					"/>
					<polygon id="XMLID_812_" class="st21" points="129,15.8 128.8,15.7 128.8,15.6 129,15.7 					"/>
				</g>
				<polygon id="XMLID_810_" class="st27" points="129,10.6 128.7,10.3 128.1,10.7 127.6,10.4 127.3,10.6 127.7,10.9 127.2,11.2 
					127.5,11.4 128.1,11.1 128.6,11.4 128.9,11.1 128.5,10.9 				"/>
			</g>
			<polygon id="XMLID_808_" class="st28" points="131.4,15.5 132.6,14.7 131.4,14 131.4,13.4 130.6,11.4 130.6,15 			"/>
		</g>
		<polygon id="XMLID_806_" class="st21" points="138.6,14.3 138,13.3 128.9,18.5 128.4,18.2 128.2,18.4 122.6,15.2 121.5,15.8 
			127.5,19.3 120.2,23.4 120.2,23.4 120.2,23.4 119.7,23.7 113.8,20.3 112.6,20.9 118.6,24.4 125,28 126.4,27 121.4,24.1 
			128.9,19.9 133.8,22.7 135.1,22 130,19.2 		"/>
		<g id="XMLID_796_">
			<g>
				<g id="XMLID_188_">
					<ellipse class="st1" cx="134.9" cy="19.2" rx="2.2" ry="1.3"/>
				</g>
				<rect id="XMLID_187_" x="132.6" y="18.9" class="st1" width="4.4" height="0.3"/>
			</g>
		</g>
		<ellipse id="XMLID_793_" class="st29" cx="134.9" cy="18.9" rx="2.2" ry="1.3"/>
		<ellipse id="XMLID_790_" class="st30" cx="134.9" cy="18.9" rx="1.9" ry="1.1"/>
		<g id="XMLID_784_">
			<rect id="XMLID_787_" x="135.1" y="20" class="st29" width="0.2" height="1"/>
			<circle id="XMLID_786_" class="st31" cx="135.2" cy="19.7" r="0.6"/>
			<path id="XMLID_785_" class="st31" d="M135.3,20.9c0,0-0.1-0.1-0.1-0.1c-0.1,0-0.1,0.1-0.1,0.1c0,0,0,0,0,0c0,0-0.1,0-0.1,0.1
				c0,0,0,0.1,0.1,0.1c0,0,0,0,0,0c0,0,0,0.1,0.1,0.1c0,0,0.1,0,0.1-0.1c0,0,0,0,0,0c0,0,0,0,0,0c0.1,0,0.1,0,0.1-0.1
				C135.4,21,135.3,20.9,135.3,20.9z"/>
		</g>
		<g id="XMLID_766_">
			<polygon id="XMLID_783_" class="st32" points="120.7,23.9 121.2,23.6 121,23.5 120.5,23.8 			"/>
			<polygon id="XMLID_782_" class="st32" points="121.7,23.3 122.2,23.1 122,23 121.5,23.2 			"/>
			<polygon id="XMLID_781_" class="st32" points="122.6,22.8 123.1,22.6 122.9,22.5 122.4,22.7 			"/>
			<polygon id="XMLID_780_" class="st32" points="123.5,22.3 124,22.1 123.8,22 123.4,22.2 			"/>
			<polygon id="XMLID_779_" class="st32" points="124.5,21.9 124.9,21.6 124.8,21.5 124.3,21.7 			"/>
			<polygon id="XMLID_778_" class="st32" points="125.4,21.4 125.8,21.1 125.7,21 125.2,21.2 			"/>
			<polygon id="XMLID_777_" class="st32" points="126.3,20.9 126.8,20.6 126.6,20.5 126.1,20.8 			"/>
			<polygon id="XMLID_776_" class="st32" points="127.2,20.4 127.7,20.1 127.5,20 127,20.3 			"/>
			<polygon id="XMLID_775_" class="st32" points="128.1,19.9 128.6,19.6 128.4,19.5 127.9,19.8 			"/>
			<polygon id="XMLID_774_" class="st32" points="129,19.4 129.5,19.1 129.3,19 128.8,19.3 			"/>
			<polygon id="XMLID_773_" class="st32" points="129.9,18.9 130.4,18.6 130.2,18.5 129.7,18.8 			"/>
			<polygon id="XMLID_772_" class="st32" points="130.8,18.4 131.3,18.1 131.1,18 130.6,18.3 			"/>
			<polygon id="XMLID_771_" class="st32" points="131.7,17.7 132.1,17.4 132,17.3 131.5,17.6 			"/>
			<polygon id="XMLID_770_" class="st32" points="132.7,17.2 133.2,16.9 133,16.8 132.5,17.1 			"/>
			<polygon id="XMLID_769_" class="st32" points="133.6,16.7 134.1,16.4 133.9,16.3 133.4,16.5 			"/>
			<polygon id="XMLID_768_" class="st32" points="134.5,16.1 134.9,15.8 134.8,15.7 134.3,16 			"/>
			<polygon id="XMLID_767_" class="st32" points="135.4,15.6 135.9,15.3 135.7,15.3 135.2,15.5 			"/>
		</g>
		<g id="XMLID_699_">
			<polygon id="XMLID_765_" class="st18" points="137.2,15.6 135.5,16.7 137.2,17.7 139,16.7 			"/>
			<polygon id="XMLID_764_" class="st33" points="137.2,12.2 135.5,13.2 137.2,14.2 139,13.2 			"/>
			<polygon id="XMLID_763_" class="st34" points="137.2,17.7 135.5,16.7 135.5,13.2 137.2,14.2 			"/>
			<g id="XMLID_741_">
				<g id="XMLID_756_">
					<polygon id="XMLID_760_" class="st21" points="136.2,14.6 135.9,14.4 135.9,13.8 136.2,14 					"/>
					<polygon id="XMLID_757_" class="st21" points="136.8,14.9 136.5,14.7 136.5,14.1 136.8,14.3 					"/>
				</g>
				<g id="XMLID_749_">
					<polygon id="XMLID_753_" class="st21" points="136.2,15.3 135.9,15.1 135.9,14.5 136.2,14.7 					"/>
					<polygon id="XMLID_750_" class="st21" points="136.8,15.6 136.5,15.5 136.5,14.9 136.8,15 					"/>
				</g>
				<g id="XMLID_742_">
					<polygon id="XMLID_746_" class="st21" points="136.2,16 135.9,15.8 135.9,15.2 136.2,15.4 					"/>
					<polygon id="XMLID_743_" class="st21" points="136.8,16.3 136.5,16.2 136.5,15.6 136.8,15.7 					"/>
				</g>
			</g>
			<polygon id="XMLID_740_" class="st28" points="137.2,17.7 139,16.7 139,13.2 137.2,14.2 			"/>
			<g id="XMLID_711_">
				<g id="XMLID_733_">
					<polygon id="XMLID_737_" class="st1" points="138,16.3 137.6,16.5 137.6,17.1 138,16.9 					"/>
					<polygon id="XMLID_734_" class="st1" points="138.6,16 138.3,16.1 138.3,16.7 138.6,16.6 					"/>
				</g>
				<g id="XMLID_726_">
					<polygon id="XMLID_730_" class="st1" points="138,15.6 137.6,15.7 137.6,16.3 138,16.2 					"/>
					<polygon id="XMLID_727_" class="st1" points="138.6,15.2 138.3,15.4 138.3,16 138.6,15.8 					"/>
				</g>
				<g id="XMLID_719_">
					<polygon id="XMLID_723_" class="st1" points="138,14.8 137.6,15 137.6,15.6 138,15.4 					"/>
					<polygon id="XMLID_720_" class="st1" points="138.6,14.5 138.3,14.7 138.3,15.3 138.6,15.1 					"/>
				</g>
				<g id="XMLID_712_">
					<polygon id="XMLID_716_" class="st1" points="138,14.1 137.6,14.3 137.6,14.9 138,14.7 					"/>
					<polygon id="XMLID_713_" class="st1" points="138.6,13.8 138.3,14 138.3,14.6 138.6,14.4 					"/>
				</g>
			</g>
			<g id="XMLID_704_">
				<polygon id="XMLID_708_" class="st21" points="136.7,17.3 136.3,17.1 136.3,16.4 136.7,16.6 				"/>
				<polygon id="XMLID_705_" class="st21" points="136.3,17.1 136,16.9 136,16.1 136.3,16.4 				"/>
			</g>
			<g id="XMLID_700_">
				<polygon id="XMLID_703_" class="st23" points="136.8,16.6 136.7,16.7 135.8,16.2 136,16.1 				"/>
				<polygon id="XMLID_702_" class="st24" points="135.8,16.2 135.8,16.2 136.7,16.7 136.7,16.7 				"/>
				<polygon id="XMLID_701_" class="st21" points="136.7,16.7 136.8,16.6 136.8,16.6 136.7,16.7 				"/>
			</g>
		</g>
		<g id="XMLID_632_">
			<polygon id="XMLID_698_" class="st18" points="139.7,16.8 137.9,17.8 139.7,18.9 141.5,17.8 			"/>
			<polygon id="XMLID_697_" class="st33" points="139.7,13.3 137.9,14.4 139.7,15.4 141.5,14.4 			"/>
			<polygon id="XMLID_696_" class="st34" points="139.7,18.9 137.9,17.8 137.9,14.4 139.7,15.4 			"/>
			<g id="XMLID_674_">
				<g id="XMLID_689_">
					<polygon id="XMLID_693_" class="st21" points="138.7,15.8 138.4,15.6 138.4,15 138.7,15.2 					"/>
					<polygon id="XMLID_690_" class="st21" points="139.3,16.1 139,15.9 139,15.3 139.3,15.5 					"/>
				</g>
				<g id="XMLID_682_">
					<polygon id="XMLID_686_" class="st21" points="138.7,16.5 138.4,16.3 138.4,15.7 138.7,15.9 					"/>
					<polygon id="XMLID_683_" class="st21" points="139.3,16.8 139,16.6 139,16 139.3,16.2 					"/>
				</g>
				<g id="XMLID_675_">
					<polygon id="XMLID_679_" class="st21" points="138.7,17.2 138.4,17 138.4,16.4 138.7,16.6 					"/>
					<polygon id="XMLID_676_" class="st21" points="139.3,17.5 139,17.3 139,16.7 139.3,16.9 					"/>
				</g>
			</g>
			<polygon id="XMLID_673_" class="st28" points="139.7,18.8 141.5,17.8 141.5,14.3 139.7,15.4 			"/>
			<g id="XMLID_644_">
				<g id="XMLID_666_">
					<polygon id="XMLID_670_" class="st1" points="140.4,17.4 140.1,17.6 140.1,18.2 140.4,18 					"/>
					<polygon id="XMLID_667_" class="st1" points="141,17.1 140.7,17.3 140.7,17.9 141,17.7 					"/>
				</g>
				<g id="XMLID_659_">
					<polygon id="XMLID_663_" class="st1" points="140.4,16.7 140.1,16.9 140.1,17.5 140.4,17.3 					"/>
					<polygon id="XMLID_660_" class="st1" points="141,16.4 140.7,16.6 140.7,17.2 141,17 					"/>
				</g>
				<g id="XMLID_652_">
					<polygon id="XMLID_656_" class="st1" points="140.4,16 140.1,16.2 140.1,16.8 140.4,16.6 					"/>
					<polygon id="XMLID_653_" class="st1" points="141,15.7 140.7,15.9 140.7,16.5 141,16.3 					"/>
				</g>
				<g id="XMLID_645_">
					<polygon id="XMLID_649_" class="st1" points="140.4,15.3 140.1,15.5 140.1,16.1 140.4,15.9 					"/>
					<polygon id="XMLID_646_" class="st1" points="141,15 140.7,15.1 140.7,15.7 141,15.6 					"/>
				</g>
			</g>
			<g id="XMLID_637_">
				<polygon id="XMLID_641_" class="st21" points="139.2,18.5 138.8,18.3 138.8,17.5 139.2,17.7 				"/>
				<polygon id="XMLID_638_" class="st21" points="138.8,18.3 138.4,18 138.4,17.3 138.8,17.5 				"/>
			</g>
			<g id="XMLID_633_">
				<polygon id="XMLID_636_" class="st23" points="139.3,17.8 139.2,17.8 138.3,17.3 138.4,17.3 				"/>
				<polygon id="XMLID_635_" class="st24" points="138.3,17.3 138.3,17.4 139.2,17.9 139.2,17.8 				"/>
				<polygon id="XMLID_634_" class="st21" points="139.2,17.9 139.3,17.8 139.3,17.8 139.2,17.8 				"/>
			</g>
		</g>
		<g id="XMLID_626_">
			<rect id="XMLID_629_" x="137.9" y="17.8" class="st29" width="0.2" height="1"/>
			<circle id="XMLID_628_" class="st31" cx="138" cy="17.5" r="0.6"/>
			<path id="XMLID_627_" class="st31" d="M138.1,18.8c0,0-0.1-0.1-0.1-0.1c-0.1,0-0.1,0.1-0.1,0.1c0,0,0,0,0,0c0,0-0.1,0-0.1,0.1
				c0,0,0,0.1,0.1,0.1c0,0,0,0,0,0c0,0,0,0.1,0.1,0.1c0,0,0.1,0,0.1-0.1c0,0,0,0,0,0c0,0,0,0,0,0c0.1,0,0.1,0,0.1-0.1
				C138.2,18.8,138.2,18.8,138.1,18.8z"/>
		</g>
		<g id="XMLID_620_">
			<rect id="XMLID_623_" x="135.4" y="16.1" class="st29" width="0.2" height="1"/>
			<circle id="XMLID_622_" class="st31" cx="135.5" cy="15.8" r="0.6"/>
			<path id="XMLID_621_" class="st31" d="M135.6,17.1c0,0-0.1-0.1-0.1-0.1c-0.1,0-0.1,0.1-0.1,0.1c0,0,0,0,0,0c0,0-0.1,0-0.1,0.1
				c0,0,0,0.1,0.1,0.1c0,0,0,0,0,0c0,0,0,0.1,0.1,0.1c0,0,0.1,0,0.1-0.1c0,0,0,0,0,0c0,0,0,0,0,0c0.1,0,0.1,0,0.1-0.1
				C135.7,17.1,135.6,17.1,135.6,17.1z"/>
		</g>
		<g id="XMLID_614_">
			<rect id="XMLID_617_" x="131.9" y="18.2" class="st29" width="0.2" height="1"/>
			<circle id="XMLID_616_" class="st31" cx="132" cy="17.9" r="0.6"/>
			<path id="XMLID_615_" class="st31" d="M132.1,19.2c0,0-0.1-0.1-0.1-0.1c-0.1,0-0.1,0.1-0.1,0.1c0,0,0,0,0,0c0,0-0.1,0-0.1,0.1
				c0,0,0,0.1,0.1,0.1c0,0,0,0,0,0c0,0,0,0.1,0.1,0.1c0,0,0.1,0,0.1-0.1c0,0,0,0,0,0c0,0,0,0,0,0c0.1,0,0.1,0,0.1-0.1
				C132.1,19.2,132.1,19.2,132.1,19.2z"/>
		</g>
		<g id="XMLID_603_">
			<polygon id="XMLID_613_" class="st32" points="124.5,26.9 125,27.2 125.2,27.1 124.7,26.8 			"/>
			<polygon id="XMLID_612_" class="st32" points="123.4,26.3 124,26.6 124.2,26.5 123.6,26.2 			"/>
			<polygon id="XMLID_611_" class="st32" points="122.3,25.7 122.8,26 123.1,25.8 122.5,25.5 			"/>
			<polygon id="XMLID_610_" class="st32" points="121.2,25 121.7,25.4 121.9,25.2 121.4,24.9 			"/>
			<polygon id="XMLID_609_" class="st32" points="120,24.4 120.6,24.7 120.8,24.6 120.2,24.3 			"/>
			<polygon id="XMLID_608_" class="st32" points="118.8,23.9 119.3,24.2 119.5,24.1 119,23.7 			"/>
			<polygon id="XMLID_607_" class="st32" points="117.6,23.3 118.1,23.6 118.3,23.5 117.8,23.1 			"/>
			<polygon id="XMLID_606_" class="st32" points="116.4,22.5 116.9,22.9 117.1,22.7 116.6,22.4 			"/>
			<polygon id="XMLID_605_" class="st32" points="115.1,21.8 115.7,22.1 115.9,22 115.3,21.6 			"/>
			<polygon id="XMLID_604_" class="st32" points="113.9,21.1 114.4,21.4 114.6,21.2 114.1,20.9 			"/>
		</g>
		<g id="XMLID_592_">
			<polygon id="XMLID_602_" class="st32" points="133.5,21.9 134,22.2 134.2,22.1 133.7,21.7 			"/>
			<polygon id="XMLID_601_" class="st32" points="132.5,21.3 133,21.6 133.2,21.5 132.7,21.1 			"/>
			<polygon id="XMLID_600_" class="st32" points="131.3,20.6 131.9,20.9 132.1,20.8 131.6,20.5 			"/>
			<polygon id="XMLID_599_" class="st32" points="130.2,20 130.8,20.3 131,20.2 130.4,19.8 			"/>
			<polygon id="XMLID_598_" class="st32" points="129.1,19.4 129.6,19.7 129.8,19.6 129.3,19.2 			"/>
			<polygon id="XMLID_597_" class="st32" points="127.8,18.8 128.3,19.2 128.6,19 128,18.7 			"/>
			<polygon id="XMLID_596_" class="st32" points="126.6,18.2 127.2,18.5 127.4,18.4 126.8,18.1 			"/>
			<polygon id="XMLID_595_" class="st32" points="125.4,17.5 125.9,17.8 126.1,17.7 125.6,17.3 			"/>
			<polygon id="XMLID_594_" class="st32" points="124.2,16.7 124.7,17 124.9,16.9 124.4,16.6 			"/>
			<polygon id="XMLID_593_" class="st32" points="122.9,16 123.4,16.3 123.6,16.2 123.1,15.9 			"/>
		</g>
		<g id="XMLID_315_">
			<polygon id="XMLID_591_" class="st18" points="119.5,18.2 115.4,20.5 119.5,22.9 123.7,20.5 			"/>
			<polygon id="XMLID_590_" class="st35" points="119.5,22.9 115.4,20.5 115.4,16.5 119.5,18.8 			"/>
			<polygon id="XMLID_589_" class="st35" points="119.5,22.9 123.7,20.5 123.7,16.5 119.5,18.8 			"/>
			<polygon id="XMLID_588_" class="st36" points="115.4,20.5 115.4,19.4 119.5,21.6 119.5,22.9 			"/>
			<polygon id="XMLID_587_" class="st33" points="119.5,14.1 115.4,16.5 119.5,18.9 123.7,16.5 			"/>
			<polygon id="XMLID_584_" class="st37" points="118.7,22 116.2,20.6 116.2,17.9 118.7,19.4 			"/>
			<polygon id="XMLID_581_" class="st38" points="118.6,21.9 116.3,20.5 116.3,18.1 118.6,19.4 			"/>
			<g id="XMLID_574_">
				<polygon id="XMLID_578_" class="st39" points="117.9,22 117,21.5 117,19.7 117.9,20.2 				"/>
				<polygon id="XMLID_577_" class="st40" points="117.8,21.9 117.1,21.5 117.1,20 117.8,20.3 				"/>
				<ellipse id="XMLID_576_" class="st41" cx="117.3" cy="20.9" rx="0.1" ry="0.1"/>
				<ellipse id="XMLID_575_" class="st42" cx="117.2" cy="20.9" rx="0.1" ry="0.1"/>
			</g>
			<g id="XMLID_564_">
				<polygon id="XMLID_571_" class="st39" points="117,20.9 116.7,21 115.8,20.5 116.1,20.3 				"/>
				<polygon id="XMLID_568_" class="st37" points="115.8,20.5 115.8,20.6 116.7,21.1 116.7,21 				"/>
				<polygon id="XMLID_565_" class="st43" points="116.7,21.1 117,21.1 117,20.9 116.7,21 				"/>
			</g>
			<g id="XMLID_554_">
				<polygon id="XMLID_561_" class="st39" points="118.8,21.9 118.5,22.1 117.6,21.5 117.9,21.4 				"/>
				<polygon id="XMLID_558_" class="st37" points="117.6,21.5 117.6,21.6 118.5,22.2 118.5,22.1 				"/>
				<polygon id="XMLID_555_" class="st43" points="118.5,22.2 118.8,22.1 118.8,21.9 118.5,22.1 				"/>
			</g>
			<g id="XMLID_512_">
				<circle id="XMLID_553_" class="st44" cx="116.1" cy="20.4" r="0.1"/>
				<circle id="XMLID_552_" class="st44" cx="116.2" cy="20.5" r="0.1"/>
				<circle id="XMLID_551_" class="st44" cx="116.3" cy="20.6" r="0.1"/>
				<circle id="XMLID_550_" class="st44" cx="116.3" cy="20.5" r="0.1"/>
				<circle id="XMLID_549_" class="st44" cx="116.3" cy="20.4" r="0.1"/>
				<circle id="XMLID_548_" class="st44" cx="116.5" cy="20.4" r="0.1"/>
				<circle id="XMLID_547_" class="st44" cx="116.5" cy="20.6" r="0.1"/>
				<circle id="XMLID_546_" class="st44" cx="116.6" cy="20.6" r="0.1"/>
				<circle id="XMLID_545_" class="st44" cx="116.5" cy="20.5" r="0.1"/>
				<circle id="XMLID_544_" class="st44" cx="116.4" cy="20.4" r="0.1"/>
				<circle id="XMLID_543_" class="st44" cx="116.1" cy="20.5" r="0.1"/>
				<circle id="XMLID_542_" class="st44" cx="116" cy="20.5" r="0.1"/>
				<circle id="XMLID_541_" class="st44" cx="116" cy="20.6" r="0"/>
				<circle id="XMLID_540_" class="st44" cx="116" cy="20.6" r="0"/>
				<circle id="XMLID_539_" class="st44" cx="115.9" cy="20.5" r="0"/>
				<circle id="XMLID_538_" class="st44" cx="116.6" cy="20.7" r="0.1"/>
				<circle id="XMLID_537_" class="st44" cx="116.7" cy="20.8" r="0.1"/>
				<circle id="XMLID_536_" class="st44" cx="116.2" cy="20.6" r="0"/>
				<circle id="XMLID_535_" class="st44" cx="116.3" cy="20.7" r="0"/>
				<circle id="XMLID_534_" class="st44" cx="116.4" cy="20.8" r="0"/>
				<circle id="XMLID_533_" class="st44" cx="116.2" cy="20.6" r="0"/>
				<circle id="XMLID_532_" class="st44" cx="116.1" cy="20.6" r="0"/>
				<circle id="XMLID_531_" class="st44" cx="116.5" cy="20.8" r="0"/>
				<circle id="XMLID_530_" class="st44" cx="116.5" cy="20.9" r="0"/>
				<circle id="XMLID_529_" class="st44" cx="116.5" cy="20.9" r="0"/>
				<circle id="XMLID_528_" class="st44" cx="116.5" cy="20.9" r="0"/>
				<circle id="XMLID_527_" class="st44" cx="116.5" cy="21" r="0"/>
				<circle id="XMLID_526_" class="st44" cx="116.5" cy="20.9" r="0"/>
				<circle id="XMLID_525_" class="st44" cx="116.2" cy="20.7" r="0"/>
				<circle id="XMLID_524_" class="st44" cx="116.2" cy="20.8" r="0"/>
				<circle id="XMLID_523_" class="st44" cx="116.2" cy="20.8" r="0"/>
				<circle id="XMLID_522_" class="st44" cx="116.2" cy="20.7" r="0"/>
				<circle id="XMLID_521_" class="st44" cx="116.5" cy="21.1" r="0"/>
				<circle id="XMLID_520_" class="st44" cx="116.5" cy="21" r="0"/>
				<circle id="XMLID_519_" class="st44" cx="116.6" cy="20.9" r="0"/>
				<circle id="XMLID_518_" class="st44" cx="116.6" cy="20.8" r="0"/>
				<circle id="XMLID_517_" class="st44" cx="116.3" cy="20.6" r="0"/>
				<circle id="XMLID_516_" class="st44" cx="116.2" cy="20.6" r="0"/>
				<circle id="XMLID_515_" class="st44" cx="116.5" cy="20.6" r="0.1"/>
				<circle id="XMLID_514_" class="st44" cx="116.4" cy="20.7" r="0.1"/>
				<circle id="XMLID_513_" class="st44" cx="116.5" cy="20.7" r="0.1"/>
			</g>
			<g id="XMLID_336_">
				<circle id="XMLID_511_" class="st44" cx="117.9" cy="21.4" r="0.1"/>
				<circle id="XMLID_510_" class="st44" cx="118.1" cy="21.5" r="0.1"/>
				<circle id="XMLID_509_" class="st44" cx="118.2" cy="21.6" r="0.1"/>
				<circle id="XMLID_508_" class="st44" cx="118.2" cy="21.5" r="0.1"/>
				<circle id="XMLID_507_" class="st44" cx="118.2" cy="21.4" r="0.1"/>
				<circle id="XMLID_506_" class="st44" cx="118.3" cy="21.5" r="0.1"/>
				<circle id="XMLID_505_" class="st44" cx="118.4" cy="21.6" r="0.1"/>
				<circle id="XMLID_504_" class="st44" cx="118.5" cy="21.6" r="0.1"/>
				<circle id="XMLID_503_" class="st44" cx="118.4" cy="21.5" r="0.1"/>
				<circle id="XMLID_502_" class="st44" cx="118.3" cy="21.4" r="0.1"/>
				<circle id="XMLID_501_" class="st44" cx="118" cy="21.6" r="0.1"/>
				<circle id="XMLID_500_" class="st44" cx="117.9" cy="21.5" r="0.1"/>
				<circle id="XMLID_499_" class="st44" cx="117.9" cy="21.6" r="0"/>
				<circle id="XMLID_498_" class="st44" cx="117.9" cy="21.6" r="0"/>
				<circle id="XMLID_496_" class="st44" cx="117.8" cy="21.5" r="0"/>
				<circle id="XMLID_494_" class="st44" cx="118.5" cy="21.7" r="0.1"/>
				<circle id="XMLID_493_" class="st44" cx="118.6" cy="21.8" r="0.1"/>
				<circle id="XMLID_491_" class="st44" cx="118" cy="21.6" r="0"/>
				<circle id="XMLID_360_" class="st44" cx="118.1" cy="21.7" r="0"/>
				<circle id="XMLID_359_" class="st44" cx="118.3" cy="21.8" r="0"/>
				<circle id="XMLID_358_" class="st44" cx="118.1" cy="21.7" r="0"/>
				<circle id="XMLID_357_" class="st44" cx="118" cy="21.6" r="0"/>
				<circle id="XMLID_356_" class="st44" cx="118.4" cy="21.8" r="0"/>
				<circle id="XMLID_355_" class="st44" cx="118.4" cy="21.9" r="0"/>
				<circle id="XMLID_354_" class="st44" cx="118.4" cy="21.9" r="0"/>
				<circle id="XMLID_353_" class="st44" cx="118.4" cy="22" r="0"/>
				<circle id="XMLID_352_" class="st44" cx="118.4" cy="22" r="0"/>
				<circle id="XMLID_351_" class="st44" cx="118.4" cy="21.9" r="0"/>
				<circle id="XMLID_350_" class="st44" cx="118.1" cy="21.7" r="0"/>
				<circle id="XMLID_349_" class="st44" cx="118.1" cy="21.8" r="0"/>
				<circle id="XMLID_348_" class="st44" cx="118.1" cy="21.9" r="0"/>
				<circle id="XMLID_347_" class="st44" cx="118.1" cy="21.8" r="0"/>
				<circle id="XMLID_346_" class="st44" cx="118.4" cy="22.1" r="0"/>
				<circle id="XMLID_345_" class="st44" cx="118.4" cy="22" r="0"/>
				<circle id="XMLID_344_" class="st44" cx="118.5" cy="21.9" r="0"/>
				<circle id="XMLID_343_" class="st44" cx="118.4" cy="21.8" r="0"/>
				<circle id="XMLID_342_" class="st44" cx="118.2" cy="21.6" r="0"/>
				<circle id="XMLID_340_" class="st44" cx="118.1" cy="21.6" r="0"/>
				<circle id="XMLID_339_" class="st44" cx="118.4" cy="21.6" r="0.1"/>
				<circle id="XMLID_338_" class="st44" cx="118.3" cy="21.7" r="0.1"/>
				<circle id="XMLID_337_" class="st44" cx="118.4" cy="21.7" r="0.1"/>
			</g>
			<polygon id="XMLID_335_" class="st28" points="116.1,18.6 118,22 119.5,22.9 119.5,20 119.2,19.5 116.5,18.4 			"/>
			<g id="XMLID_319_">
				<path id="XMLID_334_" class="st45" d="M115.5,18.1c0,0,0,0.5,0.3,0.6c0.2,0.2,0.3-0.3,0.3-0.3L115.5,18.1z"/>
				<path id="XMLID_333_" class="st46" d="M116.1,18.4c0,0,0,0.5,0.3,0.6c0.2,0.2,0.3-0.3,0.3-0.3L116.1,18.4z"/>
				<path id="XMLID_332_" class="st45" d="M116.7,18.8c0,0,0,0.5,0.3,0.6c0.2,0.2,0.3-0.3,0.3-0.3L116.7,18.8z"/>
				<path id="XMLID_331_" class="st46" d="M117.3,19.2c0,0,0,0.5,0.3,0.6c0.2,0.2,0.3-0.3,0.3-0.3L117.3,19.2z"/>
				<path id="XMLID_330_" class="st45" d="M117.9,19.5c0,0,0,0.5,0.3,0.6c0.2,0.2,0.3-0.3,0.3-0.3L117.9,19.5z"/>
				<g id="XMLID_328_">
					<polygon id="XMLID_329_" class="st47" points="116.1,17.7 115.5,18.1 116.1,18.4 116.7,18.1 					"/>
				</g>
				<g id="XMLID_326_">
					<polygon id="XMLID_327_" class="st42" points="116.7,18.1 116.1,18.4 116.7,18.8 117.3,18.4 					"/>
				</g>
				<g id="XMLID_324_">
					<polygon id="XMLID_325_" class="st47" points="117.3,18.4 116.7,18.8 117.3,19.2 118,18.8 					"/>
				</g>
				<g id="XMLID_322_">
					<polygon id="XMLID_323_" class="st42" points="118,18.8 117.3,19.2 117.9,19.5 118.6,19.1 					"/>
				</g>
				<g id="XMLID_320_">
					<polygon id="XMLID_321_" class="st47" points="118.6,19.1 117.9,19.5 118.5,19.9 119.2,19.5 					"/>
				</g>
			</g>
			<polygon id="XMLID_318_" class="st48" points="119.5,14.8 116.6,16.5 119.5,18.2 122.4,16.5 			"/>
			<polygon id="XMLID_317_" class="st28" points="119.5,20 122.3,21.3 119.5,22.9 			"/>
			<polygon id="XMLID_316_" class="st28" points="119.5,15.2 122.1,16.7 122.4,16.5 119.5,14.8 116.6,16.5 117,16.7 			"/>
		</g>
		<g id="XMLID_112_">
			<g id="XMLID_241_">
				<polygon id="XMLID_314_" class="st18" points="130,21.5 127.8,22.8 130,24 132.2,22.8 				"/>
				<polygon id="XMLID_313_" class="st33" points="130,17.1 127.8,18.4 130,19.7 132.2,18.4 				"/>
				<polygon id="XMLID_312_" class="st34" points="130,24 127.8,22.8 127.8,18.4 130,19.7 				"/>
				<g id="XMLID_284_">
					<g id="XMLID_305_">
						<polygon id="XMLID_309_" class="st21" points="128.7,20.1 128.3,19.9 128.3,19.2 128.7,19.4 						"/>
						<polygon id="XMLID_306_" class="st21" points="129.5,20.6 129.1,20.3 129.1,19.6 129.5,19.8 						"/>
					</g>
					<g id="XMLID_292_">
						<polygon id="XMLID_299_" class="st21" points="128.7,21 128.3,20.8 128.3,20.1 128.7,20.3 						"/>
						<polygon id="XMLID_294_" class="st21" points="129.5,21.5 129.1,21.2 129.1,20.5 129.5,20.7 						"/>
					</g>
					<g id="XMLID_285_">
						<polygon id="XMLID_289_" class="st21" points="128.7,21.9 128.3,21.7 128.3,21 128.7,21.2 						"/>
						<polygon id="XMLID_286_" class="st21" points="129.5,22.3 129.1,22.1 129.1,21.4 129.5,21.6 						"/>
					</g>
				</g>
				<polygon id="XMLID_283_" class="st28" points="130,24 132.2,22.7 132.2,18.4 130,19.6 				"/>
				<g id="XMLID_253_">
					<g id="XMLID_275_">
						<polygon id="XMLID_280_" class="st1" points="130.9,22.3 130.6,22.5 130.6,23.2 130.9,23 						"/>
						<polygon id="XMLID_276_" class="st1" points="131.7,21.9 131.3,22.1 131.3,22.8 131.7,22.6 						"/>
					</g>
					<g id="XMLID_268_">
						<polygon id="XMLID_272_" class="st1" points="130.9,21.4 130.6,21.6 130.6,22.3 130.9,22.1 						"/>
						<polygon id="XMLID_269_" class="st1" points="131.7,21 131.3,21.2 131.3,21.9 131.7,21.7 						"/>
					</g>
					<g id="XMLID_261_">
						<polygon id="XMLID_265_" class="st1" points="130.9,20.5 130.6,20.7 130.6,21.4 130.9,21.2 						"/>
						<polygon id="XMLID_262_" class="st1" points="131.7,20.1 131.3,20.3 131.3,21 131.7,20.8 						"/>
					</g>
					<g id="XMLID_254_">
						<polygon id="XMLID_258_" class="st1" points="130.9,19.6 130.6,19.8 130.6,20.5 130.9,20.3 						"/>
						<polygon id="XMLID_255_" class="st1" points="131.7,19.2 131.3,19.4 131.3,20.1 131.7,19.9 						"/>
					</g>
				</g>
				<g id="XMLID_246_">
					<polygon id="XMLID_250_" class="st21" points="129.4,23.6 128.9,23.3 128.9,22.4 129.4,22.6 					"/>
					<polygon id="XMLID_247_" class="st21" points="128.9,23.3 128.4,23 128.4,22.1 128.9,22.4 					"/>
				</g>
				<g id="XMLID_242_">
					<polygon id="XMLID_245_" class="st23" points="129.5,22.7 129.4,22.8 128.3,22.1 128.4,22 					"/>
					<polygon id="XMLID_244_" class="st24" points="128.3,22.1 128.3,22.2 129.4,22.8 129.4,22.8 					"/>
					<polygon id="XMLID_243_" class="st21" points="129.4,22.8 129.5,22.7 129.5,22.7 129.4,22.8 					"/>
				</g>
			</g>
			<g id="XMLID_115_">
				<polygon id="XMLID_240_" class="st18" points="126.1,22.7 123.2,24.4 126.1,26.1 129.1,24.4 				"/>
				<polygon id="XMLID_239_" class="st33" points="126.1,16.8 123.2,18.5 126.1,20.3 129.1,18.5 				"/>
				<polygon id="XMLID_238_" class="st34" points="126.1,26.1 123.2,24.4 123.2,18.5 126.1,20.3 				"/>
				<g id="XMLID_175_">
					<g id="XMLID_231_">
						<polygon id="XMLID_235_" class="st21" points="124.4,20.9 123.9,20.6 123.9,19.6 124.4,19.9 						"/>
						<polygon id="XMLID_232_" class="st21" points="125.4,21.5 124.9,21.2 124.9,20.2 125.4,20.4 						"/>
					</g>
					<g id="XMLID_224_">
						<polygon id="XMLID_228_" class="st21" points="124.4,22.1 123.9,21.8 123.9,20.8 124.4,21.1 						"/>
						<polygon id="XMLID_225_" class="st21" points="125.4,22.7 124.9,22.4 124.9,21.4 125.4,21.7 						"/>
					</g>
					<g id="XMLID_176_">
						<polygon id="XMLID_221_" class="st21" points="124.4,23.3 123.9,23 123.9,22 124.4,22.3 						"/>
						<polygon id="XMLID_179_" class="st21" points="125.4,23.9 124.9,23.6 124.9,22.6 125.4,22.9 						"/>
					</g>
				</g>
				<polygon id="XMLID_174_" class="st28" points="126.1,26.1 129.1,24.4 129.1,18.5 126.1,20.2 				"/>
				<g id="XMLID_129_">
					<g id="XMLID_164_">
						<polygon id="XMLID_168_" class="st1" points="127.4,23.8 126.9,24.1 126.9,25.1 127.4,24.8 						"/>
						<polygon id="XMLID_165_" class="st1" points="128.4,23.2 127.9,23.5 127.9,24.5 128.4,24.2 						"/>
					</g>
					<g id="XMLID_157_">
						<polygon id="XMLID_161_" class="st1" points="127.4,22.6 126.9,22.8 126.9,23.9 127.4,23.6 						"/>
						<polygon id="XMLID_158_" class="st1" points="128.4,22 127.9,22.3 127.9,23.3 128.4,23 						"/>
					</g>
					<g id="XMLID_146_">
						<polygon id="XMLID_151_" class="st1" points="127.4,21.3 126.9,21.6 126.9,22.7 127.4,22.4 						"/>
						<polygon id="XMLID_147_" class="st1" points="128.4,20.8 127.9,21.1 127.9,22.1 128.4,21.8 						"/>
					</g>
					<g id="XMLID_130_">
						<polygon id="XMLID_135_" class="st1" points="127.4,20.1 126.9,20.4 126.9,21.4 127.4,21.1 						"/>
						<polygon id="XMLID_131_" class="st1" points="128.4,19.6 127.9,19.9 127.9,20.9 128.4,20.6 						"/>
					</g>
				</g>
				<g id="XMLID_121_">
					<polygon id="XMLID_126_" class="st21" points="125.3,25.5 124.6,25.1 124.6,23.9 125.3,24.3 					"/>
					<polygon id="XMLID_122_" class="st21" points="124.6,25.1 124,24.8 124,23.5 124.6,23.9 					"/>
				</g>
				<g id="XMLID_116_">
					<polygon id="XMLID_120_" class="st23" points="125.5,24.3 125.3,24.4 123.8,23.5 124,23.4 					"/>
					<polygon id="XMLID_118_" class="st24" points="123.8,23.5 123.8,23.6 125.3,24.5 125.3,24.4 					"/>
					<polygon id="XMLID_117_" class="st21" points="125.3,24.5 125.5,24.4 125.5,24.3 125.3,24.4 					"/>
				</g>
			</g>
			<polygon id="XMLID_113_" class="st28" points="130,24 131.5,23.2 130,22.3 130,21.6 129.1,19.2 129.1,23.5 			"/>
		</g>
	</g>
	<g id="XMLID_100_">
		<path id="XMLID_102_" class="st46" d="M127.3,1.4c0-0.7-0.3-1.3-0.7-1.3c-0.2,0-0.3,0.1-0.4,0.2c-0.2-0.3-0.4-0.5-0.7-0.5
			c-0.3,0-0.6,0.3-0.8,0.6c-0.2-0.4-0.6-0.7-0.9-0.7c-0.7,0-1.3,1-1.3,2.2s0.6,2.2,1.3,2.2c0.2,0,0.3,0,0.4-0.1l0,0l1.5-0.9
			c0.1,0,0.1-0.1,0.2-0.1l0.9-0.5c0,0,0.1,0,0.1,0l0,0l0,0C127.1,2.4,127.3,1.9,127.3,1.4z"/>
		<path id="XMLID_101_" class="st49" d="M127.6,1.5c0-0.7-0.3-1.3-0.7-1.3c-0.2,0-0.3,0.1-0.4,0.2C126.3,0.2,126,0,125.7,0
			c-0.3,0-0.6,0.3-0.8,0.6C124.7,0.2,124.4,0,124,0c-0.7,0-1.3,1-1.3,2.2s0.6,2.2,1.3,2.2c0.2,0,0.3,0,0.4-0.1l0,0l1.5-0.9
			c0.1,0,0.1-0.1,0.2-0.1l0.9-0.5c0,0,0.1,0,0.1,0l0,0l0,0C127.4,2.5,127.6,2.1,127.6,1.5z"/>
	</g>
	<g id="XMLID_97_">
		<path id="XMLID_99_" class="st46" d="M113.8,6.5c-0.1,0-0.3,0-0.4,0.1c-0.3-0.7-0.8-1.2-1.3-1.2c-0.8,0-1.5,1.1-1.5,2.4
			c-0.5,0.1-0.9,0.8-0.9,1.7c-0.3,0.2-0.5,0.7-0.5,1.2c0,0.6,0.2,1.1,0.5,1.2l0,0l0,0c0,0,0.1,0,0.1,0l0.5,0.2l0-0.3l3.8-2.2
			c0.4-0.2,0.7-0.8,0.7-1.6C114.8,7.3,114.3,6.5,113.8,6.5z"/>
		<path id="XMLID_98_" class="st49" d="M115.3,8.4c0-0.9-0.4-1.6-1-1.6c-0.1,0-0.3,0-0.4,0.1c-0.3-0.7-0.8-1.2-1.3-1.2
			c-0.8,0-1.5,1.1-1.5,2.4c-0.5,0.1-0.9,0.8-0.9,1.7c-0.3,0.2-0.5,0.7-0.5,1.2c0,0.7,0.3,1.3,0.8,1.3c0.1,0,0.2,0,0.3-0.1l0,0
			l3.9-2.2C115,9.8,115.3,9.2,115.3,8.4z"/>
	</g>
	<g id="XMLID_94_">
		<path id="XMLID_96_" class="st46" d="M145,4c0,0,0-0.1,0-0.1c0-0.7-0.3-1.3-0.7-1.5C144.1,1.5,143.6,1,143,1c-0.5,0-1,0.5-1.2,1.1
			c-0.1-0.1-0.3-0.2-0.5-0.2c-0.4,0-0.8,0.5-0.8,1.1c0,0.5,0.2,0.8,0.5,1l0,0l3.6,2.1c0,0,0,0,0.1,0l0,0l0,0c0.1,0,0.2,0.1,0.2,0.1
			c0.4,0,0.8-0.5,0.8-1.1C145.7,4.5,145.4,4,145,4z"/>
		<path id="XMLID_95_" class="st49" d="M144.7,4c0,0,0-0.1,0-0.1c0-0.7-0.3-1.3-0.7-1.5c-0.2-0.8-0.7-1.4-1.3-1.4
			c-0.5,0-1,0.5-1.2,1.1C141.4,2,141.2,2,141,2c-0.4,0-0.8,0.5-0.8,1.1c0,0.5,0.2,0.8,0.5,1l0,0l3.6,2.1c0,0,0,0,0.1,0l0,0l0,0
			c0.1,0,0.2,0.1,0.2,0.1c0.4,0,0.8-0.5,0.8-1.1C145.4,4.6,145.1,4.1,144.7,4z"/>
	</g>
</g>
</svg>
