<?xml version="1.0" encoding="utf-8"?>
<!-- Generator: Adobe Illustrator 21.0.2, SVG Export Plug-In . SVG Version: 6.00 Build 0)  -->
<svg version="1.1" id="Camada_1" xmlns="http://www.w3.org/2000/svg" xmlns:xlink="http://www.w3.org/1999/xlink" x="0px" y="0px"
	 viewBox="0 0 107.8 26.1" style="enable-background:new 0 0 107.8 26.1;" xml:space="preserve">
<style type="text/css">
	.st0{fill:#E5BD99;}
	.st1{opacity:0.4;fill:#FFCCA8;}
	.st2{fill:#FFFFFF;}
	.st3{opacity:0.2;fill:#BCBEC0;}
	.st4{fill:#134663;}
	.st5{fill:#08002E;}
	.st6{fill:#FFC800;}
	.st7{fill:#5C6368;}
	.st8{fill:#682ABF;}
	.st9{opacity:0.4;fill:#BCBEC0;}
	.st10{fill:#FFDCC7;}
	.st11{opacity:0.7;}
	.st12{opacity:0.3;fill:#BCBEC0;}
	.st13{fill:#8DC0C3;}
	.st14{fill:#FACC93;}
	.st15{opacity:0.3;fill:#FFD9A8;}
	.st16{fill:#B7FF3B;}
	.st17{fill:#585858;}
	.st18{fill:#FF5E00;}
	.st19{opacity:0.5;fill:#EDF0F2;}
	.st20{fill:#20012E;}
	.st21{fill:#37354D;}
	.st22{fill:#FEA104;}
	.st23{fill:#FBBF8D;}
	.st24{fill:#171726;}
	.st25{fill:#62C3ED;}
	.st26{fill:#BEC3C7;}
	.st27{fill:#DEF3EE;}
	.st28{fill:#2B3E4F;}
	.st29{fill:#2C0145;}
	.st30{opacity:0.3;}
	.st31{fill:#FFD9A8;}
	.st32{fill:#FEC31E;}
	.st33{fill:#78401F;}
	.st34{opacity:0.3;fill:#78401F;}
	.st35{fill:#235A9D;}
	.st36{fill:#B3D246;}
	.st37{fill:#EFD0B4;}
	.st38{fill:#393C41;}
	.st39{fill:#FFF8E6;}
	.st40{fill:#55D6D2;}
	.st41{fill:#DCA680;}
	.st42{opacity:0.2;fill:#DCA680;}
	.st43{fill:#1A4B6C;}
	.st44{fill:#F2F2F2;}
	.st45{fill:#71CFF3;}
	.st46{fill:#F9F9F9;}
</style>
<g id="hands">
	<g>
		<polygon class="st0" points="14.6,9.4 15.1,9.9 16.3,10.1 16.9,8 15.9,7.9 		"/>
		<path class="st1" d="M16.2,8.2l-0.1,0.7l0,0.7c0,0,0,0.4,0.1,0.5l0.2,0L16.9,8l-0.7,0C16.2,8,16.2,8.2,16.2,8.2z"/>
		<polygon class="st2" points="14,9.2 14.7,9.8 16.5,8 15.8,7.5 		"/>
		<path class="st3" d="M14,9.2l0.4,0.3c0,0,0.1-0.1,0.1-0.1c0.3-0.3,0.6-0.6,0.9-0.9c0.2-0.2,0.4-0.4,0.6-0.6c0,0,0.1-0.1,0.2-0.2
			l-0.3-0.3L14,9.2z"/>
		<polygon class="st4" points="16.2,7.5 11.3,2.9 10.4,2.9 10.4,6 14.2,9.5 		"/>
		<g>
			<path class="st5" d="M18.5,7.6l-2-0.1c-0.2,0-0.3,0.1-0.3,0.3L16,11.6c0,0.2,0.1,0.3,0.3,0.3l2,0.1c0.2,0,0.3-0.1,0.3-0.3
				l0.3-3.9C18.8,7.8,18.7,7.6,18.5,7.6z"/>
			<path class="st6" d="M18.6,8.3l-2.1-0.1c-0.1,0-0.1,0-0.1,0.1l-0.2,3.1c0,0.1,0,0.1,0.1,0.1l2.1,0.1c0.1,0,0.1,0,0.1-0.1l0.2-3.1
				C18.7,8.4,18.6,8.3,18.6,8.3z"/>
			<path class="st7" d="M17.7,7.8l-0.4,0c-0.1,0-0.2,0.1-0.2,0.1c0,0.1,0.1,0.2,0.2,0.2l0.4,0c0.1,0,0.2-0.1,0.2-0.1
				C17.9,7.8,17.8,7.8,17.7,7.8z"/>
			<path class="st7" d="M17.6,11.7l-0.6,0c0,0-0.1,0-0.1,0.1c0,0,0,0.1,0.1,0.1l0.6,0C17.6,11.8,17.6,11.8,17.6,11.7
				C17.6,11.7,17.6,11.7,17.6,11.7z"/>
			<g>
				<polygon class="st8" points="17.8,10.8 17.3,10.6 17.1,10.6 17.8,10.8 17.9,10.7 17.8,10.7 				"/>
				<polygon class="st8" points="16.3,10.4 16.7,10.5 16.7,10.5 16.3,10.4 16.8,9 17.3,9.2 17.5,9.2 16.7,9 				"/>
				<path class="st8" d="M16.7,10.6l1.6,0.1l0.1-1.5l-1.6-0.1L16.7,10.6z M18.3,9.3l-0.1,1.4l-1.5-0.1l0.1-1.4L18.3,9.3z"/>
				<path class="st8" d="M17.6,9.5c0.4,0,0.8-0.1,0.8-0.3l-1.6-0.1C16.8,9.3,17.1,9.5,17.6,9.5z"/>
				
					<ellipse transform="matrix(5.871211e-02 -0.9983 0.9983 5.871211e-02 6.6413 27.7353)" class="st8" cx="18" cy="10.3" rx="0.2" ry="0.2"/>
				<polygon class="st8" points="17.2,10 17.3,10 17.3,9.4 17.2,9.4 				"/>
				<polygon class="st8" points="16.9,9.6 17.1,9.9 17,9.8 17.2,10.1 17,10.1 17.2,10.3 17.4,10.1 17.3,10.1 17.5,9.9 17.4,9.9 
					17.6,9.6 				"/>
				<polygon class="st8" points="17.9,9.8 17.9,9.8 17.9,9.4 17.9,9.4 				"/>
				<polygon class="st8" points="17.7,9.6 17.8,9.7 17.7,9.7 17.8,9.9 17.8,9.9 17.9,10 18,9.9 17.9,9.9 18.1,9.7 18,9.7 18.1,9.6 
									"/>
			</g>
		</g>
		<path class="st1" d="M15.5,9.5c-0.4,0-0.4,0.5-0.4,0.5l0.1,0.4c0,0,0.1,0.1,0.1,0.3c0.1,0,0.2-0.1,0.2-0.1
			c0.2-0.1,0.4-0.2,0.5-0.3c0-0.1,0-0.2,0-0.2l0-0.1c0,0,0-0.1,0-0.1C15.7,9.2,15.8,9.4,15.5,9.5z"/>
		<path class="st9" d="M16.7,11.1c-0.1-0.1-0.5-0.3-0.5-0.3l-0.1-0.9l0,0.1l0-0.1c0,0-0.1,0.1-0.2,0.2c-0.1,0.1-0.2,0.2-0.3,0.3
			c-0.1,0.1-0.2,0.1-0.3,0.2c0.1,0.2,0.3,0.5,0.3,0.6l1.2,0.6c0,0,0.2,0.1,0.2,0C17.1,11.7,17.2,11.3,16.7,11.1z"/>
		<path class="st0" d="M16.7,11.2c-0.1-0.1-0.5-0.3-0.5-0.3s0-0.7-0.2-1.1c0,0-0.3-0.6-0.6-0.4C15,9.5,15,9.8,15,9.8l0.1,0.5
			c0,0,0.4,0.8,0.4,0.9l1.2,0.6c0,0,0.2,0.1,0.2,0C17,11.8,17.1,11.4,16.7,11.2z"/>
		<path class="st10" d="M16.2,11.6l0.5,0.3c0,0,0,0,0.1,0c0-0.1,0-0.1-0.1-0.2C16.6,11.5,16.4,11.5,16.2,11.6z"/>
		<g>
			<g class="st11">
				<path class="st12" d="M19,10.3l-0.5-0.1c-0.2,0-0.3,0.1-0.3,0.3c0,0.2,0.1,0.3,0.3,0.3l0.5,0c0.2,0,0.3-0.1,0.3-0.2
					C19.3,10.4,19.2,10.3,19,10.3z"/>
				<path class="st12" d="M19.1,9.7l-0.6-0.1c-0.2,0-0.4,0.1-0.4,0.3c0,0.2,0.1,0.3,0.3,0.3l0.6,0.1c0.2,0,0.4-0.1,0.4-0.3
					C19.4,9.8,19.3,9.7,19.1,9.7z"/>
				<path class="st12" d="M19.1,9L18.6,9c-0.2,0-0.3,0.1-0.4,0.3c0,0.2,0.1,0.3,0.3,0.3l0.6,0.1c0.2,0,0.3-0.1,0.4-0.3
					C19.4,9.2,19.3,9.1,19.1,9z"/>
				<path class="st12" d="M19.2,8.5l-0.5-0.1c-0.1,0-0.3,0.1-0.3,0.2c0,0.2,0.1,0.3,0.2,0.3L19.2,9c0.1,0,0.3-0.1,0.3-0.2
					C19.5,8.6,19.4,8.5,19.2,8.5z"/>
			</g>
			<path class="st0" d="M19,10.3l-0.5-0.1c-0.2,0-0.3,0.1-0.3,0.3c0,0.2,0.1,0.3,0.3,0.3l0.5,0c0.2,0,0.3-0.1,0.3-0.2
				C19.3,10.4,19.2,10.3,19,10.3z"/>
			<path class="st10" d="M18.6,10.3c-0.1,0-0.3,0.1-0.3,0.2c0,0.1,0.1,0.3,0.2,0.3c0,0,0.1,0,0.1,0c0.1,0,0.2-0.4,0.1-0.5
				C18.7,10.3,18.6,10.3,18.6,10.3z"/>
			<path class="st0" d="M19.1,9.7l-0.6-0.1c-0.2,0-0.4,0.1-0.4,0.3c0,0.2,0.1,0.3,0.3,0.3l0.6,0.1c0.2,0,0.4-0.1,0.4-0.3
				C19.4,9.8,19.3,9.7,19.1,9.7z"/>
			<path class="st0" d="M19.2,9L18.6,9c-0.2,0-0.3,0.1-0.4,0.3c0,0.2,0.1,0.3,0.3,0.3l0.6,0.1c0.2,0,0.3-0.1,0.4-0.3
				C19.5,9.2,19.4,9.1,19.2,9z"/>
			<path class="st0" d="M19.3,8.5l-0.5-0.1c-0.1,0-0.3,0.1-0.3,0.2c0,0.2,0.1,0.3,0.2,0.3L19.2,9c0.1,0,0.3-0.1,0.3-0.2
				C19.5,8.6,19.4,8.5,19.3,8.5z"/>
			<path class="st10" d="M18.5,9.6c-0.1,0-0.3,0.1-0.3,0.2c0,0.1,0.1,0.3,0.2,0.3c0,0,0.1,0,0.1,0c0.1,0,0.2-0.4,0.1-0.5
				C18.6,9.6,18.5,9.6,18.5,9.6z"/>
			<path class="st10" d="M18.6,9c-0.1,0-0.3,0.1-0.3,0.2c0,0.1,0.1,0.3,0.2,0.3c0,0,0.1,0,0.1,0c0.1,0,0.2-0.4,0.1-0.5
				C18.7,9,18.6,9,18.6,9z"/>
			<path class="st10" d="M18.8,8.5c-0.1,0-0.2,0.1-0.2,0.2c0,0.1,0.1,0.2,0.1,0.2c0,0,0.1,0,0.1,0C18.9,8.9,18.9,8.6,18.8,8.5
				C18.9,8.5,18.8,8.5,18.8,8.5z"/>
		</g>
		
			<ellipse transform="matrix(7.203138e-02 -0.9974 0.9974 7.203138e-02 6.8398 22.2169)" class="st13" cx="15.4" cy="7.4" rx="0.2" ry="0.2"/>
	</g>
	<g>
		<path class="st14" d="M11.8,16.7l-0.2,0.1l0.1,0c0.1,0.1,1,1.8,1,1.9l-0.1,0l0,0l0.2-0.1l0.8,0l0.8-0.4l-0.9-2.6L11.8,16.7z"/>
		<path class="st15" d="M12.8,18c0.1,0.7,0.9,0.4,0.9,0.4l0.7-0.3l-0.9-2.6l-0.6,0.3C12.9,16,12.8,17.9,12.8,18z"/>
		<g>
			<path class="st5" d="M17.6,12.5l-4.4,0.1c-0.2,0-0.4,0.2-0.4,0.4l0.1,5.1c0,0.2,0.2,0.4,0.4,0.4l4.4-0.1c0.2,0,0.4-0.2,0.4-0.4
				L18,12.9C18,12.7,17.8,12.5,17.6,12.5z"/>
			<path class="st16" d="M17.7,12.8l-4.5,0.1C13.1,12.9,13,13,13,13l0.1,4.4c0,0.1,0.1,0.1,0.2,0.1l4.5-0.1c0.1,0,0.2-0.1,0.2-0.1
				l-0.1-4.4C17.8,12.9,17.7,12.8,17.7,12.8z"/>
			<path class="st17" d="M15.7,17.7l-0.4,0c-0.1,0-0.1,0-0.1,0.1l0,0.3c0,0.1,0,0.1,0.1,0.1l0.4,0c0.1,0,0.1,0,0.1-0.1l0-0.3
				C15.8,17.8,15.8,17.7,15.7,17.7z"/>
			<g>
				<path class="st18" d="M17.3,14.1l-0.3,0l0,0l-0.7,0.6l-0.9,0l0.7-0.6l0,0l-0.7-0.6l-1,0l0.7,0.6l0,0l-0.7,0.6l-0.9,0l0.1,2.1
					l3.8-0.1l-0.1-2.1L17.3,14.1z M16.1,15.9l-0.8,0.5c-0.1,0.1-0.2,0-0.2-0.1l0-0.9c0-0.1,0.1-0.2,0.2-0.1l0.9,0.4
					C16.3,15.7,16.3,15.8,16.1,15.9z"/>
				<polygon class="st18" points="13.5,14.8 14.2,14.2 13.5,14.2 				"/>
				<polygon class="st18" points="13.5,13.6 13.5,13.6 13.5,14.2 14.2,14.2 14.2,14.2 14.2,14.2 				"/>
				<polygon class="st18" points="16.3,13.5 17,14.1 17,14.1 17.3,14.1 17.3,13.5 				"/>
			</g>
		</g>
		<path class="st9" d="M13.5,14.2C13.5,14.2,13.5,14.2,13.5,14.2C13.5,14.2,13.5,14.2,13.5,14.2l-0.6,0.4c0,0,0,0,0,0l-0.6,0.4
			c-0.1,0.1-0.4,1.1-0.4,1.1l0,0.1c0.2-0.1,0.4-0.1,0.7,0c0.2,0.1,0.3,0.2,0.4,0.3c0.1-0.4,0-1.1,0-1.1s0.4-0.3,0.5-0.4
			c0.4-0.3,0.3-0.7,0.2-0.7C13.7,14,13.5,14.2,13.5,14.2z"/>
		<g>
			<path class="st14" d="M13.4,14.2l-1.2,0.8c-0.1,0.1-0.4,1.1-0.4,1.1l-0.2,0.8l1.2-0.3c0.2-0.4,0.1-1.2,0.1-1.2s0.4-0.3,0.5-0.4
				c0.4-0.3,0.3-0.7,0.2-0.7C13.6,14,13.4,14.2,13.4,14.2z"/>
			<path class="st19" d="M13.4,14.2l-0.6,0.4c0.2,0,0.4,0.1,0.6-0.1C13.4,14.4,13.4,14.3,13.4,14.2C13.4,14.2,13.4,14.2,13.4,14.2z"
				/>
		</g>
		<path class="st14" d="M11.5,16.8l1.1,1.9l0.1,0C12.6,18.6,11.7,16.9,11.5,16.8L11.5,16.8z"/>
		<path class="st15" d="M11.5,16.8l1.1,1.9l0.1,0C12.6,18.6,11.7,16.9,11.5,16.8L11.5,16.8z"/>
		<path class="st2" d="M12.6,18.7l-1.1-1.9l0-0.1l-0.2,0.1l0.8,2.3l0.6-0.3L12.6,18.7L12.6,18.7z M12.2,18.8c-0.1,0-0.1,0-0.1-0.1
			c0-0.1,0.1-0.1,0.1-0.1c0.1,0,0.1,0,0.1,0.1C12.3,18.8,12.3,18.8,12.2,18.8z"/>
		<path class="st3" d="M11.4,16.8l-0.1,0l0.8,2.3l0.1-0.1L11.4,16.8z M12.2,18.8c-0.1,0-0.1,0-0.1-0.1c0-0.1,0.1-0.1,0.1-0.1
			c0.1,0,0.1,0,0.1,0.1C12.3,18.8,12.3,18.8,12.2,18.8z"/>
		<path class="st20" d="M12.1,19.1l-0.8-2.3l0,0l-0.8,0.3v2.8l1.7-0.6L12.1,19.1z M11.6,19.2c-0.1,0-0.2-0.1-0.2-0.2
			c0-0.1,0.1-0.2,0.2-0.2c0.1,0,0.2,0.1,0.2,0.2C11.8,19.1,11.7,19.2,11.6,19.2z"/>
		
			<ellipse transform="matrix(3.268408e-02 -0.9995 0.9995 3.268408e-02 -6.841 30.3186)" class="st21" cx="12.2" cy="18.7" rx="0.1" ry="0.1"/>
		
			<ellipse transform="matrix(3.166626e-02 -0.9995 0.9995 3.166626e-02 -7.751 29.9376)" class="st22" cx="11.6" cy="19" rx="0.2" ry="0.2"/>
	</g>
	<g>
		<path class="st23" d="M33.4,15.8l-0.4,0l-1.3-0.1l-0.2,2.5c0,0,0.6,0.1,0.8,0c0.2,0,0.8-0.4,0.8-0.4l1,0l0-2L33.4,15.8z"/>
		<path class="st15" d="M33.4,15.8l-0.2,0c0,0.1,0,2,0,2.1l0.8,0l0-2L33.4,15.8z"/>
		<polygon class="st2" points="33.3,15.7 33.3,18.1 34.2,18.1 34.2,15.7 		"/>
		<polygon class="st3" points="33.5,15.7 33.7,18.1 34.2,18.1 34.2,15.7 		"/>
		<path class="st21" d="M30.8,15.4C30.8,15.4,30.7,15.4,30.8,15.4C30.7,15.4,30.7,15.4,30.8,15.4L30.8,15.4
			C30.7,15.5,30.8,15.5,30.8,15.4C30.8,15.5,30.8,15.4,30.8,15.4L30.8,15.4z"/>
		<path class="st15" d="M31.8,14.8l-1.1-0.1L30,15.4c0,0-0.1,0.2-0.1,0.2c0.1,0,0.6,0.3,0.9-0.3l0.2,0c0,0,0.5,0.7,1,0.9l0.8-0.6
			C32.9,15.7,32,14.9,31.8,14.8z"/>
		<path class="st21" d="M33.5,17.8c-0.1,0-0.1,0.1,0,0.1c0,0,0.1,0.1,0.1,0c0.1,0,0.1-0.1,0-0.1C33.6,17.8,33.6,17.8,33.5,17.8z"/>
		<g>
			<path class="st24" d="M31.5,13.9l-2-0.1c-0.2,0-0.3,0.1-0.3,0.3l-0.3,4c0,0.2,0.1,0.3,0.3,0.3l2,0.1c0.2,0,0.3-0.1,0.3-0.3l0.3-4
				C31.8,14.1,31.7,13.9,31.5,13.9z"/>
			<path class="st25" d="M31.6,14.4l-2.1-0.1c-0.1,0-0.1,0-0.1,0.1l-0.2,3.1c0,0.1,0,0.1,0.1,0.1l2.1,0.1c0.1,0,0.1,0,0.1-0.1
				l0.2-3.1C31.7,14.4,31.6,14.4,31.6,14.4z"/>
			<path class="st26" d="M30.5,17.9l-0.4,0c-0.1,0-0.2,0.1-0.2,0.2c0,0.1,0.1,0.2,0.2,0.2l0.4,0c0.1,0,0.2-0.1,0.2-0.2
				C30.6,18,30.6,17.9,30.5,17.9z"/>
			<path class="st26" d="M30.8,14.1l-0.6,0c0,0-0.1,0-0.1,0.1c0,0,0,0.1,0.1,0.1l0.6,0C30.8,14.2,30.9,14.2,30.8,14.1
				C30.9,14.1,30.8,14.1,30.8,14.1z"/>
		</g>
		<path class="st27" d="M30,15.5L30,15.5l-0.1,1c-0.1,0-0.2,0-0.3,0c-0.2,0.1-0.3,0.2-0.2,0.3c0,0.1,0.1,0.1,0.2,0.1
			c0.1,0,0.1,0,0.2,0c0.1,0,0.2-0.1,0.2-0.2l0,0l0-0.7l0.7-0.1l0,0.5c-0.1,0-0.2,0-0.3,0c-0.2,0.1-0.3,0.2-0.2,0.3
			c0,0.1,0.1,0.1,0.2,0.1c0.1,0,0.1,0,0.2,0c0.1,0,0.2-0.1,0.2-0.2l0,0l0.1-1.2L30,15.5L30,15.5z M30.2,15.8l0.7-0.1l0,0.2l-0.7,0.1
			L30.2,15.8z"/>
		<g>
			<path class="st15" d="M29.5,15.2l-0.4,0c0,0.2-0.1,0.4-0.2,0.6l0.5,0c0.2,0,0.3-0.1,0.3-0.3C29.8,15.3,29.6,15.2,29.5,15.2z"/>
			<path class="st15" d="M29.5,15.8l-0.6,0c0,0.2-0.1,0.4-0.1,0.6c0,0,0,0,0,0l0.7,0c0.2,0,0.4-0.1,0.4-0.3
				C29.9,16,29.7,15.8,29.5,15.8z"/>
			<path class="st15" d="M29.4,16.5l-0.6,0c0,0,0,0-0.1,0c0,0.2-0.1,0.4-0.1,0.6c0,0,0.1,0,0.1,0l0.6,0c0.2,0,0.3-0.1,0.3-0.3
				C29.8,16.6,29.6,16.5,29.4,16.5z"/>
			<path class="st15" d="M29.3,17.1l-0.5,0c0,0,0,0-0.1,0c0,0.2,0,0.3,0,0.4c0,0,0,0.1,0,0.1l0,0l0.5,0c0.1,0,0.3-0.1,0.3-0.3
				C29.6,17.2,29.4,17.1,29.3,17.1z"/>
		</g>
		<g>
			<path class="st23" d="M29.4,15.2l-0.6,0c-0.2,0-0.3,0.1-0.3,0.3c0,0.2,0.1,0.3,0.3,0.3l0.6,0c0.2,0,0.3-0.1,0.3-0.3
				C29.8,15.3,29.6,15.2,29.4,15.2z"/>
			<path class="st19" d="M29.4,15.2c0,0-0.1,0-0.1,0c-0.1,0-0.1,0.4,0,0.5c0,0,0.1,0,0.1,0c0.1,0,0.3-0.1,0.3-0.2
				C29.6,15.3,29.5,15.2,29.4,15.2z"/>
			<path class="st23" d="M29.5,15.8l-0.7,0c-0.2,0-0.4,0.1-0.4,0.3c0,0.2,0.1,0.3,0.3,0.3l0.7,0c0.2,0,0.4-0.1,0.4-0.3
				C29.9,16,29.7,15.8,29.5,15.8z"/>
			<path class="st23" d="M29.4,16.4l-0.6,0c-0.2,0-0.3,0.1-0.3,0.3c0,0.2,0.1,0.3,0.3,0.3l0.6,0c0.2,0,0.3-0.1,0.3-0.3
				C29.7,16.6,29.6,16.5,29.4,16.4z"/>
			<path class="st23" d="M29.3,17.1l-0.5,0c-0.1,0-0.3,0.1-0.3,0.3c0,0.2,0.1,0.3,0.3,0.3l0.5,0c0.1,0,0.3-0.1,0.3-0.3
				C29.5,17.2,29.4,17.1,29.3,17.1z"/>
			<path class="st19" d="M29.5,15.9c0,0-0.1,0-0.1,0c-0.1,0-0.1,0.4,0,0.5c0,0,0.1,0,0.1,0c0.1,0,0.3-0.1,0.3-0.2
				C29.8,16,29.7,15.9,29.5,15.9z"/>
			<path class="st19" d="M29.4,16.5c0,0-0.1,0-0.1,0c-0.1,0-0.1,0.4,0,0.5c0,0,0.1,0,0.1,0c0.1,0,0.3-0.1,0.3-0.2
				C29.7,16.6,29.5,16.5,29.4,16.5z"/>
			<path class="st19" d="M29.3,17.2C29.3,17.2,29.2,17.2,29.3,17.2c-0.2,0-0.2,0.3-0.1,0.4c0,0,0.1,0,0.1,0c0.1,0,0.2-0.1,0.2-0.2
				C29.5,17.3,29.4,17.2,29.3,17.2z"/>
		</g>
		<path class="st23" d="M31.8,14.8l-1.1-0.1L30,15.4c0,0-0.1,0.2-0.1,0.2c0.1,0,0.6,0.3,0.9-0.3l0.2,0c0,0,0.5,0.7,0.9,0.9l0.9-0.5
			C33,15.8,32,14.9,31.8,14.8z"/>
		<path class="st19" d="M30,15.4c0,0,0,0.1-0.1,0.1c0.1,0,0.1,0,0.2,0c0.1,0,0.2-0.1,0.3-0.1c0.1-0.1,0.1-0.2,0-0.4L30,15.4z"/>
		<polygon class="st28" points="33.7,15.6 33.8,18.3 35.4,18.3 35.4,15.6 		"/>
	</g>
	<g>
		<g>
			<polygon class="st23" points="30.5,4.8 30.3,5.2 29.6,6.2 32,7.6 32.4,6.8 32.4,6.1 32.9,5.3 30.9,4.4 			"/>
			<path class="st15" d="M30.5,4.8L30.4,5c0.2,0.1,2.1,1,2.1,1l0.4-0.7l-2-0.9L30.5,4.8z"/>
			<polygon class="st2" points="30.3,4.9 32.7,6 33.2,5.3 30.8,4.1 			"/>
			<polygon class="st3" points="30.4,4.8 33,5.6 33.2,5.3 30.8,4.1 			"/>
			
				<ellipse transform="matrix(0.9995 -3.285445e-02 3.285445e-02 0.9995 -0.1672 1.0736)" class="st21" cx="32.6" cy="5.6" rx="0.1" ry="0.1"/>
			
				<ellipse transform="matrix(0.9995 -3.149776e-02 3.149776e-02 0.9995 -0.1412 1.0387)" class="st22" cx="32.9" cy="5" rx="0.2" ry="0.2"/>
			<polygon class="st29" points="33.2,5.5 33.8,2.9 30.8,2.9 30.4,4.7 			"/>
		</g>
		<g class="st30">
			<path class="st31" d="M31.5,6.1c-0.7-0.1-1.3,0-1.9,0.1l0,0L32,7.6l0.2-0.3C32.1,7.1,32.2,6.1,31.5,6.1z"/>
		</g>
		<path class="st5" d="M31.9,6.6c0-0.3-0.3-0.5-0.6-0.5l-4.1,0.3c-0.3,0-0.5,0.3-0.5,0.5l0.4,5.3c0,0.3,0.3,0.5,0.6,0.5l4.1-0.3
			c0.3,0,0.5-0.3,0.5-0.5L31.9,6.6z"/>
		<path class="st8" d="M31.3,6.5l-4.1,0.3c-0.1,0-0.1,0.1-0.1,0.1l0.4,5.3c0,0.1,0.1,0.1,0.1,0.1l4.1-0.3c0.1,0,0.1-0.1,0.1-0.1
			l-0.4-5.3C31.5,6.5,31.4,6.5,31.3,6.5z"/>
		<path class="st9" d="M28.5,6.2c-0.1,0-0.2-0.1-0.3-0.1c0,0-0.1-0.1-0.1-0.1l-0.6,0.7c0,0-0.2,0.2,0,0.2c0.1,0,0.5,0.2,0.8-0.2
			c0.1-0.1,0.3-0.3,0.3-0.4C28.6,6.2,28.6,6.2,28.5,6.2z"/>
		<g>
			<path class="st32" d="M29.7,8.5c-0.4,0-0.8,0.4-0.7,0.8c0,0.4,0.4,0.7,0.9,0.7c0.4,0,0.8-0.4,0.7-0.8C30.5,8.8,30.1,8.5,29.7,8.5
				z"/>
			<path class="st32" d="M31,7.6c0-0.2-0.2-0.3-0.3-0.3l-2.6,0.2c-0.2,0-0.3,0.2-0.3,0.3l0.3,3.2c0,0.2,0.2,0.3,0.3,0.3l2.6-0.2
				c0.2,0,0.3-0.2,0.3-0.3L31,7.6z M28,8c0-0.1,0.1-0.2,0.2-0.2c0.1,0,0.2,0.1,0.2,0.2c0,0.1-0.1,0.2-0.2,0.2C28.1,8.1,28,8.1,28,8z
				 M28.5,10.9l-0.1,0c-0.1,0-0.1,0-0.1-0.1l0-0.4c0-0.1,0.1-0.1,0.1-0.1l0.1,0c0.1,0,0.1,0,0.1,0.1l0,0.4
				C28.6,10.8,28.5,10.9,28.5,10.9z M29.8,10.1c-0.5,0-1-0.3-1-0.8c0-0.5,0.4-0.9,0.9-0.9c0.5,0,1,0.3,1,0.8
				C30.7,9.7,30.3,10.1,29.8,10.1z"/>
			<polygon class="st32" points="27.6,8.7 27.7,10.1 28.2,10.3 28,8.5 			"/>
		</g>
		<g>
			<path class="st23" d="M28.3,5.6l-0.9,1.1c0,0-0.2,0.2,0,0.2c0.1,0,0.5,0.2,0.8-0.2c0.1-0.1,0.4-0.5,0.4-0.5s0.9,0.1,1.3-0.1
				L30.4,5l-0.9,0.1C29.5,5.2,28.5,5.5,28.3,5.6z"/>
			<path class="st19" d="M27.4,6.7C27.4,6.7,27.4,6.7,27.4,6.7c0.1,0,0.2,0,0.3,0c0.2-0.1,0.2-0.3,0.1-0.5L27.4,6.7z"/>
		</g>
	</g>
	<g>
		<path class="st33" d="M22.4,5.1l-0.3,1.1c0,0-0.5,0.6-0.5,0.6c0,0.1-0.1,0.2-0.2,0.3c0,0,0,0.7,0,0.7c0.6,0,1.1-0.4,1.6-0.1
			c0.2,0.2,0.8,1.2,1.2,0.8c0.1-0.1,0.5-0.8,0.5-0.8c0,0-0.2-1-0.2-1l0.3-1L22.4,5.1z"/>
		<polygon class="st34" points="22.2,5.8 24.6,6.4 24.6,6.2 22.3,5.6 		"/>
		<path class="st34" d="M24.6,7.8c-0.1,0-0.7-0.2-1.3-0.4C22.5,7.2,21.7,7,21.6,7c-0.2,0,0,0.1,0,0.1l3.1,0.8
			C24.7,7.9,24.7,7.8,24.6,7.8z"/>
		<g>
			<path class="st5" d="M25.1,8l-4-1.1c-0.2,0-0.3,0-0.4,0.2l-0.6,1.7c0,0.1,0,0.3,0.2,0.3l4,1.1c0.2,0,0.3,0,0.4-0.2l0.6-1.7
				C25.4,8.2,25.3,8,25.1,8z"/>
			<path class="st35" d="M24.8,8l-3.2-0.9c-0.1,0-0.1,0-0.1,0.1L20.9,9c0,0.1,0,0.1,0.1,0.1l3.2,0.9c0.1,0,0.1,0,0.1-0.1l0.6-1.8
				C24.9,8.1,24.9,8,24.8,8z"/>
			<g>
				<g>
					<polygon class="st36" points="23.8,8.9 23.8,9 23.8,8.9 23.8,8.9 					"/>
					<polygon class="st36" points="23.8,8.9 23.9,8.9 23.9,8.9 23.9,8.9 					"/>
					<polygon class="st36" points="23.9,8.8 24,8.9 24,8.9 24,8.8 					"/>
					<polygon class="st36" points="23.7,9 23.7,9 23.8,9 23.7,8.9 					"/>
					<polygon class="st36" points="23.7,8.4 23.7,8.5 23.7,8.4 23.7,8.4 					"/>
					<polygon class="st36" points="23.6,9 23.6,9 23.7,9 23.7,9 					"/>
					<polygon class="st36" points="23.9,8.8 23.9,8.8 24,8.8 23.9,8.7 					"/>
					<polygon class="st36" points="23.7,8.5 23.7,8.5 23.8,8.5 23.8,8.5 					"/>
					<polygon class="st36" points="23.5,9 23.5,9.1 23.6,9.1 23.6,9 					"/>
					<polygon class="st36" points="23.7,8.4 23.8,8.4 23.8,8.4 23.8,8.3 					"/>
					<polygon class="st36" points="23.8,8.6 23.8,8.6 23.8,8.6 23.8,8.5 					"/>
					<polygon class="st36" points="23.8,8.6 23.8,8.7 23.9,8.6 23.8,8.6 					"/>
					<polygon class="st36" points="23.8,8.7 23.9,8.7 23.9,8.7 23.9,8.7 					"/>
					<polygon class="st36" points="23.2,8.8 23.2,8.9 23.3,8.8 23.2,8.8 					"/>
					<polygon class="st36" points="23.1,8.7 23.1,8.7 23.2,8.7 23.1,8.7 					"/>
					<polygon class="st36" points="23.1,8.8 23.2,8.8 23.2,8.8 23.2,8.7 					"/>
					<polygon class="st36" points="23.2,8.5 23.2,8.6 23.3,8.5 23.3,8.5 					"/>
					<polygon class="st36" points="23.2,8.6 23.2,8.7 23.3,8.7 23.2,8.6 					"/>
					<polygon class="st36" points="23.4,9.1 23.4,9.2 23.4,9.1 23.4,9.1 					"/>
					<polygon class="st36" points="23.4,9.1 23.5,9.1 23.5,9.1 23.5,9.1 					"/>
					<polygon class="st36" points="23.5,9.2 23.5,9.2 23.6,9.2 23.5,9.1 					"/>
					<polygon class="st36" points="23.3,9 23.3,9 23.3,9 23.3,8.9 					"/>
					<polygon class="st36" points="23.2,8.9 23.3,8.9 23.3,8.9 23.3,8.9 					"/>
					<polygon class="st36" points="23.3,9 23.3,9.1 23.4,9.1 23.4,9 					"/>
					<polygon class="st36" points="23.3,8.4 23.4,8.4 23.4,8.4 23.4,8.4 					"/>
					<polygon class="st36" points="23.2,9.1 23.3,9.1 23.3,9.1 23.3,9.1 					"/>
					<polygon class="st36" points="23.3,9.2 23.3,9.2 23.3,9.2 23.4,9.2 23.3,9.1 					"/>
					<polygon class="st36" points="23.6,9.1 23.6,9.2 23.6,9.1 23.6,9.1 					"/>
					<polygon class="st36" points="23.6,9.2 23.6,9.2 23.7,9.2 23.7,9.2 					"/>
					<polygon class="st36" points="23.1,8.9 23.2,9 23.2,9 23.2,8.9 					"/>
					<polygon class="st36" points="23.2,9 23.2,9.1 23.3,9 23.2,9 					"/>
					<polygon class="st36" points="23.8,9 23.8,9 23.9,9 23.9,9 					"/>
					<polygon class="st36" points="23.6,9.1 23.7,9.1 23.7,9.1 23.7,9.1 					"/>
					<polygon class="st36" points="23.9,9 23.9,9 24,9 23.9,8.9 					"/>
					<polygon class="st36" points="24,8.9 24,9 24,8.9 24,8.9 					"/>
					<polygon class="st36" points="23.7,9 23.8,9.1 23.8,9.1 23.8,9 					"/>
					<polygon class="st36" points="23.1,8.9 23.1,8.9 23.2,8.9 23.2,8.8 					"/>
					<polygon class="st36" points="23,8.6 23,8.7 23.1,8.7 23,8.6 					"/>
					<polygon class="st36" points="23.4,8.3 23.4,8.4 23.5,8.4 23.5,8.3 					"/>
					<polygon class="st36" points="23.3,8.5 23.3,8.5 23.4,8.5 23.3,8.5 					"/>
					<polygon class="st36" points="23.3,8.4 23.3,8.5 23.3,8.4 23.3,8.4 					"/>
					<polygon class="st36" points="23.2,8.5 23.2,8.5 23.3,8.5 23.2,8.4 					"/>
					<polygon class="st36" points="23.6,8.3 23.6,8.3 23.6,8.3 23.7,8.3 23.6,8.3 					"/>
					<polygon class="st36" points="23.1,8.8 23.1,8.8 23.1,8.8 23.1,8.8 					"/>
					<polygon class="st36" points="23.5,8.3 23.5,8.3 23.6,8.3 23.5,8.3 					"/>
					<polygon class="st36" points="23.7,8.3 23.7,8.3 23.7,8.3 23.8,8.3 23.8,8.3 					"/>
					<polygon class="st36" points="23,8.7 23,8.8 23.1,8.7 23.1,8.7 					"/>
					<polygon class="st36" points="23,8.5 23,8.6 23.1,8.6 23.1,8.5 					"/>
					<polygon class="st36" points="23.1,8.5 23.1,8.5 23.2,8.5 23.1,8.5 					"/>
					<polygon class="st36" points="23.1,8.6 23.1,8.7 23.1,8.6 23.1,8.6 					"/>
					<polygon class="st36" points="23.4,8.7 23.5,8.8 23.5,8.7 23.5,8.7 					"/>
					<polygon class="st36" points="23.5,8.6 23.5,8.6 23.5,8.6 23.5,8.6 					"/>
					<polygon class="st36" points="23.4,8.6 23.4,8.7 23.5,8.7 23.4,8.6 					"/>
					<polygon class="st36" points="23.5,8.7 23.5,8.7 23.6,8.7 23.6,8.6 					"/>
					<polygon class="st36" points="23.5,8.8 23.5,8.8 23.5,8.8 23.5,8.8 					"/>
					<polygon class="st36" points="23.6,8.7 23.6,8.8 23.6,8.8 23.6,8.7 					"/>
					<polygon class="st36" points="24,8.9 24.1,8.9 24.1,8.9 24.1,8.9 					"/>
					<polygon class="st36" points="23.6,8.3 23.6,8.4 23.7,8.4 23.7,8.3 					"/>
					<polygon class="st36" points="23.6,8.8 23.6,8.9 23.7,8.8 23.6,8.8 					"/>
					<polygon class="st36" points="23.5,8.9 23.5,8.9 23.6,8.9 23.6,8.8 					"/>
					<polygon class="st36" points="23.4,8.8 23.4,8.9 23.5,8.8 23.4,8.8 					"/>
					<polygon class="st36" points="23.4,8.9 23.5,8.9 23.5,8.9 23.5,8.9 					"/>
					<polygon class="st36" points="23.3,8.7 23.4,8.8 23.4,8.8 23.4,8.7 					"/>
					<path class="st36" d="M24.2,8.5L24.2,8.5L24.2,8.5C24.2,8.6,24.2,8.6,24.2,8.5L24.2,8.5z"/>
					<path class="st36" d="M23.9,9.2L23.9,9.2C24,9.2,24,9.2,23.9,9.2L23.9,9.2L23.9,9.2z"/>
					<polygon class="st36" points="23.7,8.8 23.7,8.8 23.8,8.8 23.7,8.8 					"/>
					<path class="st36" d="M23.9,8.3L23.9,8.3L23.9,8.3L23.9,8.3L23.9,8.3L23.9,8.3C23.9,8.3,23.9,8.3,23.9,8.3z"/>
					<polygon class="st36" points="22.9,9.1 22.9,9.1 23,9.1 23,9.1 23,9 					"/>
					<polygon class="st36" points="23.4,9.2 23.4,9.2 23.5,9.2 23.5,9.2 23.5,9.2 					"/>
					<path class="st36" d="M23.5,9.2L23.5,9.2L23.5,9.2C23.6,9.3,23.6,9.3,23.5,9.2L23.5,9.2L23.5,9.2L23.5,9.2z"/>
					<polygon class="st36" points="23.5,8.4 23.6,8.4 23.6,8.4 23.6,8.3 					"/>
					<polygon class="st36" points="23.2,8.1 23.2,8.2 23.2,8.2 23.3,8.2 23.3,8.2 					"/>
					<polygon class="st36" points="23.7,8.6 23.7,8.6 23.7,8.6 23.7,8.6 					"/>
					<polygon class="st36" points="23.6,8.9 23.7,8.9 23.7,8.9 23.7,8.9 					"/>
					<polygon class="st36" points="23.8,8.7 23.8,8.8 23.8,8.8 23.8,8.7 					"/>
					<polygon class="st36" points="23.8,8.8 23.8,8.9 23.9,8.8 23.9,8.8 					"/>
					<polygon class="st36" points="23.7,8.9 23.7,8.9 23.8,8.9 23.8,8.8 					"/>
					<polygon class="st36" points="23.6,8.9 23.6,9 23.6,9 23.6,8.9 					"/>
					<polygon class="st36" points="23.6,8.7 23.7,8.8 23.7,8.7 23.7,8.7 					"/>
					<polygon class="st36" points="23.6,8.5 23.7,8.6 23.7,8.5 23.7,8.5 					"/>
					<polygon class="st36" points="23.5,8.4 23.5,8.5 23.5,8.4 23.5,8.4 					"/>
					<polygon class="st36" points="23.7,8.7 23.7,8.7 23.8,8.7 23.8,8.6 					"/>
					<polygon class="st36" points="23.6,8.4 23.6,8.5 23.7,8.5 23.6,8.4 					"/>
					<polygon class="st36" points="23.4,8.4 23.4,8.5 23.5,8.5 23.4,8.4 					"/>
					<polygon class="st36" points="23.4,9 23.4,9.1 23.5,9 23.4,9 					"/>
					<polygon class="st36" points="23.5,9 23.5,9 23.6,9 23.5,8.9 					"/>
					<polygon class="st36" points="23.4,8.5 23.4,8.6 23.5,8.5 23.5,8.5 					"/>
					<polygon class="st36" points="23.3,8.6 23.4,8.6 23.4,8.6 23.4,8.5 					"/>
					<polygon class="st36" points="23.5,8.5 23.5,8.5 23.6,8.5 23.6,8.5 					"/>
					<polygon class="st36" points="23.6,8.6 23.6,8.7 23.7,8.7 23.6,8.6 					"/>
					<polygon class="st36" points="23.5,8.6 23.6,8.6 23.6,8.6 23.6,8.5 					"/>
					<polygon class="st36" points="23.2,8.7 23.2,8.8 23.3,8.7 23.3,8.7 					"/>
					<polygon class="st36" points="23.3,8.9 23.3,8.9 23.4,8.9 23.4,8.8 					"/>
					<polygon class="st36" points="23.3,8.8 23.3,8.8 23.3,8.8 23.3,8.8 					"/>
					<polygon class="st36" points="23.3,8.7 23.3,8.7 23.4,8.7 23.4,8.7 					"/>
					<polygon class="st36" points="23.3,8.6 23.3,8.6 23.3,8.6 23.3,8.6 					"/>
					<polygon class="st36" points="23.4,8.9 23.4,9 23.4,9 23.4,8.9 					"/>
					<polygon class="st36" points="23.1,8.6 23.2,8.6 23.2,8.6 23.2,8.5 					"/>
					<polygon class="st36" points="24,8.5 24.1,8.6 24.1,8.5 24.1,8.5 					"/>
					<polygon class="st36" points="23,8.2 23.1,8.3 23.1,8.3 23.1,8.2 					"/>
					<polygon class="st36" points="23.1,8.2 23.2,8.2 23.2,8.2 23.2,8.2 					"/>
					<polygon class="st36" points="24.1,8.6 24.1,8.6 24.2,8.6 24.1,8.6 					"/>
					<polygon class="st36" points="24.1,8.7 24.2,8.7 24.2,8.7 24.2,8.6 					"/>
					<polygon class="st36" points="24.2,8.7 24.2,8.8 24.2,8.8 24.2,8.7 					"/>
					<polygon class="st36" points="22.9,8.8 22.9,8.8 22.9,8.8 22.9,8.8 					"/>
					<polygon class="st36" points="22.9,8.9 22.9,8.9 23,8.9 22.9,8.8 					"/>
					<polygon class="st36" points="22.9,8.9 23,9 23,9 23,8.9 					"/>
					<polygon class="st36" points="24,9.1 24,9.2 24.1,9.1 24,9.1 					"/>
					<polygon class="st36" points="23.9,9.1 23.9,9.2 24,9.2 23.9,9.1 					"/>
					<polygon class="st36" points="24.1,9.1 24.1,9.1 24.1,9.1 24.1,9 					"/>
					<polygon class="st36" points="23,9.1 23,9.1 23.1,9.1 23.1,9.1 23.1,9.1 					"/>
					<polygon class="st36" points="23,9 23,9.1 23.1,9 23,9 					"/>
					<polygon class="st36" points="23.8,9.2 23.8,9.2 23.9,9.2 23.9,9.2 					"/>
					<polygon class="st36" points="22.8,9 22.8,9.1 22.9,9 22.8,9 					"/>
					<polygon class="st36" points="22.8,8.9 22.7,9 22.8,9 22.8,8.9 					"/>
					<polygon class="st36" points="22.9,9 22.9,9 22.9,9 22.9,9 					"/>
					<polygon class="st36" points="22.8,8.9 22.8,9 22.9,8.9 22.9,8.9 					"/>
					<path class="st36" d="M23.9,9.3C23.9,9.3,23.9,9.2,23.9,9.3L23.9,9.3L23.9,9.3z"/>
					<polygon class="st36" points="23.1,8.1 23.1,8.2 23.2,8.1 23.2,8.1 					"/>
					<path class="st36" d="M24.1,8.5L24.1,8.5C24.1,8.5,24.1,8.5,24.1,8.5L24.1,8.5z"/>
					<path class="st36" d="M24.2,8.6L24.2,8.6L24.2,8.6C24.2,8.6,24.2,8.6,24.2,8.6L24.2,8.6z"/>
					<polygon class="st36" points="23,8.2 23,8.2 23.1,8.2 23,8.1 					"/>
					<path class="st36" d="M24,9.2L24,9.2C24,9.2,24.1,9.2,24,9.2L24,9.2L24,9.2z"/>
					<polygon class="st36" points="23,8.5 23,8.5 23,8.5 23,8.4 					"/>
					<polygon class="st36" points="22.9,8.8 23,8.8 23,8.8 23,8.7 					"/>
					<polygon class="st36" points="22.9,8.6 23,8.6 23,8.6 23,8.5 					"/>
					<polygon class="st36" points="23.7,9.2 23.7,9.2 23.8,9.2 23.7,9.1 					"/>
					<polygon class="st36" points="23,8.8 23,8.9 23.1,8.9 23,8.8 					"/>
					<polygon class="st36" points="22.9,8.7 22.9,8.7 23,8.7 22.9,8.7 					"/>
					<polygon class="st36" points="23.1,9.1 23.2,9.1 23.2,9.2 23.2,9.1 23.2,9.1 					"/>
					<path class="st36" d="M23.6,9.3L23.6,9.3C23.7,9.3,23.7,9.3,23.6,9.3L23.6,9.3L23.6,9.3z"/>
					<polygon class="st36" points="23.1,9.1 23.1,9.1 23.2,9.1 23.2,9 					"/>
					<polygon class="st36" points="23.1,9 23.1,9 23.1,9 23.1,9 					"/>
					<polygon class="st36" points="23,8.9 23,9 23.1,8.9 23.1,8.9 					"/>
					<polygon class="st36" points="24,8.8 24,8.9 24.1,8.8 24.1,8.8 					"/>
					<polygon class="st36" points="23.8,8.5 23.9,8.6 23.9,8.5 23.9,8.5 					"/>
					<polygon class="st36" points="23.9,8.6 23.9,8.6 24,8.6 23.9,8.6 					"/>
					<polygon class="st36" points="23.8,8.4 23.8,8.5 23.9,8.5 23.8,8.4 					"/>
					<polygon class="st36" points="24,8.7 24,8.8 24,8.8 24,8.7 					"/>
					<polygon class="st36" points="23.9,8.7 23.9,8.7 24,8.7 24,8.6 					"/>
					<polygon class="st36" points="23.9,8.4 23.9,8.4 23.9,8.4 23.9,8.4 					"/>
					<polygon class="st36" points="23.2,8.3 23.2,8.4 23.3,8.4 23.3,8.3 					"/>
					<polygon class="st36" points="23.5,8.2 23.5,8.2 23.5,8.3 23.5,8.2 23.5,8.2 					"/>
					<polygon class="st36" points="23.1,8.4 23.2,8.4 23.2,8.4 23.2,8.4 					"/>
					<polygon class="st36" points="23,8.4 23.1,8.5 23.1,8.4 23.1,8.4 					"/>
					<polygon class="st36" points="23.4,8.3 23.4,8.3 23.5,8.3 23.4,8.2 					"/>
					<polygon class="st36" points="23.3,8.3 23.3,8.3 23.4,8.3 23.3,8.3 					"/>
					<polygon class="st36" points="23.2,8.3 23.2,8.3 23.2,8.3 23.2,8.2 					"/>
					<path class="st36" d="M24,8.4L24,8.4L24,8.4C24,8.4,24,8.4,24,8.4L24,8.4z"/>
					<polygon class="st36" points="24,8.4 24,8.5 24.1,8.5 24,8.4 					"/>
					<polygon class="st36" points="23.3,8.2 23.3,8.2 23.4,8.2 23.4,8.2 23.4,8.2 					"/>
					<polygon class="st36" points="24,8.6 24,8.7 24.1,8.6 24.1,8.6 					"/>
					<polygon class="st36" points="23.2,8.2 23.3,8.3 23.3,8.3 23.3,8.2 					"/>
					<polygon class="st36" points="23.9,8.5 23.9,8.5 24,8.5 24,8.4 					"/>
					<polygon class="st36" points="24,8.5 24,8.6 24,8.6 24,8.5 					"/>
					<polygon class="st36" points="23,8.3 23,8.4 23.1,8.4 23.1,8.3 					"/>
					<polygon class="st36" points="23.1,8.3 23.1,8.4 23.2,8.3 23.1,8.3 					"/>
					<polygon class="st36" points="24.1,8.8 24.2,8.9 24.2,8.9 24.2,8.8 					"/>
					<polygon class="st36" points="24,9 24,9 24.1,9 24.1,9 					"/>
					<polygon class="st36" points="23.9,9 24,9.1 24,9.1 24,9 					"/>
					<polygon class="st36" points="24,8.7 24.1,8.7 24.1,8.7 24.1,8.7 					"/>
					<polygon class="st36" points="23.8,9.1 23.8,9.2 23.8,9.1 23.8,9.1 					"/>
					<polygon class="st36" points="24.1,9 24.1,9 24.2,9 24.1,8.9 					"/>
					<polygon class="st36" points="23.8,9.1 23.9,9.1 23.9,9.1 23.9,9 					"/>
					<polygon class="st36" points="24.1,8.8 24.1,8.8 24.2,8.8 24.1,8.7 					"/>
					<polygon class="st36" points="23.7,9.2 23.8,9.3 23.8,9.2 23.8,9.2 					"/>
					<path class="st36" d="M24.2,8.8L24.2,8.8C24.3,8.8,24.3,8.8,24.2,8.8L24.2,8.8L24.2,8.8z"/>
					<path class="st36" d="M24.1,9L24.1,9C24.2,9,24.2,9,24.1,9L24.1,9L24.1,9z"/>
					<path class="st36" d="M24.2,8.9L24.2,8.9L24.2,8.9C24.2,8.9,24.2,8.9,24.2,8.9C24.2,8.9,24.2,8.9,24.2,8.9L24.2,8.9L24.2,8.9z"
						/>
				</g>
				<path class="st36" d="M23.4,7.9L23.4,7.9l-0.1,0l-0.4-0.1c-0.4-0.1-0.8,0.1-1,0.4L21.4,8l-0.1,0.3l0.6,0.2
					c0,0.3,0.2,0.7,0.6,0.8l0.4,0.1l0.1,0l0.1,0c0,0,0.1,0,0.1,0c0,0,0,0,0,0l0,0l0,0c0,0,0-0.1-0.1-0.1l-0.1,0c0,0-0.1,0-0.1,0
					l-0.3-0.1C22.1,9,21.9,8.7,22,8.3c0.1-0.4,0.5-0.6,0.9-0.4L23.2,8c0,0,0,0.1,0.1,0.1l0.1,0C23.4,8.1,23.5,8.1,23.4,7.9L23.4,7.9
					L23.4,7.9C23.5,8,23.5,8,23.4,7.9C23.5,8,23.5,7.9,23.4,7.9z"/>
				<path class="st36" d="M22.2,8.4c-0.1,0.3,0.1,0.5,0.4,0.6L22.8,9l0.3-0.9L22.8,8C22.6,8,22.3,8.1,22.2,8.4z M22.7,8.5
					C22.7,8.5,22.6,8.6,22.7,8.5c-0.1,0-0.1,0-0.1,0C22.6,8.4,22.6,8.4,22.7,8.5C22.7,8.4,22.7,8.5,22.7,8.5z"/>
			</g>
			<path class="st21" d="M20.9,7.7c-0.1,0-0.1,0-0.1,0c0,0-0.1,0.1-0.1,0.1l-0.1,0.3c0,0.1,0,0.2,0.1,0.2c0.1,0,0.1,0,0.1,0
				c0,0,0.1-0.1,0.1-0.1l0.1-0.3C21.1,7.8,21,7.7,20.9,7.7z"/>
			<path class="st7" d="M20.9,7.7c-0.1,0-0.2,0-0.2,0.1l-0.1,0.3c0,0.1,0,0.2,0.1,0.2c0.1,0,0.2,0,0.2-0.1L21,7.9
				C21.1,7.8,21,7.7,20.9,7.7z"/>
			<path class="st7" d="M24.9,8.8C24.9,8.8,24.8,8.8,24.9,8.8l-0.2,0.5c0,0,0,0.1,0,0.1c0,0,0.1,0,0.1,0L24.9,8.8
				C24.9,8.8,24.9,8.8,24.9,8.8z"/>
		</g>
		<path class="st9" d="M23.6,9.5c-0.2-0.1-0.4,0-0.4,0.2l-0.1,0.3c-0.1,0.2,0.1,0.3,0.3,0.4c0.2,0.1,0.4,0,0.4-0.2l0.1-0.3
			C24,9.8,23.8,9.6,23.6,9.5z"/>
		<path class="st9" d="M23,9.2c-0.2-0.1-0.4,0.1-0.5,0.2l-0.2,0.5c-0.1,0.2,0,0.4,0.2,0.4c0.2,0.1,0.4-0.1,0.5-0.2l0.2-0.5
			C23.3,9.4,23.2,9.2,23,9.2z"/>
		<path class="st9" d="M22.2,9c-0.2-0.1-0.4,0-0.5,0.2l-0.1,0.4c-0.1,0.2,0.1,0.3,0.3,0.4c0.2,0.1,0.4,0,0.5-0.2l0.1-0.4
			C22.5,9.3,22.4,9.1,22.2,9z"/>
		<path class="st9" d="M21.4,9c-0.2,0-0.4,0-0.4,0.2l-0.1,0.3c0,0.1,0.1,0.3,0.3,0.3c0.2,0,0.4,0,0.4-0.2l0.1-0.3
			C21.7,9.2,21.6,9,21.4,9z"/>
		<path class="st33" d="M23.6,9.6c-0.2-0.1-0.4,0-0.4,0.2l-0.1,0.3c-0.1,0.2,0.1,0.3,0.3,0.4c0.2,0.1,0.4,0,0.4-0.2l0.1-0.3
			C23.9,9.8,23.8,9.6,23.6,9.6z"/>
		<path class="st37" d="M23.6,9.7c-0.2,0-0.3,0-0.4,0.2c0,0,0,0.1,0,0.1c0,0.1,0.5,0.2,0.5,0.1c0,0,0-0.1,0-0.1
			C23.9,9.9,23.8,9.7,23.6,9.7z"/>
		<path class="st33" d="M23,9.2c-0.2-0.1-0.4,0.1-0.5,0.2l-0.2,0.5c-0.1,0.2,0,0.4,0.2,0.4c0.2,0.1,0.4-0.1,0.5-0.2l0.2-0.5
			C23.3,9.5,23.2,9.3,23,9.2z"/>
		<path class="st33" d="M22.2,9.1c-0.2-0.1-0.4,0-0.5,0.2l-0.1,0.4c-0.1,0.2,0.1,0.3,0.3,0.4c0.2,0.1,0.4,0,0.5-0.2l0.1-0.4
			C22.5,9.3,22.4,9.1,22.2,9.1z"/>
		<path class="st33" d="M21.4,9c-0.2,0-0.4,0-0.4,0.2l-0.1,0.3c0,0.1,0.1,0.3,0.3,0.3c0.2,0,0.4,0,0.4-0.2l0.1-0.3
			C21.7,9.2,21.6,9.1,21.4,9z"/>
		<path class="st37" d="M22.9,9.3c-0.2,0-0.3,0-0.4,0.2c0,0,0,0.1,0,0.1c0,0.1,0.5,0.2,0.6,0.2c0,0,0-0.1,0-0.1
			C23.2,9.5,23.1,9.3,22.9,9.3z"/>
		<path class="st37" d="M22.2,9.2c-0.2,0-0.3,0-0.4,0.2c0,0,0,0.1,0,0.1c0,0.1,0.5,0.2,0.6,0.1c0,0,0-0.1,0-0.1
			C22.4,9.3,22.3,9.2,22.2,9.2z"/>
		<path class="st37" d="M21.4,9.1c-0.1,0-0.2,0-0.3,0.1c0,0,0,0.1,0,0.1c0,0.1,0.4,0.2,0.4,0.1c0,0,0-0.1,0-0.1
			C21.6,9.2,21.5,9.1,21.4,9.1z"/>
		<path class="st33" d="M25.7,7.6C25.6,7.5,25,6.9,25,6.9l-0.5-0.3c0,0-0.3-0.1-0.7,0.1C23.5,7,24,7.5,24,7.5
			C24.3,7.8,25.1,8,25.1,8s0.1,0.4,0.2,0.6c0.1,0.5,0.5,0.5,0.6,0.5C26,9.1,26,8.9,26,8.9L25.7,7.6z"/>
		<path class="st37" d="M25.9,8.4c-0.1,0.1-0.2,0.2-0.2,0.3c0.1,0.2,0.1,0.2,0.3,0.3c0,0,0,0,0,0L25.9,8.4z"/>
		<polygon class="st2" points="22.1,5.7 24.8,6.4 24.9,6 22.2,5.3 		"/>
		<polygon class="st12" points="22.1,5.6 24.8,6.2 24.9,6 22.2,5.3 		"/>
		<polygon class="st38" points="25,6.2 26,2.9 22.8,2.9 22,5.4 		"/>
		<path class="st39" d="M24.8,5.4c-0.1,0-0.2,0-0.3,0.1c0,0.1,0,0.2,0.1,0.2c0.1,0,0.2,0,0.3-0.1C25,5.5,25,5.4,24.8,5.4z"/>
	</g>
	<g>
		<g>
			<path class="st21" d="M23.1,19.5l-3.6,0c-0.1,0-0.3,0.1-0.3,0.2l0,1.5c0,0.1,0.1,0.2,0.3,0.2l3.6,0c0.1,0,0.3-0.1,0.3-0.2l0-1.5
				C23.3,19.6,23.2,19.5,23.1,19.5z"/>
			<path class="st40" d="M22.6,19.6l-2.9,0c-0.1,0-0.1,0-0.1,0.1l0,1.6c0,0.1,0,0.1,0.1,0.1l2.9,0c0.1,0,0.1,0,0.1-0.1l0-1.6
				C22.7,19.7,22.6,19.6,22.6,19.6z"/>
			<path class="st21" d="M23,20.2c0,0-0.1,0-0.1,0c0,0,0,0.1,0,0.1l0,0.3c0,0.1,0.1,0.2,0.2,0.2c0,0,0.1,0,0.1,0c0,0,0-0.1,0-0.1
				l0-0.3C23.2,20.3,23.1,20.2,23,20.2z"/>
			<path class="st26" d="M23,20.3c-0.1,0-0.1,0.1-0.1,0.1l0,0.3c0,0.1,0.1,0.1,0.2,0.1c0.1,0,0.1-0.1,0.1-0.1l0-0.3
				C23.2,20.3,23.1,20.3,23,20.3z"/>
			<path class="st26" d="M19.4,20.3C19.4,20.3,19.4,20.3,19.4,20.3l0,0.5c0,0,0,0.1,0.1,0.1c0,0,0.1,0,0.1-0.1L19.4,20.3
				C19.5,20.3,19.4,20.3,19.4,20.3z"/>
			<path class="st8" d="M21.8,20.4l-0.2,0l-0.4-0.5c0,0-0.1,0-0.1,0c0,0-0.1,0.1,0,0.1l0.3,0.4l-0.7,0l0.3-0.4c0,0,0-0.1,0-0.1
				s-0.1,0-0.1,0l-0.3,0.5l-0.2,0c0,0-0.1,0-0.1,0.1l0,0c0,0,0,0,0,0.1l0.1,0.6c0,0,0,0.1,0.1,0.1l1.1,0c0,0,0.1,0,0.1-0.1l0.1-0.6
				C21.9,20.5,21.9,20.5,21.8,20.4L21.8,20.4C21.9,20.4,21.9,20.4,21.8,20.4z M21.4,20.6C21.4,20.6,21.4,20.6,21.4,20.6l0.2,0
				c0,0,0,0,0,0l0,0.1c0,0,0,0,0,0l-0.1,0C21.4,20.7,21.4,20.7,21.4,20.6L21.4,20.6z M21.4,20.8C21.4,20.8,21.4,20.8,21.4,20.8
				l0.2,0c0,0,0,0,0,0l0,0.1c0,0,0,0,0,0l-0.1,0C21.4,20.9,21.4,20.9,21.4,20.8L21.4,20.8z M21,20.6l0.2,0c0,0,0,0,0,0l0,0.1
				c0,0,0,0,0,0l-0.1,0c0,0,0,0,0,0L21,20.6C20.9,20.6,20.9,20.6,21,20.6z M20.9,20.9C20.9,20.9,20.9,20.9,20.9,20.9l-0.2,0
				c0,0,0,0,0,0l0-0.1c0,0,0,0,0,0l0.2,0C20.9,20.8,20.9,20.8,20.9,20.9L20.9,20.9z M20.7,20.6l0.2,0c0,0,0,0,0,0l0,0.1c0,0,0,0,0,0
				l-0.1,0c0,0,0,0,0,0L20.7,20.6C20.7,20.6,20.7,20.6,20.7,20.6z M20.5,20.6C20.5,20.6,20.5,20.6,20.5,20.6l0.2,0c0,0,0,0,0,0
				l0,0.1c0,0,0,0,0,0l-0.1,0C20.5,20.7,20.5,20.7,20.5,20.6L20.5,20.6z M20.5,20.8C20.5,20.8,20.5,20.8,20.5,20.8l0.2,0
				c0,0,0,0,0,0l0,0.1c0,0,0,0,0,0l-0.1,0C20.6,20.9,20.6,20.9,20.5,20.8L20.5,20.8z M20.7,21.1l-0.1,0c0,0,0,0,0,0l0-0.1
				c0,0,0,0,0,0l0.1,0c0,0,0,0,0,0L20.7,21.1C20.8,21.1,20.8,21.1,20.7,21.1z M20.9,21.1l-0.1,0c0,0,0,0,0,0l0-0.1c0,0,0,0,0,0
				l0.1,0c0,0,0,0,0,0L20.9,21.1C21,21.1,20.9,21.1,20.9,21.1z M20.9,20.8C20.9,20.8,21,20.8,20.9,20.8l0.2,0c0,0,0,0,0,0l0,0.1
				c0,0,0,0,0,0l-0.1,0C21,20.9,21,20.9,20.9,20.8L20.9,20.8z M21.1,21.1l-0.1,0c0,0,0,0,0,0l0-0.1c0,0,0,0,0,0l0.1,0c0,0,0,0,0,0
				L21.1,21.1C21.1,21.1,21.1,21.1,21.1,21.1z M21.3,21.1C21.3,21.1,21.3,21.1,21.3,21.1l-0.2,0c0,0,0,0,0,0l0-0.1c0,0,0,0,0,0
				l0.1,0C21.3,21,21.3,21,21.3,21.1L21.3,21.1z M21.3,20.9C21.3,20.9,21.3,20.9,21.3,20.9l-0.2,0c0,0,0,0,0,0l0-0.1c0,0,0,0,0,0
				l0.2,0C21.3,20.8,21.3,20.8,21.3,20.9L21.3,20.9z M21.3,20.7C21.3,20.7,21.3,20.7,21.3,20.7l-0.2,0c0,0,0,0,0,0l0-0.1
				c0,0,0,0,0,0l0.2,0C21.3,20.6,21.4,20.6,21.3,20.7L21.3,20.7z M21.5,21.1l-0.1,0c0,0,0,0,0,0l0-0.1c0,0,0,0,0,0l0.1,0
				c0,0,0,0,0,0L21.5,21.1C21.5,21.1,21.5,21.1,21.5,21.1z M21.7,21L21.7,21c0,0.1,0,0.1,0,0.1l-0.1,0c0,0,0,0,0,0l0-0.1
				c0,0,0,0,0,0L21.7,21C21.7,21,21.7,21,21.7,21z M21.8,20.8L21.8,20.8c0,0.1,0,0.1-0.1,0.1l-0.1,0c0,0,0,0,0,0l0-0.1c0,0,0,0,0,0
				L21.8,20.8C21.8,20.8,21.8,20.8,21.8,20.8z M21.8,20.6L21.8,20.6c0,0.1,0,0.1-0.1,0.1l-0.1,0c0,0,0,0,0,0l0-0.1c0,0,0,0,0,0
				L21.8,20.6C21.8,20.6,21.8,20.6,21.8,20.6z"/>
		</g>
		<path class="st41" d="M17,19.6l-2,2.8c0,0,0.1,0.1,0.1,0.1c0.2,0.2,0.4,0.4,0.6,0.5c0.2,0.2,0.5,0.3,0.7,0.5l0.2-0.5l0.5-0.1
			l0.7-0.4l0-1.6l0.4-0.4L17,19.6z"/>
		<path class="st42" d="M15.3,21.9l-0.4,0.5c0,0,0.1,0.1,0.1,0.1c0.2,0.2,0.4,0.4,0.6,0.5c0.2,0.2,0.5,0.3,0.7,0.5l0.2-0.5l0.3-0.1
			L15.3,21.9z"/>
		<path class="st41" d="M20.1,19l-1.2-0.1c0,0-1.7,0.6-1.7,0.6c-0.4,0.1-0.4,0.5-0.4,0.5l1.4,0.5l0.3-0.6l0.7-0.3l0.7-0.1
			c0,0,0.5,0.1,0.7,0.1c0.4,0,0.4-0.3,0.3-0.4C20.8,19.1,20.1,19,20.1,19z"/>
		<path class="st19" d="M20.4,19c0.1,0.1,0.2,0.4,0.5,0.3c0,0,0.1,0,0.1-0.1c0,0,0,0,0,0C20.9,19.2,20.6,19.1,20.4,19z"/>
		<path class="st41" d="M20.3,21.6c-0.1,0-0.9,0-0.9,0l-0.8-0.2c0,0-0.6-0.4-0.5-0.6c0-0.1,0.1-0.3,0.1-0.3L16.6,21l-0.2,1.4
			l0.7,0.5l1.1-0.6l1.2,0.1c0,0,0.8-0.2,1-0.3C20.8,21.9,20.7,21.6,20.3,21.6z"/>
		<path class="st19" d="M20.1,22.2c0.2,0,0.3-0.1,0.4-0.1c0.1-0.1,0.1-0.1,0.2-0.2c0,0,0,0,0,0C20.3,21.8,20,22,20.1,22.2z"/>
		<polygon class="st2" points="14.6,22.5 16.6,23.7 17.1,23.1 15,21.9 		"/>
		<polygon class="st3" points="14.6,22.5 16.6,23.7 17,23.3 14.9,22 		"/>
		<polygon class="st43" points="14.8,22 11.6,25.5 15.5,25.5 17.1,23.5 		"/>
	</g>
	<g>
		<g id="hand2_1_">
			<g>
				<path class="st31" d="M25.6,18.6c-0.1-0.1-0.3-0.2-0.4-0.2c-0.2,0.1-0.3,0.2-0.2,0.4l0.6,1.4c0.1,0.1,0.3,0.2,0.4,0.2
					c0.2-0.1,0.3-0.2,0.2-0.4L25.6,18.6z"/>
				<path class="st31" d="M26.2,18.2c-0.1-0.2-0.3-0.3-0.5-0.2c-0.2,0.1-0.3,0.2-0.2,0.4l0.6,1.5c0.1,0.2,0.3,0.3,0.5,0.2
					c0.2-0.1,0.3-0.2,0.2-0.4L26.2,18.2z"/>
				<path class="st31" d="M26.9,18.1c-0.1-0.2-0.3-0.2-0.4-0.2c-0.2,0.1-0.3,0.2-0.2,0.4l0.6,1.4c0.1,0.2,0.3,0.2,0.4,0.2
					c0.2-0.1,0.3-0.2,0.2-0.4L26.9,18.1z"/>
				<path class="st31" d="M27.6,18.2C27.6,18,27.4,18,27.2,18c-0.2,0.1-0.3,0.2-0.2,0.3l0.6,1.3c0.1,0.1,0.2,0.2,0.4,0.1
					c0.2-0.1,0.3-0.2,0.2-0.3L27.6,18.2z"/>
			</g>
			<path class="st31" d="M25.5,21.9c0,0-0.4-0.3-0.5-0.4c-0.4-0.4-0.8-0.2-0.8-0.1c-0.1,0.1,0.1,0.2,0.1,0.2l1,1
				c0.1,0,1.2,0.3,1.2,0.3l0.6,0l-0.2-1C26.4,21.7,25.5,21.9,25.5,21.9z"/>
			<path class="st31" d="M28.6,20.4l-2.8,0.4l1.1,2.3l0.1,0.3l0.3,0.5l2-0.4c0,0-0.5-1.3-0.5-1.4C28.9,21.7,28.6,20.4,28.6,20.4z"/>
			<path class="st15" d="M27.1,23.2l0.1,0.2l0.3,0.5l2-0.6l-0.3-0.7C29.1,22.6,27.2,23.2,27.1,23.2z"/>
			<polygon class="st2" points="27,23.3 27.3,24.1 29.7,23.4 29.4,22.6 			"/>
			<polygon class="st38" points="26.9,23.8 27.6,25.5 30.8,25.5 29.8,23 			"/>
			<ellipse transform="matrix(0.1963 -0.9805 0.9805 0.1963 1.0915 47.0863)" class="st21" cx="29.3" cy="22.9" rx="0.1" ry="0.1"/>
		</g>
		<g>
			<path class="st21" d="M28.5,19.2c-0.1-0.1-0.2-0.2-0.4-0.2l-3.7,1.2c-0.1,0-0.2,0.2-0.2,0.3l0.6,1.5c0.1,0.1,0.2,0.2,0.4,0.2
				l3.7-1.2c0.1,0,0.2-0.2,0.2-0.3L28.5,19.2z"/>
			<path class="st18" d="M27.9,19.4c0-0.1-0.1-0.1-0.1-0.1l-2.9,0.9c-0.1,0-0.1,0.1-0.1,0.1l0.6,1.6c0,0.1,0.1,0.1,0.1,0.1l2.9-0.9
				c0.1,0,0.1-0.1,0.1-0.1L27.9,19.4z"/>
			<path class="st21" d="M28.6,19.9C28.6,19.9,28.6,19.9,28.6,19.9c-0.1-0.1-0.2-0.1-0.3-0.1c-0.1,0-0.1,0-0.1,0.1c0,0,0,0.1,0,0.1
				l0.1,0.3c0,0,0,0,0,0.1c0.1,0.1,0.1,0.1,0.2,0c0.1,0,0.2-0.1,0.1-0.2L28.6,19.9z"/>
			<path class="st44" d="M24.8,21.1C24.8,21,24.8,21,24.8,21.1c-0.1,0-0.1,0-0.1,0l0.2,0.4c0,0,0,0,0.1,0c0,0,0,0,0-0.1L24.8,21.1z"
				/>
			<path class="st44" d="M28.6,19.9c0-0.1-0.1-0.1-0.2-0.1c-0.1,0-0.1,0.1-0.1,0.2l0.1,0.3c0,0.1,0.1,0.1,0.2,0.1
				c0.1,0,0.1-0.1,0.1-0.2L28.6,19.9z"/>
			<path class="st16" d="M27.5,20.4c-0.1-0.4-0.7-0.5-1.2-0.4c-0.5,0.2-0.8,0.6-0.7,0.9c0.1,0.4,0.7,0.5,1.2,0.4
				c0.2-0.1,0.5-0.2,0.6-0.4c0.3,0.1,0.4,0,0.4,0c-0.1,0-0.2-0.1-0.3-0.2C27.6,20.6,27.6,20.5,27.5,20.4z M26.3,21
				c-0.1,0-0.1,0-0.2-0.1c0-0.1,0-0.1,0.1-0.2c0.1,0,0.1,0,0.2,0.1C26.4,20.9,26.4,21,26.3,21z M26.6,20.9c-0.1,0-0.1,0-0.2-0.1
				c0-0.1,0-0.1,0.1-0.2c0.1,0,0.1,0,0.2,0.1C26.7,20.8,26.7,20.8,26.6,20.9z M27,20.8c-0.1,0-0.1,0-0.2-0.1c0-0.1,0-0.1,0.1-0.2
				c0.1,0,0.1,0,0.2,0.1C27.1,20.7,27,20.7,27,20.8z"/>
		</g>
	</g>
</g>
<g id="globe">
	<ellipse class="st45" cx="23.1" cy="14.4" rx="3.7" ry="3.4"/>
	<path class="st46" d="M25.9,14c0.2-0.5,0.3-1,0.2-1.5c-0.1-0.1-0.2-0.2-0.2-0.3c0.1,0.7,0,1.4-0.3,2c-0.4-0.2-0.9-0.5-1.2-0.8
		l1.5-1.3c0,0,0,0-0.1-0.1c0,0-0.1,0-0.1-0.1l-1.5,1.3c-0.4-0.4-0.7-0.7-0.9-1.2c0.7-0.2,1.4-0.3,2.2-0.3c-0.1-0.1-0.2-0.1-0.3-0.2
		c-0.6,0-1.1,0.1-1.7,0.2c-0.1,0-0.2,0.1-0.3,0.1c-0.1-0.3-0.2-0.6-0.3-0.9c-0.1,0-0.1,0-0.2,0c0,0.2,0.1,0.4,0.2,0.6
		c0,0.1,0.1,0.2,0.1,0.4c-0.5,0.2-1,0.5-1.5,0.9l-1-0.9c0,0-0.1,0-0.1,0.1c0,0-0.1,0-0.1,0.1l1,0.9c-0.4,0.4-0.8,0.9-1,1.4
		c-0.1-0.1-0.3-0.1-0.4-0.1c-0.2-0.1-0.4-0.1-0.6-0.1c0,0.1,0,0.1,0,0.2c0.3,0.1,0.6,0.1,1,0.3c0,0.1-0.1,0.1-0.1,0.2
		c-0.2,0.5-0.3,1-0.2,1.5c0.1,0.1,0.2,0.2,0.2,0.3c-0.1-0.7,0-1.3,0.3-1.9c0.5,0.2,0.9,0.5,1.3,0.8l-1.4,1.3c0,0,0,0,0.1,0.1
		c0,0,0.1,0,0.1,0.1l1.4-1.3c0.4,0.3,0.6,0.7,0.9,1.1c-0.7,0.2-1.4,0.3-2.1,0.3c0.1,0.1,0.2,0.1,0.3,0.2c0.6,0,1.1-0.1,1.7-0.2
		c0.1,0,0.2,0,0.2-0.1c0.1,0.3,0.2,0.6,0.3,0.9c0.1,0,0.1,0,0.2,0c0-0.2-0.1-0.4-0.2-0.5c-0.1-0.1-0.1-0.3-0.2-0.4
		c0.6-0.2,1.1-0.5,1.5-0.9l1.1,1c0,0,0.1,0,0.1-0.1c0,0,0.1,0,0.1-0.1l-1.1-1c0.4-0.4,0.7-0.8,1-1.3c0.1,0.1,0.3,0.1,0.4,0.2
		c0.2,0.1,0.4,0.1,0.7,0.1c0-0.1,0-0.1,0-0.2c-0.4-0.1-0.7-0.2-1-0.3C25.8,14.2,25.9,14.1,25.9,14z M23.1,12.2
		c0.2,0.5,0.6,0.9,0.9,1.2l-1,0.9L21.7,13C22.1,12.7,22.6,12.4,23.1,12.2z M20.6,14.5c0.2-0.5,0.6-0.9,1-1.3l1.4,1.2l-1,0.9
		C21.5,15,21.1,14.7,20.6,14.5z M23,16.6c-0.2-0.4-0.5-0.8-0.9-1.2l1-0.9l1.3,1.2C24,16.1,23.5,16.4,23,16.6z M24.6,15.6l-1.3-1.2
		l1-0.9c0.4,0.3,0.8,0.6,1.3,0.8C25.3,14.8,25,15.2,24.6,15.6z"/>
	<path class="st2" d="M23.9,15.7c-2.8,1.9-4.4-0.3-4.4-0.3c1,3,4.1,1.6,4.9,1.2l0.3,0.5l0.6-1.6l-1.8-0.2L23.9,15.7z"/>
</g>
</svg>
