<?xml version="1.0" encoding="utf-8"?>
<!-- Generator: Adobe Illustrator 21.0.2, SVG Export Plug-In . SVG Version: 6.00 Build 0)  -->
<svg version="1.1" id="Camada_1" xmlns="http://www.w3.org/2000/svg" xmlns:xlink="http://www.w3.org/1999/xlink" x="0px" y="0px"
	 viewBox="0 0 107.8 23.1" style="enable-background:new 0 0 107.8 23.1;" xml:space="preserve">
<style type="text/css">
	.st0{fill:#183D4D;}
	.st1{fill:#2274A4;}
	.st2{fill:#E6EDEF;}
	.st3{fill:#008B1F;}
	.st4{fill:#E2A203;}
	.st5{fill:#FFBE00;}
</style>
<g>
	<g>
		<path class="st0" d="M100.3,4.3c0-1.3-1.1-2.2-2.2-2.2H76.6c-1.3,0-2.2,1-2.2,2.2v14.5h25.8L100.3,4.3L100.3,4.3z"/>
	</g>
</g>
<path class="st1" d="M75.3,4.5c0,0.2-0.1,0.4-0.1,0.7v12.9h24V5.2c0-0.3,0-0.7,0-0.7H75.3L75.3,4.5z"/>
<g>
	<g>
		<path class="st2" d="M71.8,18.9c0,0.8,0.4,1.8,1,1.8h29c0.6,0,1-1.1,1-1.8H71.8z"/>
	</g>
</g>
<polygon class="st3" points="77.4,16.5 77.4,17.7 97.3,17.7 97.3,5.6 96.1,6.5 95.1,7.5 93.4,9.4 92.6,10.4 89.7,10.5 87.3,12.5 
	85.1,12.7 82.9,14.5 82.5,15.1 "/>
<g>
	<path class="st4" d="M77.2,17.1c-0.2,0-0.4-0.2-0.5-0.3c-0.1-0.3,0.1-0.5,0.3-0.6l5-1.3l2.4-2.3c0.1-0.1,0.2-0.2,0.3-0.2l2.4-0.3
		l2.4-1.7c0.1-0.1,0.2-0.1,0.3-0.1l2.2,0.1l3.6-3.8c0.2-0.2,0.5-0.2,0.7,0c0.2,0.2,0.2,0.5,0,0.7l-3.7,3.9c-0.1,0.1-0.2,0.2-0.3,0.2
		l-2.2-0.1L87.6,13c-0.1,0-0.2,0-0.3,0l-2.4,0.3l-2.4,2.3c-0.1,0.1-0.2,0.1-0.2,0.2L77.2,17.1C77.2,17.1,77.2,17.1,77.2,17.1z"/>
	<path class="st5" d="M77.2,17c-0.2,0-0.4-0.2-0.5-0.3c-0.1-0.3,0.1-0.5,0.3-0.6l5-1.4l2.4-2.3c0.1-0.1,0.2-0.2,0.3-0.2L87,12
		l2.4-1.7c0.1-0.1,0.2-0.1,0.3-0.1l2.2,0.1l3.6-3.8c0.2-0.2,0.5-0.2,0.7,0s0.2,0.5,0,0.7l-3.7,3.9c-0.1,0.1-0.2,0.2-0.3,0.2
		l-2.2-0.1l-2.3,1.7c-0.1,0.1-0.2,0.1-0.2,0.1l-2.3,0.3l-2.4,2.3c-0.1,0.1-0.2,0.1-0.2,0.2l-5.1,1.4C77.2,17,77.2,17,77.2,17z"/>
</g>
<path class="st0" d="M90.1,19.9c0,0.2-0.2,0.3-0.3,0.3h-5.1c-0.2,0-0.3-0.2-0.3-0.3l0,0c0-0.2,0.2-0.3,0.3-0.3h5.2
	C90,19.6,90.1,19.8,90.1,19.9L90.1,19.9z"/>
</svg>
