<?xml version="1.0" encoding="utf-8"?>
<!-- Generator: Adobe Illustrator 21.0.2, SVG Export Plug-In . SVG Version: 6.00 Build 0)  -->
<svg version="1.1" id="Camada_1" xmlns="http://www.w3.org/2000/svg" xmlns:xlink="http://www.w3.org/1999/xlink" x="0px" y="0px"
	 viewBox="0 0 107.8 49.3" style="enable-background:new 0 0 107.8 49.3;" xml:space="preserve">
<style type="text/css">
	.st0{fill:#4F72B8;}
	.st1{fill:#3BCCE8;}
	.st2{fill:#F4AB4C;}
	.st3{fill:#D87D68;}
	.st4{fill:#DD6A7A;}
	.st5{fill:#4BA4B9;}
	.st6{fill:#FFD651;}
	.st7{fill:#FFFFFF;}
	.st8{fill:#444444;}
</style>
<g>
	<g>
		
			<image style="overflow:visible;" width="827" height="367" xlink:href="AEDFB985.png"  transform="matrix(1.652298e-02 0 0 1.652298e-02 27.2084 40.983)">
		</image>
	</g>
	<g>
		<path class="st0" d="M39.5,18.2c0.2-0.2,0.4-0.3,0.7-0.3c0.5,0,1,0.5,1.2,0.7h0.6v-2h-7.5v8h2.7c0.1,0,0.2,0.1,0.2,0.2v0.9
			c0,0.1,0,0.1-0.1,0.1c-0.2,0.1-0.6,0.5-0.6,0.8c0,0.2,0.1,0.4,0.2,0.6c0.2,0.2,0.4,0.3,0.7,0.3c0.4,0,1.1-0.1,1.2-0.7
			c0-0.6-0.7-1.1-0.7-1.1c-0.1,0-0.1-0.1-0.1-0.2v-0.9c0-0.1,0.1-0.2,0.2-0.2h3.8V20h-0.4c-0.2,0.2-0.7,0.8-1.2,0.8
			c-0.6,0-1.2-0.4-1.2-1.4C39.1,18.7,39.3,18.4,39.5,18.2z"/>
		<path class="st1" d="M34.1,16.6h-7.5v1.9h0.5c0.1-0.2,0.5-0.8,1.2-0.7c1.1,0,1.1,1.1,1.1,1.5c0,0.5-0.1,0.9-0.4,1.1
			c-0.2,0.2-0.5,0.3-0.8,0.3c-0.6,0-1-0.4-1.1-0.7h-0.6v4.3c0.1,0.1,0.1,0.2,0.2,0.4h7.3V16.6z"/>
		<path class="st2" d="M26.6,7.8h3.2C29.9,7.8,30,7.9,30,8v1c0,0.1,0,0.1-0.1,0.2c-0.2,0.1-0.5,0.4-0.5,0.8c0,0.4,0.3,0.9,0.9,0.9
			c0.6,0,1.1-0.3,1.1-0.8c0-0.6-0.7-0.9-0.7-0.9c-0.1,0-0.1-0.1-0.1-0.2l0-0.8c0-0.1,0.1-0.2,0.2-0.2h6.9V7.3C37.5,7.1,37,6.7,37,6
			c0-0.7,0.7-1,1.3-1c0.7,0,1.5,0.3,1.5,1c0,0.7-0.5,1.1-0.7,1.3v0.6h6.6c-0.6-1.6-1.5-3.1-2.8-4.2c-2.5-2.1-4.7-3.4-8.5-3.5
			c-2.3,0-5.4,0.6-7.9,2.5V7.8z"/>
		<path class="st3" d="M41.9,12.6c0-0.1,0.1-0.2,0.2-0.2h0.8c0.1,0,0.1,0,0.2,0.1c0.1,0.2,0.6,0.6,0.9,0.6c0.5,0,0.7-0.6,0.7-1.1
			c0-0.6-0.3-0.9-0.7-0.9c-0.3,0-0.8,0.4-1,0.7c0,0-0.1,0.1-0.1,0.1h-0.8c-0.1,0-0.2-0.1-0.2-0.2V8.2H39c-0.1,0-0.2-0.1-0.2-0.2V7.2
			c0-0.1,0-0.1,0.1-0.2c0,0,0.6-0.4,0.6-1c0-0.6-0.9-0.6-1.1-0.6c-0.4,0-1,0.1-1,0.7c0,0.6,0.6,1,0.6,1c0.1,0,0.1,0.1,0.1,0.2v0.9
			c0,0.1-0.1,0.2-0.2,0.2h-3.5v7.9h7.5V12.6z"/>
		<path class="st4" d="M42.2,8.3v3.2h0.6c0.2-0.2,0.8-0.8,1.2-0.7c0.5,0,1.1,0.4,1.1,1.3c0,0.9-0.4,1.5-1.1,1.5
			c-0.5,0-1-0.5-1.2-0.7h-0.5v6c0,0.1-0.1,0.2-0.2,0.2h-0.8c-0.1,0-0.1,0-0.1-0.1c-0.2-0.2-0.7-0.6-1-0.6c-0.2,0-0.3,0-0.4,0.2
			c-0.2,0.2-0.3,0.5-0.3,0.9c0,0.7,0.3,1,0.8,1c0.4,0,0.9-0.5,1-0.7c0,0,0.1-0.1,0.1-0.1h0.7c0.1,0,0.2,0.1,0.2,0.2v4
			c0.8-1.7,1.8-4.1,2.7-5.7c1.3-2.6,1.7-4.2,1.7-6.2c0-0.9-0.2-2.2-0.7-3.6H42.2z"/>
		<path class="st0" d="M38.4,24.9v0.6c0.2,0.2,0.8,0.7,0.8,1.3c-0.1,0.7-0.6,1.1-1.5,1.1c-0.5,0-0.8-0.2-1-0.4
			c-0.2-0.2-0.3-0.5-0.3-0.9c0-0.5,0.5-0.9,0.7-1.1V25H26.9c0.3,0.7,0.5,1.3,0.4,1.7c-0.1,3.4,1.7,4.4,2.4,4.4c2.5,0,8.3,0,9.2,0
			s1.7-1.2,2.1-2c0.4-0.9,0.1-2.6,0.4-3.3c0.1-0.1,0.2-0.4,0.4-0.9H38.4z"/>
		<path class="st5" d="M26.2,19.7c0-0.1,0.1-0.2,0.2-0.2h0.9c0.1,0,0.2,0.1,0.2,0.1c0,0,0.2,0.6,0.8,0.6c0.2,0,0.4,0,0.5-0.2
			c0.2-0.2,0.2-0.4,0.2-0.8c0-0.6-0.1-1.1-0.7-1.1c-0.7,0-0.9,0.6-0.9,0.6c0,0.1-0.1,0.1-0.2,0.1h-0.8c-0.1,0-0.2-0.1-0.2-0.2v-2.2
			c0,0,0-0.1,0-0.1c0,0,0-0.1,0-0.1V3c-1.4,1.2-2.6,2.7-3.5,4.8c-2.3,5.8,1,10.6,1.5,11.7c0.3,0.6,1.2,2.2,1.9,3.8V19.7z"/>
		<path class="st6" d="M34.1,8.3H31l0,0.5c0.3,0.1,0.8,0.5,0.8,1.2c0,0.6-0.7,1.1-1.5,1.1c-0.8,0-1.3-0.6-1.3-1.3
			c0-0.5,0.4-0.9,0.6-1V8.2h-3v8h7.5V8.3z"/>
		<g>
			<path class="st0" d="M32.7,20.7c0.1,0,0.1,0,0.1,0.1c0,0,0,0.1,0,0.1c0,0.6,0,1.3,0,1.9c0,0.1-0.1,0.2-0.2,0.2
				c-0.9,0-1.9,0-2.8,0c-0.1,0-0.2,0-0.2-0.1c0,0,0,0,0,0c0-0.7,0-1.3,0-2c0,0,0,0,0,0c0-0.1,0.1-0.1,0.1-0.1
				C30.8,20.7,31.8,20.7,32.7,20.7z M32.7,22.8c0-0.6,0-1.3,0-1.9c-0.9,0-1.9,0-2.8,0c0,0.6,0,1.3,0,1.9
				C30.8,22.8,31.7,22.8,32.7,22.8z"/>
			<path class="st0" d="M31,23.2c0.2,0,0.4,0,0.6,0c0,0,0,0,0,0c0,0.1,0,0.2,0,0.3c0,0.1,0.1,0.2,0.2,0.2c0.1,0,0.1,0,0.2,0
				c0.1,0,0.1,0,0.1,0.1c0,0.1,0,0.1-0.1,0.1c-0.5,0-0.9,0-1.4,0c-0.1,0-0.1,0-0.1-0.1c0-0.1,0-0.1,0.1-0.1c0.1,0,0.1,0,0.2,0
				c0.1,0,0.2-0.1,0.2-0.2C31,23.4,31,23.3,31,23.2z"/>
		</g>
		<g>
			<path class="st7" d="M32.4,25.7c0.1,0,0.2,0.1,0.2,0.1c0,0,0,0.1,0,0.1c0,0.7,0,1.4,0,2.1c0,0.5,0,1,0,1.5c0,0.2-0.1,0.3-0.3,0.3
				c-0.7,0-1.4,0-2,0c-0.2,0-0.3-0.1-0.3-0.3c0-1.2,0-2.4,0-3.6c0-0.2,0-0.3,0.2-0.3C30.9,25.7,31.7,25.7,32.4,25.7z M32.3,29.3
				c0-1,0-1.9,0-2.9c-0.7,0-1.4,0-2.1,0c0,1,0,1.9,0,2.9C31,29.3,31.6,29.3,32.3,29.3z M31.3,26c-0.1,0-0.3,0-0.4,0c0,0,0,0,0,0
				c0,0-0.1,0-0.1,0.1c0,0,0,0.1,0.1,0.1c0,0,0,0,0,0c0.3,0,0.6,0,0.9,0c0,0,0,0,0,0c0,0,0,0,0-0.1c0,0,0-0.1,0-0.1c0,0,0,0,0,0
				C31.6,26,31.4,26,31.3,26z M31.5,29.6c0-0.1-0.1-0.2-0.2-0.2c-0.1,0-0.2,0.1-0.2,0.2c0,0.1,0.1,0.2,0.2,0.2
				C31.4,29.8,31.5,29.7,31.5,29.6z"/>
		</g>
		<path class="st4" d="M29.5,15.6c0-0.5,0-1.1,0-1.6c0-0.4,0.3-0.8,0.7-0.9c0.5-0.1,1.1,0.3,1.1,0.8c0,0,0,0.1,0,0.1
			c0,0.5,0,1.1,0,1.6C30.8,15.6,30.2,15.6,29.5,15.6z"/>
		<path class="st4" d="M30.5,11.7c0,0,0.1,0,0.1,0c0.3,0.1,0.4,0.4,0.4,0.7c0,0.3-0.3,0.5-0.6,0.5c-0.3,0-0.5-0.2-0.6-0.5
			c-0.1-0.3,0.2-0.6,0.5-0.7c0,0,0,0,0,0C30.4,11.7,30.5,11.7,30.5,11.7z"/>
		<path class="st7" d="M29.1,2.8c0,0-0.5,0.1-0.5,0.5c0,0.4,0.3,0.8,0.7,0.8c0.4,0,2.4,0,2.6,0c0.2,0,0.7-0.4,0.7-0.8
			c0-0.7-1-0.9-1-0.9s0-0.7-0.9-0.7c-0.8,0-0.8,0.6-0.8,0.6s-0.3-0.2-0.6,0.1C29,2.6,29.1,2.8,29.1,2.8z"/>
		<polygon class="st5" points="38.6,22.1 37.4,22.1 37.4,20.8 36.8,20.8 36.8,22.1 35.5,22.1 35.5,22.7 36.8,22.7 36.8,23.8 
			37.4,23.8 37.4,22.7 38.6,22.7 		"/>
		<path class="st8" d="M28.9,31.1h10.7v0.9c0,0,0.2,0.2,0.2,0.5c0,0.3-0.5,0.6-0.5,0.8c0,0.2,0.4,0.4,0.4,0.7c0,0.3-0.5,0.6-0.4,0.9
			c0,0.3,0.4,0.4,0.4,0.6c0,0.3-0.4,0.5-0.4,0.8c0,0.2,0.4,0.4,0.4,0.7c0,0.3-0.4,0.5-0.4,0.8c0,0.3,0.3,0.3,0.3,0.5
			c0,0.2-0.1,0.6-0.9,1.2c-0.7,0.6-1.9,1.6-1.9,1.6h-5l-2.3-1.9c-0.1-0.2-0.1-0.7-0.1-0.8s-0.5-0.4-0.5-0.7c0-0.3,0.4-0.4,0.4-0.6
			c0-0.2-0.4-0.7-0.4-1c0-0.4,0.3-0.4,0.4-0.6c0-0.2-0.3-0.5-0.3-0.8c0-0.3,0.3-0.5,0.3-0.8c0-0.2-0.4-0.4-0.4-0.8
			C28.8,32.7,28.9,31.1,28.9,31.1z"/>
		<path class="st8" d="M31.9,41.5h4.6c0,0-0.5,0.6-0.7,0.6c-0.2,0-2.8,0-3,0C32.5,42.1,31.9,41.5,31.9,41.5z"/>
	</g>
</g>
</svg>
