<?xml version="1.0" encoding="utf-8"?>
<!-- Generator: Adobe Illustrator 21.0.2, SVG Export Plug-In . SVG Version: 6.00 Build 0)  -->
<svg version="1.1" id="Camada_1" xmlns="http://www.w3.org/2000/svg" xmlns:xlink="http://www.w3.org/1999/xlink" x="0px" y="0px"
	 viewBox="0 0 107.8 21.6" style="enable-background:new 0 0 107.8 21.6;" xml:space="preserve">
<style type="text/css">
	.st0{clip-path:url(#SVGID_2_);}
	.st1{fill:#E2E2E2;}
	.st2{fill:#EFEFEF;}
	.st3{fill:#F3D35D;}
	.st4{fill:#2B2948;}
	.st5{fill:#1C244B;}
	.st6{fill:#70C6D1;}
	.st7{fill:#425F8D;}
	.st8{fill:#2D5080;}
	.st9{fill:#37619D;}
	.st10{fill:#1B2F57;}
	.st11{fill:#363636;}
	.st12{fill:#959595;}
	.st13{fill:#AEAEAE;}
	.st14{opacity:0.5;fill:#231F20;}
	.st15{fill:#FFFFFF;}
	.st16{fill:#003D72;}
	.st17{fill:#FF7406;}
</style>
<g>
	<defs>
		<rect id="SVGID_1_" x="-4.1" y="2.1" width="69.3" height="23.1"/>
	</defs>
	<clipPath id="SVGID_2_">
		<use xlink:href="#SVGID_1_"  style="overflow:visible;"/>
	</clipPath>
	<g class="st0">
		<g>
			<rect x="2.1" y="19.6" class="st1" width="50" height="0.7"/>
		</g>
		<g>
			<polygon class="st2" points="50.5,19.1 3.6,19.1 2.1,19.6 52,19.6 			"/>
		</g>
		<g>
			<g>
				<g>
					<g>
						<g>
							<rect x="14.2" y="14.9" class="st1" width="1.6" height="1.8"/>
						</g>
						<g>
							<rect x="13.8" y="16" class="st1" width="2.4" height="2.7"/>
						</g>
						<g>
							<polygon class="st3" points="15.2,16.6 15,16.7 14.7,16.6 14.6,18.2 15,19 15.4,18.2 							"/>
						</g>
						<g>
							<path class="st3" d="M15,16c-0.1,0-0.5,0-0.5,0v0.2l0.3,0.4l0.3,0.1l0.3-0.1l0.3-0.4V16C15.5,16,15.1,16,15,16z"/>
						</g>
						<g>
							<path class="st2" d="M16.6,13.4c-0.1-0.2-0.3,0-0.3,0c0-1.5-1.3-1.3-1.3-1.3s-1.3-0.2-1.3,1.3c0,0-0.2-0.2-0.3,0
								c-0.1,0.2,0,1.1,0.3,0.9c0,0,0.2,1.3,1.3,1.3c1,0,1.3-1.3,1.3-1.3C16.5,14.5,16.7,13.6,16.6,13.4z"/>
						</g>
						<g>
							<path class="st4" d="M16.1,15.8L15,18.5l-1.1-2.8c-2.5,0-2.1,3.6-2.1,3.6H15h3.2C18.2,19.4,18.6,15.8,16.1,15.8z"/>
						</g>
						<g>
							<path class="st2" d="M15,16c0,0-0.5-0.1-1.1,0.6l-0.1-0.9c0,0,0.2-0.4,0.4-0.4C14.2,15.4,14.7,15.9,15,16z"/>
						</g>
						<g>
							<path class="st2" d="M15,16c0,0,0.5-0.1,1.1,0.6l0.1-0.9c0,0-0.2-0.4-0.4-0.4C15.8,15.4,15.3,15.9,15,16z"/>
						</g>
						<g>
							<path class="st5" d="M15.9,12.8c0,0-1,1-2.2,0.7c0,0-0.1-0.1-0.2-0.1c0,0-0.2-1.2,0.6-1.5c0.9-0.4,1.6-0.2,1.9,0.2
								c0,0,0.3,0,0.4,0.2c0.1,0.2,0.1,1.1,0.1,1.1s-0.1,0-0.2,0.1C16.3,13.5,16.1,13.3,15.9,12.8z"/>
						</g>
					</g>
					<g>
						<g>
							<path class="st5" d="M16.7,13.6l-0.2-0.1c0,0,0.3-1-0.1-1.6c-0.3-0.4-0.7-0.6-1.4-0.6c-0.7,0-1.2,0.2-1.4,0.6
								c-0.5,0.6-0.1,1.6-0.1,1.6l-0.2,0.1c0,0-0.4-1.1,0.2-1.8c0.3-0.4,0.8-0.6,1.6-0.6c0.8,0,1.3,0.2,1.6,0.6
								C17.1,12.5,16.8,13.5,16.7,13.6z"/>
						</g>
						<g>
							<path class="st5" d="M15.8,15c-0.1,0-0.1,0-0.2,0c-0.1,0-0.1,0-0.1,0v-0.1c0,0,0.1,0,0.1,0c0.3,0,0.6,0,0.8-0.2
								c0.1-0.1,0.1-0.2,0.1-0.4h0.1c0,0.2-0.1,0.4-0.2,0.5C16.3,15,16.1,15,15.8,15z"/>
						</g>
						<g>
							<path class="st6" d="M13.7,14.4C13.7,14.4,13.7,14.4,13.7,14.4l-0.6,0.1c0,0-0.1,0-0.1,0l-0.1-1c0,0,0-0.1,0-0.1l0.5,0
								c0,0,0.1,0,0.1,0L13.7,14.4z"/>
						</g>
						<g>
							<path class="st6" d="M16.3,14.4C16.3,14.4,16.3,14.4,16.3,14.4l0.6,0.1c0,0,0.1,0,0.1,0l0.1-1c0,0,0-0.1,0-0.1l-0.5,0
								c0,0-0.1,0-0.1,0L16.3,14.4z"/>
						</g>
						<g>
							<path class="st6" d="M15.6,15C15.6,15.1,15.6,15.1,15.6,15l-0.3,0.1c0,0-0.1,0-0.1-0.1v-0.2c0,0,0-0.1,0.1-0.1h0.3
								c0,0,0.1,0,0.1,0.1V15z"/>
						</g>
					</g>
				</g>
				<g>
					<g>
						<polygon class="st2" points="15.1,19 13.8,19 14.4,19.5 						"/>
					</g>
					<g>
						<polygon class="st7" points="8.1,15.7 14,15.7 14.4,19.6 8.7,19.6 						"/>
					</g>
					<g>
						<path class="st5" d="M14.4,19.6l0.8-0.3c0,0,0.1-0.2-0.1-0.2l-0.7,0.4L14.4,19.6z"/>
					</g>
				</g>
			</g>
			<g>
				<g>
					<g>
						<g>
							<rect x="42" y="14.9" class="st1" width="1.6" height="1.8"/>
						</g>
						<g>
							<rect x="41.5" y="16" class="st1" width="2.4" height="2.7"/>
						</g>
						<g>
							<polygon class="st3" points="43,16.6 42.8,16.7 42.5,16.6 42.4,18.2 42.8,19 43.1,18.2 							"/>
						</g>
						<g>
							<path class="st3" d="M42.8,16c-0.1,0-0.5,0-0.5,0v0.2l0.3,0.4l0.3,0.1l0.3-0.1l0.3-0.4V16C43.3,16,42.9,16,42.8,16z"/>
						</g>
						<g>
							<path class="st2" d="M44.3,13.4c-0.1-0.2-0.3,0-0.3,0c0-1.5-1.3-1.3-1.3-1.3s-1.3-0.2-1.3,1.3c0,0-0.2-0.2-0.3,0
								c-0.1,0.2,0,1.1,0.3,0.9c0,0,0.2,1.3,1.3,1.3c1,0,1.3-1.3,1.3-1.3C44.3,14.5,44.5,13.6,44.3,13.4z"/>
						</g>
						<g>
							<path class="st4" d="M43.8,15.8l-1.1,2.8l-1.1-2.8c-2.5,0-2.1,3.6-2.1,3.6h3.2H46C46,19.4,46.4,15.8,43.8,15.8z"/>
						</g>
						<g>
							<path class="st2" d="M42.8,16c0,0-0.5-0.1-1.1,0.6l-0.1-0.9c0,0,0.2-0.4,0.4-0.4C42,15.4,42.4,15.9,42.8,16z"/>
						</g>
						<g>
							<path class="st2" d="M42.8,16c0,0,0.5-0.1,1.1,0.6l0.1-0.9c0,0-0.2-0.4-0.4-0.4C43.6,15.4,43.1,15.9,42.8,16z"/>
						</g>
						<g>
							<path class="st5" d="M43.7,12.8c0,0-1,1-2.2,0.7c0,0-0.1-0.1-0.2-0.1c0,0-0.2-1.2,0.6-1.5c0.9-0.4,1.6-0.2,1.9,0.2
								c0,0,0.3,0,0.4,0.2c0.1,0.2,0.1,1.1,0.1,1.1s-0.1,0-0.2,0.1C44,13.5,43.9,13.3,43.7,12.8z"/>
						</g>
					</g>
					<g>
						<g>
							<path class="st5" d="M41,13.6c0,0-0.4-1.1,0.2-1.8c0.3-0.4,0.8-0.6,1.6-0.6s1.3,0.2,1.6,0.6c0.5,0.7,0.2,1.8,0.2,1.8
								l-0.2-0.1c0,0,0.3-1-0.1-1.6c-0.3-0.4-0.7-0.6-1.4-0.6s-1.2,0.2-1.4,0.6c-0.5,0.6-0.1,1.6-0.1,1.6L41,13.6z"/>
						</g>
						<g>
							<path class="st5" d="M43.6,15c-0.1,0-0.1,0-0.2,0c-0.1,0-0.1,0-0.1,0v-0.1c0,0,0.1,0,0.1,0c0.3,0,0.6,0,0.8-0.2
								c0.1-0.1,0.1-0.2,0.1-0.4h0.1c0,0.2-0.1,0.4-0.2,0.5C44.1,15,43.8,15,43.6,15z"/>
						</g>
						<g>
							<path class="st6" d="M41.5,14.4C41.5,14.4,41.5,14.4,41.5,14.4l-0.6,0.1c0,0-0.1,0-0.1,0l-0.1-1c0,0,0-0.1,0-0.1l0.5,0
								c0,0,0.1,0,0.1,0L41.5,14.4z"/>
						</g>
						<g>
							<path class="st6" d="M44,14.4C44,14.4,44.1,14.4,44,14.4l0.6,0.1c0,0,0.1,0,0.1,0l0.1-1c0,0,0-0.1,0-0.1l-0.5,0
								c0,0-0.1,0-0.1,0L44,14.4z"/>
						</g>
						<g>
							<path class="st6" d="M43.4,15C43.4,15.1,43.4,15.1,43.4,15l-0.3,0.1c0,0-0.1,0-0.1-0.1v-0.2c0,0,0-0.1,0.1-0.1h0.3
								c0,0,0.1,0,0.1,0.1V15z"/>
						</g>
					</g>
				</g>
				<g>
					<g>
						<polygon class="st2" points="42.9,19 41.6,19 42.2,19.5 						"/>
					</g>
					<g>
						<polygon class="st7" points="35.9,15.7 41.8,15.7 42.2,19.6 36.4,19.6 						"/>
					</g>
					<g>
						<path class="st5" d="M42.2,19.6l0.8-0.3c0,0,0.1-0.2-0.1-0.2l-0.7,0.4L42.2,19.6z"/>
					</g>
				</g>
			</g>
			<g>
				<g>
					<g>
						<path class="st3" d="M30.6,16c0,1-0.8,1.7-1.7,1.7l0,0c-1,0-1.7-0.8-1.7-1.7v-2.8c0-1,0.8-1.7,1.7-1.7l0,0
							c1,0,1.7,0.8,1.7,1.7V16z"/>
					</g>
					<g>
						<rect x="28.1" y="14.6" class="st1" width="1.6" height="1.8"/>
					</g>
					<g>
						<rect x="27.7" y="15.8" class="st8" width="2.4" height="2.7"/>
					</g>
					<g>
						<path class="st2" d="M30.5,13.2c-0.1-0.2-0.3,0-0.3,0c0-1.5-1.3-1.3-1.3-1.3s-1.3-0.2-1.3,1.3c0,0-0.2-0.2-0.3,0
							c-0.1,0.2,0,1.1,0.3,0.9c0,0,0.2,1.3,1.3,1.3c1,0,1.3-1.3,1.3-1.3C30.4,14.3,30.6,13.3,30.5,13.2z"/>
					</g>
					<g>
						<path class="st4" d="M30,15.6c0,0-0.3,1.8-1.1,1.8c-0.7,0-1.1-1.8-1.1-1.8c-0.6,0-1.3,0.5-1.3,0.5l-0.8,3.2h3.2h3.2l-0.7-3
							C31.4,16.1,30.6,15.6,30,15.6z"/>
					</g>
					<g>
						<path class="st9" d="M28.9,15.8c0,0-0.5-0.1-1.1,0.6l-0.1-0.9c0,0,0.2-0.4,0.4-0.4C28.1,15.2,28.6,15.7,28.9,15.8z"/>
					</g>
					<g>
						<path class="st9" d="M28.9,15.8c0,0,0.5-0.1,1.1,0.6l0.1-0.9c0,0-0.2-0.4-0.4-0.4C29.7,15.2,29.2,15.7,28.9,15.8z"/>
					</g>
					<g>
						<path class="st3" d="M29.8,12.4c0,0-1.5,1.2-2.1,0.8c0,0-0.4-1.5,1.4-1.5c1.1,0,1.3,1.2,1.2,1.5
							C30.2,13.2,29.8,12.9,29.8,12.4z"/>
					</g>
					<g>
						<g>
							<path class="st5" d="M27.1,13.4c0,0-0.4-1.1,0.2-1.8c0.3-0.4,0.8-0.6,1.6-0.6c0.8,0,1.3,0.2,1.6,0.6c0.5,0.7,0.2,1.8,0.2,1.8
								l-0.2-0.1c0,0,0.3-1-0.1-1.6c-0.3-0.4-0.7-0.6-1.4-0.6c-0.7,0-1.2,0.2-1.4,0.6c-0.5,0.6-0.1,1.6-0.1,1.6L27.1,13.4z"/>
						</g>
						<g>
							<path class="st5" d="M29.7,14.8c-0.1,0-0.1,0-0.2,0c-0.1,0-0.1,0-0.1,0v-0.1c0,0,0.1,0,0.1,0c0.3,0,0.6,0,0.8-0.2
								c0.1-0.1,0.1-0.2,0.1-0.4h0.1c0,0.2-0.1,0.4-0.2,0.5C30.2,14.8,30,14.8,29.7,14.8z"/>
						</g>
						<g>
							<path class="st6" d="M27.6,14.2C27.6,14.2,27.6,14.2,27.6,14.2L27,14.3c0,0-0.1,0-0.1,0l-0.1-1c0,0,0-0.1,0-0.1l0.5,0
								c0,0,0.1,0,0.1,0L27.6,14.2z"/>
						</g>
						<g>
							<path class="st6" d="M30.2,14.2C30.2,14.2,30.2,14.2,30.2,14.2l0.6,0.1c0,0,0.1,0,0.1,0l0.1-1c0,0,0-0.1,0-0.1l-0.5,0
								c0,0-0.1,0-0.1,0L30.2,14.2z"/>
						</g>
						<g>
							<path class="st6" d="M29.5,14.8C29.5,14.8,29.5,14.9,29.5,14.8l-0.3,0.1c0,0-0.1,0-0.1-0.1v-0.2c0,0,0-0.1,0.1-0.1h0.3
								c0,0,0.1,0,0.1,0.1V14.8z"/>
						</g>
					</g>
				</g>
				<g>
					<g>
						<polygon class="st2" points="29,19 27.7,19 28.3,19.5 						"/>
					</g>
					<g>
						<polygon class="st7" points="22,15.7 27.9,15.7 28.3,19.6 22.6,19.6 						"/>
					</g>
					<g>
						<path class="st5" d="M28.3,19.6l0.8-0.3c0,0,0.1-0.2-0.1-0.2l-0.7,0.4L28.3,19.6z"/>
					</g>
				</g>
			</g>
		</g>
		<g>
			<g>
				<circle class="st10" cx="14.9" cy="7.3" r="1.9"/>
			</g>
			<g>
				<circle class="st2" cx="14.9" cy="7.3" r="1.7"/>
			</g>
			<g>
				<g>
					<path d="M14.8,6.1L14.8,6.1l0-0.3l-0.1,0v0l0.1,0V6.1z"/>
					<path d="M15.1,6.1h-0.2v0L15,6c0,0,0,0,0-0.1c0,0,0,0,0,0c0,0,0,0,0,0s0,0,0,0c0,0,0,0,0,0c0,0,0,0,0,0h0l0,0c0,0,0-0.1,0-0.1
						c0,0,0,0,0.1,0c0,0,0.1,0,0.1,0c0,0,0,0,0,0.1c0,0,0,0,0,0.1c0,0,0,0,0,0.1L15,6.1l0,0L15.1,6.1L15.1,6.1z"/>
				</g>
				<g>
					<path d="M14.9,8.5C14.9,8.5,14.9,8.5,14.9,8.5C15,8.5,15,8.5,14.9,8.5L14.9,8.5C15,8.5,15,8.5,14.9,8.5
						C14.9,8.5,14.9,8.5,14.9,8.5C14.9,8.5,14.9,8.5,14.9,8.5c-0.1,0.1-0.1,0.1-0.1,0.1v0c0,0,0,0,0,0c0,0,0,0,0,0c0,0,0.1,0,0.1,0
						c0,0,0,0,0,0.1c0,0,0,0.1,0,0.1c0,0,0,0-0.1,0c0,0-0.1,0-0.1,0c0,0,0-0.1,0-0.1V8.6C14.8,8.5,14.8,8.5,14.9,8.5
						C14.9,8.5,14.9,8.5,14.9,8.5z M14.9,8.6C14.9,8.6,14.9,8.6,14.9,8.6C14.9,8.6,14.8,8.6,14.9,8.6L14.9,8.6
						c-0.1,0.1-0.1,0.1,0,0.1c0,0,0,0,0,0c0,0,0,0,0,0C15,8.7,15,8.7,14.9,8.6C15,8.6,15,8.6,14.9,8.6C14.9,8.6,14.9,8.6,14.9,8.6z"
						/>
				</g>
				<g>
					<path d="M16.2,7.3L16.2,7.3C16.2,7.3,16.3,7.3,16.2,7.3C16.3,7.2,16.3,7.2,16.2,7.3C16.3,7.2,16.3,7.2,16.2,7.3
						c0.1-0.1,0.1-0.1,0-0.1C16.2,7.1,16.2,7.2,16.2,7.3C16.2,7.2,16.2,7.2,16.2,7.3L16.2,7.3L16.2,7.3c-0.1-0.1-0.1-0.1,0-0.1
						c0,0,0,0,0.1,0c0,0,0.1,0,0.1,0c0,0,0,0,0,0.1c0,0,0,0,0,0C16.3,7.3,16.3,7.3,16.2,7.3c0.1,0,0.1,0,0.1,0c0,0,0,0,0,0
						c0,0,0,0.1,0,0.1c0,0,0,0-0.1,0c0,0-0.1,0-0.1,0C16.1,7.4,16.1,7.4,16.2,7.3L16.2,7.3L16.2,7.3c0,0.1,0,0.1,0,0.1c0,0,0,0,0,0
						c0,0,0,0,0,0C16.3,7.4,16.3,7.4,16.2,7.3C16.3,7.3,16.3,7.3,16.2,7.3C16.3,7.3,16.3,7.3,16.2,7.3L16.2,7.3L16.2,7.3z"/>
				</g>
				<g>
					<path d="M13.5,7.4C13.6,7.4,13.6,7.4,13.5,7.4C13.6,7.4,13.6,7.3,13.5,7.4l0.1-0.1C13.6,7.3,13.6,7.3,13.5,7.4
						C13.6,7.3,13.6,7.3,13.5,7.4c0-0.1,0-0.1-0.1-0.1c0,0,0,0,0-0.1c0,0,0-0.1,0-0.1c0,0,0,0,0.1,0c0,0,0.1,0,0.1,0
						c0,0,0,0.1,0,0.1v0.1C13.7,7.4,13.6,7.4,13.5,7.4C13.6,7.4,13.6,7.4,13.5,7.4C13.5,7.4,13.5,7.4,13.5,7.4
						C13.5,7.4,13.5,7.4,13.5,7.4L13.5,7.4C13.5,7.4,13.5,7.4,13.5,7.4C13.5,7.4,13.5,7.4,13.5,7.4z M13.5,7.3
						C13.6,7.3,13.6,7.3,13.5,7.3C13.6,7.3,13.6,7.3,13.5,7.3L13.5,7.3c0.1-0.1,0.1-0.1,0-0.1c0,0,0,0,0,0c0,0,0,0,0,0
						C13.5,7.2,13.5,7.2,13.5,7.3C13.5,7.2,13.5,7.3,13.5,7.3C13.5,7.3,13.5,7.3,13.5,7.3z"/>
				</g>
			</g>
			<g>
				<path class="st11" d="M14.9,7.3C14.9,7.3,14.9,7.3,14.9,7.3C14.9,7.3,14.9,7.3,14.9,7.3L15.7,6c0,0,0,0,0.1,0c0,0,0,0,0,0.1
					L14.9,7.3C14.9,7.3,14.9,7.3,14.9,7.3z"/>
			</g>
			<g>
				<path class="st11" d="M14.9,8.1C14.9,8.1,14.9,8.1,14.9,8.1l0-0.8c0,0,0,0,0,0c0,0,0,0,0,0L14.9,8.1C14.9,8.1,14.9,8.1,14.9,8.1
					z"/>
			</g>
			<g>
				<circle class="st12" cx="14.9" cy="7.3" r="0.1"/>
			</g>
		</g>
		<g>
			<g>
				<circle class="st10" cx="28.7" cy="7.3" r="1.9"/>
			</g>
			<g>
				<circle class="st2" cx="28.7" cy="7.3" r="1.7"/>
			</g>
			<g>
				<g>
					<path d="M28.6,6.1L28.6,6.1l0-0.3l-0.1,0v0l0.1,0V6.1z"/>
					<path d="M29,6.1h-0.2v0L28.9,6c0,0,0,0,0-0.1c0,0,0,0,0,0c0,0,0,0,0,0c0,0,0,0,0,0c0,0,0,0,0,0c0,0,0,0,0,0h0l0,0
						c0,0,0-0.1,0-0.1c0,0,0,0,0.1,0c0,0,0.1,0,0.1,0c0,0,0,0,0,0.1c0,0,0,0,0,0.1c0,0,0,0,0,0.1l-0.1,0.1l0,0L29,6.1L29,6.1z"/>
				</g>
				<g>
					<path d="M28.8,8.5C28.8,8.5,28.8,8.5,28.8,8.5C28.8,8.5,28.8,8.5,28.8,8.5L28.8,8.5C28.8,8.5,28.8,8.5,28.8,8.5
						C28.8,8.5,28.8,8.5,28.8,8.5C28.7,8.5,28.7,8.5,28.8,8.5c-0.1,0.1-0.1,0.1-0.1,0.1v0c0,0,0,0,0,0c0,0,0,0,0,0c0,0,0.1,0,0.1,0
						c0,0,0,0,0,0.1c0,0,0,0.1,0,0.1c0,0,0,0-0.1,0c0,0-0.1,0-0.1,0c0,0,0-0.1,0-0.1V8.6C28.6,8.5,28.7,8.5,28.8,8.5
						C28.7,8.5,28.7,8.5,28.8,8.5z M28.7,8.6C28.7,8.6,28.7,8.6,28.7,8.6C28.7,8.6,28.7,8.6,28.7,8.6L28.7,8.6
						c-0.1,0.1-0.1,0.1,0,0.1c0,0,0,0,0,0c0,0,0,0,0,0C28.8,8.7,28.8,8.7,28.7,8.6C28.8,8.6,28.8,8.6,28.7,8.6
						C28.8,8.6,28.8,8.6,28.7,8.6z"/>
				</g>
				<g>
					<path d="M30,7.3L30,7.3C30.1,7.3,30.1,7.3,30,7.3C30.1,7.2,30.1,7.2,30,7.3C30.1,7.2,30.1,7.2,30,7.3c0.1-0.1,0.1-0.1,0-0.1
						C30.1,7.1,30,7.2,30,7.3C30,7.2,30,7.2,30,7.3L30,7.3L30,7.3C30,7.2,30,7.2,30,7.1c0,0,0,0,0.1,0c0,0,0.1,0,0.1,0
						c0,0,0,0,0,0.1c0,0,0,0,0,0C30.2,7.3,30.1,7.3,30,7.3c0.1,0,0.1,0,0.1,0c0,0,0,0,0,0c0,0,0,0.1,0,0.1c0,0,0,0-0.1,0
						c0,0-0.1,0-0.1,0C30,7.4,30,7.4,30,7.3L30,7.3L30,7.3c0,0.1,0,0.1,0,0.1c0,0,0,0,0,0c0,0,0,0,0,0C30.1,7.4,30.1,7.4,30,7.3
						C30.1,7.3,30.1,7.3,30,7.3C30.1,7.3,30.1,7.3,30,7.3L30,7.3L30,7.3z"/>
				</g>
				<g>
					<path d="M27.4,7.4C27.4,7.4,27.4,7.4,27.4,7.4C27.5,7.4,27.5,7.3,27.4,7.4l0.1-0.1C27.5,7.3,27.4,7.3,27.4,7.4
						C27.4,7.3,27.4,7.3,27.4,7.4c0-0.1,0-0.1-0.1-0.1s0,0,0-0.1c0,0,0-0.1,0-0.1c0,0,0,0,0.1,0c0,0,0.1,0,0.1,0c0,0,0,0.1,0,0.1
						v0.1C27.5,7.4,27.5,7.4,27.4,7.4C27.4,7.4,27.4,7.4,27.4,7.4C27.4,7.4,27.4,7.4,27.4,7.4C27.3,7.4,27.3,7.4,27.4,7.4L27.4,7.4
						C27.3,7.4,27.3,7.4,27.4,7.4C27.4,7.4,27.4,7.4,27.4,7.4z M27.4,7.3C27.4,7.3,27.4,7.3,27.4,7.3C27.4,7.3,27.5,7.3,27.4,7.3
						L27.4,7.3c0.1-0.1,0.1-0.1,0-0.1c0,0,0,0,0,0c0,0,0,0,0,0C27.3,7.2,27.3,7.2,27.4,7.3C27.3,7.2,27.3,7.3,27.4,7.3
						C27.4,7.3,27.4,7.3,27.4,7.3z"/>
				</g>
			</g>
			<g>
				<path class="st11" d="M27.5,8.1C27.5,8.1,27.5,8.1,27.5,8.1C27.5,8,27.5,8,27.5,8.1l1.2-0.8c0,0,0,0,0.1,0c0,0,0,0,0,0.1
					L27.5,8.1C27.5,8.1,27.5,8.1,27.5,8.1z"/>
			</g>
			<g>
				<path class="st11" d="M29.4,7.6C29.4,7.6,29.4,7.6,29.4,7.6l-0.7-0.3c0,0,0,0,0-0.1c0,0,0,0,0.1,0L29.4,7.6
					C29.5,7.6,29.5,7.6,29.4,7.6C29.4,7.6,29.4,7.6,29.4,7.6z"/>
			</g>
			<g>
				<circle class="st12" cx="28.7" cy="7.3" r="0.1"/>
			</g>
		</g>
		<g>
			<g>
				<circle class="st10" cx="42.6" cy="7.3" r="1.9"/>
			</g>
			<g>
				<circle class="st2" cx="42.6" cy="7.3" r="1.7"/>
			</g>
			<g>
				<g>
					<path d="M42.5,6.1L42.5,6.1l0-0.3l-0.1,0v0l0.1,0V6.1z"/>
					<path d="M42.8,6.1h-0.2v0L42.7,6c0,0,0,0,0-0.1c0,0,0,0,0,0c0,0,0,0,0,0c0,0,0,0,0,0c0,0,0,0,0,0c0,0,0,0,0,0h0l0,0
						c0,0,0-0.1,0-0.1c0,0,0,0,0.1,0c0,0,0.1,0,0.1,0c0,0,0,0,0,0.1c0,0,0,0,0,0.1c0,0,0,0,0,0.1l-0.1,0.1l0,0L42.8,6.1L42.8,6.1z"
						/>
				</g>
				<g>
					<path d="M42.6,8.5C42.6,8.5,42.6,8.5,42.6,8.5C42.7,8.5,42.7,8.5,42.6,8.5L42.6,8.5C42.7,8.5,42.6,8.5,42.6,8.5
						C42.6,8.5,42.6,8.5,42.6,8.5C42.6,8.5,42.6,8.5,42.6,8.5c-0.1,0.1-0.1,0.1-0.1,0.1v0c0,0,0,0,0,0c0,0,0,0,0,0c0,0,0.1,0,0.1,0
						c0,0,0,0,0,0.1c0,0,0,0.1,0,0.1c0,0,0,0-0.1,0c0,0-0.1,0-0.1,0c0,0,0-0.1,0-0.1V8.6C42.5,8.5,42.5,8.5,42.6,8.5
						C42.5,8.5,42.6,8.5,42.6,8.5z M42.6,8.6C42.6,8.6,42.6,8.6,42.6,8.6C42.5,8.6,42.5,8.6,42.6,8.6L42.6,8.6
						c-0.1,0.1-0.1,0.1,0,0.1c0,0,0,0,0,0c0,0,0,0,0,0C42.6,8.7,42.7,8.7,42.6,8.6C42.7,8.6,42.6,8.6,42.6,8.6
						C42.6,8.6,42.6,8.6,42.6,8.6z"/>
				</g>
				<g>
					<path d="M43.9,7.3L43.9,7.3C43.9,7.3,44,7.3,43.9,7.3C44,7.2,44,7.2,43.9,7.3C44,7.2,44,7.2,43.9,7.3c0.1-0.1,0.1-0.1,0-0.1
						C43.9,7.1,43.9,7.2,43.9,7.3C43.9,7.2,43.9,7.2,43.9,7.3L43.9,7.3L43.9,7.3c-0.1-0.1-0.1-0.1,0-0.1c0,0,0,0,0.1,0
						c0,0,0.1,0,0.1,0c0,0,0,0,0,0.1c0,0,0,0,0,0C44,7.3,44,7.3,43.9,7.3c0.1,0,0.1,0,0.1,0c0,0,0,0,0,0c0,0,0,0.1,0,0.1
						c0,0,0,0-0.1,0c0,0-0.1,0-0.1,0C43.8,7.4,43.8,7.4,43.9,7.3L43.9,7.3L43.9,7.3c0,0.1,0,0.1,0,0.1c0,0,0,0,0,0c0,0,0,0,0,0
						C44,7.4,44,7.4,43.9,7.3C44,7.3,44,7.3,43.9,7.3C44,7.3,43.9,7.3,43.9,7.3L43.9,7.3L43.9,7.3z"/>
				</g>
				<g>
					<path d="M41.2,7.4C41.3,7.4,41.3,7.4,41.2,7.4C41.3,7.4,41.3,7.3,41.2,7.4l0.1-0.1C41.3,7.3,41.3,7.3,41.2,7.4
						C41.3,7.3,41.3,7.3,41.2,7.4c0-0.1,0-0.1-0.1-0.1c0,0,0,0,0-0.1c0,0,0-0.1,0-0.1c0,0,0,0,0.1,0c0,0,0.1,0,0.1,0
						c0,0,0,0.1,0,0.1v0.1C41.3,7.4,41.3,7.4,41.2,7.4C41.3,7.4,41.3,7.4,41.2,7.4C41.2,7.4,41.2,7.4,41.2,7.4
						C41.2,7.4,41.2,7.4,41.2,7.4L41.2,7.4C41.2,7.4,41.2,7.4,41.2,7.4C41.2,7.4,41.2,7.4,41.2,7.4z M41.2,7.3
						C41.3,7.3,41.3,7.3,41.2,7.3C41.3,7.3,41.3,7.3,41.2,7.3L41.2,7.3c0.1-0.1,0.1-0.1,0-0.1c0,0,0,0,0,0c0,0,0,0,0,0
						C41.2,7.2,41.2,7.2,41.2,7.3C41.2,7.2,41.2,7.3,41.2,7.3C41.2,7.3,41.2,7.3,41.2,7.3z"/>
				</g>
			</g>
			<g>
				<path class="st11" d="M42.6,7.3C42.6,7.3,42.6,7.3,42.6,7.3l-0.7-1.2c0,0,0,0,0-0.1c0,0,0,0,0.1,0L42.6,7.3
					C42.6,7.3,42.6,7.3,42.6,7.3C42.6,7.3,42.6,7.3,42.6,7.3z"/>
			</g>
			<g>
				<path class="st11" d="M42.6,7.3C42.6,7.3,42.6,7.3,42.6,7.3C42.5,7.3,42.6,7.3,42.6,7.3L43.3,7c0,0,0,0,0,0c0,0,0,0,0,0
					L42.6,7.3C42.6,7.3,42.6,7.3,42.6,7.3z"/>
			</g>
			<g>
				<circle class="st12" cx="42.6" cy="7.3" r="0.1"/>
			</g>
		</g>
		<g>
			<g>
				<path class="st2" d="M9.9,10.3c-0.9,0-1.7,0.6-1.7,1.3c0,0.7,0.8,1.3,1.7,1.3c0.1,0,0.2,0,0.3,0c0.1,0.3-0.1,0.7-0.1,0.7
					c0.6-0.2,0.7-0.7,0.7-0.9c0.5-0.2,0.8-0.6,0.8-1.1C11.6,10.8,10.8,10.3,9.9,10.3L9.9,10.3z"/>
			</g>
			<g>
				<g>
					<circle class="st5" cx="9.1" cy="11.7" r="0.2"/>
				</g>
				<g>
					<circle class="st5" cx="9.9" cy="11.7" r="0.2"/>
				</g>
				<g>
					<circle class="st5" cx="10.6" cy="11.7" r="0.2"/>
				</g>
			</g>
			<g>
				<path class="st5" d="M8.1,11.5c-0.8,0-1.5,0.5-1.5,1.1c0,0.4,0.3,0.8,0.7,0.9c0,0.2,0,0.6,0.6,0.8c0,0-0.2-0.4-0.1-0.6
					c0.1,0,0.2,0,0.3,0c0.8,0,1.5-0.5,1.5-1.1C9.6,12,8.9,11.5,8.1,11.5z"/>
			</g>
			<g>
				<circle class="st2" cx="7.4" cy="12.9" r="0.2"/>
			</g>
			<g>
				<circle class="st2" cx="8.1" cy="12.9" r="0.2"/>
			</g>
			<g>
				<circle class="st2" cx="8.8" cy="12.9" r="0.2"/>
			</g>
		</g>
		<g>
			<g>
				<rect x="22" y="10.7" class="st2" width="2.4" height="2.8"/>
			</g>
			<g>
				<rect x="22.3" y="11" class="st13" width="1.8" height="0.1"/>
			</g>
			<g>
				<rect x="22.3" y="11.2" class="st13" width="1.8" height="0.1"/>
			</g>
			<g>
				<rect x="22.3" y="11.5" class="st13" width="1.8" height="0.1"/>
			</g>
			<g>
				<rect x="22.3" y="11.7" class="st13" width="1.8" height="0.1"/>
			</g>
			<g>
				<rect x="22.3" y="11.9" class="st13" width="1.8" height="0.1"/>
			</g>
			<g>
				<rect x="22.3" y="12.1" class="st13" width="1.8" height="0.1"/>
			</g>
			<g>
				<rect x="22.3" y="12.3" class="st13" width="1.8" height="0.1"/>
			</g>
			<g>
				<rect x="22.3" y="12.5" class="st13" width="1.8" height="0.1"/>
			</g>
			<g>
				<rect x="22.3" y="12.8" class="st13" width="1.8" height="0.1"/>
			</g>
			<g>
				<rect x="22.3" y="13" class="st13" width="1" height="0.1"/>
			</g>
		</g>
	</g>
</g>
<path class="st14" d="M36.6,11.3c-0.1,0-0.3,0-0.3-0.1l-0.8-2c0-0.1,0-0.3,0.1-0.3c0.1,0,0.3,0,0.3,0.1l0.8,2
	C36.8,11.1,36.7,11.2,36.6,11.3z"/>
<path class="st15" d="M36.3,11.2c-0.1,0-0.3,0-0.3-0.1l-0.8-2c0-0.1,0-0.3,0.1-0.3c0.1,0,0.3,0,0.3,0.1l0.8,2
	C36.5,11,36.4,11.1,36.3,11.2z"/>
<path class="st16" d="M36.5,9.3c-0.1,0-0.3,0.1-0.3,0.2c0,0.1,0.1,0.3,0.2,0.3c0.7,0,1.2,0.4,1.5,1.1c0.3,0.8-0.1,1.8-1,2.1
	c-0.8,0.3-1.8-0.1-2.1-1c-0.2-0.6-0.1-1.3,0.4-1.8c0.1-0.1,0.1-0.3,0-0.4c-0.1-0.1-0.3-0.1-0.4,0c-0.6,0.6-0.8,1.5-0.5,2.3
	c0.4,1.1,1.7,1.7,2.8,1.3c1.1-0.4,1.7-1.7,1.3-2.8C38.2,9.8,37.4,9.3,36.5,9.3z"/>
<path class="st17" d="M36.4,11.2c0.1,0,0.2-0.2,0.1-0.3l-0.8-2c0-0.1-0.2-0.2-0.3-0.1c-0.1,0-0.2,0.2-0.1,0.3l0.8,2
	C36.1,11.2,36.3,11.3,36.4,11.2z"/>
</svg>
