<?xml version="1.0" encoding="utf-8"?>
<!-- Generator: Adobe Illustrator 21.0.2, SVG Export Plug-In . SVG Version: 6.00 Build 0)  -->
<svg version="1.1" id="Camada_1" xmlns="http://www.w3.org/2000/svg" xmlns:xlink="http://www.w3.org/1999/xlink" x="0px" y="0px"
	 viewBox="0 0 626.4 542" style="enable-background:new 0 0 626.4 542;" xml:space="preserve">
<style type="text/css">
	.st0{fill:#CED0D1;}
	.st1{fill:#D2BA6F;}
	.st2{fill:#424243;}
	.st3{fill:#FFFFFF;}
	.st4{fill:#F6DF86;}
	.st5{fill:#B9BBBC;}
	.st6{fill:#E5E5E6;}
	.st7{fill:#909294;}
	.st8{fill:#59595B;}
	.st9{fill:#B73142;}
	.st10{fill:#A22330;}
	.st11{fill:#A4A5A8;}
	.st12{fill:#6D6E6F;}
	.st13{fill:#E6AC4A;}
	.st14{fill:#F4EA49;}
	.st15{fill:none;stroke:#424243;stroke-miterlimit:10;}
	.st16{fill:#7F8082;}
	.st17{fill:#866518;}
</style>
<g>
	<g>
		<path class="st0" d="M355.7,424.2c0,0,17.2-13.4,22.8-10.3c5.6,3.1,14.4,27.9,14.6,40.7l-11,6.7l-10-0.9c0,0-7.8-17-14.1-22.2
			l-2.9,16.5l-13,12.6l-4.3-1.1l10.9-16.4C348.7,449.7,348.9,428.9,355.7,424.2z"/>
		<polygon class="st1" points="360.7,411.6 366.6,417.8 363.7,426.4 355.6,422.8 		"/>
		<polygon class="st2" points="365.3,425.8 364.1,431 369.5,456.4 366.3,460.8 362.5,455.5 361.9,431 360.4,427.6 		"/>
		<polygon class="st3" points="363,426.8 366.8,428.5 369.6,415.5 364.5,415 362.9,426 356.7,421.1 360,430.3 		"/>
		<path class="st4" d="M358.2,426.3c3.1-0.4,7.2-7.9,5.7-13.2c-1.5-5.3-5-10.9-12.4-6.8c-5.3,2.9-4.1,9.9-2.7,13
			C350.2,422.5,354.1,426.8,358.2,426.3z"/>
		<path class="st2" d="M347.2,415.2c0,0,2.4,2,5.2,0.8c2.8-1.2,5.6-4.6,5.6-4.6s0.2,3.4,2.2,5.3c0,0,0.6-4,1.8-2.6
			c1.3,1.4,1.5,5.1,1.5,5.1s1.5-2.3,0.9-4.2c-0.6-1.8-0.1-11.4-7.9-11.1C348.7,404.3,344.6,409.3,347.2,415.2z"/>
		<path class="st2" d="M393.1,454.6c0,0,2.8,11.7-3.4,26c-6.2,14.3-7.9,13.7-7.8,18.8c0.1,9,12.9,36.8,12.9,36.8s-9.3,5.4-15.1,4.7
			c0,0-1.3-1.8,5.8-7.4c0,0-14-24.3-14.9-33.3c-0.5-5,3.1-20.9,3.1-20.9s-19,8.8-21.7,15c-4.2,9.6,9.2,41,9.2,41s-12.1,7-18.8,4.5
			c0,0,1.3-3.5,10.5-8.5c0,0-14.8-29.6-11.9-39.5c2.9-10,30.1-25.8,31-27.8c0.5-1.2,0.1-3.7,0.1-3.7S385.8,459.7,393.1,454.6z"/>
		<path class="st5" d="M375.2,460.8l0.2,2.1c0,0,1.4,1.1,4.8-0.4l-0.2-2.8C379.9,459.8,379.6,460.3,375.2,460.8z"/>
	</g>
	<g>
		
			<ellipse transform="matrix(0.5819 -0.8132 0.8132 0.5819 -233.8996 483.8756)" class="st2" cx="353.7" cy="469.4" rx="5.6" ry="5.3"/>
		<path class="st0" d="M336.8,437.6c-7.2-5.2-17.3-3.5-22.4,3.7c-5.2,7.2-3.5,17.3,3.7,22.4c5.4,3.9,11.5,3.2,16.5,3.4
			c1.6,0.1,4.1,1.3,4.1,1.3l9.3-13c0,0-2-1.9-2.6-3.4C343.5,447.4,342.6,441.7,336.8,437.6z"/>
		
			<ellipse transform="matrix(0.5819 -0.8132 0.8132 0.5819 -229.4752 453.8437)" class="st6" cx="326.7" cy="450.1" rx="14.5" ry="14.5"/>
		<g>
			<path class="st2" d="M331.8,451.9l-2.1-3l-0.5-0.7l0.9,0l2.3-0.1l-0.4,0.2l2.1-3l0.8-1.1l0.1,1.4c0.1,0.7,0.3,1.5,0.5,2.2
				c0.3,0.7,0.6,1.4,1,2.1c0.8,1.4,1.7,2.7,2.8,3.9c1,1.2,2.2,2.3,3.4,3.4l1.9,1.5l1.9,1.5l-0.6,0.8l-2-1.5l-1.9-1.6
				c-1.2-1.1-2.4-2.2-3.5-3.5c-1.1-1.2-2.1-2.6-2.9-4c-0.4-0.7-0.8-1.5-1.1-2.3c-0.3-0.8-0.5-1.6-0.6-2.5l0.9,0.3l-2.1,3l-0.1,0.2
				l-0.2,0l-2.3,0.1l0.4-0.7L331.8,451.9z"/>
		</g>
		<g>
			<path class="st2" d="M342.5,465.8c-1.2-1-2.6-1.8-4-2.7c-1.4-0.8-2.8-1.5-4.3-2.1c-1.5-0.6-3-1.1-4.5-1.4
				c-1.6-0.3-3.1-0.4-4.7-0.1l-1.2,0.2l0.7-1l2-2.8l0,0.5l-1.9-3.5l0,0l-0.5-1.2l1.1,0.5l5.9,2.5l-6.2-1.6l0.6-0.7l0,0l1.9,3.5
				l0.1,0.3l-0.2,0.3l-2,2.8l-0.5-0.8c1.7-0.2,3.4-0.2,5,0.1c1.6,0.3,3.2,0.8,4.7,1.5c1.5,0.6,3,1.4,4.4,2.2
				c1.4,0.8,2.8,1.7,4.1,2.7L342.5,465.8z"/>
		</g>
		
			<ellipse transform="matrix(0.5819 -0.8133 0.8133 0.5819 -228.3602 446.2876)" class="st3" cx="319.9" cy="445.2" rx="8.2" ry="5"/>
		
			<ellipse transform="matrix(0.582 -0.8132 0.8132 0.582 -231.0308 464.3694)" class="st3" cx="336.2" cy="456.9" rx="4.9" ry="1.7"/>
		<path class="st7" d="M358.8,461.8c1.2,0.8,1.5,2.5,0.6,3.7l-7.6,10.7c-0.8,1.2-2.5,1.4-3.7,0.6l-9.7-6.9c-1.2-0.8-1.5-2.5-0.6-3.7
			l7.6-10.7c0.8-1.2,2.5-1.4,3.7-0.6L358.8,461.8z"/>
		<path class="st5" d="M340.3,467.5c-0.6-0.4-0.7-1.2-0.3-1.8l5.8-8.1c0.4-0.6,1.2-0.7,1.8-0.3l0,0c0.6,0.4,0.7,1.2,0.3,1.8
			l-5.8,8.1C341.7,467.8,340.9,468,340.3,467.5L340.3,467.5z"/>
	</g>
	<g>
		<path class="st1" d="M350.2,460.7l-3.9,0.2l-1.7,1.6c0,0,0.5,0.2,1.6-0.7l1.4,0.2l-2.2,2.1l-1.5,2.5c0,0,0.1,0.6,0.5,0.3
			c0.5-0.3,1.4-1.8,1.4-1.8l1.1-0.9l-0.5,1.8l0.5,2.6c0,0,0.8-0.1,0.3-1.7c-0.2-0.7,0.7-1.6,0.7-1.6l0.3,1.5c0,0,0.5,1.2,0.9,1.1
			c0.3-0.1,0.1-0.6,0.1-0.6s0.2,0.3,0.4,0.1c0.2-0.2,0-0.9,0-0.9l0.7-1.2c0,0,2.5-1.6,2-3.3c-0.2-0.5,1-1.9,1-1.9L350.2,460.7z"/>
		<path class="st3" d="M349.5,460.7l17.5-19l4-23.7c0,0,9.3-6.8,9.8,0.2c0.5,7-7.1,28-7.1,28l-21.1,17.6L349.5,460.7z"/>
	</g>
</g>
<g>
	<g>
		<path class="st1" d="M320.2,475l3.9-0.1l1.8,1.5c0,0-0.5,0.2-1.6-0.6l-1.4,0.3l2.4,2l1.6,2.4c0,0,0,0.6-0.5,0.3
			c-0.5-0.3-1.5-1.7-1.5-1.7l-1.1-0.8l0.6,1.7l-0.4,2.6c0,0-0.8-0.1-0.5-1.7c0.1-0.7-0.8-1.5-0.8-1.5l-0.2,1.5c0,0-0.5,1.2-0.8,1.1
			c-0.3-0.1-0.2-0.6-0.2-0.6s-0.2,0.3-0.4,0.1c-0.2-0.2-0.1-0.9-0.1-0.9l-0.7-1.1c0,0-2.6-1.4-2.2-3.1c0.1-0.5-1.1-1.8-1.1-1.8
			L320.2,475z"/>
		<path class="st2" d="M292.5,467.3c0,0,5.9,11.6,13.5,17.8c7.7,6.3,13.6,45.3,13.6,45.3s12.4,3.6,10.9,8.8c0,0-6.3,3.4-19.1-3.4
			c0,0-3-32.8-9.9-38.6c-6.9-5.8-18.6-12.1-18.6-12.1L272,515.9L249.8,535c0,0,11.5,7.6,3.1,9.9c0,0-11.9-2.7-12.6-8.4l21.1-24.1
			l7.3-43L292.5,467.3z"/>
		<path class="st0" d="M264.4,429.6c0,0,2.6-4.2,7.6-4.1c5,0.1,17.7-1.3,22.7,2.7c5.7,4.7,13.2,29,13.2,29l14.2,17.8l-3.7,4.2
			l-16.8-17.6l-8.3-18.3c0,0-2.3,11.7-0.6,24c0,0-13.3,6.5-23.9,2.2C268.7,469.4,259.5,436.5,264.4,429.6z"/>
		<polygon class="st1" points="282,420.2 277.1,427.2 281.2,435.3 288.7,430.5 		"/>
		<polygon class="st2" points="279.5,434.9 281.5,439.9 279.9,465.8 283.7,469.7 286.7,463.9 283.7,439.5 284.6,436 		"/>
		<polygon class="st3" points="282,435.5 278.5,437.8 273.8,425.3 278.8,424.1 281.9,434.7 287.4,429 285.4,438.6 		"/>
		<path class="st4" d="M286.6,434.4c-3.1,0.1-8.3-6.8-7.5-12.2c0.7-5.4,3.3-11.5,11.2-8.6c5.7,2.1,5.5,9.2,4.5,12.5
			C294,429.4,290.7,434.3,286.6,434.4z"/>
		<path class="st2" d="M295.2,421.3l-0.7-1c-1.9,6.2-8.9-1.2-11.3,4.9c0,0-1.2-3.9-2.2-2.3c-1,1.6-0.7,5.3-0.7,5.3s-1.8-2.1-1.5-4
			c0.3-1.9-1.6-11.3,6.2-12.1C292.8,411.2,296.9,415,295.2,421.3z"/>
		<path class="st5" d="M280.7,471.9l0.2,2.1c0,0,1.4,1.1,4.8-0.4l-0.2-2.8C285.4,470.8,285.1,471.4,280.7,471.9z"/>
	</g>
	<g>
		<polygon class="st8" points="272,479.2 292.5,504.6 324.2,497.9 301.5,474.9 		"/>
		<polygon class="st9" points="292.5,504.6 263,541 247.2,520.1 272,479.2 		"/>
		<polygon class="st10" points="263,541 292.5,536.2 324.2,497.9 292.5,504.6 		"/>
		<polygon class="st7" points="292.5,504.6 324.2,523.5 351.5,513.5 324.2,497.9 		"/>
		<path class="st10" d="M324.2,523.5c0,0,0.5-9.4,13.7-13.4c18-5.5,13.5,3.4,13.5,3.4L324.2,523.5z"/>
		<polygon class="st11" points="301.5,474.9 313.1,468.6 330.5,486 324.2,497.9 		"/>
		<polygon class="st11" points="292.5,504.6 282.5,500.7 263,477.1 272,479.2 		"/>
		<polygon class="st12" points="301.5,474.9 285.5,495.8 292.5,504.6 324.2,497.9 		"/>
	</g>
	<g>
		<path class="st1" d="M270.7,481.6l3.9,0.7l1.4,1.8c0,0-0.5,0.1-1.4-0.9l-1.4,0l1.9,2.4l1.1,2.7c0,0-0.2,0.6-0.6,0.2
			c-0.4-0.4-1.1-2-1.1-2l-0.9-1l0.2,1.8l-0.9,2.5c0,0-0.7-0.3-0.1-1.8c0.3-0.7-0.4-1.7-0.4-1.7l-0.5,1.5c0,0-0.7,1.1-1,0.9
			c-0.3-0.1-0.1-0.6-0.1-0.6s-0.3,0.2-0.4,0c-0.2-0.3,0.1-0.9,0.1-0.9l-0.5-1.2c0,0-2.3-1.9-1.5-3.5c0.2-0.5-0.7-2-0.7-2
			L270.7,481.6z"/>
		<path class="st3" d="M273.3,433.2c0.2,4.8-3.4,23-3.4,23l2.1,25l-4.4,1.4l-6.2-25c0,0,0.5-19.5,1.6-25.4
			C263.5,429.3,272.7,421.5,273.3,433.2z"/>
	</g>
</g>
<g>
	<g>
		<path class="st4" d="M433.6,402.7c0,0-1.9-1.4-2.1-2.2c-0.6-2.7,1.6-12.2,1.6-12.2s1,3.7,1.9,4.8c1.1,1.3-0.2,5.2,0.5,6.3
			c0.6,1.1,1.9,7.2,1.9,7.2L433.6,402.7z"/>
		<path class="st1" d="M401.4,395c1.4,4.7,6.1,5.3,7.8,6.8c1.7,1.5,1.1,4.8,1.1,4.8s7.9,0,7-1.4c-0.7-1.2,2.6-7.5,3.5-11.1
			c0.2-0.7,0.2-1.3,0.2-1.7c-0.4-2.5-6.9-7.7-11.8-7.9c-0.5,0-0.9,0-1.4,0.1C402.8,385.4,400.1,390.3,401.4,395z"/>
		<path class="st2" d="M411,384.8c0,0-2.3-1.6-5.7-0.3c-5.9,2.3-7.9,9.1-4.2,14.6c2.8,4.3,8.1,3.8,8.1,3.8c2.1-1.5,1.9-3.2,0-6.2
			c-1.9-3,0-4.6,0-4.6S403.7,388.2,411,384.8z"/>
		<path class="st0" d="M436.1,400.6c0,0,14.1,16.7,10.9,20.9c-2.4,3.1-15.1-3.8-15.1-3.8s5.3,12.8,5.1,28.8l-20.2,1.3
			c0,0,0-12.3-6.5-21.1c-5.6-7.7-12.6-19.9-3.8-20.6c8.7-0.7,14.1-1.3,18.6,0c3.2,0.9,11.7,6.2,11.7,6.2l-3.6-9.3L436.1,400.6z"/>
		<path class="st4" d="M407.7,393.1c-2.3,0.4-5.4,3.8-0.2,4.9c3.9,0.8,3.5-2.4,3.5-2.4c3.6,3.1,7,0,9.8-1.4c0.2-0.7,0.2-1.3,0.2-1.7
			c-0.4-2.5-6.9-7.7-11.8-7.9c-4.3,1.2-4.4,3.8-4.4,3.8C407.5,389.5,407.7,393.1,407.7,393.1z"/>
		<path class="st2" d="M416.8,406l0.5-2l2.8,2l0.9,2.9c5.6,7.3,11.7,22,11.7,22l-1.7,4.5l-3.2-3c0.5-7-8.1-23.3-8.1-23.3L416.8,406z
			"/>
		<path class="st3" d="M421,405.8l1.1,2.3l-3.9-2.6c0,0-1.3,2.4-1.9,2.6c-0.6,0.2-7-2.2-7-2.2l0.8-2.9l7.4,1.1l0.2-0.6L421,405.8z"
			/>
		<path class="st4" d="M427.1,407.6c1-2.7,3.1-1.3,3-4.8c0-1.3-7.2-0.9-7.2-0.9s1.3-1.7-0.4-1.3c-0.9,0.2-0.9,2-0.6,2.7
			c0.5,1.2,1.9,1.6,1.8,2.1C423.4,407.9,427.1,407.6,427.1,407.6z"/>
		<path class="st3" d="M423.7,405.4l4.1,0.9c0,0-1.6,23.3-7.9,24.5c-6.9,1.4-19.7-14.4-18.4-21.3c0.3-1.5,3.1-4.2,4.7-4.1
			c4.5,0.3,12.2,16,12.2,16L423.7,405.4z"/>
		<path class="st2" d="M416.8,447.7c0,0-0.5,34.6-3.3,46.1c-2,8.4-9.6,40.5-9.6,40.5s3.7,9.4,11.8,7.5c0,0,1-4.5-5.6-9.8
			c0,0,10.1-29.8,12.3-37.2c3.5-11.6,5.2-29.5,6.9-29.5c1.7,0,5.4,27.8,5,31.9c-1.4,15.7-1.5,29.4-4.3,38.6c0,0,9.4,9.1,14.3,6.3
			c0,0,0.6-2.5-7-8.2c0,0,4.8-32.9,5.6-39.6c1.5-12.8-5.5-38.6-6-47.8C436.9,446.4,430.5,444.3,416.8,447.7z"/>
		<path class="st5" d="M432.7,449.4c0,0-1.4-1.3-4.9,0V447c0,0,2.1-0.6,4.9-0.4V449.4z"/>
	</g>
	<g>
		<path class="st1" d="M533.8,396.2c0,0-0.6,0.2-1.8-1.1c-1.2-1.3-3.9-2.6-3.9-2.6l0.6,5c0,0,4,1.7,4.3,1.6S533.8,396.2,533.8,396.2
			z"/>
		<path class="st0" d="M523.7,430.6c0,0,1.6-9.6,3.7-9.6c0.9,0,2.1-0.7,3.4-0.5c3.2,0.6,7,2.6,9.1,2.7c1.3,0.1,1.5-1.7,1.5-1.7
			s7.9-8,6.7-12c-0.1-0.5-16.9-10.9-16.9-10.9l1.6-2.9c0,0,19,5.4,21.5,11.5c2.6,6.3-6.2,26.5-6.2,26.5c-2.5,4.9-4.8,15.2-2.5,28.1
			l-20,4.6C525.6,466.5,517.4,451,523.7,430.6z"/>
		<path class="st2" d="M525.6,466.5l16.9,35.7l-17.1,33.4c0,0,9.4,7.7,18.2,4.7c0,0-1.2-4.6-10.2-8.1c0,0,20.5-24,21.5-29.6
			c1-5.4-10.9-24.3-10.9-24.3l22.3,15.6l4.7,41.9c0,0,12.7,4.6,19.2,0c0,0-5.5-3.1-14.1-5.2c0,0,1.3-24,0.1-39.2
			c-0.6-7.2-25.3-20.7-30.6-29.5C545.6,461.9,538.2,460.5,525.6,466.5z"/>
		<path class="st5" d="M544.3,464.4c0,0-2.1-0.4-4.9,0.8l-0.8-2.3c0,0,2.8-1.1,5-0.6L544.3,464.4z"/>
		<path class="st4" d="M532,421.5l3.6,2.8l7.1-0.5c0,0-2.3-1.8-0.6-3.8c0,0,4.5,0.5,5-8.1c0.4-6.2-0.2-10.4-6.5-11.3
			c-4.7-0.7-7.9,2.2-8.5,7.5c-0.5,3.9,0.4,5.8,1.1,7.1C534.4,417,535.3,417.7,532,421.5z"/>
		<path class="st1" d="M532,421.5l4.8,5.5l5.8-3.2c0,0-2.3-1.8-0.6-3.8c-3-0.7-6-2.2-6.9-5.8c-0.1-0.5-1.2,0.3-1.9,0.9
			C534.4,417,535.3,417.7,532,421.5z"/>
		<path class="st2" d="M540.8,404.4c-0.1-0.3-0.9,2.7-2.7,3.1c-1.8,0.3-2.5,2.8-2.5,2.8s-0.2-2.9-1.8-1.9c-1.6,1-0.5,6.5,1.1,5.3
			l-1.1,2.2c0,0-1.6-0.7-1.9-1.5c-0.3-0.9-1.8-10.8,1.6-12.8c3.5-2,2.8-0.6,2.8-0.6s0.6-2.3,4-2.2c3.5,0.1,8.3,4.9,8.5,6.7
			c0.2,1.8-1.5,4.8-1.5,4.8s0.2-1.6-1.3-2.5C544.5,406.9,541.5,406.1,540.8,404.4z"/>
		<path class="st2" d="M538,424.8l1.6,3.5c0,0-2.9,18.7-0.8,25.3l2.7,2.6l1.3-3.6c-2.3-4.3-1.9-24.5-1.9-24.5l1.1-3l-1.7-1.4
			L538,424.8z"/>
		<polygon class="st5" points="541.5,421.6 540,422.8 534,418.6 530.9,420.5 535.6,427.9 540.2,424.3 542.7,427.2 544.1,424.1 		"/>
	</g>
	<g>
		<path class="st2" d="M473.3,396.6c0,0,1.2-3.4,4.5-3.2c3.3,0.2,7.8,4.5,6.5,8.6c-1.3,4.2-12.6,8.7-12.6,8.7s-3.3-3.6-2.9-8.1
			C469.1,398.2,471.2,395.1,473.3,396.6z"/>
		<path class="st4" d="M471.7,420l3.2,0.2l6.5,0.4l1.3,0.1c0,0-0.4-0.7-0.8-1.6c-0.6-1.4-1.4-3.2-1.2-4.1c0.3-1.4,1.5-1.8,2.9-5
			c0,0,0-0.1,0.1-0.1c1.9-4.4,0.9-11.1-3.4-12.9c-5.7-2.5-10.2,1.8-10.1,5.7c0.1,3.4,0.5,5.5,1,6.9c0.9,2.6,2.2,2.9,2.6,4.8
			c0.2,0.8-0.6,2.6-1.3,3.9C472.1,419.3,471.7,420,471.7,420z"/>
		<path class="st1" d="M473.8,414.4c0.2,0.8-0.6,2.6-1.3,3.9l0.2,1.1l2.1,0.8l5.9,2.1l0.6-1.7l0.5-1.5c-0.6-1.4-1.4-3.2-1.2-4.1
			c0.3-1.4,1.5-1.8,2.9-5c-1.2,0.5-3,1.1-4.9,1c-2.5-0.2-6.1-1.1-7.5-1.4C472.1,412.2,473.4,412.4,473.8,414.4z"/>
		<path class="st2" d="M472,397.6c0,0,0.1,2.3-0.4,3.6c-0.5,1.3-0.1,4.2-0.1,4.2s-1.2-2.4-2.2-0.9
			C469.3,404.5,468.4,399.4,472,397.6z"/>
		<path class="st4" d="M471.5,405.4c0,0-0.6-2.4-2.2-0.9c-1.6,1.5,1.4,4.6,2.1,4C472.2,407.9,471.5,405.4,471.5,405.4z"/>
		<path class="st3" d="M477.4,417.7c0,0,10.2-2.3,11.9-0.9c1.7,1.4,8.9-0.9,8.9-0.9l-8.1-12v-5.3c0,0,19.4,13.8,18,20.8
			c-0.9,4.6-16.7,8.9-16.7,8.9s-0.9,12.7-4.4,24.3l-11.1,6.2l-7.7-6.3c0,0,0.4-14.1-3.9-24.3c0,0-19.6-3.9-19.7-10.4
			c-0.1-5.6,20.2-20.2,20.2-20.2l2.9,3.9c0,0-11.5,10.1-13.2,14.5c0,0,4.7,2.6,11.2,0.9C472.5,415,477.4,417.7,477.4,417.7z"/>
		<path class="st1" d="M490.2,381.4l1.1-3.8l-1-2.1c0,0-0.4,0.4,0.2,1.7l-0.6,1.3l-1.3-2.8l-1.9-2.2c0,0-0.6-0.1-0.4,0.4
			c0.2,0.6,1.3,1.9,1.3,1.9l0.5,1.3l-1.5-1l-2.6-0.3c0,0-0.1,0.8,1.5,0.9c0.7,0.1,1.3,1.2,1.3,1.2l-1.5-0.2c0,0-1.3,0.1-1.3,0.5
			c0,0.3,0.5,0.3,0.5,0.3s-0.3,0.1-0.2,0.3c0.2,0.3,0.9,0.3,0.9,0.3l0.9,1c0,0,0.6,2.9,2.4,3c0.5,0,1.5,1.5,1.5,1.5L490.2,381.4z"/>
		<path class="st2" d="M480.2,416.8l-1.7,3.6c0,0,3.9,10.6,5.4,22.6l-3,2.1l-3-2.3c0,0,2.7-12.2-0.8-21.8l-1.6-3.7l2.5,0
			L480.2,416.8z"/>
		<polygon class="st5" points="482.4,416.8 480.7,415 477.9,417.3 481.4,420.6 		"/>
		<polygon class="st5" points="477.9,417.3 473.7,420.3 471.8,416.8 473.8,415.1 		"/>
		<path class="st5" d="M488,426.2c0,0-3-0.7-5.6,0.6l1.3,5.3l2.7,1.1l2.2-1.6L488,426.2z"/>
		<path class="st2" d="M486.9,452.7c0,0-10.6,3.2-18.9-0.1c0,0-1.2,5.3-1.6,7.1c-1.9,10.3-10.7,26.4-11.1,36.9
			c-0.4,11.3,3.7,37.1,3.7,37.1c-5.8,6.5-4.6,8-4.6,8c8.4,1.6,10.3-5.7,10.3-5.7s-3.4-27-1.6-38.4c1.2-7.4,11.7-25.5,14.7-25.5
			c2.2,0,13.4,23.2,14.8,28.2c1.3,4.5-2.9,35.8-2.9,35.8s7.6,7.4,13.7,4.5c0,0,0.4-3.2-7.9-6.5c0,0,4.2-20.3,4.8-35.6
			c0.2-6.3-10.5-29.1-13-40C487.2,457,486.9,452.7,486.9,452.7z"/>
		<path class="st5" d="M482.1,454.8l0,2.2c0,0-2.5,1-5,0.5l-0.2-2.1C476.8,455.3,479.7,455.5,482.1,454.8z"/>
	</g>
	<g>
		<path class="st4" d="M472.7,282.7l-3.5,6.4l-6.4-1.8c0,0,1.8-2.3-0.3-3.8c0,0-4.3,1.5-6.7-6.8c-1.7-6-2.1-10.2,3.8-12.5
			c4.5-1.7,8.2,0.4,9.9,5.4c1.3,3.7,0.9,5.7,0.5,7.2C469.3,278.8,468.6,279.7,472.7,282.7z"/>
		<path class="st1" d="M472.7,282.7l-3.5,6.4l-6.4-1.8c0,0,1.8-2.3-0.3-3.8c2.8-1.3,3.3-6.5,5.5-7.1c0.5-0.1,1.3,0,2.1,0.4
			C469.3,278.8,468.6,279.7,472.7,282.7z"/>
		<path class="st0" d="M482.7,289.8c0,0,10.8,2,12.1-0.7c3.1-6.7-17.6-23.8-17.6-23.8l-2.5,2.3l10.8,13.7c0,0-6.4-0.4-8.5,0
			c-4.6,1-17.4,7.6-17.4,7.6v9.4c3.5,4.2,2,17.3,0.9,23.7l20,4.6C480.5,326.6,487.3,309.2,482.7,289.8z"/>
		<path class="st2" d="M460.4,267.9c0.1-0.3,1.5,2.5,3.3,2.4c1.8-0.1,3.1,2.2,3.1,2.2s-0.5-2.9,1.3-2.3c1.8,0.6,2,6.2,0.1,5.4
			l1.5,1.9c0,0,1.4-1,1.5-1.9c0.1-0.9-0.6-10.9-4.4-12.1c-3.8-1.2-2.9,0-2.9,0s-1.1-2.1-4.4-1.2c-3.3,0.9-7,6.6-6.8,8.4
			c0.2,1.8,2.5,4.3,2.5,4.3s-0.5-1.5,0.7-2.7C457.3,271.2,460,269.8,460.4,267.9z"/>
		<path class="st2" d="M467.6,287.2l-0.8,3.8c0,0,1.4,14.1,0.8,21l-4.5,3.1l-1.7-3.1c0,0,1-1.1,2.3-5.7c1.3-4.7,1.8-15.3,1.8-15.3
			l-1.8-2.7l1.4-1.7L467.6,287.2z"/>
		<polygon class="st5" points="463.4,284.9 465.1,285.7 470.1,280.3 473.5,281.5 470.6,289.7 465.2,287.2 463.4,290.6 461.4,287.9 
					"/>
		<path class="st1" d="M477.4,265.8c0,0-2.7-4.3-3.8-4.3c-1.1,0,0,5.1,0,5.1S474.9,269.7,477.4,265.8z"/>
		<path class="st2" d="M480.5,326.6l-12.4,51.8l2.2,34.5c0,0,0.2,12.3-4.4,11.5c-4.7-0.8-2.7-5.5-0.4-10.9c0,0-5.9-27-5.9-36.8
			c0-9.6,2.4-38.3,2.4-38.3l-19.8,23.3l-8.8,41.7c0,0-11.1,0.8-17.6-3.8c0,0,2.9-3.6,10.7-1.5c0,0,4.7-31.7,9.1-41.4
			c4.5-9.7,19.5-25.9,24.8-34.7C460.4,322,467.9,320.6,480.5,326.6z"/>
		<path class="st5" d="M461.8,324.5c0,0,2.1-0.4,4.9,0.8l0.8-2.3c0,0-2.8-1.1-5-0.6L461.8,324.5z"/>
	</g>
	<g>
		<path class="st4" d="M498.6,287.1c0,0,1.9-1.4,2.1-2.2c0.6-2.7-1.6-12.2-1.6-12.2s-1,3.7-1.9,4.8c-1.1,1.3,0.2,5.2-0.5,6.3
			c-0.6,1.1-1.9,7.2-1.9,7.2L498.6,287.1z"/>
		<path class="st1" d="M530.7,279.3c-1.4,4.7-6.1,5.3-7.8,6.8c-1.7,1.5-1.1,4.8-1.1,4.8s-7.9,0-7-1.4c0.7-1.2-2.6-7.5-3.5-11.1
			c-0.2-0.7-0.2-1.3-0.2-1.7c0.4-2.5,6.9-7.7,11.8-7.9c0.5,0,0.9,0,1.4,0.1C529.3,269.7,532.1,274.7,530.7,279.3z"/>
		<path class="st2" d="M521.1,269.1c0,0-0.1-4.3,3.5-3.9c3.6,0.4,6.1,5.3,6.1,5.3s6.2,9.6,0.4,12.8c-5.8,3.2-6,5.3-8.1,3.8
			c-2.1-1.5-1.9-3.2,0-6.2c1.9-3,0-4.6,0-4.6S528.5,272.6,521.1,269.1z"/>
		<path class="st0" d="M496.1,284.9c0,0-14.1,16.7-10.9,20.9c2.4,3.1,15.1-3.8,15.1-3.8s-5.3,12.8-5.1,28.8l20.2,1.3
			c0,0,0-12.3,6.5-21.1c5.6-7.7,12.6-19.9,3.8-20.6c-8.7-0.7-14.1-1.3-18.6,0c-3.2,0.9-11.7,6.2-11.7,6.2l3.6-9.3L496.1,284.9z"/>
		<path class="st4" d="M524.4,277.4c2.3,0.4,5.4,3.8,0.2,4.9c-3.9,0.8-3.5-2.4-3.5-2.4c-3.6,3.1-7,0-9.8-1.4
			c-0.2-0.7-0.2-1.3-0.2-1.7c0.4-2.5,6.9-7.7,11.8-7.9c4.3,1.2,4.4,3.8,4.4,3.8C524.6,273.8,524.4,277.4,524.4,277.4z"/>
		<path class="st2" d="M515.3,290.3l-0.5-2l-2.8,2l-0.9,2.9c-5.6,7.3-11.7,22-11.7,22l1.7,4.5l3.2-3c-0.5-7,8.1-23.3,8.1-23.3
			L515.3,290.3z"/>
		<path class="st3" d="M511.2,290.1l-1.1,2.3l3.9-2.6c0,0,1.3,2.4,1.9,2.6c0.6,0.2,7-2.2,7-2.2l-0.8-2.9l-7.4,1.1l-0.2-0.6
			L511.2,290.1z"/>
		<path class="st4" d="M505.1,291.9c-1-2.7-3.1-1.3-3-4.8c0-1.3,7.2-0.9,7.2-0.9s-1.3-1.7,0.4-1.3c0.9,0.2,0.9,2,0.6,2.7
			c-0.5,1.2-1.9,1.6-1.8,2.1C508.8,292.3,505.1,291.9,505.1,291.9z"/>
		<path class="st3" d="M508.4,289.7l-4.1,0.9c0,0,1.6,23.3,7.9,24.5c6.9,1.4,19.7-14.4,18.4-21.3c-0.3-1.5-3.1-4.2-4.7-4.1
			c-4.5,0.3-12.2,16-12.2,16L508.4,289.7z"/>
		<path class="st2" d="M515.4,332c0,0,10.9,38.1,13.6,49.6c2,8.4,3.8,37.1,3.8,37.1s6.7,4.6,5.1,6.2c-2.2,2.2-11.1-1.2-10.5-6
			c0,0-5.2-28.9-7.4-36.3c-3.5-11.6-15.6-33-17.3-33c-1.7,0-8.4,25.1-9.5,29.1c-1.5,5.5-3.5,29.2-0.7,38.4c0,0-6,10.4-10.9,7.7
			c0,0-3.5-3.9,4.1-9.7c0,0-3.2-30.7-2.2-37.5c1-6.8,11.2-37.8,11.6-46.9C495.2,330.7,501.7,328.6,515.4,332z"/>
		<path class="st5" d="M499.5,333.7c0,0,1.4-1.3,4.9,0v-2.4c0,0-2.1-0.6-4.9-0.4V333.7z"/>
	</g>
	<g>
		<path class="st13" d="M456,120.6c0,8.9,7.2,16.1,16.1,16.1c8.9,0,16.1-7.2,16.1-16.1c0-6.7-4.1-11.2-6.8-15.4
			c-0.9-1.4-1.3-4.1-1.3-4.1h-16c0,0-0.4,2.7-1.3,4.1C460,109.4,456,113.5,456,120.6z"/>
		<circle class="st14" cx="472" cy="121.5" r="14.5"/>
		<path class="st2" d="M460,84c0-1.9,1.5-3.4,3.4-3.4h17.2c1.9,0,3.4,1.5,3.4,3.4v15.7c0,1.9-1.5,3.4-3.4,3.4h-17.2
			c-1.9,0-3.4-1.5-3.4-3.4V84z"/>
		<path class="st15" d="M474.9,99.5c0,0-0.7,12.4,5.2,18.3h-3.4l-1.7,3.5l-1.9-6.1l-1.5,4.1l-1.1-3l-1.6,3.3l-1.4-1.8h-3.6
			c0,0,5.4-3.9,5.4-18.3"/>
		<ellipse class="st3" cx="472" cy="129.9" rx="8.2" ry="5"/>
		<ellipse class="st3" cx="472" cy="109.8" rx="4.9" ry="1.7"/>
		<path class="st16" d="M480.2,99.4c0,0.9-0.7,1.7-1.7,1.7h-13.1c-0.9,0-1.7-0.7-1.7-1.7l0,0c0-0.9,0.7-1.7,1.7-1.7h13.1
			C479.5,97.7,480.2,98.5,480.2,99.4L480.2,99.4z"/>
	</g>
	<g>
		<path class="st2" d="M478.9,141.8c0,0-1.5-3.3-4.8-2.7c-3.3,0.6-7.3,5.3-5.6,9.3c1.7,4,13.4,7.3,13.4,7.3s2.9-3.9,2.1-8.3
			C483.2,142.9,480.8,140.1,478.9,141.8z"/>
		<path class="st1" d="M460.5,128.5l-1.5-3.6l0.8-2.2c0,0,0.4,0.4,0,1.7l0.8,1.2l1-2.9l1.6-2.4c0,0,0.6-0.2,0.5,0.4
			c-0.1,0.6-1.1,2-1.1,2l-0.3,1.3l1.4-1.2l2.6-0.6c0,0,0.2,0.8-1.4,1.1c-0.7,0.1-1.1,1.3-1.1,1.3l1.5-0.4c0,0,1.3,0,1.4,0.3
			c0.1,0.3-0.5,0.4-0.5,0.4s0.3,0.1,0.2,0.3c-0.1,0.3-0.9,0.4-0.9,0.4l-0.8,1.1c0,0-0.3,3-2.1,3.2c-0.5,0.1-1.3,1.7-1.3,1.7
			L460.5,128.5z"/>
		<path class="st4" d="M482.9,164.9l-3.1,0.5l-6.4,1.1l-1.3,0.2c0,0,0.3-0.7,0.6-1.7c0.5-1.4,1-3.3,0.8-4.2
			c-0.4-1.4-1.7-1.7-3.4-4.6c0,0,0-0.1-0.1-0.1c-2.3-4.1-2-10.9,2-13.2c5.4-3.1,10.3,0.7,10.6,4.6c0.3,3.4,0.1,5.5-0.3,7
			c-0.6,2.7-1.9,3.1-2.1,5.1c-0.1,0.8,0.9,2.5,1.7,3.8C482.5,164.2,482.9,164.9,482.9,164.9z"/>
		<path class="st1" d="M480.2,159.6c-0.1,0.8,0.9,2.5,1.7,3.8l-0.1,1.1l-2,1l-5.7,2.8l-0.8-1.7l-0.7-1.5c0.5-1.4,1-3.3,0.8-4.2
			c-0.4-1.4-1.7-1.7-3.4-4.6c1.3,0.4,3.1,0.8,4.9,0.5c2.5-0.5,6-1.7,7.3-2.2C481.7,157.2,480.5,157.6,480.2,159.6z"/>
		<path class="st3" d="M468.5,160.9c7.4,3.5,13.6,1.8,16.8,0c4.3-2.5,6.6-17.6,6.6-17.6l-10-10l2.3-2.1c0,0,11.6,6.4,13.1,10.2
			c2.8,6.9-4.2,29.5-4.2,29.5s-6.5,13-2.7,28.3c0,0-9.6,5-18.6,2.3l-10.9-36c0,0-6.2-15.8-6-21.3c0.1-4.1,5.6-15.6,5.6-15.6l1.9,1.4
			l-0.7,14.1C461.7,144,464,158.7,468.5,160.9z"/>
		<path class="st2" d="M474.1,162.7l2.1,3.4c0,0-4.6,16.9-5.1,21.9l2.5,3.2l2-3c0,0-0.6-11.7,1.9-21.7l1.3-3.8l-2.5,0.2L474.1,162.7
			z"/>
		<polygon class="st5" points="471.8,161.9 473.5,160.9 476.4,162.9 473.3,166.5 		"/>
		<polygon class="st5" points="476.4,162.9 480.9,165.5 483.6,161.7 480.3,160.3 		"/>
		<path class="st5" d="M480,171.5c0,0,2.9-1,5.6,0l-0.7,5.4l-2.6,1.3l-2.3-1.3L480,171.5z"/>
		<path class="st2" d="M480.2,142.7c0,0,0.1,2.3,0.8,3.5c0.7,1.2,0.6,4.2,0.6,4.2s1-2.5,2.1-1.1
			C483.6,149.3,484.1,144.1,480.2,142.7z"/>
		<path class="st4" d="M481.6,150.4c0,0,0.3-2.5,2.1-1.1c1.8,1.3-0.9,4.7-1.7,4.2C481.2,153,481.6,150.4,481.6,150.4z"/>
		<path class="st2" d="M471.2,199c0,0,10.8,2,18.8-2.1c0,0,1.8,5.2,2.3,6.9c3,10.1,9,26.8,10.4,37.1c1.5,11.2,1.5,39.4,1.5,39.4
			c6.5,5.9,5.5,7.5,5.5,7.5c-8.2,2.4-10.8-4.6-10.8-4.6s-0.8-29.3-3.8-40.6c-2-7.3-8.4-17.6-12.3-28.2c-0.2-0.7-1.4-1.1-1.6-0.4
			c-3,10.5-9.8,27.6-10.8,32.8c-0.8,4.6,10.9,32.5,10.9,32.5s-6.7,8.1-13.2,5.9c0,0-0.7-3.1,7.2-7.3c0,0-9.7-20.1-13.5-29.7
			c-2.3-5.9,8.1-32.5,9.4-43.6C471.3,203.4,471.2,199,471.2,199z"/>
		<path class="st5" d="M476.2,200.6l0.2,2.2c0,0,2.6,0.7,5.1,0v-2.2C481.5,200.6,478.7,201,476.2,200.6z"/>
	</g>
	<g>
		<path class="st1" d="M466.9,257.2l-2.4-3.2l0.2-2.3c0,0,0.5,0.3,0.4,1.7l1,1l0.2-3.1l1-2.7c0,0,0.5-0.3,0.6,0.3
			c0,0.6-0.5,2.2-0.5,2.2l0,1.4l1.1-1.5l2.4-1.2c0,0,0.4,0.7-1.1,1.4c-0.7,0.3-0.8,1.5-0.8,1.5l1.3-0.7c0,0,1.2-0.3,1.4,0
			c0.1,0.3-0.4,0.5-0.4,0.5s0.3,0,0.3,0.3c-0.1,0.3-0.7,0.6-0.7,0.6l-0.5,1.3c0,0,0.4,3-1.3,3.6c-0.5,0.2-0.9,1.9-0.9,1.9
			L466.9,257.2z"/>
		<path class="st3" d="M455.7,289.1l8.9-11.3l2.2-20l3.5-0.5c0,0,1.3,16.2,0,21.3c-1.4,5.4-10.7,19.6-10.7,19.6
			S452.8,294.7,455.7,289.1z"/>
	</g>
	<g>
		<path class="st1" d="M462.3,400.8l-0.7-3.9l1.2-2c0,0,0.3,0.5-0.4,1.7l0.5,1.3l1.6-2.6l2.1-2c0,0,0.6-0.1,0.4,0.5
			c-0.2,0.5-1.5,1.7-1.5,1.7l-0.6,1.2l1.6-0.8l2.7,0c0,0,0,0.8-1.6,0.7c-0.7,0-1.4,1-1.4,1l1.5,0c0,0,1.3,0.3,1.2,0.6
			c0,0.3-0.6,0.3-0.6,0.3s0.3,0.2,0.2,0.4c-0.2,0.3-0.9,0.2-0.9,0.2l-1,0.9c0,0-1,2.8-2.8,2.6c-0.5-0.1-1.7,1.3-1.7,1.3L462.3,400.8
			z"/>
		<path class="st1" d="M491.9,400.8l0.7-3.9l-1.2-2c0,0-0.3,0.5,0.4,1.7l-0.5,1.3l-1.6-2.6l-2.1-2c0,0-0.6-0.1-0.4,0.5
			c0.2,0.5,1.5,1.7,1.5,1.7l0.6,1.2l-1.6-0.8l-2.7,0c0,0,0,0.8,1.6,0.7c0.7,0,1.4,1,1.4,1l-1.5,0c0,0-1.3,0.3-1.2,0.6
			c0,0.3,0.6,0.3,0.6,0.3s-0.3,0.2-0.2,0.4c0.2,0.3,0.9,0.2,0.9,0.2l1,0.9c0,0,1,2.8,2.8,2.6c0.5-0.1,1.7,1.3,1.7,1.3L491.9,400.8z"
			/>
		<path class="st3" d="M492.5,407.6l-2.5-3.7c0,0,0.2-4.2,1.9-3.8l3,2.3L492.5,407.6z"/>
		<path class="st3" d="M462.1,399.4c0,0,1.3,0.4,1.8,2.1c0.5,1.6-0.1,3.4-0.1,3.4l-6.3,3.6L462.1,399.4z"/>
	</g>
	<g>
		<path class="st1" d="M522.4,390.6l-2.4-3.1l0.2-2.3c0,0,0.5,0.3,0.4,1.7l1,1l0.2-3.1l1-2.7c0,0,0.5-0.3,0.6,0.2
			c0.1,0.6-0.5,2.2-0.5,2.2l0,1.4l1-1.5l2.3-1.3c0,0,0.4,0.7-1.1,1.4c-0.7,0.3-0.8,1.5-0.8,1.5l1.3-0.7c0,0,1.2-0.3,1.4,0
			c0.1,0.3-0.4,0.5-0.4,0.5s0.3,0,0.3,0.3c-0.1,0.3-0.7,0.6-0.7,0.6l-0.5,1.3c0,0,0.4,3-1.2,3.6c-0.5,0.2-0.8,2-0.8,2L522.4,390.6z"
			/>
		<path class="st3" d="M523.7,430.6c0,0-1.9-1.2-2.4-6.2c-0.5-4.9,6.4-15.9,6.4-15.9l-5.6-17.1c0.5-0.7,3.6,0,3.6,0
			s6.7,9.5,7.9,15.8C534.8,413.6,528.4,427.7,523.7,430.6z"/>
	</g>
	<path class="st8" d="M478.9,48.7h-14.2h-34.4l3.8,6.9c24.5,11.5,23.3,30.6,23.3,30.6h14.2h0.4h14.2c0,0-1.1-19.1,23.3-30.6l3.8-6.9
		H478.9z"/>
	<polygon class="st2" points="430.3,48.7 434.1,55.6 509.5,55.6 513.3,48.7 	"/>
</g>
<g>
	<g>
		<path class="st5" d="M108.3,298c0,1.2-1,2.2-2.2,2.2H65.2c-1.2,0-2.2-1-2.2-2.2v-40.9c0-1.2,1-2.2,2.2-2.2h40.9
			c1.2,0,2.2,1,2.2,2.2V298z"/>
		<path class="st0" d="M107.4,296.4c0,1.2-0.9,2.1-2.1,2.1H66c-1.2,0-2.1-0.9-2.1-2.1V257c0-1.2,0.9-2.1,2.1-2.1h39.3
			c1.2,0,2.1,0.9,2.1,2.1V296.4z"/>
		<rect x="80.1" y="265.6" class="st3" width="11.2" height="24"/>
		<rect x="80.1" y="265.6" class="st6" width="11.2" height="11.4"/>
		<rect x="80.1" y="289.6" class="st11" width="11.2" height="1.7"/>
	</g>
	<g>
		<g>
			<path class="st17" d="M93.3,337.4C93.3,337.4,93.3,337.4,93.3,337.4c-0.7,0-1.2-0.4-1.2-1.1l-3.8-67.2c0-0.6,0.4-1.1,1.1-1.2
				c0.6,0,1.2,0.4,1.2,1.1l3.8,67.2C94.4,336.9,93.9,337.4,93.3,337.4z"/>
		</g>
		<path class="st1" d="M93.8,342l-2.5-3.5c0,0,0.5-3.6,0.2-5.6c0,0,1.1,0.6,1.3,2.5l0.9-4.4c0,0,1.1-1.9,1.3-0.2
			c0.2,1.7,1.3,2.5,2,3.4c0.7,0.9-0.6,5.3,0.1,7.3C97.8,343.6,93.8,342,93.8,342z"/>
		<path class="st1" d="M54.4,401.7l0.7-3.9l-1.2-2c0,0-0.3,0.5,0.4,1.7l-0.5,1.3l-1.6-2.6l-2.1-2c0,0-0.6-0.1-0.4,0.5
			c0.2,0.5,1.5,1.7,1.5,1.7l0.6,1.2l-1.6-0.8l-2.7,0c0,0,0,0.8,1.6,0.7c0.7,0,1.4,1,1.4,1l-1.5,0c0,0-1.3,0.3-1.2,0.6
			c0,0.3,0.6,0.3,0.6,0.3s-0.3,0.2-0.2,0.4c0.2,0.3,0.9,0.2,0.9,0.2l1,0.9c0,0,1,2.8,2.8,2.6c0.5-0.1,1.7,1.3,1.7,1.3L54.4,401.7z"
			/>
		<path class="st1" d="M84.4,396.8c-0.6-1.1-1.1-5.5-3.8-6.5c-2.7-1-6.6,0-8.8-7.4c-2.2-7.4,6.1-13.3,9.4-12.3
			c3.2,1.1,8.4,7.1,8.4,10.6c0,3.4,0,5.4,0,5.4l3.5,8.8L84.4,396.8z"/>
		<path class="st3" d="M76.7,399c0,0,16-8.1,17.7-13.2c1.7-5.1,3.1-22.5,3.1-22.5L93,341.9c0.7-1.8,3.9-1.8,3.9-1.8s6,16.3,6.8,22
			c1.1,7.4,0,30,0,30s2.1,29.6-1.7,44.9H83c0,0,0.8-17.4-3.8-23.1c0,0-9.6,10.7-14.6,9.4c-5.8-1.4-12.6-19.6-12.6-19.6l3.1-1.9
			l9.1,12.8L76.7,399z"/>
		<path class="st2" d="M83,436.9c0,0-3,39.4,3,91l-1.7,8.3H92l0.5-7.5c0,0-3.9-71.2,0.7-71.2c4.6,0,1.1,70.3,1.1,70.3l1.7,8.3h8
			l-2.6-7.5c0,0,6.6-55.7,0.5-91.9C102,436.9,92.3,430.1,83,436.9z"/>
		<path class="st0" d="M82.2,395.9c0,0,1.3-7.3,8.8-6.1C91,389.8,90.2,394.5,82.2,395.9z"/>
		<path class="st2" d="M85.3,375.5c0,0-1.5-1-1.5,0c0,1,1.5,3.7,3.6,4.7c0,0,1.7,4.3,0,6.2c-1.7,1.9-5.2,5-5.2,5S71,391.9,69.6,382
			c-1.3-9.9,11-14.1,12.6-13C82.2,369,83.2,370.9,85.3,375.5z"/>
	</g>
</g>
</svg>
