<?xml version="1.0" encoding="utf-8"?>
<!-- Generator: Adobe Illustrator 21.0.2, SVG Export Plug-In . SVG Version: 6.00 Build 0)  -->
<svg version="1.1" id="Camada_1" xmlns="http://www.w3.org/2000/svg" xmlns:xlink="http://www.w3.org/1999/xlink" x="0px" y="0px"
	 viewBox="0 0 107.8 27.3" style="enable-background:new 0 0 107.8 27.3;" xml:space="preserve">
<style type="text/css">
	.st0{fill:#CCCCCC;}
	.st1{fill:#D24A43;}
	.st2{fill:#F3EDED;}
	.st3{fill:#FFFFFF;}
	.st4{fill:#BEC3C7;}
	.st5{fill:#5CCCCC;}
	.st6{fill:#B90F0F;}
	.st7{fill:#F5CD17;}
	.st8{fill:#50B09B;}
	.st9{fill:#3A3A3A;}
</style>
<g>
	<path class="st0" d="M38.5,21.7H17.7c-0.3,0-0.6-0.3-0.6-0.6V4.6h21.4c0.3,0,0.6,0.3,0.6,0.6v15.9C39.2,21.5,38.9,21.7,38.5,21.7z"
		/>
	<g>
		<path class="st1" d="M38.7,8.2h-22V5c0-0.4,0.3-0.7,0.7-0.7H38c0.4,0,0.7,0.3,0.7,0.7V8.2z"/>
		<path class="st2" d="M38.1,21.3H17.3c-0.3,0-0.6-0.3-0.6-0.6V8.2h22.1v12.5C38.7,21,38.5,21.3,38.1,21.3z"/>
		<rect x="21.6" y="11.5" class="st3" width="11.8" height="7.6"/>
		<rect x="22.1" y="12.1" class="st4" width="10.8" height="1.3"/>
		<path class="st5" d="M29.2,9.8h-2.5c-0.1,0-0.2-0.1-0.2-0.2V7c0-0.1,0.1-0.2,0.2-0.2h2.5c0.1,0,0.2,0.1,0.2,0.2v2.6
			C29.4,9.6,29.3,9.8,29.2,9.8z"/>
		<path class="st6" d="M38.7,5.5h-22V4.8c0-0.3,0.3-0.6,0.6-0.6h20.8c0.3,0,0.6,0.3,0.6,0.6C38.7,4.8,38.7,5.5,38.7,5.5z"/>
		<rect x="22.1" y="13.9" class="st4" width="2.8" height="2.8"/>
		<rect x="25.5" y="13.9" class="st4" width="7.4" height="0.4"/>
		<rect x="25.5" y="14.7" class="st4" width="7.4" height="0.4"/>
		<rect x="25.5" y="15.4" class="st4" width="7.4" height="0.4"/>
		<rect x="25.5" y="16.2" class="st4" width="7.4" height="0.4"/>
		<rect x="22.1" y="17.1" class="st4" width="6.5" height="0.4"/>
		<rect x="31.4" y="17.1" class="st4" width="1.6" height="1.6"/>
		<rect x="29.3" y="17.1" class="st4" width="1.6" height="1.6"/>
		<rect x="22.2" y="17.9" class="st4" width="6.5" height="0.8"/>
		<circle class="st7" cx="35.3" cy="4.9" r="0.4"/>
		<circle class="st3" cx="36.4" cy="4.9" r="0.4"/>
		<circle class="st8" cx="37.5" cy="4.9" r="0.4"/>
	</g>
</g>
<g>
	<polygon class="st0" points="32,18.4 35.2,24.1 36.4,22.9 38.2,24.7 38.5,24.5 36.6,22.7 37.8,21.5 	"/>
	<polygon class="st9" points="32,17.6 35.2,23.3 36.4,22.1 38.2,24 38.5,23.7 36.6,21.9 37.8,20.7 	"/>
</g>
<polygon class="st3" points="20.4,21.3 20,20.6 20.4,19.9 21.2,19.9 21.6,20.6 21.2,21.3 "/>
<circle class="st4" cx="20.8" cy="20.6" r="0.4"/>
</svg>
