<?xml version="1.0" encoding="utf-8"?>
<!-- Generator: Adobe Illustrator 21.0.2, SVG Export Plug-In . SVG Version: 6.00 Build 0)  -->
<svg version="1.1" id="Camada_1" xmlns="http://www.w3.org/2000/svg" xmlns:xlink="http://www.w3.org/1999/xlink" x="0px" y="0px"
	 viewBox="0 0 107.8 31.8" style="enable-background:new 0 0 107.8 31.8;" xml:space="preserve">
<style type="text/css">
	.st0{opacity:0.2;fill:#202020;enable-background:new    ;}
	.st1{fill:#FFFFFF;}
	.st2{fill:#CBCBCB;}
	.st3{fill:#B1B1B1;}
	.st4{fill:none;stroke:#FFFFFF;stroke-width:2.88;stroke-miterlimit:22.9256;stroke-dasharray:2.88,8.64;}
	.st5{fill:#DAEAFE;}
	.st6{fill:#334C71;}
	.st7{fill:#D36359;}
	.st8{fill:#DC8881;}
	.st9{fill:#496893;}
	.st10{fill:#F4D432;}
	.st11{fill:#E48720;}
	.st12{fill:#F3D3A4;}
	.st13{fill:#F0C587;}
	.st14{fill:#B8473E;}
	.st15{fill:#6E95C9;}
	.st16{fill:#DCB489;}
	.st17{font-family:'Arial-BoldMT';}
	.st18{font-size:0.3928px;}
</style>
<g>
	<path class="st0" d="M88.8,22.6c0.1,0,0.3,0,0.4-0.1c0.4,0,0.6,0.1,0.8,0.3c0.1,0.1,0.1,0.2,0.1,0.3c0,0.1,0,0.2-0.1,0.3
		c-0.1,0.2-0.4,0.4-0.9,0.5c-0.1,0-0.2,0-0.3,0v-0.1c0.1,0,0.2,0,0.3,0c0.4-0.1,0.7-0.2,0.8-0.4c0-0.1,0.1-0.2,0.1-0.2
		c0-0.1,0-0.1-0.1-0.2c-0.1-0.2-0.3-0.3-0.7-0.3c-0.1,0-0.3,0-0.4,0.1C88.9,22.8,88.9,22.6,88.8,22.6z M86.8,25.1L86.8,25.1
		L86.8,25.1L86.8,25.1L86.8,25.1L86.8,25.1L86.8,25.1c0.6-0.2,1.3,0.4,1.6,1.3c0.2,0.9-0.1,1.8-0.8,2c-0.6,0.2-1.4-0.4-1.6-1.3
		s0.1-1.7,0.7-2c0-0.5,0.5-1.2,0.8-1.6c0,0-0.1,0-0.1-0.1c-0.7-0.3-1.3-0.8-2-1.3v7c0,0.2-0.1,0.3-0.3,0.3h-5.5v-8.2h4.4v-0.1h-4.4
		V16H86c0.3,0,0.5,0.2,0.4,0.7l-1.1,4.4h-0.8v0.1H85c0.1,0,0.3,0.1,0.3,0.3v0.6c0.7,0.6,1.4,1.1,2.1,1.4c0.1,0,0.1,0.1,0.2,0.1
		c0.3-0.4,0.6-0.6,1.1-0.8c0.1,0,0.1,0,0.2-0.1v0.1c-0.1,0-0.1,0-0.2,0.1c-0.4,0.1-0.7,0.4-1,0.7c0.4,0.2,0.8,0.3,1.2,0.3V24
		c-0.4,0-0.8-0.1-1.2-0.3C87.1,24.2,86.9,24.6,86.8,25.1z M79.5,29.4H74c-0.1,0-0.3-0.1-0.3-0.3v-7.7c0-0.2,0.1-0.3,0.3-0.3h0.5V21
		h-0.8l-1-4.3C72.5,16.1,72.6,16,73,16h6.5v5.1h-4.4v0.1h4.4C79.5,21.2,79.5,29.4,79.5,29.4z"/>
	<g>
		<path class="st1" d="M88.3,22.1c0.1,0,0.3,0,0.4-0.1c0.4,0,0.6,0.1,0.8,0.3c0.1,0.1,0.1,0.2,0.1,0.3c0,0.1,0,0.2-0.1,0.3
			c-0.1,0.2-0.4,0.4-0.9,0.5c-0.1,0-0.2,0-0.3,0v-0.1c0.1,0,0.2,0,0.3,0c0.4-0.1,0.7-0.2,0.8-0.4c0-0.1,0.1-0.2,0.1-0.2
			c0-0.1,0-0.1-0.1-0.2c-0.1-0.2-0.3-0.3-0.7-0.3c-0.1,0-0.3,0-0.4,0.1C88.3,22.3,88.3,22.1,88.3,22.1z M84.6,21.4
			c0.7,0.6,1.5,1.1,2.2,1.5c0.1,0,0.1,0.1,0.2,0.1c0.3-0.4,0.6-0.6,1.1-0.8c0.1,0,0.1,0,0.2-0.1v0.1c-0.1,0-0.1,0-0.2,0.1
			c-0.4,0.1-0.7,0.4-1,0.7c0.4,0.2,0.8,0.3,1.2,0.3v0.1c-0.4,0-0.8-0.1-1.2-0.3c-0.1,0.1-0.2,0.3-0.3,0.4c-0.3,0.6-0.5,1.3-0.5,2
			c0,0.3,0.1,0.6,0.1,0.9h-0.1c-0.1-0.3-0.1-0.6-0.1-1c0-0.7,0.2-1.4,0.5-2c0.1-0.1,0.2-0.3,0.3-0.4c0,0-0.1,0-0.1-0.1
			C86,22.6,85.3,22.1,84.6,21.4L84.6,21.4z"/>
		<path class="st2" d="M72.4,15.4h13c0.3,0,0.5,0.2,0.4,0.7l-1.1,4.4H73.2l-1-4.3C71.9,15.5,72,15.4,72.4,15.4z"/>
		<g>
			<path class="st2" d="M86.3,24.9c0.6-0.2,1.4,0.4,1.6,1.3s-0.1,1.8-0.8,2c-0.6,0.2-1.4-0.4-1.6-1.3S85.8,25.1,86.3,24.9z"/>
			<path class="st1" d="M86.3,25c0.5-0.2,1.1,0.3,1.3,1.1c0.2,0.8-0.1,1.5-0.6,1.6c-0.5,0.2-1.1-0.3-1.3-1.1
				C85.5,25.9,85.8,25.1,86.3,25z"/>
			<path class="st3" d="M86.3,24.9L86.3,24.9l0.2,0.9l0,0L86.3,24.9L86.3,24.9z"/>
			<path class="st3" d="M86.3,25.1l0.2-0.1c0,0,0.1,0,0.1,0.1l0.2,0.9c0,0,0,0.1-0.1,0.1l-0.2,0.1c0,0-0.1,0-0.1-0.1l-0.2-0.9
				C86.3,25.2,86.3,25.1,86.3,25.1z"/>
			<path class="st1" d="M86.3,25.2L86.3,25.2c0.1,0,0.1,0,0.2,0l0.2,0.8c0,0,0,0,0,0.1h-0.1c0,0,0,0-0.1,0L86.3,25.2L86.3,25.2z"/>
		</g>
	</g>
	<path class="st1" d="M72.4,15.5h13.2c0.1,0,0.2,0.1,0.2,0.2l0,0c0,0.1-0.1,0.2-0.2,0.2H72.4c-0.1,0-0.2-0.1-0.2-0.2l0,0
		C72.3,15.6,72.3,15.5,72.4,15.5z"/>
	<line class="st4" x1="89" y1="14.6" x2="89" y2="9.6"/>
	<path class="st0" d="M81.8,2.8c-0.1,0-0.1,0-0.2,0c-0.2,0-0.4,0.1-0.5,0.3c0-0.1,0-0.2,0-0.3s0-0.1,0-0.2C81,2,80.6,1.5,80.1,1.3
		c-0.1,0-0.1,0-0.2-0.1c-0.2,0-0.3-0.1-0.5-0.1h-0.1c-1,0-1.8,0.9-1.8,2c0,0.2,0,0.4,0.1,0.6C77.2,3.7,77,4,77,4.4
		c0,0.4,0.3,0.7,0.7,0.7h1.8h0.1h2.5c0.6,0,1.1-0.5,1.1-1.2C82.9,3.3,82.4,2.8,81.8,2.8z"/>
	<path class="st5" d="M81.1,2.2c-0.1,0-0.1,0-0.2,0c-0.2,0-0.4,0.1-0.5,0.3c0-0.1,0-0.2,0-0.3c0-0.1,0-0.1,0-0.2
		c-0.2-0.6-0.6-1.1-1.1-1.3c-0.1,0-0.1,0-0.2-0.1c-0.2,0-0.3-0.1-0.5-0.1h-0.1c-1,0-1.8,0.9-1.8,2c0,0.2,0,0.4,0.1,0.6
		c-0.4,0-0.6,0.3-0.6,0.7s0.3,0.7,0.7,0.7h1.8h0.1h2.5c0.6,0,1.1-0.5,1.1-1.2C82.3,2.7,81.8,2.2,81.1,2.2z"/>
	<g>
		<path class="st1" d="M73.4,20.6h11.1c0.1,0,0.3,0.1,0.3,0.3v7.7c0,0.2-0.1,0.3-0.3,0.3H73.4c-0.1,0-0.3-0.1-0.3-0.3v-7.7
			C73.2,20.8,73.3,20.6,73.4,20.6z"/>
		<path class="st3" d="M73.9,20.6h0.6V21c0,0,0,0.1-0.1,0.1h-0.5c0,0-0.1,0-0.1-0.1L73.9,20.6L73.9,20.6z"/>
		<path class="st3" d="M83.3,20.6h0.6V21c0,0,0,0.1-0.1,0.1h-0.4c0,0-0.1,0-0.1-0.1V20.6z"/>
		<polygon class="st6" points="85.1,16.5 84.3,19.9 73.5,19.9 72.8,16.5 		"/>
		<path class="st1" d="M74,20.3h0.5c0,0,0.1,0,0.1,0.1V21c0,0,0,0.1-0.1,0.1H74c0,0-0.1,0-0.1-0.1L74,20.3
			C73.9,20.3,74,20.3,74,20.3z"/>
		<path class="st1" d="M83.4,20.3h0.5c0,0,0.1,0,0.1,0.1V21c0,0,0,0.1-0.1,0.1h-0.5c0,0-0.1,0-0.1-0.1L83.4,20.3L83.4,20.3z"/>
		<g>
			<path class="st2" d="M83.6,21.7H84c0,0,0.1,0,0.1,0.1v0.3c0,0,0,0.1-0.1,0.1h-0.4c0,0-0.1,0-0.1-0.1L83.6,21.7
				C83.5,21.8,83.6,21.7,83.6,21.7z"/>
			<path class="st2" d="M83.6,22.3h0.3c0,0,0.1,0,0.1,0.1v0.4c0,0.1,0,0.1-0.1,0.1h-0.3c0,0-0.1,0-0.1-0.1L83.6,22.3
				C83.5,22.3,83.6,22.3,83.6,22.3z"/>
			<path class="st2" d="M83.6,23h0.3c0,0,0.1,0,0.1,0.1v0.3c0,0.1,0,0.1-0.1,0.1h-0.3c0,0-0.1,0-0.1-0.1L83.6,23
				C83.5,23,83.6,23,83.6,23z"/>
			<path class="st2" d="M83.6,23.6h0.3c0,0,0.1,0,0.1,0.1v0.4c0,0.1,0,0.1-0.1,0.1h-0.3c0,0-0.1,0-0.1-0.1L83.6,23.6
				C83.5,23.7,83.6,23.6,83.6,23.6z"/>
			<path class="st2" d="M83.6,24.3h0.3c0,0,0.1,0,0.1,0.1v0.4c0,0.1,0,0.1-0.1,0.1h-0.3c0,0-0.1,0-0.1-0.1L83.6,24.3
				C83.5,24.4,83.6,24.3,83.6,24.3z"/>
			<path class="st2" d="M83.6,25h0.3c0,0,0.1,0,0.1,0.1v0.4c0,0.1,0,0.1-0.1,0.1h-0.3c0,0-0.1,0-0.1-0.1L83.6,25
				C83.5,25,83.6,25,83.6,25z"/>
			<path class="st2" d="M83,21.7h0.4c0,0,0.1,0,0.1,0.1v0.3c0,0,0,0.1-0.1,0.1H83c0,0-0.1,0-0.1-0.1L83,21.7
				C82.9,21.8,82.9,21.7,83,21.7z"/>
			<path class="st2" d="M82.4,22.3h0.9c0.1,0,0.1,0,0.1,0.1v0.4c0,0.1,0,0.1-0.1,0.1h-0.9c-0.1,0-0.1,0-0.1-0.1v-0.4
				C82.3,22.3,82.4,22.3,82.4,22.3z"/>
			<path class="st2" d="M82.8,23h0.5c0.1,0,0.1,0,0.1,0.1v0.3c0,0.1,0,0.1-0.1,0.1h-0.5c-0.1,0-0.1,0-0.1-0.1L82.8,23L82.8,23z"/>
			<path class="st2" d="M82.3,23.6h1c0.1,0,0.1,0,0.1,0.1v0.4c0,0.1,0,0.1-0.1,0.1h-1c-0.1,0-0.1,0-0.1-0.1v-0.4
				C82.3,23.7,82.3,23.6,82.3,23.6z"/>
			<path class="st2" d="M83,24.3h0.3c0,0,0.1,0,0.1,0.1v0.4c0,0.1,0,0.1-0.1,0.1H83c0,0-0.1,0-0.1-0.1L83,24.3
				C82.9,24.4,82.9,24.3,83,24.3z"/>
			<path class="st2" d="M83,25h0.3c0,0,0.1,0,0.1,0.1v0.4c0,0.1,0,0.1-0.1,0.1H83c0,0-0.1,0-0.1-0.1L83,25C82.9,25,82.9,25,83,25z"
				/>
			<path class="st2" d="M82.4,21.7h0.3c0,0,0.1,0,0.1,0.1v0.3c0,0,0,0.1-0.1,0.1h-0.3c0,0-0.1,0-0.1-0.1L82.4,21.7
				C82.3,21.8,82.4,21.7,82.4,21.7z"/>
			<path class="st2" d="M81.8,21.7h0.3c0,0,0.1,0,0.1,0.1v0.3c0,0,0,0.1-0.1,0.1h-0.3c0,0-0.1,0-0.1-0.1L81.8,21.7
				C81.8,21.8,81.8,21.7,81.8,21.7z"/>
			<path class="st2" d="M81.3,21.7h0.3c0,0,0.1,0,0.1,0.1v0.3c0,0,0,0.1-0.1,0.1h-0.3c0,0-0.1,0-0.1-0.1L81.3,21.7
				C81.1,21.8,81.3,21.7,81.3,21.7z"/>
			<path class="st2" d="M80.6,21.7h0.3c0,0,0.1,0,0.1,0.1v0.3c0,0,0,0.1-0.1,0.1h-0.3c0,0-0.1,0-0.1-0.1L80.6,21.7
				C80.5,21.8,80.6,21.7,80.6,21.7z"/>
			<path class="st2" d="M80,21.7h0.3c0,0,0.1,0,0.1,0.1v0.3c0,0,0,0.1-0.1,0.1H80c0,0-0.1,0-0.1-0.1L80,21.7
				C79.9,21.8,80,21.7,80,21.7z"/>
			<path class="st2" d="M79.4,21.7h0.3c0,0,0.1,0,0.1,0.1v0.3c0,0,0,0.1-0.1,0.1h-0.3c0,0-0.1,0-0.1-0.1L79.4,21.7
				C79.4,21.8,79.4,21.7,79.4,21.7z"/>
			<path class="st2" d="M78.8,21.7h0.3c0,0,0.1,0,0.1,0.1v0.3c0,0,0,0.1-0.1,0.1h-0.3c0,0-0.1,0-0.1-0.1L78.8,21.7
				C78.8,21.8,78.8,21.7,78.8,21.7z"/>
			<path class="st2" d="M78.3,21.7h0.3c0,0,0.1,0,0.1,0.1v0.3c0,0,0,0.1-0.1,0.1h-0.3c0,0-0.1,0-0.1-0.1L78.3,21.7
				C78.3,21.8,78.3,21.7,78.3,21.7z"/>
			<path class="st2" d="M77.6,21.7h0.3c0,0,0.1,0,0.1,0.1v0.3c0,0,0,0.1-0.1,0.1h-0.3c0,0-0.1,0-0.1-0.1L77.6,21.7
				C77.6,21.8,77.6,21.7,77.6,21.7z"/>
			<path class="st2" d="M77.1,21.7h0.3c0,0,0.1,0,0.1,0.1v0.3c0,0,0,0.1-0.1,0.1h-0.3c0,0-0.1,0-0.1-0.1L77.1,21.7
				C77,21.8,77,21.7,77.1,21.7z"/>
			<path class="st2" d="M76.5,21.7h0.3c0,0,0.1,0,0.1,0.1v0.3c0,0,0,0.1-0.1,0.1h-0.3c0,0-0.1,0-0.1-0.1L76.5,21.7
				C76.4,21.8,76.4,21.7,76.5,21.7z"/>
			<path class="st2" d="M75.9,21.7h0.3c0,0,0.1,0,0.1,0.1v0.3c0,0,0,0.1-0.1,0.1h-0.3c0,0-0.1,0-0.1-0.1L75.9,21.7
				C75.8,21.8,75.8,21.7,75.9,21.7z"/>
			<path class="st2" d="M75.3,21.7h0.3c0,0,0.1,0,0.1,0.1v0.3c0,0,0,0.1-0.1,0.1h-0.3c0,0-0.1,0-0.1-0.1L75.3,21.7
				C75.3,21.8,75.3,21.7,75.3,21.7z"/>
			<path class="st2" d="M74.8,21.7h0.3c0,0,0.1,0,0.1,0.1v0.3c0,0,0,0.1-0.1,0.1h-0.3c0,0-0.1,0-0.1-0.1L74.8,21.7
				C74.6,21.8,74.6,21.7,74.8,21.7z"/>
			<path class="st2" d="M74,21.7h0.4c0,0,0.1,0,0.1,0.1v0.3c0,0,0,0.1-0.1,0.1H74c0,0-0.1,0-0.1-0.1L74,21.7
				C73.9,21.8,74,21.7,74,21.7z"/>
			<path class="st2" d="M81.8,22.3h0.3c0,0,0.1,0,0.1,0.1v0.4c0,0.1,0,0.1-0.1,0.1h-0.3c0,0-0.1,0-0.1-0.1L81.8,22.3
				C81.8,22.3,81.8,22.3,81.8,22.3z"/>
			<path class="st2" d="M81.1,22.3h0.3c0,0,0.1,0,0.1,0.1v0.4c0,0.1,0,0.1-0.1,0.1h-0.3c0,0-0.1,0-0.1-0.1L81.1,22.3
				C81,22.3,81.1,22.3,81.1,22.3z"/>
			<path class="st2" d="M80.5,22.3h0.3c0,0,0.1,0,0.1,0.1v0.4c0,0.1,0,0.1-0.1,0.1h-0.3c0,0-0.1,0-0.1-0.1L80.5,22.3
				C80.4,22.3,80.4,22.3,80.5,22.3z"/>
			<path class="st2" d="M79.8,22.3h0.3c0,0,0.1,0,0.1,0.1v0.4c0,0.1,0,0.1-0.1,0.1h-0.3c0,0-0.1,0-0.1-0.1L79.8,22.3L79.8,22.3z"/>
			<path class="st2" d="M79.3,22.3h0.3c0,0,0.1,0,0.1,0.1v0.4c0,0.1,0,0.1-0.1,0.1h-0.3c0,0-0.1,0-0.1-0.1L79.3,22.3
				C79.1,22.3,79.3,22.3,79.3,22.3z"/>
			<path class="st2" d="M78.6,22.3h0.3c0,0,0.1,0,0.1,0.1v0.4c0,0.1,0,0.1-0.1,0.1h-0.3c0,0-0.1,0-0.1-0.1L78.6,22.3
				C78.5,22.3,78.5,22.3,78.6,22.3z"/>
			<path class="st2" d="M77.9,22.3h0.3c0,0,0.1,0,0.1,0.1v0.4c0,0.1,0,0.1-0.1,0.1h-0.3c0,0-0.1,0-0.1-0.1L77.9,22.3
				C77.8,22.3,77.9,22.3,77.9,22.3z"/>
			<path class="st2" d="M77.3,22.3h0.3c0,0,0.1,0,0.1,0.1v0.4c0,0.1,0,0.1-0.1,0.1h-0.3c0,0-0.1,0-0.1-0.1L77.3,22.3
				C77.3,22.3,77.3,22.3,77.3,22.3z"/>
			<path class="st2" d="M76.6,22.3h0.3c0,0,0.1,0,0.1,0.1v0.4c0,0.1,0,0.1-0.1,0.1h-0.3c0,0-0.1,0-0.1-0.1L76.6,22.3
				C76.5,22.3,76.6,22.3,76.6,22.3z"/>
			<path class="st2" d="M76,22.3h0.3c0,0,0.1,0,0.1,0.1v0.4c0,0.1,0,0.1-0.1,0.1H76c0,0-0.1,0-0.1-0.1L76,22.3
				C75.9,22.3,75.9,22.3,76,22.3z"/>
			<path class="st2" d="M75.3,22.3h0.3c0,0,0.1,0,0.1,0.1v0.4c0,0.1,0,0.1-0.1,0.1h-0.3c0,0-0.1,0-0.1-0.1L75.3,22.3
				C75.3,22.3,75.3,22.3,75.3,22.3z"/>
			<path class="st2" d="M74.8,22.3h0.3c0,0,0.1,0,0.1,0.1v0.4c0,0.1,0,0.1-0.1,0.1h-0.3c0,0-0.1,0-0.1-0.1L74.8,22.3
				C74.6,22.3,74.6,22.3,74.8,22.3z"/>
			<path class="st2" d="M74,22.3h0.4c0,0,0.1,0,0.1,0.1v0.4c0,0.1,0,0.1-0.1,0.1h-0.3c0,0-0.1,0-0.1-0.1V22.3
				C73.9,22.3,74,22.3,74,22.3z"/>
			<path class="st2" d="M74,23h0.7c0.1,0,0.1,0,0.1,0.1v0.3c0,0.1,0,0.1-0.1,0.1H74c-0.1,0-0.1,0-0.1-0.1L74,23L74,23z"/>
			<path class="st2" d="M74,23.6h0.8c0.1,0,0.1,0,0.1,0.1v0.4c0,0.1,0,0.1-0.1,0.1H74c-0.1,0-0.1,0-0.1-0.1v-0.4
				C73.9,23.7,74,23.6,74,23.6z"/>
			<path class="st2" d="M74,24.3h1.1c0.1,0,0.1,0,0.1,0.1v0.4c0,0.1,0,0.1-0.1,0.1H74c-0.1,0-0.1,0-0.1-0.1v-0.4L74,24.3z"/>
			<path class="st2" d="M74,25h0.5c0.1,0,0.1,0,0.1,0.1v0.4c0,0.1,0,0.1-0.1,0.1H74c-0.1,0-0.1,0-0.1-0.1v-0.4C73.9,25,74,25,74,25z
				"/>
			<path class="st2" d="M75,23h0.3c0.1,0,0.1,0,0.1,0.1v0.3c0,0.1,0,0.1-0.1,0.1H75c-0.1,0-0.1,0-0.1-0.1L75,23
				C74.9,23,74.9,23,75,23z"/>
			<path class="st2" d="M75.6,23h0.3c0.1,0,0.1,0,0.1,0.1v0.3c0,0.1,0,0.1-0.1,0.1h-0.3c-0.1,0-0.1,0-0.1-0.1L75.6,23L75.6,23z"/>
			<path class="st2" d="M76.3,23h0.3c0.1,0,0.1,0,0.1,0.1v0.3c0,0.1,0,0.1-0.1,0.1h-0.3c-0.1,0-0.1,0-0.1-0.1L76.3,23
				C76.3,23,76.3,23,76.3,23z"/>
			<path class="st2" d="M76.9,23h0.3c0.1,0,0.1,0,0.1,0.1v0.3c0,0.1,0,0.1-0.1,0.1h-0.3c-0.1,0-0.1,0-0.1-0.1L76.9,23L76.9,23z"/>
			<path class="st2" d="M77.6,23h0.3c0.1,0,0.1,0,0.1,0.1v0.3c0,0.1,0,0.1-0.1,0.1h-0.3c-0.1,0-0.1,0-0.1-0.1L77.6,23
				C77.5,23,77.5,23,77.6,23z"/>
			<path class="st2" d="M78.3,23h0.3c0.1,0,0.1,0,0.1,0.1v0.3c0,0.1,0,0.1-0.1,0.1h-0.3c-0.1,0-0.1,0-0.1-0.1L78.3,23
				C78.3,23,78.3,23,78.3,23z"/>
			<path class="st2" d="M78.9,23h0.3c0.1,0,0.1,0,0.1,0.1v0.3c0,0.1,0,0.1-0.1,0.1h-0.3c-0.1,0-0.1,0-0.1-0.1L78.9,23L78.9,23z"/>
			<path class="st2" d="M79.6,23h0.3c0.1,0,0.1,0,0.1,0.1v0.3c0,0.1,0,0.1-0.1,0.1h-0.3c-0.1,0-0.1,0-0.1-0.1L79.6,23
				C79.5,23,79.5,23,79.6,23z"/>
			<path class="st2" d="M80.3,23h0.3c0.1,0,0.1,0,0.1,0.1v0.3c0,0.1,0,0.1-0.1,0.1h-0.3c-0.1,0-0.1,0-0.1-0.1L80.3,23
				C80.1,23,80.3,23,80.3,23z"/>
			<path class="st2" d="M80.9,23h0.3c0.1,0,0.1,0,0.1,0.1v0.3c0,0.1,0,0.1-0.1,0.1h-0.3c-0.1,0-0.1,0-0.1-0.1L80.9,23
				C80.8,23,80.8,23,80.9,23z"/>
			<path class="st2" d="M81.5,23h0.3c0.1,0,0.1,0,0.1,0.1v0.3c0,0.1,0,0.1-0.1,0.1h-0.3c-0.1,0-0.1,0-0.1-0.1L81.5,23L81.5,23z"/>
			<path class="st2" d="M82.3,23h0.3c0.1,0,0.1,0,0.1,0.1v0.3c0,0.1,0,0.1-0.1,0.1h-0.3c-0.1,0-0.1,0-0.1-0.1L82.3,23
				C82.1,23,82.1,23,82.3,23z"/>
			<path class="st2" d="M75.3,23.6h0.3c0.1,0,0.1,0,0.1,0.1v0.4c0,0.1,0,0.1-0.1,0.1h-0.3c-0.1,0-0.1,0-0.1-0.1v-0.4
				C75.1,23.7,75.1,23.6,75.3,23.6z"/>
			<path class="st2" d="M75.8,23.6h0.3c0.1,0,0.1,0,0.1,0.1v0.4c0,0.1,0,0.1-0.1,0.1h-0.3c-0.1,0-0.1,0-0.1-0.1v-0.4
				C75.8,23.7,75.8,23.6,75.8,23.6z"/>
			<path class="st2" d="M76.5,23.6h0.3c0.1,0,0.1,0,0.1,0.1v0.4c0,0.1,0,0.1-0.1,0.1h-0.3c-0.1,0-0.1,0-0.1-0.1v-0.4
				C76.4,23.7,76.4,23.6,76.5,23.6z"/>
			<path class="st2" d="M77.1,23.6h0.3c0.1,0,0.1,0,0.1,0.1v0.4c0,0.1,0,0.1-0.1,0.1h-0.3c-0.1,0-0.1,0-0.1-0.1v-0.4
				C77,23.7,77.1,23.6,77.1,23.6z"/>
			<path class="st2" d="M77.8,23.6h0.3c0.1,0,0.1,0,0.1,0.1v0.4c0,0.1,0,0.1-0.1,0.1h-0.3c-0.1,0-0.1,0-0.1-0.1v-0.4
				C77.8,23.7,77.8,23.6,77.8,23.6z"/>
			<path class="st2" d="M78.4,23.6h0.3c0.1,0,0.1,0,0.1,0.1v0.4c0,0.1,0,0.1-0.1,0.1h-0.3c-0.1,0-0.1,0-0.1-0.1v-0.4
				C78.3,23.7,78.4,23.6,78.4,23.6z"/>
			<path class="st2" d="M79.1,23.6h0.3c0.1,0,0.1,0,0.1,0.1v0.4c0,0.1,0,0.1-0.1,0.1h-0.3c-0.1,0-0.1,0-0.1-0.1v-0.4
				C79,23.7,79,23.6,79.1,23.6z"/>
			<path class="st2" d="M79.8,23.6h0.3c0.1,0,0.1,0,0.1,0.1v0.4c0,0.1,0,0.1-0.1,0.1h-0.3c-0.1,0-0.1,0-0.1-0.1v-0.4
				C79.8,23.7,79.8,23.6,79.8,23.6z"/>
			<path class="st2" d="M80.4,23.6h0.3c0.1,0,0.1,0,0.1,0.1v0.4c0,0.1,0,0.1-0.1,0.1h-0.3c-0.1,0-0.1,0-0.1-0.1v-0.4
				C80.3,23.7,80.4,23.6,80.4,23.6z"/>
			<path class="st2" d="M81.1,23.6h0.3c0.1,0,0.1,0,0.1,0.1v0.4c0,0.1,0,0.1-0.1,0.1h-0.3c-0.1,0-0.1,0-0.1-0.1v-0.4
				C81,23.7,81,23.6,81.1,23.6z"/>
			<path class="st2" d="M81.8,23.6h0.3c0.1,0,0.1,0,0.1,0.1v0.4c0,0.1,0,0.1-0.1,0.1h-0.3c-0.1,0-0.1,0-0.1-0.1v-0.4
				C81.6,23.7,81.8,23.6,81.8,23.6z"/>
			<path class="st2" d="M75.5,24.3h0.3c0.1,0,0.1,0,0.1,0.1v0.4c0,0.1,0,0.1-0.1,0.1h-0.3c-0.1,0-0.1,0-0.1-0.1v-0.4
				C75.4,24.4,75.4,24.3,75.5,24.3z"/>
			<path class="st2" d="M76.3,24.3h0.3c0.1,0,0.1,0,0.1,0.1v0.4c0,0.1,0,0.1-0.1,0.1h-0.3c-0.1,0-0.1,0-0.1-0.1v-0.4
				C76.1,24.4,76.1,24.3,76.3,24.3z"/>
			<path class="st2" d="M76.8,24.3h0.3c0.1,0,0.1,0,0.1,0.1v0.4c0,0.1,0,0.1-0.1,0.1h-0.3c-0.1,0-0.1,0-0.1-0.1v-0.4L76.8,24.3z"/>
			<path class="st2" d="M77.5,24.3h0.3c0.1,0,0.1,0,0.1,0.1v0.4c0,0.1,0,0.1-0.1,0.1h-0.3c-0.1,0-0.1,0-0.1-0.1v-0.4
				C77.4,24.4,77.4,24.3,77.5,24.3z"/>
			<path class="st2" d="M78.1,24.3h0.3c0.1,0,0.1,0,0.1,0.1v0.4c0,0.1,0,0.1-0.1,0.1h-0.3c-0.1,0-0.1,0-0.1-0.1v-0.4L78.1,24.3z"/>
			<path class="st2" d="M78.8,24.3h0.3c0.1,0,0.1,0,0.1,0.1v0.4c0,0.1,0,0.1-0.1,0.1h-0.3c-0.1,0-0.1,0-0.1-0.1v-0.4
				C78.8,24.4,78.8,24.3,78.8,24.3z"/>
			<path class="st2" d="M79.4,24.3h0.3c0.1,0,0.1,0,0.1,0.1v0.4c0,0.1,0,0.1-0.1,0.1h-0.3c-0.1,0-0.1,0-0.1-0.1v-0.4L79.4,24.3z"/>
			<path class="st2" d="M80.1,24.3h0.3c0.1,0,0.1,0,0.1,0.1v0.4c0,0.1,0,0.1-0.1,0.1h-0.3c-0.1,0-0.1,0-0.1-0.1v-0.4
				C80,24.4,80,24.3,80.1,24.3z"/>
			<path class="st2" d="M80.8,24.3h0.3c0.1,0,0.1,0,0.1,0.1v0.4c0,0.1,0,0.1-0.1,0.1h-0.3c-0.1,0-0.1,0-0.1-0.1v-0.4
				C80.8,24.4,80.8,24.3,80.8,24.3z"/>
			<path class="st2" d="M81.4,24.3h0.3c0.1,0,0.1,0,0.1,0.1v0.4c0,0.1,0,0.1-0.1,0.1h-0.3c-0.1,0-0.1,0-0.1-0.1v-0.4L81.4,24.3z"/>
			<path class="st2" d="M82.1,24.3h0.6c0.1,0,0.1,0,0.1,0.1v0.4c0,0.1,0,0.1-0.1,0.1h-0.6c-0.1,0-0.1,0-0.1-0.1v-0.4
				C82,24.4,82,24.3,82.1,24.3z"/>
			<path class="st2" d="M74.8,25h0.3c0.1,0,0.1,0,0.1,0.1v0.4c0,0.1,0,0.1-0.1,0.1h-0.3c-0.1,0-0.1,0-0.1-0.1v-0.4
				C74.8,25,74.8,25,74.8,25z"/>
			<path class="st2" d="M75.5,25h0.3c0.1,0,0.1,0,0.1,0.1v0.4c0,0.1,0,0.1-0.1,0.1h-0.3c-0.1,0-0.1,0-0.1-0.1v-0.4
				C75.4,25,75.4,25,75.5,25z"/>
			<path class="st2" d="M76.1,25h0.3c0.1,0,0.1,0,0.1,0.1v0.4c0,0.1,0,0.1-0.1,0.1h-0.3c-0.1,0-0.1,0-0.1-0.1v-0.4
				C76.1,25,76.1,25,76.1,25z"/>
			<path class="st2" d="M76.8,25h0.3c0.1,0,0.1,0,0.1,0.1v0.4c0,0.1,0,0.1-0.1,0.1h-0.3c-0.1,0-0.1,0-0.1-0.1v-0.4
				C76.8,25,76.8,25,76.8,25z"/>
			<path class="st2" d="M77.5,25h0.3c0.1,0,0.1,0,0.1,0.1v0.4c0,0.1,0,0.1-0.1,0.1h-0.3c-0.1,0-0.1,0-0.1-0.1v-0.4
				C77.4,25,77.4,25,77.5,25z"/>
			<path class="st2" d="M78.1,25h0.3c0.1,0,0.1,0,0.1,0.1v0.4c0,0.1,0,0.1-0.1,0.1h-0.3c-0.1,0-0.1,0-0.1-0.1v-0.4
				C78,25,78.1,25,78.1,25z"/>
			<path class="st2" d="M78.8,25h0.3c0.1,0,0.1,0,0.1,0.1v0.4c0,0.1,0,0.1-0.1,0.1h-0.3c-0.1,0-0.1,0-0.1-0.1v-0.4
				C78.8,25,78.8,25,78.8,25z"/>
			<path class="st2" d="M79.4,25h0.3c0.1,0,0.1,0,0.1,0.1v0.4c0,0.1,0,0.1-0.1,0.1h-0.3c-0.1,0-0.1,0-0.1-0.1v-0.4
				C79.3,25,79.4,25,79.4,25z"/>
			<path class="st2" d="M80.1,25h0.3c0.1,0,0.1,0,0.1,0.1v0.4c0,0.1,0,0.1-0.1,0.1h-0.3c-0.1,0-0.1,0-0.1-0.1v-0.4
				C80,25,80,25,80.1,25z"/>
			<path class="st2" d="M80.8,25h0.3c0.1,0,0.1,0,0.1,0.1v0.4c0,0.1,0,0.1-0.1,0.1h-0.3c-0.1,0-0.1,0-0.1-0.1v-0.4
				C80.6,25,80.8,25,80.8,25z"/>
			<path class="st2" d="M81.4,25H82c0.1,0,0.1,0,0.1,0.1v0.4c0,0.1,0,0.1-0.1,0.1h-0.6c-0.1,0-0.1,0-0.1-0.1v-0.4
				C81.3,25,81.3,25,81.4,25z"/>
			<path class="st2" d="M82.4,25h0.3c0,0,0.1,0,0.1,0.1v0.4c0,0.1,0,0.1-0.1,0.1h-0.3c0,0-0.1,0-0.1-0.1L82.4,25
				C82.3,25,82.3,25,82.4,25z"/>
			<path class="st2" d="M77.3,26.1h3.4c0.1,0,0.1,0,0.1,0.1V28c0,0.1,0,0.1-0.1,0.1h-3.4c-0.1,0-0.1,0-0.1-0.1v-1.8
				C77.1,26.1,77.3,26.1,77.3,26.1z"/>
			<path class="st2" d="M77.3,28.1h1.7l0,0v0.4l0,0h-1.7l0,0V28.1C77.1,28.2,77.1,28.1,77.3,28.1z"/>
			<path class="st2" d="M79,28.1h1.7l0,0v0.4l0,0H79l0,0V28.1C79,28.2,79,28.1,79,28.1z"/>
		</g>
		<g>
			<g>
				<g>
					<path class="st7" d="M73.5,18.1c1.1,0,2.1,0,3.2,0s2.1,0,3.2,0c0,0.3,0,0.6,0,0.8c0,0.3,0,0.6,0,0.8c-1,0-2,0-3,0s-2,0-3,0
						c-0.1-0.3-0.1-0.6-0.2-0.8C73.6,18.6,73.6,18.3,73.5,18.1z"/>
					<path class="st8" d="M73.5,18.1c1.1,0,2.1,0,3.2,0s2.1,0,3.2,0v0.1c-1.1,0-2.1,0-3.2,0C75.6,18.2,74.6,18.2,73.5,18.1
						L73.5,18.1z"/>
				</g>
				<g>
					<path class="st9" d="M77.4,18.3c-0.5,0-0.8,0.2-0.8,0.3c0,0.1,0.2,0.2,0.4,0.2l-0.1,0.1c0.1,0,0.2-0.1,0.3-0.1c0.1,0,0,0,0.3,0
						s0.8-0.1,0.8-0.3C78.3,18.5,77.9,18.3,77.4,18.3z"/>
					<g>
						<path class="st1" d="M77.1,18.6C77.2,18.6,77.2,18.6,77.1,18.6C77.3,18.6,77.3,18.7,77.1,18.6C77,18.7,77,18.7,77.1,18.6
							C77,18.6,77,18.6,77.1,18.6z"/>
						<path class="st1" d="M77.4,18.6C77.5,18.6,77.5,18.6,77.4,18.6C77.6,18.6,77.5,18.7,77.4,18.6C77.3,18.7,77.3,18.7,77.4,18.6
							L77.4,18.6z"/>
						<ellipse class="st1" cx="77.8" cy="18.6" rx="0" ry="0.1"/>
					</g>
				</g>
				<g>
					<path class="st10" d="M75.8,18.5c0.5,0,0.9,0.2,0.9,0.3c0,0.1-0.1,0.2-0.3,0.2l0.1,0.1c-0.1,0-0.2-0.1-0.3-0.1
						c-0.1,0,0,0-0.3,0s-0.8-0.1-0.9-0.3C74.9,18.7,75.3,18.5,75.8,18.5z"/>
					<g>
						<path class="st1" d="M76.1,18.8C76,18.8,76,18.8,76.1,18.8C76,18.8,76.1,18.9,76.1,18.8C76.2,18.9,76.2,18.9,76.1,18.8
							C76.3,18.8,76.3,18.8,76.1,18.8z"/>
						<path class="st1" d="M75.8,18.8C75.7,18.8,75.7,18.8,75.8,18.8C75.6,18.8,75.8,18.9,75.8,18.8C75.8,18.9,75.8,18.9,75.8,18.8
							C75.9,18.8,75.8,18.8,75.8,18.8z"/>
						<path class="st1" d="M75.4,18.8C75.3,18.8,75.3,18.8,75.4,18.8C75.3,18.8,75.3,18.9,75.4,18.8C75.5,18.9,75.5,18.9,75.4,18.8
							L75.4,18.8z"/>
					</g>
				</g>
				<g>
					<path class="st1" d="M77.3,19c-0.5,0-0.8,0.2-0.8,0.3c0,0.1,0.2,0.2,0.4,0.2l-0.1,0.1c0.1,0,0.2-0.1,0.3-0.1c0.1,0,0,0,0.3,0
						s0.8-0.1,0.8-0.3C78.1,19.1,77.8,19,77.3,19z"/>
					<g>
						<path class="st9" d="M77,19.2C77.1,19.2,77.1,19.2,77,19.2C77.1,19.3,77.1,19.3,77,19.2C77,19.3,76.9,19.3,77,19.2
							C76.9,19.3,76.9,19.2,77,19.2z"/>
						<path class="st9" d="M77.3,19.2C77.4,19.2,77.4,19.2,77.3,19.2C77.5,19.3,77.4,19.3,77.3,19.2C77.3,19.3,77.3,19.3,77.3,19.2
							C77.3,19.3,77.3,19.2,77.3,19.2z"/>
						<path class="st9" d="M77.8,19.2C77.8,19.2,77.8,19.2,77.8,19.2C77.8,19.3,77.8,19.3,77.8,19.2C77.7,19.3,77.7,19.3,77.8,19.2
							C77.6,19.3,77.6,19.2,77.8,19.2z"/>
					</g>
				</g>
			</g>
			<g>
				<g>
					<path class="st11" d="M75.3,16.9c1.1,0,2.2,0,3.3,0c1.1,0,2.2,0,3.4,0c0,0.3,0,0.6-0.1,0.8c0,0.3,0,0.6-0.1,0.8
						c-1,0-2.1,0-3.1,0s-2.1,0-3.1,0c-0.1-0.3-0.1-0.6-0.2-0.8C75.3,17.4,75.3,17.2,75.3,16.9z"/>
					<path class="st12" d="M75.3,16.9c1.1,0,2.2,0,3.3,0c1.1,0,2.2,0,3.4,0V17c-1.1,0-2.2,0-3.3,0C77.4,17,76.3,17,75.3,16.9
						L75.3,16.9z"/>
				</g>
				<path class="st13" d="M77.3,17.1c0.8,0,1.7,0,2.5,0c0,0.1,0,0.1,0,0.2c-0.8,0-1.6,0-2.5,0C77.3,17.3,77.3,17.2,77.3,17.1z"/>
				<path class="st13" d="M75.8,17.4c0.9,0,1.9,0,2.8,0s1.9,0,2.8,0l0,0c-0.9,0-1.9,0-2.8,0S76.6,17.4,75.8,17.4L75.8,17.4z"/>
				<path class="st1" d="M75.8,17.4c0.9,0,1.9,0,2.8,0s1.9,0,2.8,0l0,0c-0.9,0-1.9,0-2.8,0C77.6,17.4,76.6,17.4,75.8,17.4L75.8,17.4
					z"/>
				<path class="st9" d="M75.8,17.5c0.5,0,1,0,1.5,0c0,0.1,0,0.1,0,0.2c-0.5,0-1,0-1.5,0C75.8,17.6,75.8,17.6,75.8,17.5z"/>
				<path class="st10" d="M77.8,17.5c0.5,0,1,0,1.5,0c0,0.1,0,0.1,0,0.2c-0.5,0-1,0-1.5,0C77.8,17.6,77.8,17.6,77.8,17.5z"/>
				<path class="st14" d="M79.8,17.5c0.5,0,1,0,1.5,0c0,0.1,0,0.1,0,0.2c-0.5,0-1,0-1.5,0C79.8,17.6,79.8,17.6,79.8,17.5z"/>
				<path class="st1" d="M75.8,17.7c0.5,0,1,0,1.5,0l0,0C76.8,17.7,76.3,17.7,75.8,17.7C75.8,17.7,75.8,17.7,75.8,17.7z"/>
				<path class="st1" d="M75.8,17.8c0.5,0,1,0,1.5,0l0,0C76.8,17.8,76.3,17.8,75.8,17.8L75.8,17.8z"/>
				<path class="st1" d="M75.8,17.9c0.5,0,1,0,1.5,0l0,0C76.8,17.8,76.3,17.8,75.8,17.9C75.8,17.8,75.8,17.9,75.8,17.9z"/>
				<path class="st1" d="M75.8,17.9c0.5,0,1,0,1.5,0l0,0C76.8,17.9,76.3,17.9,75.8,17.9L75.8,17.9z"/>
				<path class="st1" d="M77.8,17.7c0.5,0,1,0,1.5,0l0,0C78.8,17.7,78.3,17.7,77.8,17.7L77.8,17.7z"/>
				<path class="st1" d="M77.8,17.8c0.5,0,1,0,1.5,0l0,0C78.8,17.8,78.3,17.8,77.8,17.8L77.8,17.8z"/>
				<path class="st1" d="M77.8,17.9c0.5,0,1,0,1.5,0l0,0C78.8,17.8,78.3,17.8,77.8,17.9C77.8,17.8,77.8,17.9,77.8,17.9z"/>
				<path class="st1" d="M77.8,17.9c0.5,0,1,0,1.5,0l0,0C78.8,17.9,78.3,17.9,77.8,17.9L77.8,17.9z"/>
				<path class="st1" d="M79.8,17.7c0.5,0,1,0,1.5,0l0,0C80.8,17.7,80.3,17.7,79.8,17.7L79.8,17.7z"/>
				<path class="st1" d="M79.8,17.8c0.5,0,1,0,1.5,0l0,0C80.8,17.8,80.3,17.8,79.8,17.8L79.8,17.8z"/>
				<path class="st1" d="M79.8,17.9c0.5,0,1,0,1.5,0l0,0C80.8,17.8,80.3,17.8,79.8,17.9C79.8,17.8,79.8,17.9,79.8,17.9z"/>
				<path class="st1" d="M79.8,17.9c0.5,0,1,0,1.5,0l0,0C80.8,17.9,80.3,17.9,79.8,17.9L79.8,17.9z"/>
				<path class="st13" d="M75.8,18c0.9,0,1.8,0,2.7,0c0.9,0,1.8,0,2.7,0l0,0c-0.9,0-1.8,0-2.7,0C77.6,18,76.8,18,75.8,18L75.8,18z"
					/>
				<path class="st1" d="M76.8,18.1c0.5,0,1.1,0,1.6,0l0,0C77.9,18.1,77.4,18.1,76.8,18.1L76.8,18.1z"/>
				<path class="st1" d="M76.8,18.1c0.5,0,1.1,0,1.6,0l0,0C77.9,18.1,77.4,18.1,76.8,18.1L76.8,18.1z"/>
				<path class="st10" d="M75.8,18.1c0.3,0,0.5,0,0.8,0v0.1C76.3,18.1,76.1,18.1,75.8,18.1L75.8,18.1z"/>
				<path class="st1" d="M79.8,18.1c0.5,0,1.1,0,1.6,0l0,0C80.8,18.1,80.3,18.1,79.8,18.1L79.8,18.1z"/>
				<path class="st1" d="M79.8,18.1c0.5,0,1.1,0,1.6,0l0,0C80.8,18.1,80.3,18.1,79.8,18.1L79.8,18.1z"/>
				<path class="st14" d="M78.8,18.1c0.3,0,0.5,0,0.8,0v0.1C79.3,18.1,78.9,18.1,78.8,18.1L78.8,18.1z"/>
				<path class="st1" d="M76.8,18.2c0.5,0,1,0,1.6,0l0,0C77.9,18.2,77.4,18.2,76.8,18.2L76.8,18.2z"/>
				<path class="st1" d="M76.9,18.3c0.5,0,1,0,1.6,0l0,0C77.9,18.2,77.4,18.2,76.9,18.3L76.9,18.3z"/>
				<path class="st9" d="M75.8,18.2c0.3,0,0.5,0,0.8,0v0.1C76.4,18.3,76.1,18.3,75.8,18.2L75.8,18.2z"/>
				<path class="st1" d="M79.8,18.2c0.5,0,1,0,1.6,0l0,0C80.8,18.2,80.3,18.2,79.8,18.2L79.8,18.2z"/>
				<path class="st1" d="M79.8,18.3c0.5,0,1,0,1.6,0l0,0C80.8,18.2,80.3,18.2,79.8,18.3L79.8,18.3z"/>
				<path class="st10" d="M78.8,18.2c0.3,0,0.5,0,0.8,0v0.1C79.3,18.3,78.9,18.3,78.8,18.2L78.8,18.2z"/>
				<path class="st1" d="M76.9,18.3c0.5,0,1,0,1.6,0l0,0C77.9,18.3,77.4,18.3,76.9,18.3L76.9,18.3z"/>
				<path class="st1" d="M76.9,18.4c0.5,0,1,0,1.6,0l0,0C77.9,18.4,77.4,18.4,76.9,18.4L76.9,18.4z"/>
				<path class="st14" d="M75.9,18.3c0.3,0,0.5,0,0.8,0v0.1C76.4,18.4,76.1,18.4,75.9,18.3C75.9,18.4,75.9,18.3,75.9,18.3z"/>
				<path class="st1" d="M79.8,18.3c0.5,0,1,0,1.6,0l0,0C80.8,18.3,80.3,18.3,79.8,18.3L79.8,18.3z"/>
				<path class="st1" d="M79.8,18.4c0.5,0,1,0,1.6,0l0,0C80.8,18.4,80.3,18.4,79.8,18.4L79.8,18.4z"/>
				<path class="st9" d="M78.8,18.3c0.3,0,0.5,0,0.8,0v0.1C79.3,18.4,78.9,18.4,78.8,18.3C78.8,18.4,78.8,18.3,78.8,18.3z"/>
			</g>
			<g>
				<g>
					<path class="st9" d="M77.9,17.5c1.1,0,2.2,0,3.3,0c1.1,0,2.2,0,3.3,0c0,0.3-0.1,0.6-0.1,0.8c0,0.3-0.1,0.6-0.1,0.8
						c-1,0-2,0-3.1,0c-1,0-2,0-3.1,0c0-0.3,0-0.6-0.1-0.8C77.9,18.1,77.9,17.8,77.9,17.5z"/>
					<path class="st15" d="M77.9,17.5c1.1,0,2.2,0,3.3,0c1.1,0,2.2,0,3.3,0v0.1c-1.1,0-2.2,0-3.3,0S79,17.6,77.9,17.5
						C77.9,17.6,77.9,17.6,77.9,17.5z"/>
				</g>
				<g>
					<path class="st15" d="M79,18.7c0.7,0,1.4,0,2.1,0s1.4,0,2.1,0c0,0,0,0,0,0.1c-0.7,0-1.4,0-2.1,0S79.8,18.8,79,18.7
						C79,18.8,79,18.7,79,18.7z"/>
					<path class="st11" d="M79.5,18.7L79.5,18.7c-0.1,0-0.1,0.1-0.1,0.1h0.1V18.7z"/>
					<path class="st14" d="M80.4,18c0.4,0,0.9,0,1.3,0c0.2,0,0.3,0.1,0.3,0.1c0,0.1,0,0.1,0,0.2s-0.2,0.1-0.3,0.1
						c-0.4,0-0.9,0-1.3,0c-0.2,0-0.3-0.1-0.3-0.1c0-0.1,0-0.1,0-0.2C80,18,80.3,18,80.4,18z"/>
					<path class="st1" d="M80.8,18.1c0.2,0,0.4,0.1,0.6,0.1c-0.2,0-0.4,0.1-0.6,0.1C80.8,18.2,80.8,18.2,80.8,18.1z"/>
					<path class="st15" d="M82.6,18.9L82.6,18.9L82.6,18.9C82.8,18.9,82.8,18.9,82.6,18.9C82.8,18.9,82.8,18.9,82.6,18.9
						C82.8,18.9,82.8,18.9,82.6,18.9L82.6,18.9L82.6,18.9z M82.8,18.9C82.8,19,82.8,19,82.8,18.9C82.8,19,82.8,19,82.8,18.9
						C82.8,19,82.8,19,82.8,18.9C82.8,19,82.8,19,82.8,18.9C82.6,19,82.6,19,82.8,18.9L82.8,18.9L82.8,18.9z M83,18.9L83,18.9
						c0.1,0,0.1,0,0.1,0.1C83.1,18.9,83.1,18.9,83,18.9C83.1,18.9,83.1,18.9,83,18.9C83.1,18.9,83,18.9,83,18.9L83,18.9L83,18.9z
						 M83.1,18.9C83.1,19,83.1,19,83.1,18.9C83,19,83,19,83,19l0,0C83,19,83,19,83.1,18.9C83.1,19,83.1,19,83.1,18.9L83.1,18.9z"/>
					<g>
						<path class="st15" d="M81.3,18.9c-0.1,0-0.1,0-0.2,0h-0.1c0,0,0,0,0,0.1h0.1c0.1,0,0.1,0,0.2,0V18.9z"/>
						<path class="st15" d="M81.4,18.9L81.4,18.9c0.1,0,0.1,0.1,0.1,0.1C81.5,18.9,81.5,19,81.4,18.9c0.1,0.1,0,0.1,0,0.1l0,0
							C81.4,19,81.4,19,81.4,18.9C81.4,19,81.4,18.9,81.4,18.9L81.4,18.9L81.4,18.9L81.4,18.9z"/>
						<path class="st15" d="M81.4,18.9L81.4,18.9L81.4,18.9L81.4,18.9C81.4,18.9,81.4,19,81.4,18.9C81.4,19,81.4,19,81.4,18.9
							C81.4,19,81.3,19,81.4,18.9C81.4,19,81.4,19,81.4,18.9L81.4,18.9L81.4,18.9L81.4,18.9L81.4,18.9L81.4,18.9z"/>
					</g>
					<path class="st15" d="M80.8,19L80.8,19L80.8,19L80.8,19L80.8,19C80.8,18.9,80.8,18.9,80.8,19C80.8,18.9,80.8,18.9,80.8,19
						L80.8,19L80.8,19C80.8,18.9,80.8,18.9,80.8,19C80.8,18.9,80.8,18.9,80.8,19C80.8,18.9,80.8,18.9,80.8,19
						C80.8,19,80.8,19,80.8,19C80.8,19,80.8,19,80.8,19L80.8,19z M80.8,18.9L80.8,18.9L80.8,18.9C80.8,18.9,80.8,18.9,80.8,18.9
						C80.8,18.9,80.8,18.9,80.8,18.9C80.8,18.9,80.8,18.9,80.8,18.9L80.8,18.9L80.8,18.9L80.8,18.9z M80.8,18.9L80.8,18.9L80.8,18.9
						L80.8,18.9L80.8,18.9L80.8,18.9L80.8,18.9L80.8,18.9C80.8,19,80.8,19,80.8,18.9C80.8,19,80.8,19,80.8,18.9L80.8,18.9L80.8,18.9
						C80.8,19,80.8,19,80.8,18.9C80.6,19,80.6,19,80.8,18.9C80.6,18.9,80.6,18.9,80.8,18.9L80.8,18.9L80.8,18.9z M80,19L80,19L80,19
						L80,19L80,19C80,19,80,18.9,80,19C80,18.9,80,18.9,80,19C80,18.9,80,18.9,80,19C80,18.9,80,18.9,80,19L80,19L80,19L80,19
						C80,18.9,80,18.9,80,19C80.1,18.9,80.1,18.9,80,19C80.1,19,80.1,19,80,19L80,19L80,19L80,19z M80.1,19
						C80.1,18.9,80.1,18.9,80.1,19C80.1,18.9,80.3,18.9,80.1,19C80.1,18.9,80.1,18.9,80.1,19L80.1,19L80.1,19z M80.3,19L80.3,19
						c-0.1,0-0.1,0-0.2,0l0,0C80.3,19,80.3,18.9,80.3,19C80.3,18.9,80.3,18.9,80.3,19C80.3,18.9,80.3,18.9,80.3,19
						C80.3,18.9,80.3,18.9,80.3,19C80.3,18.9,80.3,18.9,80.3,19C80.3,18.9,80.3,18.9,80.3,19C80.3,18.9,80.3,18.9,80.3,19L80.3,19
						L80.3,19C80.3,18.9,80.3,18.9,80.3,19C80.3,18.9,80.3,18.9,80.3,19C80.3,18.9,80.3,18.9,80.3,19C80.3,18.9,80.3,18.9,80.3,19
						C80.3,18.9,80.3,18.9,80.3,19C80.3,18.9,80.3,18.9,80.3,19L80.3,19C80.3,19,80.3,19,80.3,19L80.3,19L80.3,19z M80.4,18.9
						L80.4,18.9L80.4,18.9L80.4,18.9L80.4,18.9L80.4,18.9z M80.4,19L80.4,19L80.4,19L80.4,19L80.4,19L80.4,19z M80.5,19L80.5,19
						L80.5,19L80.5,19C80.5,19,80.6,19,80.5,19C80.6,19,80.6,19,80.5,19C80.6,18.9,80.6,18.9,80.5,19C80.6,18.9,80.5,18.9,80.5,19
						C80.5,18.9,80.5,18.9,80.5,19C80.5,18.9,80.5,18.9,80.5,19C80.5,18.9,80.5,18.9,80.5,19c0.1-0.1,0.1-0.1,0.1-0.1l0,0
						C80.6,18.9,80.6,18.9,80.5,19C80.5,18.9,80.5,18.9,80.5,19C80.5,18.9,80.5,18.9,80.5,19C80.6,19,80.6,19,80.5,19L80.5,19
						L80.5,19C80.6,19,80.6,19,80.5,19L80.5,19L80.5,19z M80,18.9L80,18.9L80,18.9L80,18.9L80,18.9C80,18.9,80,19,80,18.9
						C80,19,80,19,80,18.9C80,19,80,19,80,18.9L80,18.9C80,19,80,19,80,18.9C79.9,19,79.9,19,80,18.9C79.9,18.9,79.9,18.9,80,18.9
						L80,18.9L80,18.9z M79.8,19L79.8,19L79.8,19L79.8,19L79.8,19C79.8,19,79.8,18.9,79.8,19C79.8,18.9,79.8,18.9,79.8,19
						C79.8,18.9,79.8,18.9,79.8,19C79.8,18.9,79.8,18.9,79.8,19L79.8,19C79.8,18.9,79.9,18.9,79.8,19C79.9,18.9,79.9,18.9,79.8,19
						C79.9,19,79.9,19,79.8,19C79.9,19,79.8,19,79.8,19L79.8,19z M79.5,18.9C79.6,18.9,79.6,18.9,79.5,18.9
						C79.6,18.9,79.6,18.9,79.5,18.9C79.6,19,79.6,19,79.5,18.9C79.6,19,79.6,19,79.5,18.9L79.5,18.9L79.5,18.9L79.5,18.9
						C79.5,19,79.5,19,79.5,18.9C79.6,19,79.6,19,79.5,18.9C79.6,19,79.6,18.9,79.5,18.9C79.6,18.9,79.6,18.9,79.5,18.9
						C79.6,18.9,79.6,18.9,79.5,18.9L79.5,18.9L79.5,18.9L79.5,18.9z M79.8,18.9L79.8,18.9L79.8,18.9L79.8,18.9L79.8,18.9L79.8,18.9
						C79.8,18.9,79.8,19,79.8,18.9C79.8,19,79.8,19,79.8,18.9C79.8,19,79.8,19,79.8,18.9L79.8,18.9C79.8,19,79.8,19,79.8,18.9
						C79.8,19,79.8,19,79.8,18.9C79.8,18.9,79.8,18.9,79.8,18.9L79.8,18.9L79.8,18.9L79.8,18.9z M79.8,18.9L79.8,18.9L79.8,18.9
						L79.8,18.9L79.8,18.9L79.8,18.9z M79.8,19L79.8,19L79.8,19L79.8,19L79.8,19z M79.5,18.9L79.5,18.9L79.5,18.9L79.5,18.9
						L79.5,18.9L79.5,18.9L79.5,18.9C79.5,18.9,79.5,19,79.5,18.9C79.5,19,79.5,19,79.5,18.9C79.5,19,79.5,19,79.5,18.9L79.5,18.9
						C79.5,19,79.5,19,79.5,18.9C79.5,19,79.5,19,79.5,18.9L79.5,18.9L79.5,18.9z"/>
					<path class="st15" d="M79,18.9c0.1,0,0.2,0,0.3,0.1c-0.1,0-0.2,0-0.3,0.1C79,19,79,18.9,79,18.9z"/>
				</g>
			</g>
		</g>
	</g>
	<path class="st0" d="M87.3,31.7l-0.1-0.6l0.2-0.1l-0.2-0.6h0.2l-0.1-0.5c-0.1,0-0.3-0.1-0.3-0.2l-0.8-1.1l-0.2-0.9
		c0.1-0.2,0.4-0.5,0.5,0l0.1,0.4l0.3,0.4c-0.1-0.3-0.1-0.5-0.2-0.7l-0.4-1.4L86,25.8c-0.1-0.4,0.4-0.6,0.5-0.2l0.2,0.5l0.4,1.1
		c0,0,0,0,0.1-0.1L87,26l-0.3-0.8c-0.1-0.4,0.4-0.5,0.6-0.1l0.3,0.8l0.2,1c0,0,0,0,0.1,0l-0.1-1l-0.2-0.7c0-0.4,0.5-0.5,0.6-0.1
		l0.2,0.7l0.2,1.1h0.1v-0.7l-0.1-0.5c-0.1-0.4,0.6-0.5,0.6,0l0.2,0.6v1.2c0.2,0.8,0.1,1.4-0.2,1.8l0.1,0.6h0.2l0.2,0.6l0.2-0.1
		l0.3,1.2h-3V31.7z"/>
	<g>
		<polygon class="st16" points="88,28.4 86.4,28.8 87,31.2 88.6,30.7 		"/>
		<path class="st16" d="M85.9,27.2c0.1,0.2,0.1,0.4,0.2,0.7l-0.3-0.4l-0.1-0.4c-0.1-0.4-0.5-0.2-0.5,0l0.2,0.9l0.8,1.1
			c0.2,0.3,0.7,0.3,1.1,0.2c0.9-0.2,1.3-1,1-2.3v-1.2l-0.2-0.6c0-0.4-0.7-0.4-0.6,0l0.1,0.5v0.7h-0.1l-0.2-1.1l-0.2-0.7
			c-0.1-0.4-0.6-0.3-0.6,0.1l0.2,0.7l0.1,1h-0.1l-0.2-1l-0.3-0.8c-0.1-0.4-0.6-0.3-0.6,0.1l0.3,0.8l0.2,1.1c0,0,0,0-0.1,0.1
			l-0.4-1.1l-0.2-0.5c-0.1-0.4-0.7-0.2-0.5,0.2l0.2,0.6L85.9,27.2z"/>
		<polygon class="st1" points="88.5,29.3 86.5,29.9 86.8,30.5 88.6,30 		"/>
		<polygon class="st9" points="86.8,31.7 86.5,30.6 88.8,29.9 89.3,31.7 		"/>
	</g>
	<path class="st0" d="M72.7,31.7l0.9-1.6L73.3,30l0.3-0.6l-0.2-0.1l0.3-0.5c0.1,0,0.3,0,0.4-0.1l1.9-1.3c0-0.2-0.2-0.6-0.6-0.4
		l-0.9,0.5c0.1-0.3,0.3-0.5,0.4-0.7l1.3-2c0.2-0.3-0.3-0.7-0.5-0.4l-1.2,2v-0.1l0.5-0.9c0.2-0.4-0.3-0.7-0.5-0.3l-0.4,0.8
		c0,0,0,0-0.1,0l0.3-0.7c0.1-0.3-0.4-0.6-0.5-0.2l-0.4,0.7h-0.1l0.1-0.4c0.1-0.4-0.4-0.6-0.5-0.2l-0.3,1c-0.4,0.7-0.4,1.3-0.3,1.8
		L72,28.4l-0.2-0.1l-0.3,0.6l-0.1-0.1l-1.5,2.9H72.7z"/>
	<g>
		<polygon class="st16" points="72,27 73.4,27.8 72.3,30 70.8,29.1 		"/>
		<path class="st16" d="M74.3,26.4c-0.1,0.2-0.2,0.4-0.4,0.7l0.9-0.5c0.4-0.2,0.6,0.1,0.6,0.4l-1.9,1.3c-0.3,0.2-0.7,0.1-1.1-0.2
			c-0.8-0.5-1-1.3-0.4-2.5l0.3-1c0.1-0.4,0.7-0.2,0.5,0.2l-0.1,0.4h0.1l0.3-0.8c0.2-0.4,0.7-0.1,0.5,0.2l-0.2,0.7c0,0,0,0,0.1,0
			l0.4-0.8c0.2-0.4,0.7-0.1,0.5,0.3l-0.5,0.9v0.1l1.1-1.7c0.2-0.3,0.7,0,0.5,0.4L74.3,26.4z"/>
		<polygon class="st1" points="71.3,27.8 73.2,28.9 72.8,29.4 71,28.4 		"/>
		<polygon class="st9" points="71.8,31.7 72.9,29.5 70.8,28.3 69,31.7 		"/>
	</g>
	<path class="st0" d="M68.7,7.4h2.1c0.4,0,0.7,0.3,0.7,0.8v4.4c0,0.4-0.3,0.8-0.7,0.8h-2.1c-0.4,0-0.7-0.4-0.7-0.8V8.2
		C67.8,7.7,68.3,7.4,68.7,7.4z"/>
	<path class="st0" d="M89,8.8h1.3c0.2,0,0.4,0.2,0.4,0.5v3.6c0,0.3-0.2,0.5-0.4,0.5H89c-0.2,0-0.4-0.2-0.4-0.5V9.2
		C88.6,9,88.8,8.8,89,8.8z"/>
	<path class="st0" d="M75.8,8.6v3.5c0,0.7,0.5,1.2,1.1,1.2h5.6c0.6,0,1.1-0.6,1.1-1.2V8.6c0-0.7-0.5-1.2-1.1-1.2h-5.6
		C76.3,7.4,75.8,7.9,75.8,8.6z"/>
	<g>
		<g>
			<path class="st1" d="M67.9,6.8H70c0.4,0,0.7,0.4,0.7,0.8V12c0,0.4-0.3,0.8-0.7,0.8h-2.1c-0.4,0-0.7-0.4-0.7-0.8V7.6
				C67.3,7.2,67.5,6.8,67.9,6.8z"/>
			<rect x="67.4" y="7.4" class="st9" width="3.2" height="4.5"/>
			<path class="st2" d="M68.5,7.1h1.1c0,0,0.1,0,0.1-0.1l0,0c0,0,0-0.1-0.1-0.1h-1.1C68.5,7,68.4,7.1,68.5,7.1L68.5,7.1
				C68.4,7.1,68.5,7.1,68.5,7.1z"/>
			<path class="st2" d="M68.2,12.5h1.8c0,0,0.1,0,0.1-0.1l0,0c0,0,0-0.1-0.1-0.1h-1.8C68.2,12.3,68,12.3,68.2,12.5L68.2,12.5
				C68,12.4,68.2,12.5,68.2,12.5z"/>
			<ellipse class="st1" cx="69" cy="12.4" rx="0.3" ry="0.3"/>
			<ellipse class="st2" cx="69" cy="12.4" rx="0.2" ry="0.2"/>
		</g>
		<rect x="68.4" y="7.7" class="st13" width="1.1" height="0.6"/>
		<rect x="67.8" y="8.4" class="st13" width="2.6" height="0.1"/>
		<rect x="67.8" y="8.6" class="st1" width="2.6" height="0.1"/>
		<rect x="67.8" y="8.9" class="st11" width="0.7" height="0.6"/>
		<rect x="68.8" y="8.9" class="st10" width="0.7" height="0.6"/>
		<rect x="69.7" y="8.9" class="st14" width="0.7" height="0.6"/>
		<rect x="67.8" y="9.5" class="st1" width="0.7" height="0.1"/>
		<rect x="67.8" y="9.7" class="st1" width="0.7" height="0.1"/>
		<rect x="67.8" y="9.9" class="st1" width="0.7" height="0.1"/>
		<rect x="67.8" y="10.1" class="st1" width="0.7" height="0.1"/>
		<rect x="68.8" y="9.5" class="st1" width="0.7" height="0.1"/>
		<rect x="68.8" y="9.7" class="st1" width="0.7" height="0.1"/>
		<rect x="68.8" y="9.9" class="st1" width="0.7" height="0.1"/>
		<rect x="68.8" y="10.1" class="st1" width="0.7" height="0.1"/>
		<rect x="69.7" y="9.5" class="st1" width="0.7" height="0.1"/>
		<rect x="69.7" y="9.7" class="st1" width="0.7" height="0.1"/>
		<rect x="69.7" y="9.9" class="st1" width="0.7" height="0.1"/>
		<rect x="69.7" y="10.1" class="st1" width="0.7" height="0.1"/>
		<rect x="67.8" y="10.4" class="st13" width="2.6" height="0.1"/>
		<rect x="68.3" y="10.6" class="st1" width="0.8" height="0.1"/>
		<rect x="68.3" y="10.8" class="st1" width="0.8" height="0.1"/>
		<rect x="67.8" y="10.6" class="st10" width="0.4" height="0.3"/>
		<rect x="69.7" y="10.6" class="st1" width="0.8" height="0.1"/>
		<rect x="69.7" y="10.8" class="st1" width="0.8" height="0.1"/>
		<rect x="69.2" y="10.6" class="st14" width="0.4" height="0.3"/>
		<rect x="68.3" y="11" class="st1" width="0.8" height="0.1"/>
		<rect x="68.3" y="11.2" class="st1" width="0.8" height="0.1"/>
		<rect x="67.8" y="11" class="st11" width="0.4" height="0.3"/>
		<rect x="69.7" y="11" class="st1" width="0.8" height="0.1"/>
		<rect x="69.7" y="11.2" class="st1" width="0.8" height="0.1"/>
		<rect x="69.2" y="11" class="st10" width="0.4" height="0.3"/>
		<rect x="68.3" y="11.4" class="st1" width="0.8" height="0.1"/>
		<rect x="68.3" y="11.6" class="st1" width="0.8" height="0.1"/>
		<rect x="67.8" y="11.4" class="st14" width="0.4" height="0.3"/>
		<rect x="69.7" y="11.4" class="st1" width="0.8" height="0.1"/>
		<rect x="69.7" y="11.6" class="st1" width="0.8" height="0.1"/>
		<rect x="69.2" y="11.4" class="st11" width="0.4" height="0.3"/>
	</g>
	<g>
		<g>
			<path class="st1" d="M88.4,8.2h1.3c0.2,0,0.4,0.2,0.4,0.5v3.6c0,0.3-0.2,0.5-0.4,0.5h-1.3c-0.2,0-0.4-0.2-0.4-0.5V8.7
				C88,8.4,88.1,8.2,88.4,8.2z"/>
			<rect x="88.1" y="8.7" class="st9" width="1.8" height="3.5"/>
			<path class="st2" d="M88.6,8.5h0.8l0,0l0,0l0,0H88.6C88.6,8.4,88.6,8.4,88.6,8.5L88.6,8.5C88.6,8.4,88.6,8.5,88.6,8.5z"/>
			<path class="st2" d="M88.3,12.5h1.4c0,0,0.1,0,0.1-0.1l0,0c0,0,0-0.1-0.1-0.1h-1.4C88.3,12.4,88.3,12.4,88.3,12.5L88.3,12.5
				L88.3,12.5z"/>
			<ellipse class="st1" cx="89" cy="12.5" rx="0.2" ry="0.3"/>
			<ellipse class="st2" cx="89" cy="12.5" rx="0.2" ry="0.2"/>
		</g>
		<g>
			<path class="st11" d="M89.3,8.8c-0.3,0-0.5,0.2-0.5,0.5c0,0.2,0.1,0.3,0.2,0.4l-0.1,0.2l0.2-0.1c0.1,0,0.1,0,0.2,0
				c0.3,0,0.5-0.2,0.5-0.5C89.8,9,89.6,8.8,89.3,8.8z"/>
			<g>
				<ellipse class="st1" cx="89.1" cy="9.3" rx="0.1" ry="0.1"/>
				<ellipse class="st1" cx="89.3" cy="9.3" rx="0.1" ry="0.1"/>
				<ellipse class="st1" cx="89.5" cy="9.3" rx="0.1" ry="0.1"/>
			</g>
		</g>
		<g>
			<path class="st10" d="M88.8,9.9c0.3,0,0.5,0.2,0.5,0.5c0,0.2-0.1,0.3-0.2,0.4l0.1,0.2L89,10.9c-0.1,0-0.1,0-0.2,0
				c-0.3,0-0.5-0.2-0.5-0.5S88.4,9.9,88.8,9.9z"/>
			<g>
				<ellipse class="st1" cx="88.9" cy="10.3" rx="0.1" ry="0.1"/>
				<ellipse class="st1" cx="88.8" cy="10.3" rx="0.1" ry="0.1"/>
				<ellipse class="st1" cx="88.5" cy="10.3" rx="0.1" ry="0.1"/>
			</g>
		</g>
		<g>
			<path class="st1" d="M89.3,11c-0.3,0-0.5,0.2-0.5,0.5c0,0.2,0.1,0.3,0.2,0.4l-0.1,0.2l0.2-0.1c0.1,0,0.1,0,0.2,0
				c0.3,0,0.5-0.2,0.5-0.5C89.8,11.2,89.6,11,89.3,11z"/>
			<g>
				<ellipse class="st9" cx="89.1" cy="11.5" rx="0.1" ry="0.1"/>
				<ellipse class="st9" cx="89.3" cy="11.5" rx="0.1" ry="0.1"/>
				<ellipse class="st9" cx="89.5" cy="11.5" rx="0.1" ry="0.1"/>
			</g>
		</g>
	</g>
	<g>
		<g>
			<path class="st1" d="M75.1,8.1v3.5c0,0.7,0.5,1.2,1.1,1.2h5.6c0.6,0,1.1-0.6,1.1-1.2V8.1c0-0.7-0.5-1.2-1.1-1.2h-5.6
				C75.6,6.8,75.1,7.4,75.1,8.1z"/>
			<path class="st9" d="M75.8,7.3v5.1l0,0h6.5l0,0V7.3l0,0H75.8C75.8,7.2,75.8,7.3,75.8,7.3z"/>
			<path class="st2" d="M75.3,9.1v1.3c0,0,0,0.1,0.1,0.1l0,0c0,0,0.1,0,0.1-0.1V9.1C75.4,9.1,75.3,9.1,75.3,9.1L75.3,9.1L75.3,9.1z"
				/>
			<ellipse class="st2" cx="82.6" cy="9.8" rx="0.2" ry="0.2"/>
		</g>
		<rect x="76.6" y="11.2" class="st15" width="4.9" height="0.2"/>
		<rect x="77.1" y="11" class="st11" width="0.1" height="0.5"/>
		<path class="st14" d="M78.1,8.8h1.5C79.8,8.8,80,9,80,9.2v0.7c0,0.2-0.2,0.4-0.4,0.4h-1.5c-0.2,0-0.4-0.2-0.4-0.4V9.2
			C77.8,8.9,77.9,8.8,78.1,8.8z"/>
		<polygon class="st1" points="78.5,9.1 79.3,9.5 78.5,10 		"/>
		<path class="st15" d="M80.8,11.6H81v0.1L80.8,11.6l0.1,0.2h-0.1V11.6L80.8,11.6z M80.9,11.9V12H81v0.1h-0.2L80.9,11.9L80.9,11.9
			L80.9,11.9z M81.3,11.6h0.2v0.2h-0.1L81.3,11.6L81.3,11.6L81.3,11.6L81.3,11.6z M81.4,11.9v0.2h-0.2V12L81.4,11.9L81.4,11.9
			L81.4,11.9z"/>
		<g>
			<polygon class="st15" points="79.3,11.6 79,11.7 78.9,11.7 78.9,11.9 79,11.9 79.3,12 			"/>
			<path class="st15" d="M79.3,11.6c0.1,0,0.1,0.1,0.1,0.1v0.1v0.1c0,0.1-0.1,0.1-0.1,0.1l0,0l0.1-0.1c0,0,0,0,0-0.1v-0.1
				C79.4,11.7,79.3,11.7,79.3,11.6L79.3,11.6z"/>
			<path class="st15" d="M79.3,11.7L79.3,11.7L79.3,11.7c0.1,0.1,0.1,0.1,0.1,0.1v0.1l0,0l0,0l0,0c0,0,0,0,0-0.1
				C79.4,11.8,79.3,11.8,79.3,11.7L79.3,11.7L79.3,11.7L79.3,11.7z"/>
		</g>
		<text transform="matrix(0.9344 0 0 1 77.1629 12.0001)" class="st15 st17 st18">0:00/2:56</text>
		<polygon class="st15" points="76.6,11.6 76.9,11.8 76.6,12 		"/>
	</g>
</g>
</svg>
