<?xml version="1.0" encoding="utf-8"?>
<!-- Generator: Adobe Illustrator 21.0.2, SVG Export Plug-In . SVG Version: 6.00 Build 0)  -->
<svg version="1.1" id="Camada_1" xmlns="http://www.w3.org/2000/svg" xmlns:xlink="http://www.w3.org/1999/xlink" x="0px" y="0px"
	 viewBox="0 0 107.8 23.1" style="enable-background:new 0 0 107.8 23.1;" xml:space="preserve">
<style type="text/css">
	.st0{fill:url(#SVGID_1_);}
	.st1{fill:url(#SVGID_2_);}
	.st2{fill:url(#SVGID_3_);}
	.st3{fill:url(#SVGID_4_);}
	.st4{opacity:0.33;fill:url(#SVGID_5_);enable-background:new    ;}
	.st5{fill:url(#SVGID_6_);}
	.st6{fill:url(#SVGID_7_);}
	.st7{fill:url(#SVGID_8_);}
	.st8{fill:url(#SVGID_9_);}
	.st9{fill:url(#SVGID_10_);}
	.st10{fill:url(#SVGID_11_);}
	.st11{fill:#272425;}
	.st12{fill:url(#SVGID_12_);}
	.st13{fill:#9DC44D;}
	.st14{fill:#FFFFFF;}
	.st15{fill:none;stroke:#FFFFFF;stroke-width:0.9427;}
	.st16{fill:#DFF8A0;}
	.st17{fill:#4E4E4E;}
	.st18{fill:#B64858;}
	.st19{fill:#666666;}
	.st20{fill:#979797;}
	.st21{opacity:0.3;fill:#FFFFFF;enable-background:new    ;}
	.st22{opacity:0.33;fill:url(#SVGID_13_);enable-background:new    ;}
	.st23{fill:#616767;}
	.st24{fill:url(#SVGID_14_);}
	.st25{fill:url(#SVGID_15_);}
	.st26{fill:url(#SVGID_16_);}
	.st27{fill:url(#SVGID_17_);}
	.st28{fill:url(#SVGID_18_);}
	.st29{fill:none;stroke:#FFFFFF;stroke-width:0.6041;}
	.st30{opacity:0.33;fill:url(#SVGID_19_);enable-background:new    ;}
	.st31{fill:none;stroke:#FFFFFF;stroke-width:0.7313;}
	.st32{opacity:0.33;fill:url(#SVGID_20_);enable-background:new    ;}
	.st33{fill:none;stroke:#FFFFFF;stroke-width:0.4818;}
</style>
<g>
	
		<radialGradient id="SVGID_1_" cx="-38.9193" cy="7656.5737" r="2.0468" gradientTransform="matrix(1.0468 0 0 8.930000e-02 53.1832 -664.6387)" gradientUnits="userSpaceOnUse">
		<stop  offset="0" style="stop-color:#FFFFFF"/>
		<stop  offset="1" style="stop-color:#1A1A13"/>
	</radialGradient>
	<ellipse class="st0" cx="12.4" cy="19.1" rx="2.1" ry="0.1"/>
</g>
<g>
	
		<radialGradient id="SVGID_2_" cx="36.811" cy="6566.3843" r="3.9295" gradientTransform="matrix(1 0 0 0.1002 0 -645.9046)" gradientUnits="userSpaceOnUse">
		<stop  offset="0" style="stop-color:#FFFFFF"/>
		<stop  offset="1" style="stop-color:#1A1A13"/>
	</radialGradient>
	<ellipse class="st1" cx="36.8" cy="12.1" rx="3.9" ry="0.4"/>
</g>
<g>
	
		<radialGradient id="SVGID_3_" cx="-710.2312" cy="6642.5947" r="3.6128" gradientTransform="matrix(2.4814 0 0 0.106 1793.9454 -684.6989)" gradientUnits="userSpaceOnUse">
		<stop  offset="0" style="stop-color:#FFFFFF"/>
		<stop  offset="1" style="stop-color:#1A1A13"/>
	</radialGradient>
	<ellipse class="st2" cx="31.6" cy="19.4" rx="8.9" ry="0.4"/>
</g>
<g>
	
		<radialGradient id="SVGID_4_" cx="21.3836" cy="7659.1826" r="4.807" gradientTransform="matrix(1 0 0 8.930000e-02 0 -664.6387)" gradientUnits="userSpaceOnUse">
		<stop  offset="0" style="stop-color:#FFFFFF"/>
		<stop  offset="1" style="stop-color:#1A1A13"/>
	</radialGradient>
	<ellipse class="st3" cx="21.4" cy="19.3" rx="4.8" ry="0.4"/>
</g>
<g>
	<g>
		<g>
			
				<linearGradient id="SVGID_5_" gradientUnits="userSpaceOnUse" x1="21.3698" y1="759.7541" x2="21.3673" y2="758.9045" gradientTransform="matrix(1 0 0 1 0 -740)">
				<stop  offset="0" style="stop-color:#4D4949"/>
				<stop  offset="0.3539" style="stop-color:#1A1A13"/>
				<stop  offset="1" style="stop-color:#1A1A13"/>
			</linearGradient>
			<ellipse class="st4" cx="21.4" cy="19.3" rx="4.8" ry="0.4"/>
			<g>
				
					<linearGradient id="SVGID_6_" gradientUnits="userSpaceOnUse" x1="18.4411" y1="758.8437" x2="24.4727" y2="758.8437" gradientTransform="matrix(1 0 0 1 0 -740)">
					<stop  offset="6.060610e-03" style="stop-color:#59595B"/>
					<stop  offset="0.2719" style="stop-color:#737477"/>
					<stop  offset="0.5091" style="stop-color:#86878B"/>
					<stop  offset="1" style="stop-color:#59595B"/>
				</linearGradient>
				<path class="st5" d="M18.5,18.7L18.5,18.7L18.5,18.7L18.5,18.7c0,0.1,0.1,0.2,0.6,0.2c0.9,0,1.9,0,2.2,0c0.1,0,0.1,0,0.1,0
					c0.4,0,1.4,0,2.2,0c0.5,0,0.7,0,0.7-0.2h0l0,0H18.5z"/>
				
					<linearGradient id="SVGID_7_" gradientUnits="userSpaceOnUse" x1="21.3791" y1="756.6153" x2="21.3791" y2="759.2319" gradientTransform="matrix(1 0 0 1 0 -740)">
					<stop  offset="8.484850e-02" style="stop-color:#6D6F72"/>
					<stop  offset="0.1257" style="stop-color:#959799"/>
					<stop  offset="0.1837" style="stop-color:#CACBCC"/>
					<stop  offset="0.2121" style="stop-color:#DEDFE0"/>
					<stop  offset="0.3152" style="stop-color:#A5A6A9"/>
					<stop  offset="0.3923" style="stop-color:#848486"/>
					<stop  offset="0.4606" style="stop-color:#636363"/>
					<stop  offset="0.5286" style="stop-color:#6E6F6F"/>
					<stop  offset="0.6514" style="stop-color:#8C8D8F"/>
					<stop  offset="0.7394" style="stop-color:#A5A7AA"/>
				</linearGradient>
				<path class="st6" d="M23.8,18.1c-0.4-0.4-0.4-1.4-0.4-1.4h-1.9h-0.1h-1.9c0,0,0,0.9-0.4,1.4c-0.4,0.4-1.1,0.8,0,0.8
					c0.9,0,1.9,0,2.2,0c0.1,0,0.1,0,0.1,0c0.4,0,1.4,0,2.2,0C24.8,19,24.2,18.6,23.8,18.1z"/>
				
					<radialGradient id="SVGID_8_" cx="24.2708" cy="759.9554" r="2.2626" gradientTransform="matrix(1 0 0 1 0 -740)" gradientUnits="userSpaceOnUse">
					<stop  offset="0" style="stop-color:#FFFFFF"/>
					<stop  offset="1" style="stop-color:#FFFFFF;stop-opacity:0"/>
				</radialGradient>
				<path class="st7" d="M21.8,19c0.2-0.5,1-0.9,1.9-1c0,0,0.1,0.1,0.1,0.2c0.4,0.4,1,0.8,0,0.8H21.8z"/>
				
					<radialGradient id="SVGID_9_" cx="-2355.6348" cy="759.9554" r="2.2626" gradientTransform="matrix(-1 0 0 1 -2337.0742 -740)" gradientUnits="userSpaceOnUse">
					<stop  offset="0" style="stop-color:#FFFFFF"/>
					<stop  offset="1" style="stop-color:#FFFFFF;stop-opacity:0"/>
				</radialGradient>
				<path class="st8" d="M21.1,19c-0.2-0.5-1-0.9-1.9-1c0,0-0.1,0.1-0.1,0.2c-0.4,0.4-1,0.8,0,0.8H21.1z"/>
				
					<linearGradient id="SVGID_10_" gradientUnits="userSpaceOnUse" x1="19.036" y1="758.8808" x2="23.7449" y2="758.8808" gradientTransform="matrix(1 0 0 1 0 -740)">
					<stop  offset="6.060610e-03" style="stop-color:#FFFFFF;stop-opacity:0"/>
					<stop  offset="0.5091" style="stop-color:#FFFFFF"/>
					<stop  offset="1" style="stop-color:#FFFFFF;stop-opacity:0"/>
				</linearGradient>
				<path class="st9" d="M19,18.9c0.4,0,0.8,0,1.2,0h1.2h1.2h0.6h0.6h-0.6h-0.6h-1.2h-1.2C19.8,18.9,19.4,18.9,19,18.9z"/>
				
					<linearGradient id="SVGID_11_" gradientUnits="userSpaceOnUse" x1="11.428" y1="756.5263" x2="32.271" y2="755.1601" gradientTransform="matrix(1 0 0 1 0 -740)">
					<stop  offset="0" style="stop-color:#77787C"/>
					<stop  offset="0.3358" style="stop-color:#727377"/>
					<stop  offset="0.4909" style="stop-color:#6D6F72"/>
					<stop  offset="1" style="stop-color:#6D6F72"/>
				</linearGradient>
				<path class="st10" d="M11.8,16.2c0,0.3,0.3,0.6,0.6,0.6h8.8h0.3h8.8c0.3,0,0.6-0.3,0.6-0.6V15H11.8V16.2z"/>
				<path class="st11" d="M30.4,3.7h-8.9h-0.3h-8.8c-0.3,0-0.6,0.1-0.6,0.5V15h19.2V4.1C30.9,3.9,30.6,3.7,30.4,3.7z M30.1,14.2
					H12.6V4.4h17.5L30.1,14.2L30.1,14.2z"/>
				
					<linearGradient id="SVGID_12_" gradientUnits="userSpaceOnUse" x1="11.4334" y1="756.5443" x2="32.2719" y2="755.1783" gradientTransform="matrix(1 0 0 1 0 -740)">
					<stop  offset="0" style="stop-color:#87888C"/>
					<stop  offset="4.993153e-02" style="stop-color:#8E8F93"/>
					<stop  offset="0.3137" style="stop-color:#AFB0B4"/>
					<stop  offset="0.5663" style="stop-color:#C7C8CB"/>
					<stop  offset="0.801" style="stop-color:#D5D6D9"/>
					<stop  offset="1" style="stop-color:#DADBDE"/>
				</linearGradient>
				<path class="st12" d="M11.8,16.1c0,0.3,0.3,0.7,0.6,0.7h8.8h0.3h8.8c0.3,0,0.6-0.4,0.6-0.7v-1H11.8V16.1z"/>
			</g>
		</g>
		<rect x="12.5" y="5.5" class="st13" width="17.5" height="3.3"/>
		<g>
			<circle class="st14" cx="15.3" cy="7.1" r="1"/>
			<circle class="st15" cx="15.4" cy="7.1" r="1.2"/>
			<g>
				<path class="st13" d="M15.5,7.8c-0.1-0.3-0.1-0.6,0-0.9C15.3,7.1,15.3,7.5,15.5,7.8L15.5,7.8z"/>
				<path class="st13" d="M15.4,7.2c0.1,0,0.3,0,0.4-0.2C16,6.9,16,6.7,16.1,6.5c-0.1,0.1-0.3,0-0.5,0c-0.2,0-0.3,0.3-0.3,0.5
					c0-0.2,0.3-0.3,0.4-0.3C15.6,6.9,15.4,7,15.4,7.2L15.4,7.2z"/>
				<path class="st13" d="M15.2,7.9c0.1-0.3,0-0.5-0.1-0.7C15.3,7.3,15.4,7.6,15.2,7.9L15.2,7.9z"/>
				<path class="st13" d="M15.2,7.4c-0.1,0-0.3,0-0.4-0.1c-0.1-0.1-0.1-0.2-0.3-0.3c0.1,0.1,0.2,0,0.4,0s0.2,0.1,0.3,0.3
					c0-0.1-0.2-0.2-0.4-0.2C15,7.1,15.2,7.3,15.2,7.4L15.2,7.4z"/>
			</g>
		</g>
		<g>
			<rect x="18.3" y="6.2" class="st14" width="1.5" height="0.5"/>
			<rect x="20" y="6.2" class="st14" width="9.1" height="0.5"/>
		</g>
		<rect x="18.3" y="7.1" class="st16" width="10.8" height="0.1"/>
		<rect x="18.3" y="7.7" class="st16" width="10.8" height="0.1"/>
		<rect x="15.8" y="9.2" class="st17" width="2.3" height="4.6"/>
		<rect x="13.1" y="9.2" class="st17" width="2.3" height="4.6"/>
		<rect x="18.7" y="9.5" class="st18" width="3.5" height="2.1"/>
		<rect x="22.4" y="9.5" class="st13" width="3.5" height="2.1"/>
		<rect x="26.2" y="9.5" class="st18" width="3.5" height="2.1"/>
		<g>
			<rect x="18.7" y="11.8" class="st19" width="3.5" height="0.1"/>
			<rect x="18.7" y="12" class="st20" width="2.3" height="0.1"/>
			<rect x="18.7" y="12.3" class="st20" width="2.8" height="0.1"/>
		</g>
		<g>
			<rect x="22.4" y="12" class="st20" width="3" height="0.1"/>
			<rect x="22.4" y="12.3" class="st20" width="2.3" height="0.1"/>
			<rect x="22.4" y="11.8" class="st19" width="3.5" height="0.1"/>
		</g>
		<g>
			<rect x="26.2" y="12" class="st20" width="2.3" height="0.1"/>
			<rect x="26.2" y="12.3" class="st20" width="2.7" height="0.1"/>
			<rect x="26.2" y="11.8" class="st19" width="3.5" height="0.1"/>
		</g>
		<rect x="18.7" y="12.7" class="st20" width="2.3" height="0.1"/>
		<rect x="18.7" y="12.9" class="st20" width="3.4" height="0.1"/>
		<rect x="18.7" y="13.4" class="st20" width="3.4" height="0.1"/>
		<rect x="18.7" y="13.6" class="st20" width="2.3" height="0.1"/>
		<rect x="18.7" y="13.8" class="st20" width="3.4" height="0.1"/>
		<rect x="22.4" y="12.7" class="st20" width="2.3" height="0.1"/>
		<rect x="22.4" y="12.9" class="st20" width="3.4" height="0.1"/>
		<rect x="22.4" y="13.4" class="st20" width="3.4" height="0.1"/>
		<rect x="22.4" y="13.6" class="st20" width="2.3" height="0.1"/>
		<rect x="22.4" y="13.8" class="st20" width="3.4" height="0.1"/>
		<rect x="26.2" y="12.8" class="st20" width="2.3" height="0.1"/>
		<rect x="26.2" y="13" class="st20" width="3.3" height="0.1"/>
		<rect x="26.2" y="13.4" class="st20" width="3.3" height="0.1"/>
		<rect x="26.2" y="13.6" class="st20" width="2.3" height="0.1"/>
		<rect x="26.2" y="13.9" class="st20" width="3.3" height="0.1"/>
		<polygon class="st21" points="12.6,4.4 30.1,4.4 30.1,14.2 		"/>
	</g>
</g>
<g>
	<g>
		
			<linearGradient id="SVGID_13_" gradientUnits="userSpaceOnUse" x1="31.5788" y1="759.7983" x2="31.5766" y2="759.0396" gradientTransform="matrix(1 0 0 1 0 -740)">
			<stop  offset="0" style="stop-color:#4D4949"/>
			<stop  offset="0.3539" style="stop-color:#1A1A13"/>
			<stop  offset="1" style="stop-color:#1A1A13"/>
		</linearGradient>
		<ellipse class="st22" cx="31.6" cy="19.4" rx="8.9" ry="0.4"/>
		<path d="M37.6,18.1c0,0.2-0.1,0.4-0.3,0.4H25.8c-0.1,0-0.3-0.1-0.3-0.4v-7.4c0-0.2,0.1-0.4,0.3-0.4h11.5c0.1,0,0.3,0.1,0.3,0.4
			V18.1z"/>
		<rect x="26" y="10.8" class="st14" width="11.2" height="6.9"/>
		<g>
			<g>
				<path class="st23" d="M23.4,18.6c0,0-0.1,0.1,0.6,0.3h15c0,0,0.5,0,0.7-0.3v-0.1L23.4,18.6z"/>
				
					<linearGradient id="SVGID_14_" gradientUnits="userSpaceOnUse" x1="23.4475" y1="758.4956" x2="39.6709" y2="758.4956" gradientTransform="matrix(1 0 0 1 0 -740)">
					<stop  offset="0" style="stop-color:#979A9A"/>
					<stop  offset="9.591109e-04" style="stop-color:#A3A5A6"/>
					<stop  offset="3.722234e-03" style="stop-color:#C0C1C2"/>
					<stop  offset="6.672361e-03" style="stop-color:#D7D7D9"/>
					<stop  offset="9.857776e-03" style="stop-color:#E7E6E9"/>
					<stop  offset="1.344703e-02" style="stop-color:#F0EFF2"/>
					<stop  offset="1.829270e-02" style="stop-color:#F3F2F5"/>
					<stop  offset="4.878050e-02" style="stop-color:#DEDFE1"/>
					<stop  offset="0.189" style="stop-color:#CFCFCF"/>
					<stop  offset="0.5061" style="stop-color:#E2E3E5"/>
					<stop  offset="0.872" style="stop-color:#CFCFCF"/>
					<stop  offset="0.9512" style="stop-color:#DEDFE1"/>
					<stop  offset="0.9878" style="stop-color:#F3F2F5"/>
					<stop  offset="1" style="stop-color:#979A9A"/>
				</linearGradient>
				<path class="st24" d="M23.4,18.2h16.2v0.4c0,0,0,0-0.1,0H23.6c0,0-0.1,0-0.1,0L23.4,18.2L23.4,18.2z"/>
				<path class="st23" d="M38.9,18.5C38.9,18.5,38.9,18.5,38.9,18.5l-0.6,0c0,0,0,0,0,0l0,0v0L38.9,18.5L38.9,18.5L38.9,18.5z"/>
			</g>
			
				<linearGradient id="SVGID_15_" gradientUnits="userSpaceOnUse" x1="31.5467" y1="758.4491" x2="31.5467" y2="758.2191" gradientTransform="matrix(1 0 0 1 0 -740)">
				<stop  offset="0.3415" style="stop-color:#686B6C"/>
				<stop  offset="0.357" style="stop-color:#6F7273"/>
				<stop  offset="0.4542" style="stop-color:#97999A"/>
				<stop  offset="0.55" style="stop-color:#B6B7B9"/>
				<stop  offset="0.6429" style="stop-color:#CCCDCF"/>
				<stop  offset="0.7314" style="stop-color:#D9DBDC"/>
				<stop  offset="0.811" style="stop-color:#DEDFE1"/>
				<stop  offset="0.9817" style="stop-color:#E2E3E5"/>
			</linearGradient>
			<path class="st25" d="M30.5,18.2c0,0,0,0.2,0.1,0.2h1.9c0,0,0.2,0,0.1-0.2H30.5z"/>
			<g>
				
					<linearGradient id="SVGID_16_" gradientUnits="userSpaceOnUse" x1="30.5176" y1="758.4289" x2="30.5176" y2="758.2139" gradientTransform="matrix(1 0 0 1 0 -740)">
					<stop  offset="2.439020e-02" style="stop-color:#616767"/>
					<stop  offset="0.4756" style="stop-color:#686B6C"/>
					<stop  offset="0.5035" style="stop-color:#6F7273"/>
					<stop  offset="0.6127" style="stop-color:#858888"/>
					<stop  offset="0.7171" style="stop-color:#929596"/>
					<stop  offset="0.811" style="stop-color:#979A9A"/>
				</linearGradient>
				<path class="st26" d="M30.5,18.2L30.5,18.2L30.5,18.2L30.5,18.2c0,0,0,0.1,0.1,0.2C30.5,18.4,30.5,18.2,30.5,18.2z"/>
				
					<linearGradient id="SVGID_17_" gradientUnits="userSpaceOnUse" x1="31.652" y1="758.4394" x2="31.652" y2="758.2255" gradientTransform="matrix(1 0 0 1 0 -740)">
					<stop  offset="2.439020e-02" style="stop-color:#616767"/>
					<stop  offset="0.4756" style="stop-color:#686B6C"/>
					<stop  offset="0.5035" style="stop-color:#6F7273"/>
					<stop  offset="0.6127" style="stop-color:#858888"/>
					<stop  offset="0.7171" style="stop-color:#929596"/>
					<stop  offset="0.811" style="stop-color:#979A9A"/>
				</linearGradient>
				<path class="st27" d="M32.7,18.2L32.7,18.2L32.7,18.2c0,0.2-0.2,0.2-0.2,0.2h-1.9l0,0h0h1.9C32.5,18.5,32.7,18.5,32.7,18.2z"/>
				
					<linearGradient id="SVGID_18_" gradientUnits="userSpaceOnUse" x1="32.6172" y1="758.2497" x2="32.6172" y2="758.2497" gradientTransform="matrix(1 0 0 1 0 -740)">
					<stop  offset="2.439020e-02" style="stop-color:#616767"/>
					<stop  offset="0.4756" style="stop-color:#686B6C"/>
					<stop  offset="0.5035" style="stop-color:#6F7273"/>
					<stop  offset="0.6127" style="stop-color:#858888"/>
					<stop  offset="0.7171" style="stop-color:#929596"/>
					<stop  offset="0.811" style="stop-color:#979A9A"/>
				</linearGradient>
				<path class="st28" d="M32.6,18.2L32.6,18.2L32.6,18.2z"/>
			</g>
		</g>
	</g>
	<rect x="26" y="11.3" class="st13" width="11.1" height="2.1"/>
	<g>
		<circle class="st14" cx="27.8" cy="12.4" r="0.7"/>
		<circle class="st29" cx="27.8" cy="12.4" r="0.8"/>
		<g>
			<path class="st13" d="M27.8,12.8c-0.1-0.2-0.1-0.4,0-0.6C27.7,12.4,27.7,12.6,27.8,12.8L27.8,12.8z"/>
			<path class="st13" d="M27.8,12.5c0.1,0,0.2,0,0.3-0.1c0-0.1,0-0.2,0.1-0.3c-0.1,0.1-0.2,0-0.3,0S27.7,12.2,27.8,12.5
				c0-0.2,0.1-0.3,0.2-0.3C27.9,12.2,27.8,12.3,27.8,12.5L27.8,12.5z"/>
			<path class="st13" d="M27.7,12.8c0-0.1,0-0.3-0.1-0.4C27.7,12.5,27.8,12.7,27.7,12.8L27.7,12.8z"/>
			<path class="st13" d="M27.7,12.6c-0.1,0-0.1,0-0.2,0c0,0-0.1-0.1-0.1-0.2c0.1,0,0.1,0,0.3,0C27.7,12.3,27.7,12.4,27.7,12.6
				c0-0.1-0.1-0.2-0.2-0.1C27.6,12.4,27.7,12.5,27.7,12.6L27.7,12.6z"/>
		</g>
	</g>
	<g>
		<rect x="29.6" y="11.8" class="st14" width="1" height="0.3"/>
		<rect x="30.8" y="11.8" class="st14" width="5.8" height="0.3"/>
	</g>
	<rect x="29.6" y="12.4" class="st16" width="6.9" height="0"/>
	<rect x="29.6" y="12.8" class="st16" width="6.9" height="0.1"/>
	<rect x="26.2" y="13.7" class="st17" width="1.5" height="2.9"/>
	<rect x="28" y="13.7" class="st17" width="1.5" height="2.9"/>
	<rect x="29.9" y="13.8" class="st18" width="2.3" height="1.4"/>
	<rect x="32.3" y="13.8" class="st13" width="2.2" height="1.4"/>
	<rect x="34.7" y="13.8" class="st18" width="2.2" height="1.4"/>
	<g>
		<rect x="29.9" y="15.4" class="st19" width="2.3" height="0.1"/>
		<rect x="29.9" y="15.6" class="st20" width="1.6" height="0.1"/>
		<rect x="29.9" y="15.7" class="st20" width="1.7" height="0.1"/>
	</g>
	<g>
		<rect x="32.3" y="15.6" class="st20" width="1.9" height="0.1"/>
		<rect x="32.3" y="15.7" class="st20" width="1.5" height="0.1"/>
		<rect x="32.3" y="15.4" class="st19" width="2.2" height="0.1"/>
	</g>
	<g>
		<rect x="34.7" y="15.6" class="st20" width="1.5" height="0.1"/>
		<rect x="34.7" y="15.7" class="st20" width="1.7" height="0.1"/>
		<rect x="34.7" y="15.4" class="st19" width="2.2" height="0.1"/>
	</g>
	<rect x="29.9" y="15.9" class="st20" width="1.6" height="0"/>
	<rect x="29.9" y="16.1" class="st20" width="2.2" height="0"/>
	<g>
		<rect x="29.9" y="16.8" class="st19" width="2.3" height="0.1"/>
		<rect x="29.9" y="17" class="st20" width="1.6" height="0.1"/>
		<rect x="29.9" y="17.1" class="st20" width="1.7" height="0.1"/>
	</g>
	<rect x="29.9" y="17.4" class="st20" width="1.6" height="0"/>
	<rect x="29.9" y="17.6" class="st20" width="2.2" height="0"/>
	<g>
		<rect x="32.3" y="16.8" class="st19" width="2.2" height="0.1"/>
		<rect x="32.3" y="17" class="st20" width="1.5" height="0.1"/>
		<rect x="32.3" y="17.1" class="st20" width="1.7" height="0.1"/>
	</g>
	<rect x="32.3" y="17.4" class="st20" width="1.5" height="0"/>
	<rect x="32.3" y="17.6" class="st20" width="2.1" height="0"/>
	<g>
		<rect x="34.7" y="16.8" class="st19" width="2.2" height="0.1"/>
		<rect x="34.7" y="17" class="st20" width="1.5" height="0.1"/>
		<rect x="34.7" y="17.1" class="st20" width="1.7" height="0.1"/>
	</g>
	<rect x="34.7" y="17.4" class="st20" width="1.5" height="0"/>
	<rect x="34.7" y="17.6" class="st20" width="2.1" height="0"/>
	<rect x="29.9" y="16.4" class="st20" width="2.2" height="0.1"/>
	<polygon class="st20" points="31.4,16.6 29.9,16.6 29.9,16.6 	"/>
	<rect x="29.9" y="16.7" class="st20" width="2.2" height="0"/>
	<rect x="32.3" y="15.9" class="st20" width="1.5" height="0"/>
	<rect x="32.3" y="16.1" class="st20" width="2.1" height="0"/>
	<rect x="32.3" y="16.4" class="st20" width="2.1" height="0.1"/>
	<rect x="34.7" y="16.4" class="st20" width="2.1" height="0.1"/>
	<polygon class="st20" points="33.8,16.6 32.3,16.6 32.3,16.6 	"/>
	<rect x="32.3" y="16.7" class="st20" width="2.1" height="0"/>
	<rect x="34.7" y="16" class="st20" width="1.5" height="0.1"/>
	<rect x="34.7" y="16.1" class="st20" width="2.2" height="0"/>
	<rect x="34.7" y="16.7" class="st20" width="2.2" height="0"/>
	<polygon class="st21" points="25.9,10.7 37.1,10.7 37.1,17.1 	"/>
	<rect x="26.2" y="16.8" class="st18" width="3.3" height="0.8"/>
</g>
<g>
	<rect x="34" y="3.3" class="st14" width="5.7" height="7.5"/>
	<g>
		<path class="st11" d="M40.3,2.9c0-0.2-0.1-0.4-0.4-0.4h-6.3c-0.2,0-0.4,0.1-0.4,0.4v8.4c0,0.2,0.1,0.4,0.4,0.4h6.3
			c0.2,0,0.4-0.1,0.4-0.4L40.3,2.9L40.3,2.9z M39.6,10.9H34V3.3h5.6L39.6,10.9L39.6,10.9z"/>
		
			<linearGradient id="SVGID_19_" gradientUnits="userSpaceOnUse" x1="36.8504" y1="752.4397" x2="36.8482" y2="751.6598" gradientTransform="matrix(1 0 0 1 0 -740)">
			<stop  offset="0" style="stop-color:#4D4949"/>
			<stop  offset="0.3539" style="stop-color:#1A1A13"/>
			<stop  offset="1" style="stop-color:#1A1A13"/>
		</linearGradient>
		<ellipse class="st30" cx="36.8" cy="12.1" rx="3.9" ry="0.4"/>
	</g>
	<g>
		<rect x="34.1" y="3.9" class="st13" width="5.6" height="2.7"/>
		<g>
			<ellipse class="st14" cx="35.1" cy="5.1" rx="0.8" ry="0.8"/>
			<ellipse class="st31" cx="35.1" cy="5.1" rx="0.9" ry="0.9"/>
			<g>
				<path class="st13" d="M35.3,5.6c-0.1-0.2-0.1-0.4,0-0.7C35.1,5.1,35,5.4,35.3,5.6L35.3,5.6z"/>
				<path class="st13" d="M35.2,5.2c0.1,0,0.3,0,0.3-0.1c0.1-0.1,0.1-0.3,0.2-0.4c-0.1,0.1-0.2,0-0.4,0c-0.1,0-0.2,0.2-0.2,0.4
					c0-0.1,0.1-0.3,0.3-0.3C35.3,4.9,35.2,5,35.2,5.2L35.2,5.2z"/>
				<path class="st13" d="M35,5.7c0-0.2,0-0.4-0.1-0.6C35.1,5.3,35.1,5.5,35,5.7L35,5.7z"/>
				<path class="st13" d="M35,5.3c-0.1,0-0.2,0-0.3,0S34.7,5.1,34.5,5c0.1,0.1,0.1,0,0.3,0C34.9,5,35,5.1,35,5.3
					c0-0.1-0.1-0.2-0.3-0.2C34.9,5.1,35,5.2,35,5.3L35,5.3z"/>
			</g>
		</g>
		<g>
			<rect x="36.5" y="4.6" class="st14" width="0.3" height="0.3"/>
			<rect x="37" y="4.6" class="st14" width="2" height="0.3"/>
		</g>
		<polygon class="st16" points="38.9,5.3 36.4,5.3 36.4,5.3 		"/>
		<rect x="36.5" y="5.5" class="st16" width="2.5" height="0.1"/>
	</g>
	<rect x="34.3" y="6.9" class="st18" width="2.3" height="1.5"/>
	<rect x="34.3" y="9.7" class="st18" width="2.3" height="1.2"/>
	<g>
		<rect x="34.3" y="8.5" class="st19" width="2.3" height="0.1"/>
		<rect x="34.3" y="8.8" class="st20" width="1.6" height="0.1"/>
		<rect x="34.3" y="9" class="st20" width="1.9" height="0.1"/>
	</g>
	<rect x="34.3" y="9.2" class="st20" width="1.6" height="0.1"/>
	<rect x="34.3" y="9.4" class="st20" width="2.3" height="0"/>
	<polygon class="st20" points="36,9.9 34.3,9.9 34.3,9.9 	"/>
	<rect x="37" y="6.9" class="st13" width="2.3" height="1.5"/>
	<g>
		<rect x="37" y="8.9" class="st20" width="2" height="0.1"/>
		<rect x="37" y="9" class="st20" width="1.6" height="0.1"/>
		<rect x="37" y="8.7" class="st19" width="2.3" height="0.1"/>
	</g>
	<rect x="37" y="9.3" class="st20" width="1.6" height="0.1"/>
	<rect x="37" y="9.5" class="st20" width="2.3" height="0"/>
	<rect x="37" y="9.7" class="st20" width="2.3" height="0.2"/>
	<polygon class="st20" points="38.5,10 36.9,10 36.9,10 	"/>
	<rect x="37" y="10" class="st20" width="2.3" height="0"/>
	<g>
		<rect x="37" y="10.6" class="st20" width="2" height="0.1"/>
		<rect x="37" y="10.7" class="st20" width="1.6" height="0.1"/>
		<rect x="37" y="10.4" class="st19" width="2.3" height="0.1"/>
	</g>
	<polygon class="st21" points="39.6,10.9 39.6,3.3 35.3,3.3 	"/>
</g>
<g>
	<rect x="11.2" y="13.4" class="st14" width="2.5" height="4.6"/>
	<g>
		
			<linearGradient id="SVGID_20_" gradientUnits="userSpaceOnUse" x1="12.422" y1="759.2756" x2="12.421" y2="758.9135" gradientTransform="matrix(1 0 0 1 0 -740)">
			<stop  offset="0" style="stop-color:#4D4949"/>
			<stop  offset="0.3539" style="stop-color:#1A1A13"/>
			<stop  offset="1" style="stop-color:#1A1A13"/>
		</linearGradient>
		<ellipse class="st32" cx="12.4" cy="19.1" rx="2.1" ry="0.1"/>
		<path class="st11" d="M13.9,12.9c0-0.2-0.2-0.4-0.4-0.4h-2.2c-0.2,0-0.4,0.2-0.4,0.4v5.5c0,0.2,0.2,0.4,0.4,0.4h2.2
			c0.2,0,0.4-0.2,0.4-0.4L13.9,12.9L13.9,12.9z M12.8,13.1C12.8,13.1,12.7,13.1,12.8,13.1l-0.5,0c0,0,0,0,0,0l0,0c0,0,0,0,0,0
			L12.8,13.1C12.8,13,12.8,13,12.8,13.1L12.8,13.1z M13.8,18h-2.6v-4.6h2.6V18z"/>
	</g>
	<g>
		<rect x="11.2" y="13.8" class="st13" width="2.5" height="1.7"/>
		<g>
			<ellipse class="st14" cx="11.9" cy="14.6" rx="0.5" ry="0.6"/>
			<ellipse class="st33" cx="12" cy="14.6" rx="0.6" ry="0.6"/>
			<g>
				<path class="st13" d="M12.1,14.9c-0.1-0.1-0.1-0.3,0-0.5C11.9,14.6,11.9,14.8,12.1,14.9L12.1,14.9z"/>
				<path class="st13" d="M12,14.7c0,0,0.1,0,0.2-0.1c0,0,0-0.1,0.1-0.3c0,0.1-0.1,0-0.3,0C11.9,14.4,11.9,14.5,12,14.7
					c-0.1-0.2,0-0.2,0.1-0.2C12.1,14.5,12,14.6,12,14.7L12,14.7z"/>
				<path class="st13" d="M11.9,15c0-0.1,0-0.3,0-0.4C11.9,14.8,12,14.9,11.9,15L11.9,15z"/>
				<path class="st13" d="M11.9,14.8c0,0-0.1,0-0.1,0c-0.1-0.1-0.1-0.1-0.1-0.2c0,0,0.1,0,0.2,0C11.9,14.5,11.9,14.6,11.9,14.8
					c0-0.1,0-0.2-0.1-0.2C11.8,14.6,11.9,14.7,11.9,14.8L11.9,14.8z"/>
			</g>
		</g>
	</g>
	<rect x="11.4" y="15.7" class="st18" width="2.2" height="1.3"/>
	<g>
		<rect x="11.4" y="17.1" class="st19" width="2.2" height="0.1"/>
		<rect x="11.4" y="17.4" class="st20" width="1.5" height="0"/>
		<rect x="11.4" y="17.5" class="st20" width="1.7" height="0.1"/>
	</g>
	<rect x="11.4" y="17.7" class="st20" width="1.5" height="0"/>
	<polygon class="st20" points="13.5,17.8 11.4,17.8 11.4,17.8 	"/>
	<g>
		<rect x="12.7" y="14.4" class="st14" width="0.9" height="0.1"/>
		<rect x="12.7" y="14.6" class="st14" width="0.6" height="0"/>
		<rect x="12.7" y="14.8" class="st14" width="0.7" height="0.1"/>
	</g>
	<polygon class="st21" points="13.8,18 13.8,13.4 11.2,13.4 	"/>
</g>
</svg>
