<?xml version="1.0" encoding="utf-8"?>
<!-- Generator: Adobe Illustrator 21.0.2, SVG Export Plug-In . SVG Version: 6.00 Build 0)  -->
<svg version="1.1" id="Camada_1" xmlns="http://www.w3.org/2000/svg" xmlns:xlink="http://www.w3.org/1999/xlink" x="0px" y="0px"
	 viewBox="0 0 107.8 23.1" style="enable-background:new 0 0 107.8 23.1;" xml:space="preserve">
<style type="text/css">
	.st0{fill:url(#SVGID_1_);}
	.st1{fill:url(#SVGID_2_);}
	.st2{fill:url(#SVGID_3_);}
	.st3{fill:url(#SVGID_4_);}
	.st4{fill:url(#SVGID_5_);}
	.st5{fill:url(#SVGID_6_);}
	.st6{font-family:'ArialMT';}
	.st7{font-size:0.6816px;}
	.st8{opacity:0.51;fill:#231F20;enable-background:new    ;}
	.st9{opacity:0.5;fill:#231F20;enable-background:new    ;}
	.st10{fill:#FFFFFF;}
	.st11{fill:#003D72;}
	.st12{fill:#FF7406;}
	.st13{font-family:'Stencil';}
	.st14{font-size:1.5767px;}
	.st15{font-family:'Sylfaen';}
	.st16{font-size:1.037px;}
</style>
<g>
	
		<linearGradient id="SVGID_1_" gradientUnits="userSpaceOnUse" x1="73.3997" y1="1363.1348" x2="81.8946" y2="1357.1661" gradientTransform="matrix(1 0 0 1 0 -1346)">
		<stop  offset="0" style="stop-color:#363636"/>
		<stop  offset="6.562324e-02" style="stop-color:#323232"/>
		<stop  offset="0.1264" style="stop-color:#272727"/>
		<stop  offset="0.185" style="stop-color:#141414"/>
		<stop  offset="0.2312" style="stop-color:#000000"/>
		<stop  offset="0.2635" style="stop-color:#030303"/>
		<stop  offset="1" style="stop-color:#464646"/>
	</linearGradient>
	<path class="st0" d="M82.3,18.6c0,0.2-0.2,0.3-0.3,0.3h-5.7c-0.2,0-0.3-0.2-0.3-0.3v-11c0-0.2,0.2-0.3,0.3-0.3h5.7
		c0.2,0,0.3,0.2,0.3,0.3V18.6L82.3,18.6z"/>
	
		<linearGradient id="SVGID_2_" gradientUnits="userSpaceOnUse" x1="75.9346" y1="1363.6375" x2="83.5949" y2="1352.6454" gradientTransform="matrix(1 0 0 1 0 -1346)">
		<stop  offset="2.688200e-02" style="stop-color:#E6E6E7"/>
		<stop  offset="0.8871" style="stop-color:#FFFFFF"/>
	</linearGradient>
	<rect x="76.1" y="8.3" class="st1" width="5.9" height="9.7"/>
	
		<linearGradient id="SVGID_3_" gradientUnits="userSpaceOnUse" x1="79.2376" y1="1364.0306" x2="78.791" y2="1365.05" gradientTransform="matrix(1 0 0 1 0 -1346)">
		<stop  offset="0.2312" style="stop-color:#000000"/>
		<stop  offset="1" style="stop-color:#222222"/>
	</linearGradient>
	<path class="st2" d="M79.6,18.6c0,0.1-0.1,0.2-0.2,0.2h-0.8c-0.1,0-0.2-0.1-0.2-0.2l0,0c0-0.1,0.1-0.2,0.2-0.2h0.8
		C79.6,18.4,79.6,18.5,79.6,18.6L79.6,18.6z"/>
</g>
<g>
	
		<linearGradient id="SVGID_4_" gradientUnits="userSpaceOnUse" x1="81.2404" y1="1363.8776" x2="94.7135" y2="1354.4113" gradientTransform="matrix(1 0 0 1 0 -1346)">
		<stop  offset="0" style="stop-color:#363636"/>
		<stop  offset="6.562324e-02" style="stop-color:#323232"/>
		<stop  offset="0.1264" style="stop-color:#272727"/>
		<stop  offset="0.185" style="stop-color:#141414"/>
		<stop  offset="0.2312" style="stop-color:#000000"/>
		<stop  offset="0.2635" style="stop-color:#030303"/>
		<stop  offset="1" style="stop-color:#464646"/>
	</linearGradient>
	<path class="st3" d="M96.1,19c0,0.3-0.3,0.6-0.6,0.6H84.9c-0.3,0-0.6-0.3-0.6-0.6V4.2c0-0.3,0.3-0.6,0.6-0.6h10.6
		c0.3,0,0.6,0.3,0.6,0.6V19L96.1,19z"/>
	
		<linearGradient id="SVGID_5_" gradientUnits="userSpaceOnUse" x1="85.3591" y1="1364.4688" x2="97.2084" y2="1347.4661" gradientTransform="matrix(1 0 0 1 0 -1346)">
		<stop  offset="2.688200e-02" style="stop-color:#E6E6E7"/>
		<stop  offset="0.8871" style="stop-color:#FFFFFF"/>
	</linearGradient>
	<rect x="84.7" y="4.6" class="st4" width="11" height="13.8"/>
	
		<linearGradient id="SVGID_6_" gradientUnits="userSpaceOnUse" x1="90.4983" y1="1364.3401" x2="89.8765" y2="1365.7596" gradientTransform="matrix(1 0 0 1 0 -1346)">
		<stop  offset="0.2312" style="stop-color:#000000"/>
		<stop  offset="1" style="stop-color:#222222"/>
	</linearGradient>
	<path class="st5" d="M91,19.1c0,0.1-0.1,0.3-0.3,0.3h-1c-0.1,0-0.3-0.1-0.3-0.3l0,0c0-0.1,0.1-0.3,0.3-0.3h1
		C90.9,18.8,91,18.9,91,19.1L91,19.1z"/>
</g>
<text transform="matrix(0.9975 0 0 1 76.8355 16.002)" class="st6 st7">      </text>
<path class="st8" d="M91.5,14.1c-1.7,0.6-3.7-0.3-4.3-2c-0.5-1.3-0.2-2.8,0.8-3.7c0.2-0.2,0.4-0.2,0.5,0c0.2,0.2,0.2,0.4,0,0.6
	c-0.7,0.7-1,1.8-0.6,2.9c0.5,1.4,2,2,3.4,1.6c1.4-0.5,2-2,1.6-3.4c-0.4-1-1.3-1.7-2.3-1.7c-0.3,0-0.4-0.2-0.4-0.4
	c0-0.3,0.2-0.4,0.4-0.4c1.4,0.1,2.6,0.9,3,2.2C94.2,11.5,93.3,13.4,91.5,14.1z"/>
<path class="st9" d="M90.3,10.6c-0.3,0.1-0.4,0-0.5-0.3l-1.2-3.2c-0.1-0.3,0-0.4,0.3-0.5c0.3-0.1,0.4,0,0.5,0.3l1.1,3.2
	C90.5,10.3,90.4,10.6,90.3,10.6z"/>
<path class="st10" d="M89.7,10.4c-0.3,0.1-0.4,0-0.5-0.3L88,6.9c-0.1-0.3,0-0.4,0.3-0.5s0.4,0,0.5,0.3L90,9.9
	C90.1,10,90,10.3,89.7,10.4z"/>
<path class="st11" d="M90.3,7.4c-0.3,0-0.4,0.2-0.4,0.4c0,0.3,0.2,0.4,0.4,0.4c1,0,1.9,0.7,2.3,1.7c0.5,1.4-0.2,2.9-1.6,3.4
	s-2.8-0.2-3.4-1.6c-0.4-1-0.2-2.1,0.6-2.9c0.2-0.2,0.2-0.4,0-0.6s-0.4-0.2-0.5,0c-1,1-1.3,2.3-0.8,3.7c0.6,1.7,2.6,2.7,4.3,2
	c1.7-0.6,2.7-2.6,2-4.3C92.7,8.3,91.6,7.5,90.3,7.4z"/>
<path class="st12" d="M90,10.5c0.3-0.1,0.3-0.3,0.3-0.5L89,6.7c-0.1-0.3-0.3-0.3-0.5-0.3c-0.3,0.1-0.3,0.3-0.3,0.5l1.2,3.2
	C89.6,10.5,89.7,10.6,90,10.5z"/>
<text transform="matrix(0.9975 0 0 1 88.1969 15.7842)" class="st13 st14">JMRC</text>
<text transform="matrix(0.9975 0 0 1 87.2682 16.9796)" class="st15 st16">INFORMÁTICA</text>
<path class="st8" d="M80,15.2c-1.2,0.4-2.5-0.2-2.9-1.3c-0.3-0.9-0.1-1.8,0.5-2.4c0.1-0.1,0.3-0.1,0.4,0c0.1,0.1,0.1,0.3,0,0.4
	c-0.5,0.5-0.6,1.2-0.4,1.8c0.3,0.9,1.4,1.4,2.3,1c0.9-0.3,1.4-1.4,1-2.3c-0.3-0.6-0.9-1.1-1.6-1.1c-0.2,0-0.3-0.2-0.3-0.3
	c0-0.2,0.2-0.2,0.3-0.2c0.9,0,1.7,0.6,2,1.5C81.7,13.5,81.1,14.8,80,15.2z"/>
<path class="st9" d="M79.1,12.9c-0.2,0.1-0.3,0-0.3-0.2L78,10.6c-0.1-0.2,0-0.3,0.2-0.3c0.2-0.1,0.3,0,0.3,0.2l0.8,2.2
	C79.3,12.7,79.2,12.9,79.1,12.9z"/>
<path class="st10" d="M78.8,12.7c-0.2,0.1-0.3,0-0.3-0.2l-0.8-2.2c-0.1-0.2,0-0.3,0.2-0.3c0.2-0.1,0.3,0,0.3,0.2l0.8,2.2
	C79.1,12.6,79,12.7,78.8,12.7z"/>
<path class="st11" d="M79.1,10.8c-0.2,0-0.3,0.1-0.3,0.3s0.1,0.3,0.3,0.3c0.7,0,1.3,0.5,1.6,1.1c0.3,0.9-0.1,1.8-1,2.3
	c-0.9,0.3-1.8-0.1-2.3-1c-0.3-0.6-0.1-1.4,0.4-1.8c0.1-0.1,0.1-0.3,0-0.4s-0.3-0.1-0.4,0c-0.6,0.6-0.9,1.7-0.5,2.4
	c0.4,1.1,1.7,1.7,2.9,1.3c1.2-0.4,1.7-1.7,1.3-2.9C80.8,11.3,80,10.8,79.1,10.8z"/>
<path class="st12" d="M79,12.8c0.2-0.1,0.3-0.3,0.2-0.3l-0.8-2.2c-0.2-0.2-0.3-0.3-0.3-0.2c-0.2,0.1-0.3,0.3-0.2,0.3l0.8,2.2
	C78.6,12.8,78.8,12.9,79,12.8z"/>
</svg>
