<?xml version="1.0" encoding="utf-8"?>
<!-- Generator: Adobe Illustrator 21.0.2, SVG Export Plug-In . SVG Version: 6.00 Build 0)  -->
<svg version="1.1" id="Camada_1" xmlns="http://www.w3.org/2000/svg" xmlns:xlink="http://www.w3.org/1999/xlink" x="0px" y="0px"
	 viewBox="0 0 107.8 27.3" style="enable-background:new 0 0 107.8 27.3;" xml:space="preserve">
<style type="text/css">
	.st0{fill:url(#SVGID_1_);}
	.st1{fill:url(#SVGID_2_);}
	.st2{fill:url(#SVGID_3_);}
	.st3{fill:url(#SVGID_4_);}
	.st4{fill:url(#SVGID_5_);}
	.st5{opacity:0.51;fill:#231F20;enable-background:new    ;}
	.st6{opacity:0.5;fill:#231F20;enable-background:new    ;}
	.st7{fill:#FFFFFF;}
	.st8{fill:#003D72;}
	.st9{fill:#FF7406;}
	.st10{font-family:'Stencil';}
	.st11{font-size:1.1985px;}
	.st12{font-family:'Sylfaen';}
	.st13{font-size:0.7884px;}
	.st14{fill:#B2B2B2;}
	.st15{fill:#C6C6C6;}
	.st16{fill:#475665;}
</style>
<g id="Camada_2">
	
		<radialGradient id="SVGID_1_" cx="-3088.2505" cy="-14506.752" r="4.8604" fx="-3086.8486" fy="-14506.7568" gradientTransform="matrix(3.1829 0 0 -0.2042 9856.5146 -2943.27)" gradientUnits="userSpaceOnUse">
		<stop  offset="0" style="stop-color:#C0C0C0"/>
		<stop  offset="0.5811" style="stop-color:#E2E2E2;stop-opacity:0"/>
		<stop  offset="0.8111" style="stop-color:#F6F6F6;stop-opacity:0"/>
	</radialGradient>
	<ellipse class="st0" cx="26.9" cy="19.2" rx="15.5" ry="1"/>
</g>
<g id="Camada_1_1_">
	<g>
		
			<linearGradient id="SVGID_2_" gradientUnits="userSpaceOnUse" x1="28.5713" y1="-2092.751" x2="28.5713" y2="-2095.8945" gradientTransform="matrix(1 0 0 -1 0 -2075.5386)">
			<stop  offset="0" style="stop-color:#E3E4E6"/>
			<stop  offset="5.773287e-02" style="stop-color:#DFE0E2"/>
			<stop  offset="0.1112" style="stop-color:#D5D6D7"/>
			<stop  offset="0.1629" style="stop-color:#C3C3C4"/>
			<stop  offset="0.2133" style="stop-color:#AAAAAA"/>
			<stop  offset="0.2312" style="stop-color:#9F9F9F"/>
			<stop  offset="0.6559" style="stop-color:#E9E9E9"/>
			<stop  offset="0.7794" style="stop-color:#F2F2F2"/>
			<stop  offset="1" style="stop-color:#FFFFFF"/>
		</linearGradient>
		<path class="st1" d="M31.3,19c-0.4-0.4-0.5-0.8-0.5-1.3v-0.5h-4.4v0.5c0,0.5-0.3,1.2-0.5,1.3l-0.5,0.5h6.6L31.3,19z"/>
		
			<linearGradient id="SVGID_3_" gradientUnits="userSpaceOnUse" x1="17.7704" y1="-2093.6453" x2="33.8778" y2="-2082.3279" gradientTransform="matrix(1 0 0 -1 0 -2075.5386)">
			<stop  offset="0" style="stop-color:#494949"/>
			<stop  offset="6.151398e-02" style="stop-color:#454545"/>
			<stop  offset="0.1185" style="stop-color:#3A3A3A"/>
			<stop  offset="0.1736" style="stop-color:#272727"/>
			<stop  offset="0.2273" style="stop-color:#0D0D0D"/>
			<stop  offset="0.2312" style="stop-color:#0B0B0B"/>
			<stop  offset="0.3281" style="stop-color:#151515"/>
			<stop  offset="1" style="stop-color:#585858"/>
		</linearGradient>
		<path class="st2" d="M38,16.3V5c0-0.3-0.2-0.4-0.4-0.4h-18c-0.3,0-0.4,0.2-0.4,0.4v11.3H38L38,16.3z"/>
		
			<linearGradient id="SVGID_4_" gradientUnits="userSpaceOnUse" x1="16.949" y1="-2098.3359" x2="39.9811" y2="-2085.3862" gradientTransform="matrix(1 0 0 -1 0 -2075.5386)">
			<stop  offset="2.688200e-02" style="stop-color:#B6B6B6"/>
			<stop  offset="0.8871" style="stop-color:#FFFFFF"/>
		</linearGradient>
		<path class="st3" d="M19.1,15.3V17c0,0.3,0.2,0.4,0.4,0.4h18.1c0.3,0,0.4-0.2,0.4-0.4v-1.6H19.1z"/>
		
			<linearGradient id="SVGID_5_" gradientUnits="userSpaceOnUse" x1="20.5868" y1="-2090.9019" x2="43.214" y2="-2075.9973" gradientTransform="matrix(1 0 0 -1 0 -2075.5386)">
			<stop  offset="2.688200e-02" style="stop-color:#E6E6E7"/>
			<stop  offset="0.8871" style="stop-color:#FFFFFF"/>
		</linearGradient>
		<rect x="19.7" y="5.4" class="st4" width="17.7" height="9.4"/>
	</g>
	<path class="st5" d="M29.5,11.8c-1.3,0.5-2.9-0.3-3.3-1.4c-0.4-1-0.2-2.1,0.6-2.8c0.2-0.2,0.4-0.2,0.4,0c0.2,0.2,0.2,0.4,0,0.4
		c-0.5,0.5-0.8,1.4-0.4,2.2c0.4,1,1.4,1.4,2.7,1.2c1-0.4,1.4-1.4,1.2-2.6c-0.4-0.7-1-1.3-1.9-1.3c-0.3,0-0.4-0.2-0.4-0.4
		c0-0.4,0.2-0.4,0.4-0.4c1.1,0.1,2.1,0.6,2.4,1.6C31.6,9.9,30.8,11.4,29.5,11.8z"/>
	<path class="st6" d="M28.5,9.1c-0.2,0.1-0.4,0-0.4-0.3l-0.9-2.4C27,6.2,27.1,6,27.4,6c0.2-0.1,0.4,0,0.4,0.3l0.9,2.4
		C28.8,8.9,28.8,9,28.5,9.1z"/>
	<path class="st7" d="M28.1,9c-0.2,0.1-0.4,0-0.4-0.3l-0.9-2.3C26.6,6.2,26.7,6,27,6c0.2-0.1,0.4,0,0.4,0.3l0.8,2.4
		C28.3,8.7,28.2,8.9,28.1,9z"/>
	<path class="st8" d="M28.5,6.7c-0.3,0-0.4,0.2-0.4,0.3c0,0.3,0.2,0.4,0.4,0.4c0.8,0,1.4,0.5,1.9,1.3c0.4,0.9-0.2,2.2-1.2,2.5
		c-1,0.4-2.4-0.2-2.7-1.2c-0.4-0.7-0.1-1.5,0.4-2.2c0.2-0.2,0.2-0.4,0-0.4c-0.2-0.1-0.4-0.2-0.4,0c-0.7,0.7-1,1.8-0.6,2.8
		c0.5,1.3,2.1,2,3.3,1.4c1.3-0.5,2.1-2,1.4-3.3C30.5,7.4,29.5,6.8,28.5,6.7z"/>
	<path class="st9" d="M28.3,9c0.2-0.1,0.3-0.3,0.3-0.4l-1-2.4C27.4,6.1,27.2,6,27.1,6c-0.2,0.1-0.3,0.3-0.3,0.4l1,2.4
		C28,9,28.1,9.1,28.3,9z"/>
	<text transform="matrix(1.0232 0 0 1 26.9323 13.1135)" class="st10 st11">JMRC</text>
	<text transform="matrix(1.0232 0 0 1 26.2087 14.0208)" class="st12 st13">INFORMÁTICA</text>
	<g id="XMLID_219_">
		<path id="XMLID_285_" class="st14" d="M36.4,24.2c0,0.5-0.4,0.7-0.8,0.7H20.1c-0.4,0-0.8-0.4-0.8-0.7v-3.3c0-0.4,0.4-0.7,0.8-0.7
			h15.5c0.4,0,0.8,0.4,0.8,0.7V24.2L36.4,24.2z"/>
		<g id="XMLID_220_">
			<g id="XMLID_281_">
				<rect id="XMLID_284_" x="24.1" y="23.9" class="st7" width="7.3" height="0.7"/>
				<rect id="XMLID_283_" x="19.9" y="23.9" class="st7" width="3.8" height="0.7"/>
				<rect id="XMLID_282_" x="32" y="23.9" class="st7" width="3.8" height="0.7"/>
			</g>
			<g id="XMLID_267_">
				<rect id="XMLID_280_" x="20.1" y="20.6" class="st7" width="0.9" height="0.5"/>
				<rect id="XMLID_279_" x="21.4" y="20.6" class="st7" width="0.9" height="0.5"/>
				<rect id="XMLID_278_" x="22.6" y="20.6" class="st7" width="0.9" height="0.5"/>
				<rect id="XMLID_277_" x="23.7" y="20.6" class="st7" width="0.9" height="0.5"/>
				<rect id="XMLID_276_" x="25.1" y="20.6" class="st7" width="0.9" height="0.5"/>
				<rect id="XMLID_275_" x="26.3" y="20.6" class="st7" width="0.9" height="0.5"/>
				<rect id="XMLID_274_" x="27.3" y="20.6" class="st7" width="0.9" height="0.5"/>
				<rect id="XMLID_273_" x="28.8" y="20.6" class="st7" width="0.9" height="0.5"/>
				<rect id="XMLID_272_" x="29.8" y="20.6" class="st7" width="0.9" height="0.5"/>
				<rect id="XMLID_271_" x="31" y="20.6" class="st7" width="0.9" height="0.5"/>
				<rect id="XMLID_270_" x="32.4" y="20.6" class="st7" width="0.9" height="0.5"/>
				<rect id="XMLID_269_" x="33.4" y="20.6" class="st7" width="0.9" height="0.5"/>
				<rect id="XMLID_268_" x="34.8" y="20.6" class="st7" width="0.9" height="0.5"/>
			</g>
			<g id="XMLID_221_">
				<rect id="XMLID_266_" x="19.8" y="21.4" class="st7" width="0.7" height="0.5"/>
				<rect id="XMLID_265_" x="20.9" y="21.4" class="st7" width="0.7" height="0.5"/>
				<rect id="XMLID_264_" x="22" y="21.4" class="st7" width="0.7" height="0.5"/>
				<rect id="XMLID_263_" x="23.2" y="21.4" class="st7" width="0.7" height="0.5"/>
				<rect id="XMLID_262_" x="24.2" y="21.4" class="st7" width="0.7" height="0.5"/>
				<rect id="XMLID_261_" x="25.3" y="21.4" class="st7" width="0.7" height="0.5"/>
				<rect id="XMLID_260_" x="26.3" y="21.4" class="st7" width="0.8" height="0.5"/>
				<rect id="XMLID_259_" x="27.4" y="21.4" class="st7" width="0.7" height="0.5"/>
				<rect id="XMLID_258_" x="28.6" y="21.4" class="st7" width="0.7" height="0.5"/>
				<rect id="XMLID_257_" x="29.6" y="21.4" class="st7" width="0.8" height="0.5"/>
				<rect id="XMLID_256_" x="30.6" y="21.4" class="st7" width="0.7" height="0.5"/>
				<rect id="XMLID_255_" x="31.8" y="21.4" class="st7" width="0.7" height="0.5"/>
				<rect id="XMLID_254_" x="19.8" y="22.1" class="st7" width="1.5" height="0.5"/>
				<rect id="XMLID_253_" x="20.9" y="22.1" class="st7" width="0.7" height="0.5"/>
				<rect id="XMLID_252_" x="22" y="22.1" class="st7" width="0.7" height="0.5"/>
				<rect id="XMLID_251_" x="23.2" y="22.1" class="st7" width="0.7" height="0.5"/>
				<rect id="XMLID_250_" x="24.2" y="22.1" class="st7" width="0.7" height="0.5"/>
				<rect id="XMLID_249_" x="25.3" y="22.1" class="st7" width="0.7" height="0.5"/>
				<rect id="XMLID_248_" x="26.3" y="22.1" class="st7" width="0.8" height="0.5"/>
				<rect id="XMLID_247_" x="27.4" y="22.1" class="st7" width="0.7" height="0.5"/>
				<rect id="XMLID_246_" x="28.6" y="22.1" class="st7" width="0.7" height="0.5"/>
				<rect id="XMLID_245_" x="29.6" y="22.1" class="st7" width="0.8" height="0.5"/>
				<rect id="XMLID_244_" x="30.6" y="22.1" class="st7" width="0.7" height="0.5"/>
				<rect id="XMLID_243_" x="31.8" y="22.1" class="st7" width="0.7" height="0.5"/>
				<rect id="XMLID_242_" x="19.8" y="22.9" class="st7" width="0.7" height="0.5"/>
				<rect id="XMLID_241_" x="20.9" y="22.9" class="st7" width="0.7" height="0.5"/>
				<rect id="XMLID_240_" x="22" y="22.9" class="st7" width="0.7" height="0.5"/>
				<rect id="XMLID_239_" x="23.2" y="22.9" class="st7" width="0.7" height="0.5"/>
				<rect id="XMLID_238_" x="24.2" y="22.9" class="st7" width="0.7" height="0.5"/>
				<rect id="XMLID_237_" x="25.3" y="22.9" class="st7" width="0.7" height="0.5"/>
				<rect id="XMLID_236_" x="26.3" y="22.9" class="st7" width="0.8" height="0.5"/>
				<rect id="XMLID_235_" x="27.4" y="22.9" class="st7" width="0.7" height="0.5"/>
				<rect id="XMLID_234_" x="28.6" y="22.9" class="st7" width="0.7" height="0.5"/>
				<rect id="XMLID_233_" x="29.6" y="22.9" class="st7" width="0.8" height="0.5"/>
				<rect id="XMLID_232_" x="30.6" y="22.9" class="st7" width="0.7" height="0.5"/>
				<rect id="XMLID_231_" x="31.8" y="22.9" class="st7" width="0.7" height="0.5"/>
				<rect id="XMLID_230_" x="32.9" y="21.4" class="st7" width="0.7" height="0.5"/>
				<rect id="XMLID_229_" x="33.9" y="21.4" class="st7" width="0.7" height="0.5"/>
				<polygon id="XMLID_228_" class="st7" points="35.8,22 34.4,22 34,21.4 35.8,21.4 				"/>
				<rect id="XMLID_227_" x="32.9" y="22.1" class="st7" width="0.7" height="0.5"/>
				<rect id="XMLID_226_" x="33.9" y="22.1" class="st7" width="0.7" height="0.5"/>
				<rect id="XMLID_225_" x="35" y="22.1" class="st7" width="0.7" height="1"/>
				<rect id="XMLID_224_" x="32.9" y="22.9" class="st7" width="0.7" height="0.5"/>
				<rect id="XMLID_223_" x="33.4" y="22.9" class="st7" width="1.4" height="0.5"/>
				<rect id="XMLID_222_" x="35" y="22.9" class="st7" width="0.7" height="0.5"/>
			</g>
		</g>
	</g>
	<g id="XMLID_286_">
		<path id="XMLID_289_" class="st15" d="M37.3,21.8c0-0.4,0.4-0.6,0.6-0.6h1.1c0.4,0,0.6,0.4,0.6,0.6v2.4c0,0.4-0.4,0.6-0.6,0.6H38
			c-0.4,0-0.6-0.4-0.6-0.6C37.3,24.2,37.3,21.8,37.3,21.8z"/>
		<g id="XMLID_287_">
			<path id="XMLID_288_" class="st16" d="M38.6,21.9c-0.4,0-0.4,0.6,0,0.6C39,22.6,39.1,21.9,38.6,21.9L38.6,21.9z"/>
		</g>
	</g>
</g>
</svg>
